<svg xmlns="http://www.w3.org/2000/svg" viewBox="0 0 500 500"><g id="freepik--Clock--inject-15"><circle cx="250" cy="165.69" r="124.41" transform="translate(-36.31 76.35) rotate(-16.2)" style="fill:#7165E3"></circle><circle cx="255.7" cy="168.46" r="118.71" transform="translate(-44.23 230.15) rotate(-45)" style="opacity:0.1"></circle><circle cx="255.7" cy="168.46" r="111.22" transform="translate(-37.86 81.39) rotate(-16.86)" style="fill:#fff"></circle><path d="M364.39,144.85c-50.64,30.69-133.88,81-180.4,108.62a111.29,111.29,0,0,1-30.39-40.86L307.47,70A111.31,111.31,0,0,1,364.39,144.85Z" style="fill:#ebebeb;opacity:0.5"></path><path d="M366.84,172.34a110.33,110.33,0,0,1-7.36,36.14l-138.71,65.6a109.21,109.21,0,0,1-17.51-7.53C245.16,242.34,321.72,198.29,366.84,172.34Z" style="fill:#ebebeb;opacity:0.5"></path><rect x="254.62" y="65.31" width="2.15" height="16.86" style="fill:#dbdbdb"></rect><rect x="207.27" y="78" width="2.15" height="16.86" transform="translate(-15.31 115.74) rotate(-30)" style="fill:#dbdbdb"></rect><rect x="172.6" y="112.67" width="2.15" height="16.86" transform="translate(-18.05 210.94) rotate(-60)" style="fill:#dbdbdb"></rect><rect x="152.56" y="167.38" width="16.86" height="2.15" style="fill:#dbdbdb"></rect><rect x="165.24" y="214.74" width="16.86" height="2.15" transform="translate(-84.65 115.78) rotate(-30.01)" style="fill:#dbdbdb"></rect><rect x="199.91" y="249.41" width="16.86" height="2.15" transform="translate(-112.71 305.91) rotate(-60.04)" style="fill:#dbdbdb"></rect><rect x="254.62" y="254.75" width="2.15" height="16.86" style="fill:#dbdbdb"></rect><rect x="301.98" y="242.06" width="2.15" height="16.86" transform="translate(-84.64 185.09) rotate(-30)" style="fill:#dbdbdb"></rect><rect x="336.65" y="207.39" width="2.15" height="16.86" transform="translate(-18.06 400.35) rotate(-59.99)" style="fill:#dbdbdb"></rect><rect x="341.99" y="167.38" width="16.86" height="2.15" style="fill:#dbdbdb"></rect><rect x="329.3" y="120.03" width="16.86" height="2.15" transform="translate(-15.29 185.18) rotate(-30.02)" style="fill:#dbdbdb"></rect><rect x="294.63" y="85.36" width="16.86" height="2.15" transform="translate(76.79 305.78) rotate(-60.03)" style="fill:#dbdbdb"></rect><path d="M325.68,137.59c-.64,0-4.56-4.44-4.56-4.44s-61.73,40.94-62.27,41.19c-.29.15-5.67-.83-6.34-1.93s.62-6.16,1.3-7.09c.39-.55,65.63-35.13,65.63-35.13s-2.11-5.16-1.83-5.82,23.76-12.26,24.54-12.49,1.05.42.49.85-19.58,11.39-19.83,11.61a3.55,3.55,0,0,0,.58,1.52c.15,0,19.64-10.94,20.47-11.22s.95.44.48.81-19.6,12.66-19.63,12.77a7,7,0,0,0,.8,1.39c1-.61,19.5-11.75,20.15-12.06s1,.42.53.77S328.86,130.25,327,131.59a4.23,4.23,0,0,0,1,1c.18-.05,18.68-11.82,19.49-12.19.57-.26,1,.35.48.74C347.67,121.26,326.32,137.62,325.68,137.59Z" style="fill:#c7c7c7"></path><path d="M262.81,171.76c-2.42,1.59-3.88,2.55-4,2.59-.29.14-5.67-.84-6.34-1.94s.62-6.17,1.3-7.09c.09-.13,3.23-1.85,8.1-4.48C262.15,163.51,262.64,169,262.81,171.76Z" style="fill:#a6a6a6"></path><path d="M250.65,171.79c.36.89,4.31,4.3,5.57,4.27s4.39-3.56,4.88-4.49c.22-.44-3.24-42.53-3.24-42.53a16.86,16.86,0,0,0,4.95-7.41c.65-2-3.05-47-5.22-54.23-.54-1.8-3.8-1.58-4.17.08-.68,3.1-1.5,32.57-1.58,60.47,0,.71.65,2,.62,2.68C251.61,152.36,250.51,171.47,250.65,171.79Z" style="fill:#c7c7c7"></path></g><g id="freepik--character-2--inject-15"><polygon points="348.95 335.44 346.28 351.42 328.23 458.89 325.32 458.89 338.45 351.42 340.39 335.44 348.95 335.44" style="fill:#dbdbdb"></polygon><polygon points="340.39 335.44 348.95 335.44 346.28 351.42 338.45 351.42 340.39 335.44" style="fill:#a6a6a6"></polygon><polygon points="405.62 458.89 402.71 458.89 384.67 351.42 382 335.44 390.56 335.44 392.5 351.42 405.62 458.89" style="fill:#dbdbdb"></polygon><polygon points="390.56 335.44 392.5 351.42 384.67 351.42 382 335.44 390.56 335.44" style="fill:#a6a6a6"></polygon><polygon points="459.76 458.89 456.85 458.89 438.8 351.42 436.14 335.44 444.69 335.44 446.63 351.42 459.76 458.89" style="fill:#dbdbdb"></polygon><polygon points="446.63 351.42 438.8 351.42 436.14 335.44 444.69 335.44 446.63 351.42" style="fill:#a6a6a6"></polygon><polygon points="455.14 342.95 322.89 342.95 322.89 329.01 372.4 329.01 389.04 242.21 450.1 242.21 455.14 342.95" style="fill:#dbdbdb"></polygon><polygon points="455.14 342.95 447.94 342.95 443.24 242.21 450.1 242.21 455.14 342.95" style="fill:#c7c7c7"></polygon><path d="M336.08,457.16c2.36.3,67.14-13.11,69.22-15.14.26-.22-.83-6.1-2.45-14.13l0-.16c-1-5.09-18.54-46.52-18.54-46.52l-42,10.38,17.81,38.49s-8,5.43-14.9,10.61l0,0a94.14,94.14,0,0,0-8.71,7C334.39,450.14,333.73,456.89,336.08,457.16Z" style="fill:#d3766a"></path><path d="M336.08,457.16c2.35.3,67.13-13.11,69.23-15.13.25-.23-.84-6.11-2.46-14.14l0-.16c-.37-1.89-3.06-8.85-6.26-16.82-6.91,1.64-31.71,7.55-40.72,10l4.22,9.12s-8,5.44-14.91,10.61v0a94.14,94.14,0,0,0-8.71,7C334.39,450.15,333.72,456.89,336.08,457.16Z" style="fill:#ebebeb"></path><path d="M335.86,457.46c2.42.29,67.25-13.3,69.4-15.38.82-.78-.31-11-3.51-21.85L360,429s-21.68,16.14-23.79,18.68S333.44,457.18,335.86,457.46Z" style="fill:#7165E3"></path><path d="M336.25,454.68c10.81-2.55,54.65-11.79,65.54-13.48.08,0,.1,0,0,.07-10.66,2.75-54.58,11.64-65.52,13.58C336.05,454.89,336,454.73,336.25,454.68Z" style="fill:#263238"></path><path d="M356.78,430.84c4.34-1,9.71-.49,13.15,2.5.14.12,0,.3-.17.26a61.58,61.58,0,0,0-12.94-2.21A.28.28,0,0,1,356.78,430.84Z" style="fill:#263238"></path><path d="M353.7,432.85c4.34-1,9.7-.49,13.15,2.5.13.12,0,.31-.18.27a60.85,60.85,0,0,0-12.93-2.21A.28.28,0,0,1,353.7,432.85Z" style="fill:#263238"></path><path d="M350.62,434.87c4.33-1,9.7-.5,13.15,2.5.13.11,0,.3-.18.26a61.58,61.58,0,0,0-12.94-2.21A.28.28,0,0,1,350.62,434.87Z" style="fill:#263238"></path><path d="M347.53,436.88c4.34-1,9.71-.49,13.15,2.5.14.11,0,.3-.17.26a61.58,61.58,0,0,0-12.94-2.21A.28.28,0,0,1,347.53,436.88Z" style="fill:#263238"></path><path d="M350.53,454.85c-8.08,1.62-14,2.69-14.67,2.61-2.43-.28-1.79-7.21.31-9.74a84.7,84.7,0,0,1,7.76-6.49Z" style="opacity:0.1"></path><path d="M358.39,431.11,403,420.58s-38.37-87.93-35.1-92.27c1.64-2.17,43.18-2.81,56.4-14,17.16-14.57,5.64-36.81,5.64-36.81l-46.39-1.38s.56,9.7-1.25,11.16c-1.2,1-56.48,5.63-62.55,24.29C312.31,334.43,358.39,431.11,358.39,431.11Z" style="fill:#37474f"></path><path d="M358.4,424.2c1.17-.55,12.73-3.94,15.32-4.61,5.22-1.34,10.45-2.65,15.71-3.85,2.74-.62,8.61-2,9-1.92.18,0,.21.32.05.37-5.09,1.68-10.25,3.11-15.42,4.54s-22.94,5.73-24.5,5.83C358.38,424.57,358.24,424.28,358.4,424.2Z" style="fill:#263238"></path><path d="M360,324.46c.94-.8,2.34-.89,3.51-1.09L383.57,320c6.26-1.05,12.56-2,18.8-3.19,5.17-1,10.42-2.35,14.89-5.15a21.6,21.6,0,0,0,9.12-12,38.58,38.58,0,0,0,1.18-15.31c-.12-1.25-.34-2.49-.58-3.72,0-.1.13-.13.15,0,1.7,9.52,1.85,20.56-5.28,28.15-3.47,3.69-8.24,5.87-13.11,7.27-5.5,1.59-11.24,2.34-16.87,3.28q-10,1.7-20.1,3.36c-3.22.54-6.5,1-9.69,1.63a3.28,3.28,0,0,0-1.75.77,2.51,2.51,0,0,0-.28,2.32c.32,1.58.75,3.15,1.2,4.69,3.66,12.49,31.78,78.69,32.5,80.06.08.14-.15.25-.23.11-6.14-11-27.47-63.57-31.53-75.39a75.39,75.39,0,0,1-2.63-9.2C359.13,326.57,359,325.3,360,324.46Z" style="fill:#263238"></path><path d="M269.71,460c2.25.76,68.4.51,70.85-1.06.3-.17.4-6.15.41-14.34v-.16c0-5.19,1.62-49.52,1.62-49.52l-41.41-.34-2.58,43.65s-8.93,3.73-16.71,7.43c0,0,0,0,0,0a90.85,90.85,0,0,0-9.93,5.11C269.45,452.76,267.46,459.24,269.71,460Z" style="fill:#d3766a"></path><path d="M269.71,460c2.25.75,68.4.51,70.85-1.06.3-.16.4-6.15.41-14.33v-.17c0-.36,0-.73,0-1.09a7.06,7.06,0,0,1,0-.8c0-.39,0-.79,0-1.18.08-3.45.26-9.05.46-15.18l-42.17-.27-.73,12.31s-8.93,3.73-16.72,7.43l0,0a94,94,0,0,0-9.92,5.1C269.45,452.76,267.46,459.24,269.71,460Z" style="fill:#ebebeb"></path><path d="M269.44,460.23c2.31.76,68.55.35,71.07-1.26.95-.61,1.88-10.82.91-22.11l-42.7.31s-24.47,11.5-27,13.57S267.12,459.47,269.44,460.23Z" style="fill:#7165E3"></path><path d="M270.37,457.57c11.1-.34,55.91-.66,66.91-.16.09,0,.09.07,0,.07-11,.58-55.81.54-66.91.27C270.14,457.75,270.13,457.58,270.37,457.57Z" style="fill:#263238"></path><path d="M295.24,438.31c4.44-.09,9.61,1.44,12.39,5.06.11.14-.09.29-.23.23a61.37,61.37,0,0,0-12.23-4.75A.27.27,0,0,1,295.24,438.31Z" style="fill:#263238"></path><path d="M291.82,439.66c4.44-.09,9.6,1.45,12.39,5.07.11.14-.1.29-.23.22a62,62,0,0,0-12.24-4.74A.28.28,0,0,1,291.82,439.66Z" style="fill:#263238"></path><path d="M288.4,441c4.44-.09,9.6,1.45,12.38,5.07.11.14-.09.29-.22.22a62,62,0,0,0-12.24-4.74A.28.28,0,0,1,288.4,441Z" style="fill:#263238"></path><path d="M285,442.38c4.45-.09,9.61,1.45,12.39,5.07.11.14-.09.29-.22.22a60.82,60.82,0,0,0-12.24-4.74A.28.28,0,0,1,285,442.38Z" style="fill:#263238"></path><path d="M296.3,438.84l46.7,0s-.6-86.5,3.06-91.18c4.88-6.23,73.15-6.09,87.8-26.44C447,303,435.91,277.1,435.91,277.1l-51.7-1.54A106.3,106.3,0,0,0,389,291.84s-62.28,11.5-79.73,30.6C297.5,335.34,296.3,438.84,296.3,438.84Z" style="fill:#37474f"></path><path d="M379.91,288.3a24.56,24.56,0,0,1,4.38,1.41c1.48.56,2.94,1.21,4.37,1.9a87.68,87.68,0,0,1,8.18,4.63c.08.05,0,.17-.08.12-2.8-1.45-5.69-2.76-8.58-4-1.39-.6-2.79-1.19-4.18-1.8a42.87,42.87,0,0,1-4.22-1.86C379.6,288.59,379.7,288.26,379.91,288.3Z" style="fill:#263238"></path><path d="M383,275.54c.6,2.36,1.11,4.74,1.79,7.08.31,1.07.61,2.16,1,3.2.34.88.86,1.88,1.88,2.08,1.17.23,1.5-.78,1.41-1.74a32.2,32.2,0,0,0-.6-3.23c-.24-1.23-.49-2.45-.71-3.68-.11-.61-.23-1.23-.34-1.85,0-.15-.14-1.33-.22-1.67,0,0,0,.06-.07,0h0a.11.11,0,0,1-.07-.06.16.16,0,0,1,.06-.18.09.09,0,0,1,.11,0c.22.13.24.43.31.66.19.6.39,1.19.56,1.8q.5,1.68.93,3.39c.29,1.13.57,2.27.85,3.41a5.32,5.32,0,0,1,.22,2.62,2,2,0,0,1-1.85,1.51,2.53,2.53,0,0,1,.12.23c.11.23.18.48.27.72s.17.49.24.74a1.53,1.53,0,0,1,.07.36c0,.14,0,.27,0,.41a.2.2,0,0,1-.37.13c-.06-.12-.15-.21-.22-.33a2.71,2.71,0,0,1-.17-.39c-.08-.24-.15-.47-.21-.72s-.13-.47-.18-.72,0-.29,0-.43a2.65,2.65,0,0,1-1.36-.52,4.51,4.51,0,0,1-1.41-2.16c-.36-1-.63-2-.91-3a44.93,44.93,0,0,1-1.5-7.61A.21.21,0,0,1,383,275.54Z" style="fill:#263238"></path><path d="M413.75,281.32c.21,1.17.35,2.35.62,3.51a33.26,33.26,0,0,0,.95,3.38,11.74,11.74,0,0,0,1.43,3,11.54,11.54,0,0,0,2.3,2.33,19.58,19.58,0,0,0,5.54,3.09,24.75,24.75,0,0,0,3.08.9c.54.12,1.09.22,1.64.29a3.55,3.55,0,0,1,1.33.31.26.26,0,0,1,0,.46,4.94,4.94,0,0,1-2.45.08,18,18,0,0,1-2.62-.47,19.05,19.05,0,0,1-5-2.08,15.7,15.7,0,0,1-4.13-3.39,11.74,11.74,0,0,1-2.22-4.85,24.36,24.36,0,0,1-.72-6.59A.12.12,0,0,1,413.75,281.32Z" style="fill:#263238"></path><path d="M336.28,378.2q.69-11,1.83-22c.18-1.81.36-3.61.59-5.41a16.52,16.52,0,0,1,.91-4.11c1.07-2.76,3.36-4.14,6.13-4.84,3.26-.83,6.64-1.32,10-1.86s6.8-1.05,10.21-1.52c6.9-1,13.82-1.85,20.69-3a163.63,163.63,0,0,0,20.3-4.57c6.11-1.85,12.37-4.13,17.26-8.36,10.52-9.12,10.91-24.41,9.62-37.2-.18-1.8-.4-3.61-.62-5.41,0-.09.13-.12.15,0,.83,7.2,1.8,14.45,1.08,21.7a35.37,35.37,0,0,1-5.75,16.81c-3.56,5.11-8.84,8.42-14.53,10.72a114.35,114.35,0,0,1-19.37,5.58c-13.65,2.86-27.56,4.07-41.3,6.42q-2.54.44-5.07.93a20.71,20.71,0,0,0-4.57,1.22c-3.12,1.4-4,4.43-4.36,7.57-.9,7.28-1.51,14.61-2,21.93-1.07,14.75-1.63,29.58-1.6,44.37,0,1.83,0,10.09,0,11.92,0,.16-.25.15-.25,0C335.15,414.23,335.35,393,336.28,378.2Z" style="fill:#263238"></path><path d="M298.48,431.92a28,28,0,0,1,3.88-.33c1.35-.07,2.71-.15,4.07-.21,2.68-.1,5.36-.17,8-.18,5.39,0,10.79,0,16.18.11,2.81.07,8.83.18,9.17.33.16.07.12.36-.05.37-5.35.39-10.7.5-16.06.63s-10.7.24-16.05.11c-1.49,0-3-.12-4.45-.17a33.22,33.22,0,0,1-4.68-.28C298.37,432.27,298.3,432,298.48,431.92Z" style="fill:#263238"></path><path d="M343.13,396.78c-.15-6.71-.12-13.41,0-20.12s.38-13.41.88-20.12c.15-1.68.32-3.35.56-5,.13-.83.27-1.67.48-2.51a6.16,6.16,0,0,1,.46-1.3,2.75,2.75,0,0,1,1.1-1,21.71,21.71,0,0,1,4.83-1.74c1.64-.42,3.29-.76,4.94-1.07,6.62-1.21,13.28-2,20-2.58-3.32.49-6.64,1-9.94,1.53s-6.61,1.11-9.88,1.81c-1.63.35-3.26.72-4.87,1.15a20.91,20.91,0,0,0-4.59,1.68,1.84,1.84,0,0,0-.75.66,5.58,5.58,0,0,0-.37,1.07,24.18,24.18,0,0,0-.43,2.43c-.23,1.64-.38,3.31-.52,5-.58,6.66-.81,13.37-1.1,20.06Z" style="fill:#263238"></path><path d="M388.67,292a174,174,0,0,0-28.2,5.78,197.25,197.25,0,0,0-27.21,9.86c-4.95,2.22-9.74,4.71-14.49,7.32-.09.05,0,.19.09.14a221.3,221.3,0,0,1,26.47-11.56,214,214,0,0,1,27.56-8c5.26-1.14,10.57-2,15.88-2.92C389.13,292.54,389,291.94,388.67,292Z" style="fill:#263238"></path><path d="M397,220.77c-2.59,6.8-22.4,41.5-39.51,46.19-2.89.79-11.81,1.39-17.48-5.81-7.65-9.71-13.26-28.83-12.84-39.21.34-8.6,24-3.49,25.69,1.29,1.25,3.62,3.77,15.59,4.51,15.36,4.84-1.55,18.75-15,32.88-23.64C396.81,211,399,215.54,397,220.77Z" style="fill:#d3766a"></path><path d="M359.11,243.77a21.74,21.74,0,0,0-.54-2.22,24.31,24.31,0,0,0-1.74-4.07c0-.06-.13,0-.1.05.53,1.35.93,2.77,1.38,4.16.22.69.43,1.38.62,2.07s.44,1.42.6,2.14c0,0,.09,0,.08,0C359.32,245.18,359.25,244.48,359.11,243.77Z" style="fill:#263238"></path><path d="M327.16,223.54s-.24-11.21,3.35-18.88c2.49-5.3,9.18-16.23,26.58-17.88,4.12-.39,10.28,2,3.77,5.07-4.62,2.19-8.21,2.18-10.67,4,0,0,7.47,3.94,7.71,8.09a54.66,54.66,0,0,1,.16,9.82,4.32,4.32,0,0,1-2.37,1.21s.09,3.9-4,8.15Z" style="fill:#d3766a"></path><path d="M378.48,193.19a6.15,6.15,0,0,1,3.51,7.38c-.86,3.56-5.15,4.21-7.51,3.36s-4.91-3.82-4-7.16C371.36,193.87,374.25,191.68,378.48,193.19Z" style="fill:#7165E3"></path><path d="M378.48,193.19a6.15,6.15,0,0,1,3.51,7.38c-.86,3.56-5.15,4.21-7.51,3.36s-4.91-3.82-4-7.16C371.36,193.87,374.25,191.68,378.48,193.19Z" style="opacity:0.1"></path><path d="M378.07,194.16a5,5,0,0,1,2.87,6c-.7,2.91-4.21,3.44-6.13,2.75s-4-3.13-3.23-5.86C372.26,194.72,374.62,192.93,378.07,194.16Z" style="fill:#7165E3"></path><path d="M374.92,196.47c-.12.16-.76-.15-.52-.44S375.08,196.27,374.92,196.47Z" style="fill:#fff"></path><path d="M374.42,199.7c.13.16-.33.71-.55.4S374.27,199.51,374.42,199.7Z" style="fill:#fff"></path><path d="M372.89,198.89c0,.19-.67.4-.68,0S372.87,198.64,372.89,198.89Z" style="fill:#fff"></path><path d="M374.63,195.18c-.19,0-.4-.66,0-.68S374.88,195.16,374.63,195.18Z" style="fill:#fff"></path><path d="M378.57,196.75c-.1-.17.44-.64.61-.31S378.69,197,378.57,196.75Z" style="fill:#fff"></path><path d="M378.07,201c.12-.14.76.19.51.47S377.91,201.18,378.07,201Z" style="fill:#fff"></path><path d="M376.79,201.06c.18-.08.6.5.25.64S376.56,201.16,376.79,201.06Z" style="fill:#fff"></path><path d="M377.38,198c-.17-.1.06-.77.37-.57S377.59,198.13,377.38,198Z" style="fill:#fff"></path><path d="M381.23,197.53s-3.48.49-3.75,1.28,2.91,3.19,3.23,2.83S381.89,198.58,381.23,197.53Z" style="fill:#7165E3"></path><path d="M381.23,197.53s-3.48.49-3.75,1.28,2.91,3.19,3.23,2.83S381.89,198.58,381.23,197.53Z" style="opacity:0.1"></path><path d="M376.6,203.49s.16-3.51-.57-3.92-3.68,2.26-3.38,2.65S375.45,203.94,376.6,203.49Z" style="fill:#7165E3"></path><path d="M376.6,203.49s.16-3.51-.57-3.92-3.68,2.26-3.38,2.65S375.45,203.94,376.6,203.49Z" style="opacity:0.1"></path><path d="M370.76,198.6s3.51,0,3.88-.8-2.47-3.53-2.84-3.21S370.24,197.48,370.76,198.6Z" style="fill:#7165E3"></path><path d="M370.76,198.6s3.51,0,3.88-.8-2.47-3.53-2.84-3.21S370.24,197.48,370.76,198.6Z" style="opacity:0.1"></path><path d="M375.35,193.21s0,3.51.8,3.88,3.53-2.47,3.21-2.85S376.47,192.69,375.35,193.21Z" style="fill:#7165E3"></path><path d="M375.35,193.21s0,3.51.8,3.88,3.53-2.47,3.21-2.85S376.47,192.69,375.35,193.21Z" style="opacity:0.1"></path><path d="M369.82,200.53c1.75.2,9.76-.24,9.76-.24l-.24-.32-8.82-.45a.26.26,0,1,1,0-.51l8.17.13-.39-.51-9.06-.59a.26.26,0,0,1,0-.52l8.4.27-.37-.49-9.3-.75a.26.26,0,1,1,0-.51l8.66.43-.32-.42s-8.83-1-9.83-1C364.78,195.18,367.18,200.23,369.82,200.53Z" style="fill:#455a64"></path><path d="M366.93,196.58c-1.25-.22-6.35-1.07-6.94-1.14s-25.11-3-26-2.82.29,3.13,1,3.64,23.21.91,25.53,1.21,7.06,1,7.06,1Z" style="fill:#455a64"></path><path d="M331.73,204c2.39-1.92,7.52-5.92,12.85-7.74,5.93-2,17.88-4.29,19.32.1,1.06,3.22-3.43,4.49-3.43,4.49s5.14.1,5.46,3.21c.29,2.84-3.24,3.62-3.24,3.62s3.11.59,2.86,3.38c-.3,3.36-6.76,1.56-10,4.69C354.83,216.47,331.73,204,331.73,204Z" style="fill:#d3766a"></path><path d="M345.67,202.89a24.91,24.91,0,0,1,14.71-2.12c.12,0,.17.13.05.14a61.75,61.75,0,0,0-14.74,2A0,0,0,1,1,345.67,202.89Z" style="fill:#263238"></path><path d="M347.87,208.81c2.32-1,9.23-2.57,14.81-1.24.13,0,.17.14.05.14a65.65,65.65,0,0,0-14.84,1.16S347.84,208.82,347.87,208.81Z" style="fill:#263238"></path><path d="M384.35,244.4l-23.84-10.13s21.33-15.76,31.39-20.66c10.49-5.1,14.87-2.42,6.15,10.33C389.46,236.5,384.35,244.4,384.35,244.4Z" style="fill:#7165E3"></path><path d="M384.48,239.61c-.54-.3-1.12-.53-1.69-.79l-1.73-.79c-1.18-.53-2.36-1.05-3.55-1.56-2.37-1-4.73-2-7.12-3-.65-.27-1.31-.54-2-.79s-1.41-.48-2.11-.74c0,0-.06,0,0,.07.58.27,1.13.58,1.71.86s1.19.55,1.79.81c1.18.52,2.37,1,3.56,1.53,2.33,1,4.67,2,7,2.91l2,.77c.69.27,1.38.59,2.09.8C384.49,239.69,384.52,239.63,384.48,239.61Z" style="fill:#263238"></path><path d="M398.05,223.94c-8.59,12.56-13.71,20.46-13.71,20.46l-7.62-3.24,25-29.51C403.68,212.92,402.86,216.9,398.05,223.94Z" style="opacity:0.1"></path><path d="M372.43,288.38l69.47,5.33c.28-.39-12.23-59.6-22.95-74.86-4.71-6.69-17.54-12.84-23.3-4.27C387.06,227.39,371.44,287.48,372.43,288.38Z" style="fill:#7165E3"></path><g style="opacity:0.1"><path d="M414.38,214.33l-17.32-1.43a6.63,6.63,0,0,1,.77-.65l15.34,1.26C413.59,213.77,414,214.05,414.38,214.33Z"></path><path d="M420.41,221.19l-27.15-2.25c.11-.24.22-.47.34-.7L420,220.42C420.12,220.67,420.27,220.92,420.41,221.19Z"></path><path d="M423.62,227.79l-33-2.72c.09-.24.18-.48.28-.71L423.29,227Z"></path><path d="M426.18,234.35l-37.86-3.13c.08-.24.17-.47.25-.7l37.34,3.09Z"></path><path d="M428.43,240.89l-42.24-3.5c.08-.23.16-.47.23-.7l41.77,3.45Z"></path><path d="M430.47,247.4l-46.28-3.83c.07-.23.15-.46.22-.7l45.84,3.79C430.33,246.91,430.4,247.16,430.47,247.4Z"></path><path d="M432.37,253.91l-50.1-4.14c.08-.24.15-.47.22-.71l49.67,4.11C432.24,253.42,432.31,253.66,432.37,253.91Z"></path><path d="M434.16,260.4,380.44,256l.21-.71L434,259.66Z"></path><path d="M435.85,266.89l-57.16-4.73c.06-.23.12-.46.19-.7l56.78,4.69C435.73,266.4,435.79,266.64,435.85,266.89Z"></path><path d="M437.46,273.37l-60.47-5c.06-.24.12-.47.19-.71l60.1,5Z"></path><path d="M439,279.84l-63.63-5.26.18-.71,63.28,5.23C438.88,279.35,438.94,279.6,439,279.84Z"></path><path d="M440.44,286.31l-66.61-5.51c.05-.23.11-.47.17-.71l66.28,5.49C440.34,285.83,440.39,286.07,440.44,286.31Z"></path><path d="M441.77,292.77,372.52,287c0-.21.07-.45.11-.72l69,5.71C441.68,292.31,441.73,292.56,441.77,292.77Z"></path></g><path d="M400.28,223.69c3.79.44,9.46-5.92,11.43-10.77.13-.33-.73-3.58-1.59-7.56-.52-2.43-1-5.13-1.32-7.64l-15.27,5.64a40.24,40.24,0,0,1,2.63,9.45,5.18,5.18,0,0,1,0,1,1,1,0,0,0,0,.17C396.08,216,396.63,223.26,400.28,223.69Z" style="fill:#d3766a"></path><path d="M407.76,198.1c-.12,3.68-1.21,14.6-10,15.82a10.46,10.46,0,0,1-1.63.09c0-.06,0-.11,0-.17a5.08,5.08,0,0,0,0-1,39.51,39.51,0,0,0-2.64-9.45Z" style="fill:#263238"></path><path d="M411.43,181.07c1.65,5.63-1.52,21.8-5.55,25.36C400,211.6,390.56,212,386.19,205c-4.23-6.8.26-27.79,4.76-31C397.57,169.2,409,172.75,411.43,181.07Z" style="fill:#d3766a"></path><path d="M395.11,191s.07.07.06.11c-.27,1.07-.4,2.34.5,2.91,0,0,0,.07,0,.06C394.5,193.63,394.68,192,395.11,191Z" style="fill:#263238"></path><path d="M396.31,190.06c1.76.25,1.14,3.75-.49,3.52S394.84,189.86,396.31,190.06Z" style="fill:#263238"></path><path d="M388.74,189.84s-.1,0-.11.08c-.15,1.09-.52,2.31-1.56,2.5,0,0,0,.06,0,.06C388.29,192.53,388.76,190.9,388.74,189.84Z" style="fill:#263238"></path><path d="M388,188.53c-1.73-.44-2.48,3-.89,3.45S389.41,188.9,388,188.53Z" style="fill:#263238"></path><path d="M398,188.7a14.25,14.25,0,0,1-1.27-.71,2.38,2.38,0,0,1-1.16-1,.75.75,0,0,1,.28-.88,1.85,1.85,0,0,1,1.88.14,2.75,2.75,0,0,1,1.35,1.44A.8.8,0,0,1,398,188.7Z" style="fill:#263238"></path><path d="M386.92,186.53a14.34,14.34,0,0,0,1.46-.11,2.39,2.39,0,0,0,1.46-.4.76.76,0,0,0,.12-.92,1.86,1.86,0,0,0-1.77-.66,2.7,2.7,0,0,0-1.83.74A.8.8,0,0,0,386.92,186.53Z" style="fill:#263238"></path><path d="M394.56,200.77c-.26.26-.51.62-.91.66a2.86,2.86,0,0,1-1.19-.25s-.07,0,0,.06a1.5,1.5,0,0,0,1.41.57,1.18,1.18,0,0,0,.85-1C394.68,200.75,394.6,200.73,394.56,200.77Z" style="fill:#263238"></path><path d="M393.75,197.41a3.75,3.75,0,0,1-2.76,1.2,4.69,4.69,0,0,1-1.34-.17l-.48-.15A.3.3,0,0,1,389,198h0s.48-2.31.48-2.31c-.34.1-2,.52-1.91.09a56.68,56.68,0,0,1,3.4-10.93.11.11,0,0,1,.2.07c-.69,3.46-2,6.79-2.72,10.26a6.83,6.83,0,0,1,1.84-.22c.06,0-.67,2.82-.66,2.84a5.19,5.19,0,0,0,4-.51C393.75,197.24,393.83,197.33,393.75,197.41Z" style="fill:#263238"></path><path d="M390.24,198a4.39,4.39,0,0,0,1.51,1.64,2,2,0,0,0,1.18.28c.9-.09,1.05-.87,1-1.57a4.81,4.81,0,0,0-.22-1.1A5.72,5.72,0,0,1,390.24,198Z" style="fill:#263238"></path><path d="M391.75,199.68a2,2,0,0,0,1.18.28c.9-.09,1.05-.87,1-1.57A2.06,2.06,0,0,0,391.75,199.68Z" style="fill:#ff9cbd"></path><path d="M408.94,194c-2.82-.33-2.16-7.22-2.16-7.22s-4.27-1-6-7.05c0,0-5.74,3.17-10.35,2.06-7.22-1.74-6.49-11.2-3.65-13,4-2.52,10.69,1.85,10.69,1.85s10.59-2.32,13.29,4.91a5.35,5.35,0,0,1,4.67,5.62C415.42,186.38,411,194.27,408.94,194Z" style="fill:#263238"></path><path d="M407.75,187.68a9.63,9.63,0,0,1-5.28-3.29,7.17,7.17,0,0,1-1.3-6.47c0-.12-.15-.17-.19,0a8.27,8.27,0,0,0,.77,7,6.7,6.7,0,0,0,6,3C407.83,187.87,407.87,187.71,407.75,187.68Z" style="fill:#263238"></path><path d="M415.93,178.24c-1.33-1.9-3.51-2.31-5.68-2.36a.1.1,0,0,0,0,.2,6,6,0,0,1,5.23,3.22c1,1.78.62,3.92.08,5.78a15.17,15.17,0,0,1-6.56,8.68c-.05,0,0,.12.05.09a15.17,15.17,0,0,0,7.34-9.5C416.88,182.38,417.16,180,415.93,178.24Z" style="fill:#263238"></path><path d="M397.69,171.06a7.16,7.16,0,0,0-3.83-3.3,8.51,8.51,0,0,0-6.08.28,4.82,4.82,0,0,0-2.76,4,8.51,8.51,0,0,0,1.61,5.49,0,0,0,1,0,.07,0,8.45,8.45,0,0,1-1.21-5,4.42,4.42,0,0,1,2.82-3.77c3.07-1.16,7.43-.7,9.22,2.46C397.59,171.26,397.75,171.16,397.69,171.06Z" style="fill:#263238"></path><path d="M407.73,194.11s3.83-5.12,6.17-3.73-.67,8.88-3.49,9.83a2.84,2.84,0,0,1-3.75-1.65Z" style="fill:#d3766a"></path><path d="M413,192.51a0,0,0,0,1,0,.07c-2,.73-3.07,2.51-3.86,4.37a1.56,1.56,0,0,1,2.36-.35c.05,0,0,.11-.05.1a1.73,1.73,0,0,0-1.94.55,8.58,8.58,0,0,0-1,1.52c-.09.17-.41.07-.33-.13l0,0C408.25,196.1,410.3,192.67,413,192.51Z" style="fill:#263238"></path><path d="M332.13,265.2c-1.58.15-1-1.87-2.43-2.13s-2,1.31-2.87,1-.1-1.85-1.87-2-2.38,2.24-3.5,2.71-3.35-.68-3.79,1.25,3.47,2.92,6.19,4.52,5.7-.24,8.27-.18c2.77.06,4,2.55,6.16,2.45s6.85,1.6,9.07-.07,5.66-2.87,5.88-4.86-2.48-1.34-3.31-1.51-.57-2.36-2.16-2.81-2.08.53-3.49.51-1.79-2.8-3.8-2.48-1.59,1.48-2.49,1.89-2.46-.83-3.65-.42S333.54,265.07,332.13,265.2Z" style="fill:#455a64"></path><path d="M338.39,267.05c1.62.21,1.1-1.83,2.59-2s2,1.4,2.91,1.13.18-1.84,2-1.93,2.35,2.34,3.48,2.86,3.47-.53,3.84,1.42-3.69,2.76-6.55,4.25-5.72.13-8.37.07c-2.84-.06-4.21,0-6.39-.16s-7.27,3-9.47,1.27-5.69-3.11-5.83-5.11,2.6-1.23,3.47-1.36.68-2.34,2.33-2.71,2.11.61,3.56.65,2-2.72,4-2.31,1.58,1.55,2.48,2,2.56-.72,3.77-.26S337,266.85,338.39,267.05Z" style="fill:#37474f"></path><path d="M320.54,265.44a4,4,0,0,0-1.46,5.14c.94,2.2,3.77,2.15,5.2,1.35a4.06,4.06,0,0,0,1.77-5C325.2,265.11,323.1,264,320.54,265.44Z" style="fill:#7165E3"></path><path d="M320.54,265.44a4,4,0,0,0-1.46,5.14c.94,2.2,3.77,2.15,5.2,1.35a4.06,4.06,0,0,0,1.77-5C325.2,265.11,323.1,264,320.54,265.44Z" style="opacity:0.1"></path><path d="M320.91,266a3.29,3.29,0,0,0-1.2,4.2c.77,1.8,3.08,1.76,4.25,1.1a3.29,3.29,0,0,0,1.44-4.12C324.71,265.75,323,264.86,320.91,266Z" style="fill:#7165E3"></path><path d="M323.19,267.17c.09.09.47-.18.29-.34S323.06,267.06,323.19,267.17Z" style="fill:#fff"></path><path d="M323.86,269.2c-.06.11.29.42.4.2S323.94,269.06,323.86,269.2Z" style="fill:#fff"></path><path d="M324.76,268.51c0,.13.47.19.44-.05S324.74,268.35,324.76,268.51Z" style="fill:#fff"></path><path d="M323.23,266.31c.13,0,.19-.47-.05-.44S323.07,266.33,323.23,266.31Z" style="fill:#fff"></path><path d="M320.87,267.75c0-.12-.36-.36-.43-.13S320.81,267.9,320.87,267.75Z" style="fill:#fff"></path><path d="M321.65,270.42c-.1-.08-.47.2-.28.35S321.77,270.53,321.65,270.42Z" style="fill:#fff"></path><path d="M322.48,270.33c-.13,0-.33.39-.09.44S322.64,270.37,322.48,270.33Z" style="fill:#fff"></path><path d="M321.77,268.43c.1-.09-.13-.5-.3-.33S321.65,268.53,321.77,268.43Z" style="fill:#fff"></path><path d="M319.24,268.54s2.29-.06,2.55.42-1.52,2.37-1.77,2.17S318.93,269.28,319.24,268.54Z" style="fill:#7165E3"></path><path d="M319.24,268.54s2.29-.06,2.55.42-1.52,2.37-1.77,2.17S318.93,269.28,319.24,268.54Z" style="opacity:0.1"></path><path d="M322.87,271.87s-.49-2.24-.06-2.58,2.61,1,2.46,1.34S323.66,272,322.87,271.87Z" style="fill:#7165E3"></path><path d="M322.87,271.87s-.49-2.24-.06-2.58,2.61,1,2.46,1.34S323.66,272,322.87,271.87Z" style="opacity:0.1"></path><path d="M326.1,268.09s-2.27.36-2.59-.09,1.21-2.55,1.48-2.38S326.31,267.31,326.1,268.09Z" style="fill:#7165E3"></path><path d="M326.1,268.09s-2.27.36-2.59-.09,1.21-2.55,1.48-2.38S326.31,267.31,326.1,268.09Z" style="opacity:0.1"></path><path d="M322.56,265.12s.35,2.27-.1,2.59-2.54-1.21-2.38-1.49S321.78,264.91,322.56,265.12Z" style="fill:#7165E3"></path><path d="M322.56,265.12s.35,2.27-.1,2.59-2.54-1.21-2.38-1.49S321.78,264.91,322.56,265.12Z" style="opacity:0.1"></path><path d="M332.89,261.29a4,4,0,0,0-4.72,2.49c-.94,2.2,1.05,4.22,2.61,4.69a4,4,0,0,0,4.87-2.2C336.35,264.43,335.69,262.16,332.89,261.29Z" style="fill:#7165E3"></path><path d="M332.89,261.29a4,4,0,0,0-4.72,2.49c-.94,2.2,1.05,4.22,2.61,4.69a4,4,0,0,0,4.87-2.2C336.35,264.43,335.69,262.16,332.89,261.29Z" style="opacity:0.1"></path><path d="M332.73,262a3.27,3.27,0,0,0-3.86,2c-.77,1.8.85,3.45,2.13,3.84a3.31,3.31,0,0,0,4-1.81C335.55,264.52,335,262.67,332.73,262Z" style="fill:#7165E3"></path><path d="M333.47,264.4c0,.13.46.22.44,0S333.47,264.23,333.47,264.4Z" style="fill:#fff"></path><path d="M332.46,266.28c-.12,0-.09.5.14.43S332.62,266.24,332.46,266.28Z" style="fill:#fff"></path><path d="M333.58,266.46c-.08.09.2.47.35.28S333.69,266.34,333.58,266.46Z" style="fill:#fff"></path><path d="M334.12,263.84c.1.08.48-.19.29-.35S334,263.73,334.12,263.84Z" style="fill:#fff"></path><path d="M331.45,263.12c.12-.05,0-.51-.2-.4S331.3,263.19,331.45,263.12Z" style="fill:#fff"></path><path d="M330.06,265.53c0-.13-.47-.2-.45,0S330.07,265.69,330.06,265.53Z" style="fill:#fff"></path><path d="M330.69,266.07c-.06-.11-.5,0-.37.23S330.78,266.21,330.69,266.07Z" style="fill:#fff"></path><path d="M331.59,264.24c.12,0,.26-.43,0-.45S331.42,264.23,331.59,264.24Z" style="fill:#fff"></path><path d="M329.76,262.48s1.62,1.62,1.45,2.14-2.76.54-2.79.22S329,262.78,329.76,262.48Z" style="fill:#7165E3"></path><path d="M329.76,262.48s1.62,1.62,1.45,2.14-2.76.54-2.79.22S329,262.78,329.76,262.48Z" style="opacity:0.1"></path><path d="M329.85,267.41s1.28-1.9,1.83-1.82,1,2.61.73,2.7S330.27,268.1,329.85,267.41Z" style="fill:#7165E3"></path><path d="M329.85,267.41s1.28-1.9,1.83-1.82,1,2.61.73,2.7S330.27,268.1,329.85,267.41Z" style="opacity:0.1"></path><path d="M334.81,267.14s-1.82-1.4-1.71-1.94,2.67-.88,2.74-.57S335.52,266.75,334.81,267.14Z" style="fill:#7165E3"></path><path d="M334.81,267.14s-1.82-1.4-1.71-1.94,2.67-.88,2.74-.57S335.52,266.75,334.81,267.14Z" style="opacity:0.1"></path><path d="M334.52,262.53s-1.4,1.82-1.94,1.71-.88-2.67-.56-2.74S334.13,261.82,334.52,262.53Z" style="fill:#7165E3"></path><path d="M334.52,262.53s-1.4,1.82-1.94,1.71-.88-2.67-.56-2.74S334.13,261.82,334.52,262.53Z" style="opacity:0.1"></path><path d="M336.58,272.4a4,4,0,0,0,5.33.23c1.92-1.43,1.22-4.18.1-5.38a4,4,0,0,0-5.31-.54C335.17,268,334.59,270.25,336.58,272.4Z" style="fill:#7165E3"></path><path d="M336.58,272.4a4,4,0,0,0,5.33.23c1.92-1.43,1.22-4.18.1-5.38a4,4,0,0,0-5.31-.54C335.17,268,334.59,270.25,336.58,272.4Z" style="opacity:0.1"></path><path d="M337.06,271.91a3.28,3.28,0,0,0,4.36.19c1.56-1.17,1-3.41.08-4.39a3.32,3.32,0,0,0-4.35-.45A3,3,0,0,0,337.06,271.91Z" style="fill:#7165E3"></path><path d="M337.64,269.43c.07-.11-.29-.42-.4-.2S337.56,269.57,337.64,269.43Z" style="fill:#fff"></path><path d="M339.46,268.3c.12,0,.33-.38.1-.43S339.3,268.26,339.46,268.3Z" style="fill:#fff"></path><path d="M338.58,267.59c.12,0,.07-.51-.16-.42S338.42,267.64,338.58,267.59Z" style="fill:#fff"></path><path d="M336.8,269.58c0-.12-.51-.07-.43.16S336.85,269.74,336.8,269.58Z" style="fill:#fff"></path><path d="M338.74,271.55c-.12,0-.27.43,0,.44S338.91,271.56,338.74,271.55Z" style="fill:#fff"></path><path d="M341.16,270.17c-.06.11.3.4.41.18S341.24,270,341.16,270.17Z" style="fill:#fff"></path><path d="M340.88,269.38c0,.13.45.23.45,0S340.88,269.21,340.88,269.38Z" style="fill:#fff"></path><path d="M339.19,270.51c-.1-.07-.45.24-.25.37S339.33,270.61,339.19,270.51Z" style="fill:#fff"></path><path d="M339.89,273s-.59-2.22-.18-2.58,2.65.93,2.52,1.22S340.69,273.07,339.89,273Z" style="fill:#7165E3"></path><path d="M339.89,273s-.59-2.22-.18-2.58,2.65.93,2.52,1.22S340.69,273.07,339.89,273Z" style="opacity:0.1"></path><path d="M342.29,268.64s-2.07,1-2.5.66.41-2.78.72-2.71S342.26,267.83,342.29,268.64Z" style="fill:#7165E3"></path><path d="M342.29,268.64s-2.07,1-2.5.66.41-2.78.72-2.71S342.26,267.83,342.29,268.64Z" style="opacity:0.1"></path><path d="M337.86,266.38s.87,2.13.51,2.54-2.76-.58-2.66-.89S337.05,266.36,337.86,266.38Z" style="fill:#7165E3"></path><path d="M337.86,266.38s.87,2.13.51,2.54-2.76-.58-2.66-.89S337.05,266.36,337.86,266.38Z" style="opacity:0.1"></path><path d="M335.79,270.52s2.12-.87,2.54-.51-.58,2.75-.89,2.66S335.77,271.33,335.79,270.52Z" style="fill:#7165E3"></path><path d="M335.79,270.52s2.12-.87,2.54-.51-.58,2.75-.89,2.66S335.77,271.33,335.79,270.52Z" style="opacity:0.1"></path><path d="M345.83,269.48a4,4,0,0,0,5.34.22c1.92-1.43,1.21-4.17.1-5.37a4.05,4.05,0,0,0-5.32-.54C344.42,265,343.85,267.32,345.83,269.48Z" style="fill:#7165E3"></path><path d="M345.83,269.48a4,4,0,0,0,5.34.22c1.92-1.43,1.21-4.17.1-5.37a4.05,4.05,0,0,0-5.32-.54C344.42,265,343.85,267.32,345.83,269.48Z" style="opacity:0.1"></path><path d="M346.31,269a3.3,3.3,0,0,0,4.36.18c1.57-1.17,1-3.41.08-4.39a3.3,3.3,0,0,0-4.34-.44C345.16,265.35,344.69,267.22,346.31,269Z" style="fill:#7165E3"></path><path d="M346.9,266.5c.06-.11-.29-.42-.4-.2S346.82,266.64,346.9,266.5Z" style="fill:#fff"></path><path d="M348.71,265.37c.12,0,.34-.38.1-.43S348.55,265.33,348.71,265.37Z" style="fill:#fff"></path><path d="M347.83,264.66c.12,0,.07-.5-.16-.42S347.67,264.71,347.83,264.66Z" style="fill:#fff"></path><path d="M346.05,266.66c0-.13-.5-.08-.42.15S346.1,266.81,346.05,266.66Z" style="fill:#fff"></path><path d="M348,268.62c-.13,0-.27.43,0,.45S348.16,268.64,348,268.62Z" style="fill:#fff"></path><path d="M350.41,267.24c-.05.11.31.4.41.18S350.49,267.09,350.41,267.24Z" style="fill:#fff"></path><path d="M350.13,266.45c0,.13.46.23.45,0S350.14,266.29,350.13,266.45Z" style="fill:#fff"></path><path d="M348.45,267.58c-.11-.07-.45.24-.25.38S348.58,267.68,348.45,267.58Z" style="fill:#fff"></path><path d="M349.14,270s-.59-2.21-.18-2.58,2.66.93,2.52,1.22S349.94,270.15,349.14,270Z" style="fill:#7165E3"></path><path d="M349.14,270s-.59-2.21-.18-2.58,2.66.93,2.52,1.22S349.94,270.15,349.14,270Z" style="opacity:0.1"></path><path d="M351.54,265.71s-2.06,1-2.5.66.42-2.78.73-2.7S351.52,264.9,351.54,265.71Z" style="fill:#7165E3"></path><path d="M351.54,265.71s-2.06,1-2.5.66.42-2.78.73-2.7S351.52,264.9,351.54,265.71Z" style="opacity:0.1"></path><path d="M347.11,263.46s.87,2.12.51,2.53-2.75-.58-2.66-.89S346.3,263.43,347.11,263.46Z" style="fill:#7165E3"></path><path d="M347.11,263.46s.87,2.12.51,2.53-2.75-.58-2.66-.89S346.3,263.43,347.11,263.46Z" style="opacity:0.1"></path><path d="M345.05,267.59s2.12-.87,2.53-.51-.58,2.76-.89,2.66S345,268.4,345.05,267.59Z" style="fill:#7165E3"></path><path d="M345.05,267.59s2.12-.87,2.53-.51-.58,2.76-.89,2.66S345,268.4,345.05,267.59Z" style="opacity:0.1"></path><polygon points="360.35 270.57 355.65 274.75 316.01 274.75 311.3 270.57 360.35 270.57" style="fill:#c7c7c7"></polygon><rect x="316.01" y="274.75" width="39.52" height="1.06" style="fill:#a6a6a6"></rect><path d="M420.5,222.29c10.17,17.83,20.65,49.34,16.15,56.26-6,9.21-54.73,7-62.73,6.13-3.41-.35,3.87-28.48,7.53-28.18,3.18.26,30.47-.05,31.85-1.39.81-.78-1.21-10-2.59-31.74C409.82,209.31,417.72,217.42,420.5,222.29Z" style="fill:#d3766a"></path><path d="M388.72,259.6s-1.7-.48-10.26-4.48c-5.92-2.77-22.12-5.72-35.42,6.94-5.1,4.85-3.93,10.55,2.27,6.45,4.36-2.89,7.13-5.27,8.82-5.81,0,0-2.47,7.62.3,11.34a85.86,85.86,0,0,0,7.92,9.21,18.58,18.58,0,0,0,1.86-1.33,9.76,9.76,0,0,0,10,2.88Z" style="fill:#d3766a"></path><path d="M372.38,253.38c-3.29,1-10.23,3.08-15.31,6.79-5.63,4.13-15.38,13.6-12.29,17.73,2.27,3,6.3-.27,6.3-.27s-3.2,4.77-.55,7.06c2.41,2.08,5.38-.65,5.38-.65s-1.45,3.22,1.26,4.78c3.26,1.88,5.75-5.18,10.69-6.13C369,282.48,372.38,253.38,372.38,253.38Z" style="fill:#d3766a"></path><path d="M362.43,265.4a27.8,27.8,0,0,0-11.36,12.09c-.06.13,0,.25.08.14a68.79,68.79,0,0,1,11.32-12.18S362.46,265.38,362.43,265.4Z" style="fill:#263238"></path><path d="M366.43,271.21C364,272.68,358.17,278,355.81,284c-.06.13,0,.24.09.13a73.3,73.3,0,0,1,10.57-12.83A0,0,0,0,0,366.43,271.21Z" style="fill:#263238"></path><path d="M375,253.86a37,37,0,0,0-25.5,3.72,42.92,42.92,0,0,0-7.16,5.12c.5-.54,1-1.07,1.54-1.6,7.83-8.1,20.52-10.87,31.12-7.24Z" style="fill:#263238"></path><path d="M412.48,253.06l25.78,3.28s-11.11-25.81-17.7-35.67c-6.87-10.27-12.3-10.15-11.14,6.17A258.72,258.72,0,0,0,412.48,253.06Z" style="fill:#7165E3"></path><path d="M434.54,251.66c-.63-.15-1.3-.22-2-.31l-2-.29c-1.35-.19-2.71-.36-4.06-.53-2.71-.33-5.42-.67-8.14-.95-.75-.08-1.49-.15-2.24-.21s-1.58-.07-2.37-.13c0,0,0,.07,0,.07.67.11,1.33.26,2,.37s1.37.21,2.06.3c1.36.17,2.71.34,4.07.49,2.67.31,5.34.62,8,.87l2.24.2c.78.07,1.58.19,2.36.19C434.57,251.73,434.59,251.67,434.54,251.66Z" style="fill:#263238"></path><path d="M410.52,240.67a7.7,7.7,0,0,1-.8-2.89,0,0,0,0,1,0,0,16.6,16.6,0,0,0,.73,2.59c0-.37-.07-.73-.1-1.1-.13-1.32-.26-2.64-.32-4,0,0,0,0,0,0,.38,2.29.65,4.6,1,6.9s.64,4.66,1,7c.17,1.27.34,2.54.48,3.82.42.08.75.11,1.11.19a.1.1,0,0,1,0,.19,7.42,7.42,0,0,1-1.4-.2C411.41,249.05,410.93,244.85,410.52,240.67Z" style="fill:#263238"></path></g><g id="freepik--character-1--inject-15"><polygon points="151.05 334.44 153.72 350.42 171.77 458.89 174.68 458.89 161.55 350.42 159.61 334.44 151.05 334.44" style="fill:#dbdbdb"></polygon><polygon points="159.61 334.44 151.05 334.44 153.72 350.42 161.55 350.42 159.61 334.44" style="fill:#a6a6a6"></polygon><polygon points="94.38 458.89 97.29 458.89 115.33 350.42 118 334.44 109.44 334.44 107.5 350.42 94.38 458.89" style="fill:#dbdbdb"></polygon><polygon points="109.44 334.44 107.5 350.42 115.33 350.42 118 334.44 109.44 334.44" style="fill:#a6a6a6"></polygon><polygon points="40.24 458.89 43.15 458.89 61.2 350.42 63.86 334.44 55.31 334.44 53.37 350.42 40.24 458.89" style="fill:#dbdbdb"></polygon><polygon points="53.37 350.42 61.2 350.42 63.86 334.44 55.31 334.44 53.37 350.42" style="fill:#a6a6a6"></polygon><polygon points="44.86 341.95 177.11 341.95 177.11 328.01 127.6 328.01 110.96 242.21 49.9 242.21 44.86 341.95" style="fill:#dbdbdb"></polygon><polygon points="44.86 341.95 52.06 341.95 56.76 242.21 49.9 242.21 44.86 341.95" style="fill:#c7c7c7"></polygon><path d="M237.81,428.48c-2.21,1.29-70.37,15.54-73.31,14.44-1.12-.41-3.77-10.21-6.64-22.15-.62-2.58-1.25-5.25-1.87-8-4-17.59-7.91-36.36-7.91-36.36l45.56-9.66,6.66,36.63,1.47,8s28.53,6.21,31.63,7.76S240,427.19,237.81,428.48Z" style="fill:#f7a9a0"></path><path d="M159,425.32c2.43,9.79,4.57,17.24,5.54,17.6,2.94,1.11,71.1-13.15,73.31-14.44s-1.32-7.7-4.4-9.26c-1.92-1-13.51-3.69-22.11-5.64,7.51,1.79,21.53,6.89-7.46,9C179.87,424.31,164.05,425.1,159,425.32Z" style="fill:#263238"></path><path d="M179,459.24c-2.43.8-72.06.63-74.71-1.06-1-.63-.12-15.95.48-18.67,2-9.2,14.8-49.83,14.8-49.83l45,.81-17.34,44.63s26.63,12,29.34,14.15S181.41,458.43,179,459.24Z" style="fill:#f7a9a0"></path><path d="M104.26,458.18c2.66,1.69,72.28,1.86,74.72,1.06s.3-7.81-2.4-10c-1.27-1-7.71-4.14-14.24-7.2,8.21,4.1,21.34,13.5-58.16-.5C103.85,449.56,103.72,457.84,104.26,458.18Z" style="fill:#263238"></path><path d="M68.43,325.82c13.86,15.43,60.42,3.24,63.21,9.38,2.45,5.42-29.33,92.44-29.33,92.44l50.85,5.48s43.89-96.1,28.2-123.87c-8.47-15-45.81-9-68.35-11.76-6.8-.82-10-14.84-10-14.84H62.75S52.59,308.17,68.43,325.82Z" style="fill:#263238"></path><path d="M167.23,300.65l-42.7,32.68c-14.18-.3-45.22,4.61-56.1-7.52-15.84-17.64-5.68-43.16-5.68-43.16H103s3.19,14,10,14.85C128.83,299.41,151.92,297.05,167.23,300.65Z" style="fill:#37474f"></path><path d="M155.1,421.77c-1.4-.44-14.58-1.91-17.49-2.22-5.82-.63-24.15-2.34-27.47-2.33a.08.08,0,0,0,0,.15c2.88.61,14.57,2,17.48,2.27,5.83.6,25.85,2.54,27.47,2.38A.13.13,0,0,0,155.1,421.77Z" style="fill:#37474f"></path><path d="M137.8,330.11c-3.27-1.63-28.05-.82-45.83-2.49-5.8-.54-11.61-1.78-16-5.58A26.56,26.56,0,0,1,68,309c-1.7-6.08-1.53-12.41-1.24-18.64.08-1.53.18-3.06.28-4.59,0-.09-.15-.11-.16,0-1.36,11.15-2.39,23.6,4.86,33.27a23.31,23.31,0,0,0,13,8.5c10.73,2.82,51.05,2.12,52.47,3.21,1.7,1.3-24.37,80.66-24.89,82.17-.1.29.4.48.52.2C115.39,407,140.65,331.52,137.8,330.11Z" style="fill:#37474f"></path><path d="M183.19,311.94c-2.4-6.09-7.87-9.87-15.91-11.32-.14,0-.13.17,0,.21,7,2.05,12,4.87,14.8,10.8,1.29,2.76,2,6.65,2.29,11.86,1.67,26-21,85-21.47,86a.08.08,0,0,0,.14.08C166.24,404.19,193.09,337.06,183.19,311.94Z" style="fill:#37474f"></path><path d="M201.57,401.09l-38.5,8.18s30.38-90.65,16.11-102.35c-4-3.24-12.58-4.37-22.82.05-15.3,6.61-33,20.08-49.7,25-15.64,4.61-34.19.37-40.58-6.66-13.42-14.77-3.33-42.68-3.33-42.68H115.2s-.83.67,1.81,3c0,0,35.48-9.48,49.62-.84C192.14,300.42,201.57,401.09,201.57,401.09Z" style="fill:#263238"></path><path d="M86.67,285.87a.1.1,0,0,0-.19,0,31.47,31.47,0,0,1-.48,6.21,10.78,10.78,0,0,1-2.78,5.16c-3,3.07-7.4,4.12-11.37,5.37-.22.07-.18.44.06.4,4.41-.68,9.06-1.8,12.29-5.11a10.74,10.74,0,0,0,2.85-5.56A13.27,13.27,0,0,0,86.67,285.87Z" style="fill:#37474f"></path><path d="M178.22,305.19c-5.92-3.72-15.17-.89-19.6.8-.09,0-.05.19,0,.15,4.07-1.46,14.21-3.68,19.63.16,12.53,8.88-4.24,69.57-15.23,103-.17.53.24.39.47-.11,1.82-4,16-46.18,19.69-74.1C183.79,330.77,186.76,310.55,178.22,305.19Z" style="fill:#37474f"></path><path d="M197.18,390.85c-1.16,0-11.14,2.17-13.34,2.66-4.39,1-14.58,3.63-17,4.54-.07,0,0,.16,0,.15,2.29-.22,7.6-1.38,9.79-1.89,4.39-1,19.44-4.63,20.54-5.22C197.35,391,197.3,390.85,197.18,390.85Z" style="fill:#37474f"></path><path d="M176.34,303.61c-4-2.17-8.73-2.53-13.15-2a45.91,45.91,0,0,0-13.43,4.2c-9,4.12-17.59,9.15-26.6,13.24s-18.54,7.26-28.43,7.57c-8.44.26-19.13-1.23-24.56-8.83-8.37-11.71-3.5-31.89-3.4-33.2,0-.1-.13-.09-.16,0-6.49,24.81,1.87,34.44,7.5,38.49,4.48,3.22,10.91,4,15.16,4.39,9.83.83,19.68-1.57,28.8-5.2,9.33-3.72,18.09-8.73,27-13.31,8.58-4.38,18.14-8.91,27.93-6.4a24.58,24.58,0,0,1,3.26,1.12S176.39,303.64,176.34,303.61Z" style="fill:#37474f"></path><path d="M124,194c-7.05,6.7-3.21,13.65-6.2,15.73-7.8,5.43-3.25,8.31-5.39,10.38-1.76,1.7-8,2.46-6.67,9.53l27.55,3.44c1.39-4.42-2.86-7.42-2.74-10.65s4.32-5.95-.89-13.54C126.29,204,127.39,190.8,124,194Z" style="fill:#263238"></path><path d="M105.92,231.34c2.9,12.59,20.1,44.63,25.39,47.4,4.3,2.25,20.55,3.6,28.89,2.41,3.42-.49,2.57-24.29-2.61-23.88-8.93.7-14.54.26-17.07-.61-2-.69-12.43-13.52-27.35-28.55C107.63,222.51,104.28,224.25,105.92,231.34Z" style="fill:#f7a9a0"></path><path d="M156.52,280.76a72.58,72.58,0,0,0,10,1.48c2.64.07,10.26.06,10.63-2.84.25-2-4.23-2.51-7.39-2.95-1.66-.23-3.92-1.32-3.73-2.4.33-1.89,4.64-1.21,7.56-.39,5.66,1.57,13.55,5,15.91,1.72.88-1.24-.88-2.61-3.25-3.79,3.64,1.14,7.4,1.88,8.44.54a1.71,1.71,0,0,0-.22-2.33,2.26,2.26,0,0,0,2.31-1c.74-1.33-.16-2.77-1.7-4.09a1.27,1.27,0,0,0,.77-.85c1.29-3.84-11.95-10.45-15.9-10.36a85.76,85.76,0,0,0-23.07,4.26C153.48,262.32,156.51,280.76,156.52,280.76Z" style="fill:#f7a9a0"></path><path d="M170,266.45a19.25,19.25,0,0,1,8,.91c3.26,1.11,5.67,2.77,8.57,4.32.07.05,0,.16-.06.12-1.38-.73-7-3.39-8.42-4A18.25,18.25,0,0,0,170,266.5S170,266.46,170,266.45Z" style="fill:#263238"></path><path d="M170.83,261.27a45.76,45.76,0,0,1,9.28.72c3.32.73,6.25,2.56,9.11,4.31q2.58,1.57,5.09,3.27c.07.05,0,.17-.06.12-2.92-1.82-5.89-3.56-8.92-5.19a24.07,24.07,0,0,0-9-2.87c-1.82-.19-3.64-.25-5.47-.31A0,0,0,0,1,170.83,261.27Z" style="fill:#263238"></path><path d="M172.85,256.39c3-.15,5.52-.3,8.39.55a41.48,41.48,0,0,1,9.27,4.55c1.57,1,3.1,2,4.62,3.09.07,0,0,.15-.07.11a97.49,97.49,0,0,0-10.75-6.23,19.45,19.45,0,0,0-5.59-1.85,34.89,34.89,0,0,0-5.87-.2S172.83,256.4,172.85,256.39Z" style="fill:#263238"></path><path d="M116.06,260.14l13.28-19.42s-12.6-12-20.44-16.78c-4.4-2.67-6.53.7-5.6,5.26C106.55,245.14,116.06,260.14,116.06,260.14Z" style="fill:#7165E3"></path><path d="M116.06,260.14l13.28-19.42s-12.6-12-20.44-16.78c-4.4-2.67-6.53.7-5.6,5.26C106.55,245.14,116.06,260.14,116.06,260.14Z" style="fill:#7165E3"></path><path d="M123.3,246.14a1.85,1.85,0,1,1-1.85-1.85A1.85,1.85,0,0,1,123.3,246.14Zm-11-16.16a1.85,1.85,0,1,0,1.85,1.84A1.84,1.84,0,0,0,112.28,230Z" style="fill:#fff"></path><path d="M127.82,242.93l-11.76,17.21s-9.51-15-12.76-30.94c-.64-3.13.17-5.7,2.16-6.13Z" style="opacity:0.1"></path><path d="M125.82,239.3a156.48,156.48,0,0,0-11.52,16.24s.1.12.13.09c3.39-4.25,9.53-13.19,11.57-16.2C126,239.38,125.86,239.25,125.82,239.3Z" style="fill:#263238"></path><path d="M116.82,284.21s-37.65.11-56.82,0c0,0,19-45.53,33.83-58.25,6.72-5.79,12.51-4.17,17.06.51,1.13,1.17,12.94,22,13,29,0,7.6-6.39,12.77-6.39,12.77Z" style="fill:#7165E3"></path><path d="M86.62,246.14a1.85,1.85,0,1,1-1.85-1.85A1.85,1.85,0,0,1,86.62,246.14Zm16.49-1.85a1.85,1.85,0,1,0,1.85,1.85A1.85,1.85,0,0,0,103.11,244.29Zm17.39.28a1.8,1.8,0,0,0-.89,1.57,1.84,1.84,0,0,0,1.84,1.85,1.63,1.63,0,0,0,.45-.06C121.48,246.85,121,245.72,120.5,244.57ZM93.94,230a1.85,1.85,0,1,0,1.85,1.84A1.84,1.84,0,0,0,93.94,230Zm19.3.27a1.84,1.84,0,1,0,.89,1.59C113.82,231.27,113.52,230.74,113.24,230.25ZM66.43,274a1.85,1.85,0,1,0,1.85,1.84A1.84,1.84,0,0,0,66.43,274Zm18.34,0a1.85,1.85,0,1,0,1.85,1.84A1.84,1.84,0,0,0,84.77,274Zm18.34,0A1.85,1.85,0,1,0,105,275.8,1.84,1.84,0,0,0,103.11,274ZM75.6,259.64a1.85,1.85,0,1,0,1.85,1.85A1.85,1.85,0,0,0,75.6,259.64Zm18.34,0a1.85,1.85,0,1,0,1.85,1.85A1.85,1.85,0,0,0,93.94,259.64Zm18.34,0a1.85,1.85,0,1,0,1.85,1.85A1.84,1.84,0,0,0,112.28,259.64Z" style="fill:#fff"></path><path d="M112.2,266.29a46.71,46.71,0,0,0-6.66.88c-1.09.25-2.16.54-3.23.85-.53.16-1.07.3-1.6.44a7.23,7.23,0,0,1-1.72.26,0,0,0,0,0,0,.08,11.23,11.23,0,0,0,1.64,0,12.08,12.08,0,0,0,1.58-.25c1.11-.24,2.2-.52,3.3-.77,2.23-.5,4.45-1,6.71-1.33A.1.1,0,0,0,112.2,266.29Z" style="fill:#263238"></path><path d="M116.14,268.19a30.59,30.59,0,0,0-4.38-.39,20.06,20.06,0,0,0-2.19.1l-1,.12c-.39.05-.77.16-1.15.21,0,0-.05.08,0,.08.36,0,.73,0,1.09,0h3.29c1.47,0,2.93,0,4.39,0C116.22,268.35,116.22,268.2,116.14,268.19Z" style="fill:#263238"></path><path d="M155,256.46c1.24.84.65,1.43-.43.81l-7-3.95a.45.45,0,1,0-.43.79l7,4c.85.49,1.27,1.78-.51.75l-6.9-4a.39.39,0,0,0-.59.12.43.43,0,0,0,.21.6l6.9,4c1.78,1,.52,1.34-.33.85l-7-4a.45.45,0,1,0-.41.8c.22.13,5.84,3.42,6.92,4s.91,1.47-.43.81c0,0-8.92-4.52-10.14-5.84s-.36-2.7-2.35-3.86c-1.24-.72-22.4-12-24.53-14.2s-1.19-3.29-1.19-3.29.42-1.43,3.3-.71,22.69,16.42,23.88,16.57c2.29.28,2.13-.5,3.85-.12S155,256.46,155,256.46Z" style="fill:#455a64"></path><path d="M90.37,229.82c-12.87,19.51-24.12,55.38-19,61.59,5.74,6.92,23.31-18.85,22.38-19.85s4.46-21,6.18-38.17C101.61,216.88,93.55,225,90.37,229.82Z" style="fill:#f7a9a0"></path><path d="M74.52,253.28H98.05s2.78-17.18,2.28-26.35c-.27-5.13-3.26-4.81-6.49-1.47C82.52,237.15,74.52,253.28,74.52,253.28Z" style="fill:#7165E3"></path><path d="M86.62,246.14a1.85,1.85,0,1,1-1.85-1.85A1.85,1.85,0,0,1,86.62,246.14ZM93.94,230a1.85,1.85,0,1,0,1.85,1.84A1.84,1.84,0,0,0,93.94,230Z" style="fill:#fff"></path><path d="M97.23,249.57a154.54,154.54,0,0,0-19.91-.33s0,.15,0,.15c5.42.4,16.27.41,19.9.4C97.29,249.79,97.3,249.57,97.23,249.57Z" style="fill:#263238"></path><path d="M95.18,253.27c1-.08,1.92-.13,2.87-.18l-.17.16c.23-2.61.54-5.2.91-7.79s.79-5.17,1.34-7.73c-.14,2.61-.42,5.21-.73,7.81s-.71,5.18-1.17,7.75l0,.16h-.15C97.1,253.41,96.14,253.35,95.18,253.27Z" style="fill:#263238"></path><path d="M99.51,242.91a6.89,6.89,0,0,1,.52-1.57,10,10,0,0,1,.8-1.47,3.27,3.27,0,0,1-.13.83,5.77,5.77,0,0,1-.29.79A5.49,5.49,0,0,1,99.51,242.91Z" style="fill:#263238"></path><path d="M73.26,292.46c3.51,1.45,13.15.24,31.05-14.64,2.72-2.26-4.77-26.56-8.06-24.69-4.14,2.35-13.69,10.35-14.73,11.23C72.7,271.75,69.22,290.8,73.26,292.46Z" style="fill:#f7a9a0"></path><path d="M91.06,258s6.41-7.88,11.06-11a35.89,35.89,0,0,1,16.3-5.42c6.25-.51,21.71,2.55,21.61,7.16-.1,4.17-15.75.24-15.75.24s16.62,1.38,15.58,6.38-19-.6-19-.6,17,1.8,15.16,6.79c-1.43,3.77-17.94-.39-17.94-.39s14.64,1.65,13.34,5.59c-1.44,4.35-16.91,1.47-16.91,1.47-5,9.46-11.24,11.92-15.89,13.14C97.54,281.69,91.06,258,91.06,258Z" style="fill:#f7a9a0"></path><path d="M118.56,248.16c2,.1,3.94.17,5.88.44s3.88.6,5.79,1a33.35,33.35,0,0,1,7.27,2.44c-4.26-1.63-11.2-2.68-13.15-3s-3.86-.63-5.8-.89A0,0,0,0,1,118.56,248.16Z" style="fill:#263238"></path><path d="M117.48,255.16c2.49.23,5,.36,7.46.7s4.79.86,7.24,1.37c.19,0,.1.12-.09.09-2.46-.4-4.77-.59-7.23-1s-4.92-.85-7.39-1.14C117.43,255.22,117.44,255.16,117.48,255.16Z" style="fill:#263238"></path><path d="M115.46,261a56.63,56.63,0,0,1,11.34,1.93c.19.05.07.15-.13.12-3.75-.72-6.69-1.3-11.21-1.91C115.39,261.13,115.38,261,115.46,261Z" style="fill:#263238"></path><path d="M114.56,268.25a51.48,51.48,0,0,0,12.38.82,9.48,9.48,0,0,0,2.93-.73c1.53-.74,1.8-2.15.36-3.19-1.88-1.43-4.65-2.21-6.84-3.09,3.6.47,7.6,1.34,11.15.3,2.81-1.06.77-3.06-.94-4a26.36,26.36,0,0,0-3.37-1.54l1.6.28a23.34,23.34,0,0,0,3.63.34,6.36,6.36,0,0,0,3.51-.77,6.14,6.14,0,0,1-3.51,1,19.85,19.85,0,0,1-3.69-.19l.1-.34c1.63.69,3.47,1.43,4.41,3,1,2.24-2,3.1-3.67,3.21a28.57,28.57,0,0,1-6.4-.23l.17-.62c1.76.75,4.44,1.64,5.28,3.52a2.39,2.39,0,0,1-1.55,2.82c-3.94,1.68-11.39.31-15.55-.59Z" style="fill:#263238"></path><path d="M95.18,253.27c-4.26,3.55-9.85,7.82-13.8,11.61a37.75,37.75,0,0,0-5.81,8.05,34.26,34.26,0,0,0-1.7,3.63,27.92,27.92,0,0,1,8.55-13.5c4.08-3.49,8.39-6.68,12.76-9.79Z" style="fill:#263238"></path><path d="M97.84,223c-.07,1.14,3,9.57,7.88,10.8,1.61.4,4.17-8.29,4.17-8.29l.34-.6,4.69-8.37-8.52-9.91-1.26-1.35s-1.13,2.37-2.51,5.35c-.06.13-.13.27-.19.42s-.17.32-.24.48q-.32.66-.63,1.35c-.15.34-.31.68-.46,1s-.31.73-.47,1.09A62.74,62.74,0,0,0,97.84,223Z" style="fill:#f7a9a0"></path><path d="M126.94,188.2s3.78,1.44,4.68,4.1c1.48,4.33-.77,11.7-.77,11.7Z" style="fill:#263238"></path><path d="M131,202.34c.88,16.81-9.1,19.24-12.73,19.42-3.29.17-14.52.32-17.13-16.32s4.94-22.36,12.45-23.14S130.14,185.52,131,202.34Z" style="fill:#f7a9a0"></path><path d="M128.83,199.13a9.12,9.12,0,0,1-1.14-.21,1.84,1.84,0,0,1-1.13-.43.6.6,0,0,1,0-.73,1.48,1.48,0,0,1,1.45-.39,2.23,2.23,0,0,1,1.4.73A.64.64,0,0,1,128.83,199.13Z" style="fill:#263238"></path><path d="M117.23,200.67a8.45,8.45,0,0,0,1.13-.27,1.84,1.84,0,0,0,1.1-.5.6.6,0,0,0,0-.73,1.48,1.48,0,0,0-1.47-.3,2.19,2.19,0,0,0-1.35.81A.63.63,0,0,0,117.23,200.67Z" style="fill:#263238"></path><path d="M119.73,203.92s-.08.06-.08.1c.1,1.15,0,2.47-1,2.91,0,0,0,.07,0,.06C119.92,206.75,120,205,119.73,203.92Z" style="fill:#263238"></path><path d="M118.65,202.78c-1.85-.05-1.8,3.66-.08,3.69S120.2,202.81,118.65,202.78Z" style="fill:#263238"></path><path d="M117.92,203c-.32.22-.63.59-1,.63s-.79-.33-1.09-.7c0,0-.07,0-.07.05,0,.71.29,1.43,1.05,1.53s1.18-.55,1.35-1.27C118.17,203.09,118.05,202.9,117.92,203Z" style="fill:#263238"></path><path d="M126.1,203.59c0-.05.09,0,.09.1,0,1.14.13,2.46,1.17,2.84,0,0,0,.06,0,.06C126.09,206.42,125.89,204.67,126.1,203.59Z" style="fill:#263238"></path><path d="M127.12,202.38c1.84-.15,2,3.55.3,3.69S125.58,202.51,127.12,202.38Z" style="fill:#263238"></path><path d="M127.9,202.59c.3.18.61.53,1,.53s.69-.4.93-.8c0,0,.05,0,.06,0,.05.71-.15,1.45-.83,1.62s-1.09-.44-1.29-1.13C127.69,202.72,127.78,202.52,127.9,202.59Z" style="fill:#263238"></path><path d="M119.74,213.33c.26.28.53.66.94.7a3,3,0,0,0,1.24-.25,0,0,0,0,1,0,.06,1.55,1.55,0,0,1-1.48.58,1.22,1.22,0,0,1-.86-1C119.61,213.31,119.7,213.29,119.74,213.33Z" style="fill:#263238"></path><path d="M124.42,209.06s.28,1.71.3,2.52c0,.07-.19.11-.46.14h0a3.85,3.85,0,0,1-3.77-1.34c-.06-.08,0-.16.12-.11a5.8,5.8,0,0,0,3.53.91c0-.23-.58-2.91-.45-2.92a6.9,6.9,0,0,1,1.84.37c-.48-3.57-1.53-7-2-10.6a.11.11,0,0,1,.21-.06,58.09,58.09,0,0,1,2.6,11.33C126.43,209.76,124.75,209.19,124.42,209.06Z" style="fill:#263238"></path><path d="M124,211.58a4.53,4.53,0,0,1-1.72,1.48,2,2,0,0,1-1.22.14c-.9-.19-1-1-.84-1.7a4.82,4.82,0,0,1,.34-1.09A5.81,5.81,0,0,0,124,211.58Z" style="fill:#263238"></path><path d="M122.32,213.06a2,2,0,0,1-1.22.14c-.9-.19-1-1-.84-1.7A2.09,2.09,0,0,1,122.32,213.06Z" style="fill:#ff9cbd"></path><path d="M116.49,182.12c-7.56-1-13.95.32-17.22,3.9-6.81,7.44-3.87,20.95-6.81,23.32-7.68,6.18-2.76,8.83-4.82,11.13-1.7,1.89-8.06,3.13-6.22,10.35l28.76,1.55c1.12-4.68-3.49-7.47-3.61-10.83s4-6.46-1.91-13.93C100.81,202.76,116.49,182.12,116.49,182.12Z" style="fill:#263238"></path><path d="M103,205.64c1.82,0,6.09,0,8.61-2.39,1.39-1.32,2.55-3.48,3.08-7.25.93-6.59,5-11.14,12.24-7.8,0,0,1-6.13-3.18-8.23s-8.08,2.18-8.08,2.18-9.06-.3-13.42,6.82S103,205.64,103,205.64Z" style="fill:#263238"></path><path d="M103.74,211.65a3.7,3.7,0,0,0,.78.22,2.16,2.16,0,0,0,.79,0,2.25,2.25,0,0,0,1-.28,2.93,2.93,0,0,0,.65-.47,3,3,0,0,0,.67-.92l-.77-4.53s-3.5-5.38-5.92-4.15S101,210.51,103.74,211.65Z" style="fill:#f7a9a0"></path><path d="M101.69,203.76a0,0,0,0,0,0,.07c1.93.87,2.9,2.72,3.56,4.63a1.58,1.58,0,0,0-2.34-.51s0,.12,0,.11a1.77,1.77,0,0,1,1.91.68,8.44,8.44,0,0,1,.87,1.59c.08.18.4.09.34-.11v-.05C106.19,207.67,104.36,204.11,101.69,203.76Z" style="fill:#263238"></path><path d="M104,211a.78.78,0,1,0,.64-.9A.78.78,0,0,0,104,211Z" style="fill:#fff"></path><path d="M102.44,209.71a.55.55,0,1,0,1.09-.18.55.55,0,0,0-1.09.18Z" style="fill:#fff"></path></g><g id="freepik--Table--inject-15"><rect x="121.45" y="275.8" width="257.09" height="16.51" style="fill:#455a64"></rect><polygon points="174.49 292.31 171.84 301.23 162.21 333.49 156.79 351.7 124.83 458.88 121.14 458.88 151.36 333.49 156.79 310.99 159.14 301.23 161.29 292.31 174.49 292.31" style="fill:#455a64"></polygon><polygon points="174.49 292.31 171.84 301.23 159.14 301.23 161.29 292.31 174.49 292.31" style="fill:#263238"></polygon><polygon points="378.86 458.88 375.16 458.88 344.93 357.48 343.21 351.7 337.78 333.49 335.76 326.71 328.15 301.23 325.5 292.31 338.7 292.31 340.85 301.23 342.26 307.09 343.21 310.99 348.62 333.49 350.37 340.74 378.86 458.88" style="fill:#455a64"></polygon><polygon points="338.7 292.31 340.85 301.23 328.15 301.23 325.5 292.31 338.7 292.31" style="fill:#263238"></polygon><rect x="145.92" y="363.93" width="208.15" height="7.95" style="fill:#455a64"></rect><path d="M146.46,277.53s0-12.88,0-16.22.48-6.93,4.62-7.2c2-.14,5.14,1.32,5.51,4,.66,4.7-3.95,4.81-3.95,4.81v10.61Z" style="fill:#7165E3"></path><g style="opacity:0.2"><path d="M154.66,262.13a1.38,1.38,0,0,1-.74-.18,3.51,3.51,0,0,1-1.39-2.8c-.07-1.23.25-2.87,1.11-3.54a1.54,1.54,0,0,1,1.48-.23.12.12,0,0,1,.08.15.12.12,0,0,1-.15.08,1.32,1.32,0,0,0-1.26.19c-.76.59-1.09,2.13-1,3.33a3.29,3.29,0,0,0,1.27,2.61,1.44,1.44,0,0,0,1.46-.11.12.12,0,0,1,.16.05.11.11,0,0,1,0,.16A1.93,1.93,0,0,1,154.66,262.13Z"></path><path d="M152.09,261.64h-.19c-.56-.08-1.34-1.17-1.32-2.94,0-1.61.61-4.34,2.75-4.31a.12.12,0,0,1,.12.13.12.12,0,0,1-.12.12h-.06c-1.9,0-2.44,2.56-2.45,4.06,0,1.67.71,2.64,1.11,2.7a.59.59,0,0,0,.54-.14c.21-.2.26-.67.16-1.34a.12.12,0,0,1,.11-.13.11.11,0,0,1,.13.1c.12.77,0,1.27-.23,1.54A.73.73,0,0,1,152.09,261.64Z"></path><path d="M152.2,263.14a3.2,3.2,0,0,1-2.27-.79,5.41,5.41,0,0,1-1.39-4c0-2.17,1.16-4.42,3.06-4.42a.12.12,0,0,1,.12.12.12.12,0,0,1-.12.12h0c-1.7,0-2.77,2.19-2.79,4.18a5.25,5.25,0,0,0,1.31,3.77,3.15,3.15,0,0,0,2.55.7.12.12,0,0,1,.13.1.12.12,0,0,1-.11.14Z"></path><path d="M154,261.21a1.89,1.89,0,0,1-.89-.23.12.12,0,0,1-.05-.16.12.12,0,0,1,.16-.06,1.18,1.18,0,0,0,1.45-.07,3,3,0,0,0,.4-2.86,1.69,1.69,0,0,0-1.09-1,1.13,1.13,0,0,0-1,.3.12.12,0,0,1-.16-.18,1.36,1.36,0,0,1,1.2-.36,1.91,1.91,0,0,1,1.25,1.16,3.23,3.23,0,0,1-.44,3.13A1.23,1.23,0,0,1,154,261.21Z"></path><path d="M150.06,275.37h0a.12.12,0,0,1-.12-.12V262.38a.11.11,0,0,1,.12-.12.12.12,0,0,1,.12.12v12.87A.12.12,0,0,1,150.06,275.37Z"></path><path d="M148.29,276.46h0a.12.12,0,0,1-.12-.12c0-3.07,0-5.63,0-7.88,0-7.08,0-10,.55-11.32a.12.12,0,0,1,.16-.06.13.13,0,0,1,.06.16c-.58,1.27-.56,4.38-.52,11.22,0,2.25,0,4.81,0,7.88A.12.12,0,0,1,148.29,276.46Z"></path><path d="M151.66,274.31h0a.13.13,0,0,1-.12-.12V263a.11.11,0,0,1,.12-.12.12.12,0,0,1,.12.12v11.2A.13.13,0,0,1,151.66,274.31Z"></path></g><path d="M152.64,271.7v1.79l-6.18,4v-3.21a13.73,13.73,0,0,1,4.08-1A4.41,4.41,0,0,1,152.64,271.7Z" style="opacity:0.1"></path><path d="M173.92,260a2.78,2.78,0,0,1,2,3.56,2.63,2.63,0,0,1-3.61,1.81,2.67,2.67,0,0,1-1.81-3.42A2.86,2.86,0,0,1,173.92,260Z" style="fill:#7165E3"></path><path d="M173.92,260a2.78,2.78,0,0,1,2,3.56,2.63,2.63,0,0,1-3.61,1.81,2.67,2.67,0,0,1-1.81-3.42A2.86,2.86,0,0,1,173.92,260Z" style="opacity:0.30000000000000004"></path><path d="M175.59,264.2a2.58,2.58,0,0,1-3.33,1.15,2.67,2.67,0,0,1-1.81-3.42,2.93,2.93,0,0,1,2.57-2.06,2.74,2.74,0,0,0-1.92,1.83,2.47,2.47,0,0,0,1.68,3.17A2.4,2.4,0,0,0,175.59,264.2Z" style="opacity:0.1"></path><g style="opacity:0.2"><path d="M171.48,263.7a1.62,1.62,0,0,0,2,.35l.08-.06.08.06a1,1,0,0,0,1.45,0,2.23,2.23,0,0,0,.32-.5,2,2,0,0,1-.21.57,1.12,1.12,0,0,1-1.73.09h.16a1.55,1.55,0,0,1-2.18-.55Z"></path><path d="M173.16,262.91a1.39,1.39,0,0,1-2.07-.7c0-.11-.08-.22-.11-.33l.22.27a1.86,1.86,0,0,0,2,.76Z"></path><path d="M174.74,261.72a1,1,0,0,1-1.75-.15,1.63,1.63,0,0,0,1.75.15Z"></path></g><path d="M162,257a2.78,2.78,0,0,1,2.32,3.34,2.63,2.63,0,0,1-3.39,2.18,2.68,2.68,0,0,1-2.17-3.21A2.87,2.87,0,0,1,162,257Z" style="fill:#7165E3"></path><path d="M162,257a2.78,2.78,0,0,1,2.32,3.34,2.63,2.63,0,0,1-3.39,2.18,2.68,2.68,0,0,1-2.17-3.21A2.87,2.87,0,0,1,162,257Z" style="opacity:0.30000000000000004"></path><path d="M164.14,261a2.57,2.57,0,0,1-3.18,1.5,2.68,2.68,0,0,1-2.17-3.21,2.94,2.94,0,0,1,2.34-2.32,2.75,2.75,0,0,0-1.72,2,2.49,2.49,0,0,0,2,3A2.4,2.4,0,0,0,164.14,261Z" style="opacity:0.1"></path><g style="opacity:0.2"><path d="M160,261a1.62,1.62,0,0,0,2.06.13l.08-.07.08.06a1,1,0,0,0,1.45-.12,2.65,2.65,0,0,0,.27-.53,2.07,2.07,0,0,1-.16.59,1.11,1.11,0,0,1-1.71.27h.16A1.56,1.56,0,0,1,160,261Z"></path><path d="M161.59,260a1.39,1.39,0,0,1-2.13-.48,3.09,3.09,0,0,1-.14-.32l.24.24a1.87,1.87,0,0,0,2,.56Z"></path><path d="M163,258.65a1,1,0,0,1-1.75,0,1.63,1.63,0,0,0,1.75,0Z"></path></g><path d="M145.52,271.34s.29-2.8,2.52-3.66c0,0,.57-4.59,6.45-6.47a7.56,7.56,0,0,1,4.45-2.77c4.84-.81,10.35,3.44,10.35,3.44,3.39-.7,8-.59,10.85,1.59A4.76,4.76,0,0,1,182,267a4,4,0,0,1,2,1.92,7.44,7.44,0,0,1,.2,4,84.54,84.54,0,0,1-19,2.35C157,275.21,150.06,274.28,145.52,271.34Z" style="fill:#7165E3"></path><g style="opacity:0.2"><path d="M170.29,270.25c-.68,0-1.36,0-2-.07a.1.1,0,0,1-.09-.1.09.09,0,0,1,.1-.09c6.74.41,12.34-1.28,13.67-3.09a.1.1,0,0,1,.16.12c-.7.94-2.46,1.83-4.85,2.43A29.06,29.06,0,0,1,170.29,270.25Z"></path><path d="M153.36,273.75a17.82,17.82,0,0,1-3.94-.44.09.09,0,0,1-.07-.12.09.09,0,0,1,.11-.07c6.12,1.39,11.9-.83,17.3-3.23,1.33-.59,2.69-1.29,4-2,3.46-1.78,6.45-3.32,7.65-2.23a.81.81,0,0,1,.29.89c-.35,1-2.83,1.86-4.39,2a.1.1,0,0,1,0-.2c1.67-.14,3.92-1,4.21-1.85a.61.61,0,0,0-.23-.68c-1.1-1-4.18.58-7.43,2.25-1.32.68-2.68,1.39-4,2C162.58,272,158.08,273.75,153.36,273.75Z"></path><path d="M152.12,272.18a31.22,31.22,0,0,1-5.65-.58l-1-.16a.11.11,0,0,1-.09-.11.1.1,0,0,1,.11-.08l1,.16a27.13,27.13,0,0,0,11.73-.15c3.19-.74,6.53-2.52,9.76-4.24,5.34-2.85,9.94-5.3,12.31-2.26a1.86,1.86,0,0,1,.28,1.87c-.32.86-1.52,2.44-5.94,3.32a.09.09,0,0,1-.11-.07.1.1,0,0,1,.07-.12c3.16-.63,5.28-1.79,5.8-3.2a1.7,1.7,0,0,0-.25-1.68c-2.27-2.91-6.81-.49-12.07,2.31-3.24,1.73-6.6,3.52-9.81,4.26A27.19,27.19,0,0,1,152.12,272.18Z"></path><path d="M170.9,268.78a5.82,5.82,0,0,1-1.24-.1.1.1,0,1,1,.05-.19,10.22,10.22,0,0,0,2.83,0,.11.11,0,0,1,.11.09.1.1,0,0,1-.09.1A12.55,12.55,0,0,1,170.9,268.78Z"></path><path d="M165.53,273.5a65.33,65.33,0,0,1-7.24-.36.1.1,0,0,1-.09-.11.1.1,0,0,1,.11-.08c.15,0,14.47,1.74,26-2.53a.09.09,0,0,1,.12.05.1.1,0,0,1-.06.13C178,273,170.76,273.5,165.53,273.5Z"></path><path d="M167.64,271.68c-1.34,0-2.76-.05-4.26-.16a.09.09,0,0,1-.09-.1.09.09,0,0,1,.1-.09c13.19,1,20.3-2.79,20.37-2.83a.1.1,0,0,1,.13,0,.09.09,0,0,1,0,.13C183.79,268.71,178.15,271.68,167.64,271.68Z"></path><path d="M164.16,269.12c-1.36,0-2.7-.47-3-1.1a.64.64,0,0,1,0-.7c.67-1,2.63-.45,4.21,0a9.15,9.15,0,0,0,1.5.34.1.1,0,0,1,.09.1.09.09,0,0,1-.1.09,9.22,9.22,0,0,1-1.54-.34c-1.44-.39-3.41-.93-4-.06a.42.42,0,0,0,0,.5c.32.58,1.72,1,3,1a.1.1,0,0,1,0,.19Z"></path><path d="M161.87,270.25h0c-1.79-.56-2.83-1.58-2.78-2.72a2.25,2.25,0,0,1,1.92-2c1.76-.4,4.56.3,6.42.77.55.14,1,.26,1.36.31a.1.1,0,0,1,.08.12.1.1,0,0,1-.12.07c-.33-.05-.81-.17-1.37-.31-1.84-.46-4.61-1.16-6.33-.77a2.08,2.08,0,0,0-1.77,1.79c0,1.05.95,2,2.65,2.53a.09.09,0,0,1,.06.12A.1.1,0,0,1,161.87,270.25Z"></path><path d="M166.68,266.34a.1.1,0,0,1-.08,0,.09.09,0,0,1,0-.13c4.81-3.19,8.48-4.58,10.91-4.12a.1.1,0,0,1,.08.11.1.1,0,0,1-.12.08c-2.37-.45-6,.93-10.77,4.09Z"></path><path d="M151.42,270.67a39.17,39.17,0,0,1-5.48-.4l-.14,0a.1.1,0,0,1-.08-.11.11.11,0,0,1,.11-.09l.14,0a32.68,32.68,0,0,0,14.21-.81.09.09,0,0,1,.12.06.1.1,0,0,1-.06.13A30.57,30.57,0,0,1,151.42,270.67Z"></path><path d="M151.24,269.38a15.23,15.23,0,0,1-4.68-.55.1.1,0,0,1-.05-.13.1.1,0,0,1,.13-.05c1.32.57,7.18,1.05,12.57-.63a.09.09,0,0,1,.12.06.1.1,0,0,1-.07.12A27.36,27.36,0,0,1,151.24,269.38Z"></path><path d="M151.69,268a22.74,22.74,0,0,1-3.67-.26.1.1,0,0,1-.08-.11.09.09,0,0,1,.11-.08,25.1,25.1,0,0,0,11.32-1,.09.09,0,1,1,.06.18A23.49,23.49,0,0,1,151.69,268Z"></path><path d="M157.67,267.34h0a5,5,0,0,1-3.39-2.75,3.7,3.7,0,0,1,.14-3.43.1.1,0,1,1,.17.1,3.51,3.51,0,0,0-.14,3.25,4.9,4.9,0,0,0,3.26,2.64.1.1,0,0,1,.08.11A.1.1,0,0,1,157.67,267.34Z"></path><path d="M159.4,266.82h0c-.16-.05-4-1.34-4-3.72a3,3,0,0,1,1.06-2.26,5.91,5.91,0,0,1,4.68-1.08,16.51,16.51,0,0,1,6.32,2.66.09.09,0,0,1,0,.13.1.1,0,0,1-.14,0,16.37,16.37,0,0,0-6.24-2.63,5.77,5.77,0,0,0-4.52,1,2.75,2.75,0,0,0-1,2.11c0,2.24,3.79,3.53,3.83,3.54a.09.09,0,0,1,.06.12A.1.1,0,0,1,159.4,266.82Z"></path><path d="M164.94,266a.12.12,0,0,1-.08,0,.11.11,0,0,1,0-.14c4-3,7.13-4.38,10-4.28a.11.11,0,0,1,.09.11.09.09,0,0,1-.1.09c-2.83-.11-6,1.24-9.88,4.24Z"></path><path d="M163.07,265.67a.09.09,0,0,1-.07,0,.1.1,0,0,1,0-.14c.92-.89,4.26-3.53,6.28-3.72a.1.1,0,1,1,0,.2c-2,.18-5.25,2.78-6.16,3.66A.11.11,0,0,1,163.07,265.67Z"></path><path d="M160.29,266h0c-1.76-.56-2.95-1.45-3.28-2.44a1.69,1.69,0,0,1,.22-1.52c.34-.46,1.14-1,3-1a.09.09,0,0,1,.09.1s0,.1-.09.09c-1.79,0-2.54.48-2.85.91a1.44,1.44,0,0,0-.19,1.34c.3.93,1.45,1.78,3.15,2.31a.09.09,0,0,1,.06.12A.1.1,0,0,1,160.29,266Z"></path><path d="M166.11,263.34a.07.07,0,0,1-.06,0,13,13,0,0,0-4.67-1.95.1.1,0,0,1-.08-.12.09.09,0,0,1,.11-.08,13.16,13.16,0,0,1,4.76,2,.09.09,0,0,1,0,.13A.09.09,0,0,1,166.11,263.34Z"></path><path d="M162.58,265.63h0c-2.29-.53-3.43-1.35-3.74-1.94a.68.68,0,0,1-.06-.58c.21-.51.9-1,3-.46a14.65,14.65,0,0,1,3.23,1.43.09.09,0,0,1,0,.13.09.09,0,0,1-.13,0,14.28,14.28,0,0,0-3.18-1.4c-1.54-.4-2.52-.28-2.78.34a.5.5,0,0,0,0,.42c.28.53,1.39,1.33,3.62,1.84a.1.1,0,0,1,.07.12A.1.1,0,0,1,162.58,265.63Z"></path><path d="M155.78,267.73h-.05c-3.42-1.74-2.88-4.47-2.88-4.5a.11.11,0,0,1,.12-.07.09.09,0,0,1,.07.11c0,.11-.5,2.61,2.78,4.28a.1.1,0,0,1,0,.14A.09.09,0,0,1,155.78,267.73Z"></path><path d="M154.22,267.93l-.06,0c-3.21-2.22-2.46-5.21-2.19-5.67a.11.11,0,0,1,.14,0,.11.11,0,0,1,0,.14c-.26.43-1,3.28,2.13,5.41a.11.11,0,0,1,0,.14A.12.12,0,0,1,154.22,267.93Z"></path><path d="M149.34,267.94h0a.09.09,0,0,1-.09-.11,6.09,6.09,0,0,1,2.49-4,.1.1,0,0,1,.14,0,.1.1,0,0,1,0,.13,5.92,5.92,0,0,0-2.41,3.88A.09.09,0,0,1,149.34,267.94Z"></path><path d="M150.74,268h0a.09.09,0,0,1-.08-.11,3.26,3.26,0,0,1,1.53-2.44.11.11,0,0,1,.14,0,.11.11,0,0,1,0,.14,3.12,3.12,0,0,0-1.44,2.29A.1.1,0,0,1,150.74,268Z"></path><path d="M152.23,267.94h0a.1.1,0,0,1-.1-.1,1.27,1.27,0,0,1,.76-1.26.09.09,0,0,1,.12.06.09.09,0,0,1-.06.12,1.08,1.08,0,0,0-.62,1.08A.1.1,0,0,1,152.23,267.94Z"></path></g><path d="M166.77,260.24a2.78,2.78,0,0,1,2.91,2.84,2.63,2.63,0,0,1-2.91,2.79,2.67,2.67,0,0,1-2.74-2.74A2.86,2.86,0,0,1,166.77,260.24Z" style="fill:#7165E3"></path><path d="M166.77,260.24a2.78,2.78,0,0,1,2.91,2.84,2.63,2.63,0,0,1-2.91,2.79,2.67,2.67,0,0,1-2.74-2.74A2.86,2.86,0,0,1,166.77,260.24Z" style="opacity:0.30000000000000004"></path><path d="M169.6,263.79a2.56,2.56,0,0,1-2.83,2.08,2.67,2.67,0,0,1-2.74-2.74,2.93,2.93,0,0,1,1.85-2.72,2.74,2.74,0,0,0-1.3,2.31,2.48,2.48,0,0,0,2.54,2.54A2.39,2.39,0,0,0,169.6,263.79Z" style="opacity:0.1"></path><g style="opacity:0.2"><path d="M164.94,262.44a1.6,1.6,0,0,0,2.1-.35l.09,0a1,1,0,0,0,1.41-.4,2.65,2.65,0,0,0,.15-.57,1.79,1.79,0,0,1,0,.61c-.16.74-1,.86-1.63.59l.16,0a1.56,1.56,0,0,1-2.25.12Z"></path><path d="M167.21,264.39a1.39,1.39,0,0,1-2.19-.06,1.81,1.81,0,0,1-.19-.29,2.83,2.83,0,0,1,.28.2,1.87,1.87,0,0,0,2.1.15Z"></path><path d="M167.72,261.31A1,1,0,0,1,166,261a1.66,1.66,0,0,0,1.74.28Z"></path></g><path d="M156.79,262.23a2.77,2.77,0,0,1,1.6,3.74,2.63,2.63,0,0,1-3.76,1.45,2.66,2.66,0,0,1-1.47-3.58A2.85,2.85,0,0,1,156.79,262.23Z" style="fill:#7165E3"></path><path d="M156.79,262.23a2.77,2.77,0,0,1,1.6,3.74,2.63,2.63,0,0,1-3.76,1.45,2.66,2.66,0,0,1-1.47-3.58A2.85,2.85,0,0,1,156.79,262.23Z" style="opacity:0.30000000000000004"></path><path d="M158.05,266.59a2.56,2.56,0,0,1-3.42.83,2.66,2.66,0,0,1-1.47-3.58,2.92,2.92,0,0,1,2.75-1.8,2.76,2.76,0,0,0-2.09,1.64,2.48,2.48,0,0,0,1.37,3.31A2.39,2.39,0,0,0,158.05,266.59Z" style="opacity:0.1"></path><g style="opacity:0.2"><path d="M154.22,263.48c.46.54,1.21.93,1.83.44l.09-.06c.41.5,1,.68,1.44.14a4.1,4.1,0,0,0,.35-.47,3,3,0,0,1-.24.55,1,1,0,0,1-1.67,0l.17,0a1.32,1.32,0,0,1-2-.66Z"></path><path d="M155.76,265.35a1.39,1.39,0,0,1-2-.89c0-.11,0-.23-.07-.34a2.9,2.9,0,0,1,.19.29,1.85,1.85,0,0,0,1.88.94Z"></path><path d="M157.5,266.46a1,1,0,0,1-1.72-.31,1.62,1.62,0,0,0,1.72.31Z"></path></g><path d="M176.38,262.62a2.78,2.78,0,0,1,2.63,3.09,2.63,2.63,0,0,1-3.15,2.51,2.68,2.68,0,0,1-2.48-3A2.86,2.86,0,0,1,176.38,262.62Z" style="fill:#7165E3"></path><path d="M176.38,262.62a2.78,2.78,0,0,1,2.63,3.09,2.63,2.63,0,0,1-3.15,2.51,2.68,2.68,0,0,1-2.48-3A2.86,2.86,0,0,1,176.38,262.62Z" style="opacity:0.30000000000000004"></path><path d="M178.87,266.41a2.56,2.56,0,0,1-3,1.81,2.68,2.68,0,0,1-2.48-3,2.92,2.92,0,0,1,2.1-2.54,2.74,2.74,0,0,0-1.51,2.18,2.47,2.47,0,0,0,2.29,2.76A2.39,2.39,0,0,0,178.87,266.41Z" style="opacity:0.1"></path><g style="opacity:0.2"><path d="M174.75,266.77a1.6,1.6,0,0,0,2.13-.16l.09.05a1,1,0,0,0,1.43-.26,2.69,2.69,0,0,0,.21-.56,2.11,2.11,0,0,1-.1.61c-.22.72-1.1.76-1.67.44l.16,0a1.56,1.56,0,0,1-2.25-.09Z"></path><path d="M176.23,265.65a1.4,1.4,0,0,1-2.17-.26l-.17-.31c.1.07.18.15.27.22a1.86,1.86,0,0,0,2.07.35Z"></path><path d="M177.54,264.16a1,1,0,0,1-1.75.21,1.64,1.64,0,0,0,1.75-.21Z"></path></g><polygon points="188.9 270.57 184.19 274.75 144.55 274.75 139.85 270.57 188.9 270.57" style="fill:#c7c7c7"></polygon><rect x="144.55" y="274.75" width="39.52" height="1.06" style="fill:#a6a6a6"></rect></g></svg>