<svg width="500" height="500" viewBox="0 0 500 500" fill="none" xmlns="http://www.w3.org/2000/svg">
<path d="M274.95 462.42C376.261 462.42 458.39 451.545 458.39 438.13C458.39 424.715 376.261 413.84 274.95 413.84C173.639 413.84 91.51 424.715 91.51 438.13C91.51 451.545 173.639 462.42 274.95 462.42Z" fill="#EBEBEB"/>
<path d="M86.87 435.6C116.235 435.6 140.04 431.042 140.04 425.42C140.04 419.798 116.235 415.24 86.87 415.24C57.505 415.24 33.7 419.798 33.7 425.42C33.7 431.042 57.505 435.6 86.87 435.6Z" fill="#EBEBEB"/>
<path d="M38.97 395.48L91.72 395.24L144.48 395.15L250 394.98L355.52 395.15L408.28 395.24L461.04 395.48L408.28 395.73L355.52 395.81L250 395.98L144.48 395.81L91.72 395.72L38.97 395.48Z" fill="#263238"/>
<path d="M259.42 447.12C261.6 447.82 323.62 447.02 325.96 445.49C326.86 444.92 327.27 435.88 327.45 424.93V424.59C327.45 422.34 327.52 420.01 327.53 417.66C327.53 417.34 327.53 417.01 327.53 416.66C327.61 400.87 327.36 384.48 327.36 384.48L285.87 384.9L287.12 416.77L287.17 418.04L287.42 424.63V425.31C287.42 425.31 263.81 436.24 261.42 438.19C259.03 440.14 257.24 446.43 259.42 447.12Z" fill="#EB9481"/>
<path d="M259.42 447.12C261.6 447.82 323.62 447.02 325.96 445.49C326.86 444.92 327.27 435.88 327.45 424.93V424.59C327.45 422.34 327.52 420.01 327.53 417.66C327.53 417.34 327.53 417.01 327.53 416.66L287.12 416.77L287.17 418.04L287.42 424.63V425.31C287.42 425.31 263.81 436.24 261.42 438.19C259.03 440.14 257.24 446.43 259.42 447.12Z" fill="#EBEBEB"/>
<path d="M259.42 447.12C260.77 447.56 284.79 447.41 303.6 446.88C315.35 446.56 325.05 446.08 325.96 445.49C326.87 444.9 327.26 436.13 327.44 425.39C327.44 425.24 327.44 425.09 327.44 424.94V424.59L287.44 424.66V425.35C287.44 425.35 263.84 436.27 261.44 438.22C259.04 440.17 257.25 446.43 259.42 447.12Z" fill="#7165E3"/>
<path d="M260.09 444.71C270.54 444.31 312.73 443.71 323.09 444.12C323.17 444.12 323.17 444.19 323.09 444.19C312.74 444.81 270.54 445.06 260.09 444.88C259.87 444.87 259.87 444.71 260.09 444.71Z" fill="#263238"/>
<path d="M283 424.83C287.1 424.01 292.14 424.58 295.32 427.47C295.45 427.58 295.32 427.76 295.15 427.72C291.196 426.499 287.123 425.704 283 425.35C282.931 425.35 282.865 425.323 282.816 425.274C282.767 425.225 282.74 425.159 282.74 425.09C282.74 425.021 282.767 424.955 282.816 424.906C282.865 424.857 282.931 424.83 283 424.83V424.83Z" fill="#263238"/>
<path d="M280 426.66C284.11 425.84 289.15 426.41 292.33 429.3C292.45 429.41 292.33 429.58 292.16 429.54C288.212 428.325 284.146 427.534 280.03 427.18C279.961 427.184 279.893 427.16 279.842 427.114C279.79 427.068 279.759 427.004 279.755 426.935C279.751 426.866 279.775 426.798 279.821 426.747C279.867 426.695 279.931 426.664 280 426.66V426.66Z" fill="#263238"/>
<path d="M277.09 428.49C281.19 427.67 286.23 428.24 289.41 431.13C289.54 431.24 289.41 431.41 289.24 431.37C285.292 430.152 281.226 429.357 277.11 429C277.05 428.991 276.996 428.961 276.956 428.916C276.916 428.871 276.892 428.814 276.89 428.753C276.888 428.693 276.906 428.634 276.943 428.586C276.979 428.538 277.031 428.504 277.09 428.49V428.49Z" fill="#263238"/>
<path d="M279.43 421.77C282.37 423.99 286.17 424.87 289.58 426.08C289.658 426.101 289.739 426.103 289.818 426.086C289.896 426.069 289.97 426.034 290.032 425.983C290.095 425.932 290.144 425.867 290.177 425.794C290.21 425.72 290.224 425.64 290.22 425.56C290.29 425.56 290.35 425.49 290.32 425.41C289.021 421.785 286.794 418.564 283.86 416.07C282.12 414.65 279.1 413.68 277.51 415.93C275.92 418.18 277.72 420.47 279.43 421.77ZM278.34 418.47C277.56 413.96 282.44 416.27 283.67 417.37C284.46 418.095 285.198 418.873 285.88 419.7C287.269 421.424 288.571 423.216 289.78 425.07C288.14 424.37 286.45 423.82 284.78 423.18C282.8 422.42 278.77 421 278.34 418.47V418.47Z" fill="#263238"/>
<path d="M304 419C303 416.45 299.81 416.69 297.79 417.67C294.364 419.428 291.458 422.051 289.36 425.28C289.35 425.294 289.343 425.311 289.341 425.329C289.338 425.346 289.34 425.364 289.346 425.381C289.352 425.397 289.361 425.412 289.374 425.424C289.387 425.436 289.403 425.445 289.42 425.45C289.396 425.527 289.39 425.608 289.404 425.688C289.418 425.767 289.451 425.842 289.5 425.905C289.55 425.969 289.613 426.02 289.686 426.054C289.759 426.088 289.84 426.104 289.92 426.1C293.52 425.71 297.42 425.73 300.79 424.24C302.73 423.33 304.94 421.38 304 419ZM295.26 424.38C293.49 424.62 291.72 424.77 289.96 425.07C291.61 423.6 293.19 422.07 294.96 420.74C295.814 420.099 296.71 419.515 297.64 418.99C299.1 418.2 304.38 417.08 302.58 421.28C301.59 423.56 297.33 424.06 295.23 424.34L295.26 424.38Z" fill="#263238"/>
<path d="M265.28 436.45C266.444 436.404 267.604 436.6 268.689 437.025C269.773 437.45 270.757 438.095 271.58 438.92C273.07 440.394 273.936 442.385 274 444.48C274 444.54 273.89 444.54 273.88 444.48C273.494 442.411 272.447 440.523 270.896 439.101C269.345 437.678 267.374 436.797 265.28 436.59C265.261 436.59 265.244 436.583 265.23 436.569C265.217 436.556 265.21 436.539 265.21 436.52C265.21 436.501 265.217 436.484 265.23 436.47C265.244 436.457 265.261 436.45 265.28 436.45V436.45Z" fill="#263238"/>
<path d="M320.41 434.63C325.11 434.58 325.2 441.89 320.49 441.94C315.78 441.99 315.7 434.69 320.41 434.63Z" fill="#263238"/>
<path d="M303.6 446.88C315.35 446.56 325.05 446.08 325.96 445.49C326.87 444.9 327.26 436.13 327.44 425.39C322.62 429.69 310.65 440.36 303.6 446.88Z" fill="#263238"/>
<path d="M340.1 205.86C340.1 205.86 330.79 310.66 329.27 318.66C328.92 320.48 328.7 330.38 328.56 343.12C328.24 370.9 328.43 421 328.43 421H284.71C284.71 421 286.01 334.19 287.94 318.21C289.87 302.23 302.25 205.86 302.25 205.86H340.1Z" fill="#455A64"/>
<path d="M286.69 413.38C293.51 413.24 291.55 413.19 298.37 413.12C301.71 413.12 323.65 412.9 326.77 413.41C326.84 413.41 326.84 413.54 326.77 413.55C323.65 414.07 301.71 413.88 298.37 413.85C291.55 413.78 293.51 413.73 286.69 413.58C286.663 413.58 286.638 413.569 286.619 413.551C286.601 413.532 286.59 413.507 286.59 413.48C286.59 413.453 286.601 413.428 286.619 413.409C286.638 413.391 286.663 413.38 286.69 413.38Z" fill="#263238"/>
<path d="M320.12 363.76L320.27 344.76C320.27 338.62 320.27 332.47 320.59 326.34C321.19 313.91 323.71 301.7 325.5 289.42C327.29 277.14 328.79 264.79 330.14 252.42C331.66 238.57 333 224.69 334.43 210.83C334.43 210.74 334.58 210.74 334.57 210.83C332.52 235.58 330.22 260.32 326.79 284.92C325.937 291.04 325.007 297.147 324 303.24C323 309.41 322 315.59 321.48 321.82C320.96 328.05 320.92 334.06 320.86 340.18C320.787 346.52 320.723 352.853 320.67 359.18C320.53 373.26 320.4 394.93 320.26 409C320.26 409.056 320.238 409.109 320.198 409.148C320.159 409.188 320.106 409.21 320.05 409.21C319.994 409.21 319.941 409.188 319.902 409.148C319.862 409.109 319.84 409.056 319.84 409C319.93 396.46 320 376.31 320.12 363.76Z" fill="#263238"/>
<path d="M349.32 205.86C349.32 205.86 330.79 310.66 329.27 318.66C328.92 320.48 328.7 330.38 328.56 343.12L307.72 205.86H349.32Z" fill="#263238"/>
<path d="M310.19 450.82C312.41 451.36 374.19 446.17 376.44 444.47C377.3 443.85 377.07 434.8 376.44 423.87C376.44 423.75 376.44 423.64 376.44 423.53C376.32 421.27 376.19 418.95 376.03 416.61C376.03 416.28 375.98 415.96 375.97 415.61C374.97 399.85 373.53 383.53 373.53 383.53L332.17 386.88L335.67 418.58L335.81 419.84L336.53 426.4L336.6 427.08C336.6 427.08 313.83 439.65 311.6 441.77C309.37 443.89 308 450.28 310.19 450.82Z" fill="#EB9481"/>
<path d="M310.19 450.82C312.41 451.36 374.19 446.17 376.44 444.47C377.3 443.85 377.07 434.8 376.44 423.87C376.44 423.75 376.44 423.64 376.44 423.53C376.32 421.27 376.19 418.95 376.03 416.61C376.03 416.28 375.98 415.96 375.97 415.61L335.67 418.61L335.81 419.87L336.53 426.43L336.6 427.11C336.6 427.11 313.83 439.68 311.6 441.8C309.37 443.92 308 450.28 310.19 450.82Z" fill="#EBEBEB"/>
<path d="M310.19 450.82C312.41 451.36 374.19 446.17 376.44 444.47C377.3 443.85 377.07 434.8 376.44 423.87C376.44 423.75 376.44 423.64 376.44 423.53L336.53 426.43L336.6 427.11C336.6 427.11 313.83 439.68 311.6 441.8C309.37 443.92 308 450.28 310.19 450.82Z" fill="#7165E3"/>
<path d="M310.69 448.36C321.08 447.23 363.13 443.65 373.49 443.36C373.58 443.36 373.58 443.41 373.49 443.42C363.21 444.77 321.14 448.01 310.69 448.57C310.48 448.54 310.47 448.39 310.69 448.36Z" fill="#263238"/>
<path d="M332.11 426.92C336.11 425.81 341.21 426.02 344.59 428.67C344.72 428.78 344.59 428.96 344.44 428.93C340.415 427.999 336.301 427.499 332.17 427.44C332.11 427.432 332.055 427.404 332.013 427.362C331.971 427.319 331.945 427.263 331.938 427.203C331.931 427.144 331.944 427.083 331.975 427.032C332.006 426.981 332.054 426.941 332.11 426.92V426.92Z" fill="#263238"/>
<path d="M329.3 429C333.3 427.89 338.4 428.1 341.78 430.76C341.91 430.86 341.78 431.04 341.63 431.01C337.605 430.079 333.491 429.579 329.36 429.52C329.3 429.512 329.245 429.484 329.203 429.442C329.161 429.399 329.135 429.343 329.128 429.283C329.121 429.224 329.134 429.163 329.165 429.112C329.196 429.061 329.244 429.021 329.3 429Z" fill="#263238"/>
<path d="M326.49 431C330.49 429.89 335.59 430.1 338.97 432.76C339.1 432.86 338.97 433.05 338.82 433.02C334.796 432.081 330.682 431.578 326.55 431.52C326.49 431.512 326.435 431.484 326.393 431.442C326.351 431.399 326.325 431.343 326.318 431.283C326.311 431.224 326.324 431.163 326.355 431.112C326.386 431.061 326.434 431.021 326.49 431Z" fill="#263238"/>
<path d="M328.35 424.11C331.44 426.11 335.3 426.72 338.79 427.69C339.15 427.79 339.4 427.44 339.39 427.13C339.407 427.127 339.424 427.12 339.438 427.11C339.452 427.1 339.463 427.086 339.471 427.071C339.479 427.055 339.483 427.038 339.483 427.02C339.483 427.003 339.478 426.985 339.47 426.97C337.919 423.446 335.471 420.391 332.37 418.11C330.53 416.82 327.45 416.11 326.03 418.42C324.61 420.73 326.55 422.93 328.35 424.11ZM327 420.9C325.9 416.46 330.93 418.42 332.24 419.42C333.081 420.085 333.873 420.81 334.61 421.59C336.12 423.209 337.545 424.904 338.88 426.67C337.19 426.09 335.47 425.67 333.76 425.14C331.76 424.52 327.64 423.34 327 420.9Z" fill="#263238"/>
<path d="M352.63 419.57C351.43 417.1 348.29 417.57 346.35 418.69C343.051 420.677 340.333 423.499 338.47 426.87C338.462 426.885 338.457 426.901 338.456 426.918C338.456 426.935 338.459 426.952 338.466 426.967C338.472 426.983 338.482 426.996 338.495 427.007C338.508 427.018 338.524 427.026 338.54 427.03C338.54 427.35 338.72 427.72 339.09 427.65C342.65 427 346.54 426.75 349.8 425.02C351.7 424 353.77 421.91 352.63 419.57ZM344.29 425.57C342.55 425.93 340.79 426.21 339.06 426.64C340.547 424.998 342.119 423.436 343.77 421.96C344.573 421.251 345.425 420.6 346.32 420.01C347.72 419.13 352.9 417.64 351.41 421.96C350.58 424.33 346.37 425.13 344.29 425.56V425.57Z" fill="#263238"/>
<path d="M314.3 440.09C315.455 439.939 316.629 440.03 317.747 440.359C318.864 440.688 319.901 441.247 320.79 442C322.406 443.332 323.442 445.239 323.68 447.32C323.68 447.39 323.57 447.4 323.56 447.32C322.997 445.292 321.791 443.501 320.123 442.217C318.455 440.933 316.415 440.225 314.31 440.2C314.301 440.194 314.294 440.186 314.288 440.177C314.282 440.168 314.279 440.158 314.278 440.147C314.277 440.137 314.279 440.126 314.282 440.116C314.286 440.106 314.292 440.097 314.3 440.09V440.09Z" fill="#263238"/>
<path d="M369.06 433.49C373.74 433.03 374.47 440.3 369.78 440.76C365.09 441.22 364.37 434 369.06 433.49Z" fill="#263238"/>
<path d="M334.76 423.36L378.43 421.51C378.43 421.51 366.51 325.66 366.29 319.77C365.72 304.49 355.56 205.82 355.56 205.82H302.21C302.21 205.82 305.58 228.6 311.34 243.04C315.208 244.395 318.944 246.102 322.5 248.14C322.5 248.14 327.5 313.39 327.68 321.53C328.05 337.62 334.76 423.36 334.76 423.36Z" fill="#455A64"/>
<path d="M335.92 415.36C342.73 414.93 340.77 414.96 347.58 414.6C350.92 414.43 372.83 413.31 375.97 413.69C375.989 413.69 376.006 413.697 376.02 413.711C376.033 413.724 376.04 413.741 376.04 413.76C376.04 413.779 376.033 413.796 376.02 413.81C376.006 413.823 375.989 413.83 375.97 413.83C372.88 414.48 350.97 415.22 347.61 415.33C340.79 415.55 342.75 415.41 335.93 415.56C335.903 415.561 335.878 415.552 335.858 415.534C335.838 415.516 335.826 415.492 335.825 415.465C335.824 415.438 335.833 415.413 335.851 415.393C335.869 415.373 335.893 415.361 335.92 415.36V415.36Z" fill="#263238"/>
<path d="M351.65 211.67C353.65 236.52 355.65 261.37 357.94 286.2C360.23 311.03 362.89 335.99 366.14 360.8C367.95 374.65 369.97 394.17 372.14 407.98C372.14 408.07 372.01 408.11 371.99 407.98C367.59 383.44 364.36 352.98 361.6 328.23C358.84 303.48 356.6 278.63 354.6 253.79C353.47 239.74 352.45 225.68 351.37 211.63C351.32 211.47 351.63 211.47 351.65 211.67Z" fill="#263238"/>
<path d="M309.43 242.05C313.955 243.697 318.328 245.735 322.5 248.14C322.66 248.23 322.55 248.48 322.38 248.4C317.97 246.51 313.49 244.71 309.19 242.58C309.12 242.548 309.065 242.49 309.038 242.418C309.011 242.345 309.013 242.265 309.045 242.195C309.077 242.125 309.135 242.07 309.207 242.043C309.28 242.016 309.36 242.018 309.43 242.05V242.05Z" fill="#263238"/>
<path d="M308 211.85C308 211.7 308.28 211.67 308.28 211.85C308.28 217.07 308.58 221.67 309.02 226.55C309.22 228.82 311.02 241.35 315.02 240.44C315.68 240.28 316.02 239.64 316.12 238.64C316.101 237.343 315.923 236.054 315.59 234.8C315.16 232.18 314.81 229.55 314.59 226.9C314.133 221.968 314.187 217.001 314.75 212.08C314.75 212.046 314.764 212.012 314.788 211.988C314.812 211.964 314.846 211.95 314.88 211.95C314.914 211.95 314.948 211.964 314.972 211.988C314.996 212.012 315.01 212.046 315.01 212.08C314.891 218.92 315.289 225.76 316.2 232.54C316.69 235.8 318.34 240.71 314.93 241.21C311.52 241.71 309.21 233.5 308.79 231.21C307.69 224.818 307.424 218.31 308 211.85V211.85Z" fill="#263238"/>
<path d="M314.9 240.75C315.255 241.596 315.552 242.464 315.79 243.35C316.043 244.035 316.168 244.76 316.16 245.49C316.146 245.515 316.126 245.536 316.101 245.55C316.077 245.565 316.049 245.573 316.02 245.573C315.991 245.573 315.963 245.565 315.939 245.55C315.914 245.536 315.894 245.515 315.88 245.49C315.474 244.85 315.168 244.152 314.97 243.42C314.67 242.61 314.35 241.82 314.08 241C314.073 240.901 314.1 240.802 314.157 240.72C314.213 240.639 314.296 240.578 314.391 240.549C314.486 240.52 314.588 240.524 314.68 240.561C314.773 240.597 314.85 240.664 314.9 240.75V240.75Z" fill="#263238"/>
<path d="M138.01 425.77L137.91 423.77L243.38 418.35L235.56 371.35L237.53 371.03L245.72 420.24L138.01 425.77Z" fill="#C7C7C7"/>
<path d="M150.782 439.037C155.58 435.284 156.428 428.352 152.675 423.554C148.922 418.755 141.99 417.908 137.191 421.661C132.393 425.414 131.546 432.346 135.298 437.144C139.051 441.943 145.984 442.79 150.782 439.037Z" fill="#37474F"/>
<path d="M139 430.32C139 431.309 139.293 432.276 139.843 433.098C140.392 433.92 141.173 434.561 142.087 434.939C143 435.318 144.006 435.417 144.975 435.224C145.945 435.031 146.836 434.555 147.536 433.856C148.235 433.156 148.711 432.265 148.904 431.295C149.097 430.326 148.998 429.32 148.619 428.407C148.241 427.493 147.6 426.712 146.778 426.163C145.956 425.613 144.989 425.32 144 425.32C142.674 425.32 141.402 425.847 140.464 426.784C139.527 427.722 139 428.994 139 430.32V430.32Z" fill="#EBEBEB"/>
<path d="M231.076 441.032C237.003 439.626 240.668 433.681 239.261 427.754C237.855 421.826 231.91 418.162 225.982 419.568C220.055 420.975 216.391 426.92 217.797 432.847C219.204 438.774 225.149 442.439 231.076 441.032Z" fill="#37474F"/>
<path d="M223.48 430.32C223.48 431.309 223.773 432.276 224.323 433.098C224.872 433.92 225.653 434.561 226.567 434.939C227.48 435.318 228.486 435.417 229.455 435.224C230.425 435.031 231.316 434.555 232.016 433.856C232.715 433.156 233.191 432.265 233.384 431.295C233.577 430.326 233.478 429.32 233.099 428.407C232.721 427.493 232.08 426.712 231.258 426.163C230.436 425.613 229.469 425.32 228.48 425.32C227.154 425.32 225.882 425.847 224.944 426.784C224.007 427.722 223.48 428.994 223.48 430.32V430.32Z" fill="#EBEBEB"/>
<path d="M156.89 437.93L156.78 435.93L262.26 430.51L252 368.88L253.98 368.55L264.6 432.39L156.89 437.93Z" fill="#C7C7C7"/>
<path d="M169.93 450.956C174.618 447.067 175.266 440.113 171.376 435.425C167.487 430.736 160.533 430.089 155.845 433.978C151.156 437.868 150.509 444.822 154.398 449.51C158.288 454.198 165.242 454.846 169.93 450.956Z" fill="#37474F"/>
<path d="M157.85 442.48C157.85 443.469 158.143 444.436 158.693 445.258C159.242 446.08 160.023 446.721 160.937 447.099C161.85 447.478 162.856 447.577 163.825 447.384C164.795 447.191 165.686 446.715 166.386 446.016C167.085 445.316 167.561 444.425 167.754 443.455C167.947 442.486 167.848 441.48 167.469 440.567C167.091 439.653 166.45 438.872 165.628 438.323C164.806 437.773 163.839 437.48 162.85 437.48C161.524 437.48 160.252 438.007 159.314 438.944C158.377 439.882 157.85 441.154 157.85 442.48Z" fill="#EBEBEB"/>
<path d="M257.757 449.739C260.133 444.135 257.516 437.666 251.912 435.29C246.307 432.914 239.838 435.532 237.462 441.136C235.086 446.74 237.704 453.209 243.308 455.585C248.912 457.961 255.382 455.344 257.757 449.739Z" fill="#37474F"/>
<path d="M242.36 442.48C242.36 443.469 242.653 444.436 243.203 445.258C243.752 446.08 244.533 446.721 245.447 447.099C246.36 447.478 247.366 447.577 248.335 447.384C249.305 447.191 250.196 446.715 250.896 446.016C251.595 445.316 252.071 444.425 252.264 443.455C252.457 442.486 252.358 441.48 251.979 440.567C251.601 439.653 250.96 438.872 250.138 438.323C249.316 437.773 248.349 437.48 247.36 437.48C246.034 437.48 244.762 438.007 243.824 438.944C242.887 439.882 242.36 441.154 242.36 442.48Z" fill="#EBEBEB"/>
<path d="M134.24 365.06L118.83 294.82L223.83 277.82L224.89 351.2L224.03 351.33L134.24 365.06ZM121.24 296.45L135.8 362.8L222.89 349.51L221.89 280.2L121.24 296.45Z" fill="#A6A6A6"/>
<path d="M145.644 291.489L143.668 291.798L154.485 360.957L156.461 360.648L145.644 291.489Z" fill="#A6A6A6"/>
<path d="M173.732 287.037L171.744 287.256L179.446 357.133L181.434 356.914L173.732 287.037Z" fill="#A6A6A6"/>
<path d="M201.208 283.019L199.209 283.105L202.249 353.579L204.248 353.493L201.208 283.019Z" fill="#A6A6A6"/>
<path d="M223.699 300.119L124.953 317.993L125.309 319.961L224.055 302.087L223.699 300.119Z" fill="#A6A6A6"/>
<path d="M223.747 326.722L129.976 340.652L130.27 342.63L224.041 328.7L223.747 326.722Z" fill="#A6A6A6"/>
<path d="M267.64 368.33L222.9 351.05V277.8L291.21 297.61L267.64 368.33ZM224.9 349.68L266.41 365.68L288.66 299L224.9 280.46V349.68Z" fill="#DBDBDB"/>
<path d="M224.245 300.125L223.53 301.992L281.245 324.089L281.96 322.221L224.245 300.125Z" fill="#DBDBDB"/>
<path d="M224.264 326.776L223.508 328.628L273 348.814L273.755 346.963L224.264 326.776Z" fill="#DBDBDB"/>
<path d="M245.662 285.435L236.345 355.448L238.328 355.712L247.645 285.699L245.662 285.435Z" fill="#DBDBDB"/>
<path d="M267.824 291.883L252.165 361.422L254.116 361.861L269.775 292.322L267.824 291.883Z" fill="#DBDBDB"/>
<path d="M239.929 222.059L222.92 278.826L224.835 279.4L241.845 222.633L239.929 222.059Z" fill="#DBDBDB"/>
<path d="M307.497 235.546L288.832 297.839L290.748 298.413L309.413 236.12L307.497 235.546Z" fill="#DBDBDB"/>
<path d="M236.853 219.252L236.047 223.17L312.68 238.942L313.487 235.024L236.853 219.252Z" fill="#263238"/>
<path d="M192.22 302.28L211.18 310.92L242.24 304.7L223.61 299.42L192.22 302.28Z" fill="#7165E3"/>
<path opacity="0.1" d="M192.22 302.28L211.18 310.92L242.24 304.7L223.61 299.42L192.22 302.28Z" fill="black"/>
<path d="M225 305C225.24 313 227.12 351.27 219.73 352C217.12 352.27 214.73 346.31 212.91 337.45C212.73 336.58 212.55 335.68 212.38 334.76C211.77 331.43 211.23 327.76 210.79 323.95C210.677 323.07 210.577 322.18 210.49 321.28C210.12 317.73 209.83 314.08 209.63 310.42C209.58 309.53 209.53 308.65 209.5 307.76C209.47 306.87 209.43 306.25 209.41 305.5C209.33 303.02 209.28 300.5 209.28 298.09C209.28 297.19 209.28 296.29 209.28 295.4C209.34 290.45 209.54 285.67 209.89 281.3C209.96 280.44 210.04 279.61 210.11 278.8C211.19 267.61 213.3 259.53 216.2 258.68C222.47 256.87 224.42 285.07 225 305Z" fill="#E6A36E"/>
<path d="M220.2 332.62C220.108 332.69 220.007 332.747 219.9 332.79C219.868 332.836 219.823 332.871 219.77 332.89C217.122 333.79 214.759 335.373 212.92 337.48C212.74 336.61 212.56 335.71 212.39 334.79C213.406 333.871 214.596 333.165 215.889 332.711C217.182 332.258 218.552 332.067 219.92 332.15C219.931 332.145 219.943 332.142 219.955 332.142C219.967 332.142 219.979 332.145 219.99 332.15H220.1C220.162 332.137 220.227 332.149 220.281 332.183C220.334 332.218 220.372 332.273 220.385 332.335C220.398 332.397 220.386 332.462 220.352 332.516C220.317 332.569 220.262 332.607 220.2 332.62V332.62Z" fill="#CC8A58"/>
<path d="M219.24 321.13C219.137 321.168 219.029 321.191 218.92 321.2C218.9 321.218 218.876 321.232 218.85 321.24C218.824 321.249 218.797 321.252 218.77 321.25C216.008 321.346 213.33 322.227 211.05 323.79L210.8 323.98C210.687 323.1 210.587 322.21 210.5 321.31C211.791 320.576 213.226 320.132 214.706 320.008C216.186 319.883 217.675 320.082 219.07 320.59C219.097 320.602 219.118 320.623 219.13 320.65H219.24C219.292 320.665 219.338 320.697 219.37 320.74C219.402 320.783 219.42 320.836 219.42 320.89C219.42 320.944 219.402 320.997 219.37 321.04C219.338 321.083 219.292 321.115 219.24 321.13Z" fill="#CC8A58"/>
<path d="M218.7 309.48C218.591 309.495 218.479 309.495 218.37 309.48C218.346 309.49 218.321 309.495 218.295 309.495C218.269 309.495 218.244 309.49 218.22 309.48C215.543 308.935 212.765 309.175 210.22 310.17C210.029 310.246 209.842 310.333 209.66 310.43C209.61 309.54 209.56 308.66 209.53 307.77C211.036 307.26 212.637 307.097 214.214 307.292C215.792 307.488 217.305 308.038 218.64 308.9C218.654 308.907 218.665 308.916 218.674 308.929C218.683 308.941 218.688 308.955 218.69 308.97L218.79 309.03C218.9 309.15 219 309.43 218.7 309.48Z" fill="#CC8A58"/>
<path d="M218.23 297.2C218.121 297.215 218.009 297.215 217.9 297.2C217.877 297.212 217.851 297.219 217.825 297.219C217.799 297.219 217.773 297.212 217.75 297.2C215.073 296.655 212.295 296.895 209.75 297.89C209.599 297.95 209.452 298.02 209.31 298.1C209.31 297.2 209.31 296.3 209.31 295.41C210.783 294.946 212.341 294.814 213.871 295.023C215.401 295.232 216.866 295.777 218.16 296.62C218.16 296.62 218.21 296.67 218.22 296.69L218.31 296.75C218.43 296.87 218.48 297.15 218.23 297.2Z" fill="#CC8A58"/>
<path d="M218.24 282.69C218.127 282.683 218.016 282.66 217.91 282.62C217.858 282.634 217.802 282.634 217.75 282.62C215.307 281.473 212.591 281.033 209.91 281.35C209.98 280.49 210.06 279.66 210.13 278.85C211.637 278.813 213.135 279.086 214.532 279.652C215.928 280.218 217.194 281.065 218.25 282.14C218.25 282.14 218.25 282.2 218.25 282.22C218.274 282.249 218.301 282.276 218.33 282.3C218.47 282.42 218.49 282.7 218.24 282.69Z" fill="#CC8A58"/>
<path d="M236.8 309.79C235.7 317.66 231.14 355.46 223.73 354.45C221.12 354.11 219.73 347.72 219.47 338.64C219.47 337.75 219.41 336.83 219.4 335.89C219.4 332.49 219.4 328.8 219.64 324.96C219.64 324.07 219.73 323.18 219.79 322.28C220.03 318.73 220.35 315.1 220.79 311.47C220.9 310.59 221 309.72 221.11 308.85C221.22 307.98 221.3 307.36 221.4 306.63C221.74 304.18 222.11 301.75 222.52 299.36C222.68 298.49 222.83 297.6 222.98 296.74C223.86 291.91 224.87 287.31 225.98 283.12C226.18 282.3 226.4 281.51 226.61 280.73C229.55 270.07 232.97 262.67 235.97 262.53C242.36 262.22 239.56 290.21 236.8 309.79Z" fill="#EDAA76"/>
<path d="M227.44 335.62C227.341 335.673 227.232 335.704 227.12 335.71C227.101 335.731 227.078 335.748 227.052 335.76C227.026 335.772 226.998 335.779 226.97 335.78C224.252 336.016 221.655 337.007 219.47 338.64C219.47 337.75 219.41 336.83 219.4 335.89C220.586 335.231 221.893 334.821 223.243 334.683C224.592 334.545 225.956 334.684 227.25 335.09C227.277 335.102 227.298 335.123 227.31 335.15H227.41C227.465 335.157 227.516 335.183 227.554 335.224C227.592 335.265 227.615 335.317 227.618 335.373C227.622 335.428 227.606 335.483 227.573 335.528C227.541 335.573 227.494 335.606 227.44 335.62V335.62Z" fill="#CC8A58"/>
<path d="M228.43 324.17C228.317 324.189 228.202 324.189 228.09 324.17C228.066 324.18 228.041 324.185 228.015 324.185C227.989 324.185 227.964 324.18 227.94 324.17C225.267 323.606 222.487 323.832 219.94 324.82L219.66 324.94C219.66 324.05 219.75 323.16 219.81 322.26C221.247 321.856 222.755 321.765 224.23 321.995C225.705 322.224 227.114 322.768 228.36 323.59C228.36 323.59 228.41 323.64 228.42 323.66L228.51 323.72C228.62 323.84 228.68 324.12 228.43 324.17Z" fill="#CC8A58"/>
<path d="M229.84 312.68C229.73 312.669 229.622 312.642 229.52 312.6C229.497 312.612 229.471 312.619 229.445 312.619C229.419 312.619 229.393 312.612 229.37 312.6C226.875 311.436 224.098 311.012 221.37 311.38L220.77 311.49C220.88 310.61 220.98 309.74 221.09 308.87C222.701 308.744 224.32 308.97 225.835 309.533C227.349 310.096 228.723 310.982 229.86 312.13C229.866 312.142 229.869 312.156 229.869 312.17C229.869 312.184 229.866 312.198 229.86 312.21C229.881 312.241 229.909 312.269 229.94 312.29C230.09 312.4 230.1 312.69 229.84 312.68Z" fill="#CC8A58"/>
<path d="M231.44 300.58C231.33 300.569 231.222 300.542 231.12 300.5C231.095 300.512 231.068 300.519 231.04 300.519C231.012 300.519 230.985 300.512 230.96 300.5C228.465 299.335 225.689 298.908 222.96 299.27C222.801 299.293 222.644 299.326 222.49 299.37C222.65 298.5 222.8 297.61 222.95 296.75C224.519 296.658 226.089 296.903 227.556 297.469C229.022 298.034 230.35 298.908 231.45 300.03C231.464 300.038 231.476 300.05 231.485 300.064C231.494 300.078 231.499 300.094 231.5 300.11L231.58 300.19C231.69 300.3 231.7 300.59 231.44 300.58Z" fill="#CC8A58"/>
<path d="M233.87 286.42C233.762 286.38 233.658 286.33 233.56 286.27C233.511 286.283 233.459 286.283 233.41 286.27C231.237 284.582 228.65 283.511 225.92 283.17C226.12 282.35 226.34 281.56 226.55 280.78C229.597 281.463 232.261 283.302 233.98 285.91C233.992 285.942 233.992 285.978 233.98 286.01L234.04 286.1C234.15 286.21 234.12 286.49 233.87 286.42Z" fill="#CC8A58"/>
<path d="M192.22 302.28C192.22 302.28 193.41 340.5 193 341.96C192.59 343.42 190.32 361.32 190.53 361.82C190.74 362.32 208.71 372.63 209.31 372.04C209.91 371.45 211 345.67 211 342.49C211 339.31 211.21 310.92 211.21 310.92L192.22 302.28Z" fill="#7165E3"/>
<path d="M211.18 310.92L209.31 372C209.31 372 238.47 363.39 238.72 362.91C238.97 362.43 240.42 345.1 240.05 342.4C239.68 339.7 242.24 304.66 242.24 304.66L211.18 310.92Z" fill="#7165E3"/>
<path opacity="0.1" d="M211.18 310.92L209.31 372C209.31 372 238.47 363.39 238.72 362.91C238.97 362.43 240.42 345.1 240.05 342.4C239.68 339.7 242.24 304.66 242.24 304.66L211.18 310.92Z" fill="black"/>
<path d="M170.63 380.32L134.23 365.08L134.12 364.57L118.75 294.46L164 313L170.63 380.32ZM136 363.64L168.35 377.18L162.11 314.41L121.56 297.76L136 363.64Z" fill="#DBDBDB"/>
<path d="M134.006 300.892L132.037 301.239L143.822 368.281L145.792 367.934L134.006 300.892Z" fill="#DBDBDB"/>
<path d="M148.845 307.203L146.865 307.485L156.283 373.658L158.263 373.376L148.845 307.203Z" fill="#DBDBDB"/>
<path d="M129.997 347.094L129.337 348.974L165.79 361.771L166.45 359.891L129.997 347.094Z" fill="#DBDBDB"/>
<path d="M125.521 318.42L124.784 320.279L164.777 336.13L165.514 334.27L125.521 318.42Z" fill="#DBDBDB"/>
<path d="M170.57 380.29L161.89 312.84L291.23 297.47L267.62 368.39L267 368.47L170.57 380.29ZM164.13 314.58L172.3 378.06L266.13 366.56L288.34 299.83L164.13 314.58Z" fill="#EBEBEB"/>
<path d="M192.793 310.196L190.801 310.37L196.474 375.483L198.467 375.309L192.793 310.196Z" fill="#EBEBEB"/>
<path d="M225.361 306.053L221.541 372.293L223.538 372.409L227.357 306.169L225.361 306.053Z" fill="#EBEBEB"/>
<path d="M258.396 302.049L245.657 369.466L247.622 369.838L260.361 302.42L258.396 302.049Z" fill="#EBEBEB"/>
<path d="M282.015 320.705L165.053 333.866L165.277 335.854L282.239 322.693L282.015 320.705Z" fill="#EBEBEB"/>
<path d="M273.262 346.922L167.489 357.983L167.697 359.972L273.47 348.911L273.262 346.922Z" fill="#EBEBEB"/>
<path d="M315.6 152.37C310.23 160.81 290.36 191.37 277.96 191.37C270.5 191.37 245.2 178.65 239.62 174.37C233.09 169.37 250.62 153.58 255.1 155.44C260.65 157.73 275.85 166.6 279.4 166.6C282.57 166.6 291.65 156.41 308.93 145.16C317.81 139.3 320.23 145.09 315.6 152.37Z" fill="#EB9481"/>
<path d="M240.26 174.78C237.92 173.66 227.63 167.58 225.14 165.25C222.65 162.92 215.99 155.68 217.59 153.6C219.19 151.52 221.3 153.47 221.3 153.47C221.3 153.47 219 150 220.76 148C222.52 146 225.76 149.21 225.76 149.21C225.76 149.21 223.63 145.44 225.56 143.62C227.49 141.8 230.17 145.52 230.17 145.52C230.17 145.52 228.06 142.16 230.28 141.33C232.95 140.33 236.14 146.96 239.08 149.33C239.75 149.87 253.38 159.33 253.38 159.33L240.26 174.78Z" fill="#EB9481"/>
<path d="M229.93 145.22C232.29 150.09 234.17 151.81 238.69 154.62C238.77 154.68 238.69 154.82 238.61 154.77C233.94 152.42 231.28 150.6 229.69 145.33C229.62 145.07 229.82 145 229.93 145.22Z" fill="#263238"/>
<path d="M225.58 148.84C228.47 153.68 230.48 155.56 235 158.84C235.06 158.84 235 159 234.92 158.96C230.22 156.1 227.61 154.22 225.36 148.96C225.25 148.79 225.45 148.62 225.58 148.84Z" fill="#263238"/>
<path d="M221.53 153.63C224.67 158.12 226.79 160.28 231.59 162.91C231.607 162.926 231.619 162.947 231.624 162.97C231.628 162.993 231.625 163.017 231.615 163.038C231.605 163.059 231.588 163.077 231.568 163.088C231.547 163.099 231.523 163.103 231.5 163.1C227.039 161.425 223.415 158.063 221.41 153.74C221.25 153.44 221.34 153.35 221.53 153.63Z" fill="#263238"/>
<path d="M220.14 154.74C223.58 165.95 234.14 164.52 237.14 163.6C240.14 162.68 249.66 157.95 246.21 146.74C242.76 135.53 231.51 138.12 229.5 138.74C227.23 139.43 216.7 143.53 220.14 154.74Z" fill="#7165E3"/>
<path d="M230.47 140.27C230.47 140.27 230.94 144.49 238.33 141.96C238.33 142 233.33 136.64 230.47 140.27Z" fill="#455A64"/>
<path d="M231.19 142C231.19 142 234.66 142.23 233.68 135.89C233.68 135.91 228.66 139.19 231.19 142Z" fill="#455A64"/>
<path d="M230.91 140.9C230.91 140.9 229.7 144.17 224.31 140.68C224.31 140.68 229.36 137.44 230.91 140.9Z" fill="#455A64"/>
<path d="M230.68 140.07C230.68 140.07 227.43 142.81 233.68 147.54C233.66 147.54 235.28 140.42 230.68 140.07Z" fill="#455A64"/>
<path d="M230.34 140.68C230.34 140.68 225.66 139.37 226.28 147.35C226.28 147.35 233.43 144.87 230.34 140.68Z" fill="#455A64"/>
<path d="M231.12 141.66C231.241 140.325 231.04 138.981 230.534 137.74C230.027 136.5 229.23 135.399 228.21 134.53C227.627 134.564 227.072 134.788 226.627 135.167C226.183 135.546 225.875 136.06 225.75 136.63C225.75 136.63 229.75 138.86 230.01 142.48L230.94 141.92" fill="#455A64"/>
<path d="M258.31 158.8C257.415 155.661 256.288 152.593 254.94 149.62C253.47 146.95 244.34 139.01 242.51 140.88C240.15 143.3 244.51 148.93 247.02 151.4C247.02 151.4 241.56 157 243.82 161.71C246.08 166.42 258.31 158.8 258.31 158.8Z" fill="#EB9481"/>
<path d="M242.08 141.76C241.52 145.52 245.01 148.56 247.26 151.14C247.295 151.176 247.32 151.22 247.335 151.268C247.349 151.316 247.351 151.367 247.341 151.416C247.331 151.465 247.31 151.511 247.278 151.55C247.247 151.589 247.206 151.62 247.16 151.64C245.02 154.14 242.74 158.29 243.62 161.64C243.623 161.659 243.62 161.678 243.61 161.695C243.6 161.711 243.585 161.723 243.566 161.729C243.548 161.735 243.529 161.735 243.511 161.727C243.493 161.72 243.479 161.707 243.47 161.69C242.04 158.22 243.95 153.97 246.47 151.38C244.13 148.77 240.76 145.57 242.06 141.75C242.06 141.73 242.09 141.74 242.08 141.76Z" fill="#263238"/>
<path d="M287.47 158.11L304.17 173C304.17 173 313.67 161.56 317.61 150.63C321.55 139.7 312.15 141.01 305.48 145.43C298.81 149.85 287.47 158.11 287.47 158.11Z" fill="#7165E3"/>
<path d="M306 169.42C301.028 165.36 296.312 160.995 291.88 156.35C291.82 156.35 291.88 156.21 291.97 156.27C293.17 157.48 300.55 163.77 306.1 169.33C306.19 169.39 306.09 169.48 306 169.42Z" fill="#263238"/>
<path d="M317.6 150.66C313.67 161.59 304.17 173 304.17 173L296.48 166.13C301.57 159.13 309.79 147.71 313.88 142.2C317.58 142 319.94 144.18 317.6 150.66Z" fill="#263238"/>
<path d="M296.5 220C297.5 221 359 220.41 359.31 220C360.13 218.89 350.71 179.24 343.64 164.2C334.58 144.91 329.78 143.31 326.92 142.2C323.26 140.82 313.7 141.39 312.13 142.1C310.36 142.9 305.85 151.91 303.74 159.1C299.5 173.44 295.61 219.07 296.5 220Z" fill="#7165E3"/>
<path d="M336.1 160.08C335.79 179.02 334.99 201.41 329.75 207.73C321.81 217.3 301.97 227.12 293.84 228.93C290.46 229.68 280.97 204.13 284.6 203.37C292.33 201.75 309.99 194.43 311.6 192.84C313.21 191.25 319.28 172.98 324.15 158.69C330 141.5 336.28 149.11 336.1 160.08Z" fill="#EB9481"/>
<path d="M288.73 202.29C288.73 202.29 278.52 204.89 271.92 206.91C268.24 208.03 262.1 210.53 259.78 212.59C256.3 215.67 243.72 230.8 247.32 233.93C250.58 236.76 259.74 222.39 259.74 222.39C259.74 222.39 249.22 236.08 253.74 238.77C258.26 241.46 266.48 223.84 266.48 223.84C266.48 223.84 255.98 238.14 261.12 240.17C265 241.71 273.31 226.17 273.31 226.17C273.31 226.17 264.38 238.52 268.31 240.27C272.64 242.2 281.22 228.35 281.22 228.35C291.94 231.12 298.17 228.05 302.35 225.35C303.38 224.7 288.73 202.29 288.73 202.29Z" fill="#EB9481"/>
<path d="M263.08 217.43C261.78 218.99 260.46 220.56 259.31 222.24C258.16 223.92 257.06 225.62 256.07 227.39C254.738 229.683 253.668 232.118 252.88 234.65C254.6 230.26 258.63 224.21 259.78 222.54C260.93 220.87 261.99 219.14 263.14 217.47C263.17 217.43 263.11 217.39 263.08 217.43Z" fill="#263238"/>
<path d="M269.19 221.48C266.97 223.23 262.32 229.78 260.52 234.17C260.45 234.35 260.52 234.34 260.66 234.17C262.06 232 267.74 223.6 269.24 221.51C269.26 221.48 269.22 221.45 269.19 221.48Z" fill="#263238"/>
<path d="M275.06 224C272.301 226.893 270.122 230.288 268.64 234C268.56 234.18 268.71 234.15 268.81 234C270.89 230.63 272.49 228 275.17 224.08C275.21 224 275.12 224 275.06 224Z" fill="#263238"/>
<path d="M315.55 176.49L337.7 179.8C337.7 179.8 339.36 165.02 336.65 153.73C333.94 142.44 326.81 148.73 323.65 156.03C320.49 163.33 315.55 176.49 315.55 176.49Z" fill="#7165E3"/>
<path d="M337 175.43C330.615 174.886 324.27 173.951 318 172.63C317.92 172.63 317.95 172.49 318 172.51C319.67 172.83 329.31 173.85 337 175.29C337.14 175.31 337.11 175.43 337 175.43Z" fill="#263238"/>
<path d="M318.72 168.9C319.72 166.39 321.17 162.82 322 160.26C322 160.26 322 160.26 321.94 160.26C321.29 161.59 320.7 162.95 320.13 164.33L320.19 164.08C320.33 163.31 320.45 162.54 320.53 161.76C320.3 162.52 320.11 163.28 319.95 164.06C319.85 164.54 319.77 165.06 319.7 165.52C319.4 166.25 318.64 168.03 318.35 168.75C317.87 169.98 315.14 176.63 315.27 176.66C315.4 176.69 317.54 176.91 317.94 176.98C318.05 176.98 318.07 176.82 317.94 176.83C317.54 176.83 315.85 176.52 315.68 176.49C316.14 175.21 316.73 173.96 317.24 172.69C317.75 171.42 318.23 170.16 318.72 168.9Z" fill="#263238"/>
<path d="M339.06 165.13C338.89 165.8 338.75 166.47 338.63 167.13C338.63 167.36 338.57 167.59 338.54 167.83C338.48 166.17 338.34 164.51 338.12 162.83C338.12 162.83 338.05 162.83 338.06 162.83C338.24 165.62 338.17 168.39 338.06 171.18C338.06 172.53 337.96 173.89 337.88 175.24C337.88 175.93 337.79 176.63 337.76 177.32C337.73 178.01 337.63 179.67 337.63 179.67C337.25 179.6 335.97 179.44 335.51 179.4C335.4 179.4 335.4 179.49 335.51 179.5C335.9 179.56 337.86 179.94 337.87 179.9C337.87 179.17 338.06 178.31 338.13 177.59C338.2 176.87 338.25 176.26 338.3 175.59C338.4 174.16 338.48 172.73 338.53 171.29C338.53 170.51 338.53 169.72 338.53 168.93C338.64 168.33 338.79 167.73 338.89 167.13C338.99 166.53 339.11 165.77 339.18 165.13C339.24 165.05 339.09 165 339.06 165.13Z" fill="#263238"/>
<path d="M313.86 151.94C317.27 152.94 323.54 148.02 326.14 143.86C326.32 143.57 326.05 140.45 325.9 136.63C325.82 134.31 325.78 131.73 325.9 129.37C325.9 128.89 310.9 132.1 310.9 132.1C311.569 135.096 311.871 138.161 311.8 141.23C311.777 141.567 311.723 141.902 311.64 142.23C311.637 142.283 311.637 142.337 311.64 142.39C311.22 144.18 310.55 151 313.86 151.94Z" fill="#EB9481"/>
<path d="M325 129.38C324.08 133.38 321 142.81 313.13 142.53C312.623 142.513 312.118 142.456 311.62 142.36C311.612 142.307 311.612 142.253 311.62 142.2C311.702 141.872 311.756 141.537 311.78 141.2C311.857 138.125 311.555 135.051 310.88 132.05C310.88 132.05 321.77 129.78 325 129.38Z" fill="#263238"/>
<path d="M326.79 110.43C328.79 115.54 327.23 130.89 323.79 134.56C318.79 139.88 309.97 141.05 305.3 134.88C300.77 128.88 303.17 108.94 307.09 105.55C312.85 100.55 323.82 102.88 326.79 110.43Z" fill="#EB9481"/>
<path d="M313.05 120.83C313.05 120.83 313.13 120.89 313.12 120.93C312.99 121.93 313.01 123.17 313.91 123.6C313.91 123.6 313.91 123.67 313.91 123.66C312.77 123.39 312.76 121.79 313.05 120.83Z" fill="#263238"/>
<path d="M314.08 119.84C315.76 119.84 315.56 123.23 314.01 123.19C312.46 123.15 312.68 119.81 314.08 119.84Z" fill="#263238"/>
<path d="M307.24 120.53C307.24 120.53 307.16 120.53 307.16 120.61C307.16 121.61 306.92 122.84 305.97 123.13V123.19C307.13 123.09 307.38 121.52 307.24 120.53Z" fill="#263238"/>
<path d="M306.38 119.39C304.72 119.17 304.38 122.51 305.93 122.71C307.48 122.91 307.77 119.58 306.38 119.39Z" fill="#263238"/>
<path d="M315.49 118.39C315.04 118.25 314.65 118.04 314.22 117.86C313.747 117.734 313.329 117.457 313.03 117.07C312.958 116.931 312.934 116.771 312.963 116.617C312.992 116.463 313.072 116.323 313.19 116.22C313.452 116.048 313.756 115.951 314.069 115.937C314.382 115.922 314.693 115.993 314.97 116.14C315.579 116.343 316.088 116.773 316.39 117.34C316.451 117.472 316.473 117.619 316.453 117.764C316.433 117.908 316.372 118.044 316.278 118.154C316.183 118.265 316.058 118.346 315.918 118.388C315.779 118.43 315.63 118.43 315.49 118.39V118.39Z" fill="#263238"/>
<path d="M305.18 117.63C305.635 117.565 306.085 117.475 306.53 117.36C307.021 117.332 307.489 117.142 307.86 116.82C307.954 116.696 308.005 116.545 308.005 116.39C308.005 116.235 307.954 116.084 307.86 115.96C307.636 115.741 307.358 115.585 307.053 115.51C306.749 115.434 306.431 115.441 306.13 115.53C305.493 115.609 304.911 115.927 304.5 116.42C304.408 116.537 304.352 116.678 304.34 116.827C304.328 116.975 304.361 117.123 304.434 117.253C304.507 117.383 304.617 117.488 304.75 117.555C304.883 117.622 305.032 117.648 305.18 117.63V117.63Z" fill="#263238"/>
<path d="M314.23 130.57C313.96 130.8 313.7 131.12 313.32 131.13C312.935 131.1 312.561 130.991 312.22 130.81C312.22 130.81 312.15 130.81 312.17 130.86C312.308 131.07 312.499 131.241 312.723 131.353C312.948 131.465 313.199 131.516 313.45 131.5C313.665 131.457 313.862 131.351 314.017 131.197C314.171 131.042 314.277 130.845 314.32 130.63C314.34 130.57 314.26 130.54 314.23 130.57Z" fill="#263238"/>
<path d="M310.09 128.45C310.495 129.043 311.046 129.522 311.69 129.84C312.045 130.007 312.445 130.056 312.83 129.98C313.67 129.81 313.74 129.05 313.62 128.39C313.557 128.045 313.453 127.71 313.31 127.39C312.376 128.075 311.248 128.447 310.09 128.45V128.45Z" fill="#263238"/>
<path d="M311.69 129.84C312.045 130.007 312.445 130.056 312.83 129.98C313.67 129.81 313.74 129.05 313.62 128.39C313.182 128.378 312.752 128.515 312.402 128.778C312.052 129.042 311.801 129.416 311.69 129.84V129.84Z" fill="#FF98B9"/>
<path d="M305.2 111.53C310.28 115.02 317.2 109.76 317.2 109.76C317.635 110.869 318.415 111.808 319.426 112.439C320.436 113.069 321.623 113.357 322.81 113.26C322.81 113.26 323.81 121.87 326.07 121.85C329.53 121.85 330.61 110.1 329.52 107.79C328.43 105.48 325.52 104.89 325.52 104.89C325.197 103.494 324.357 102.272 323.17 101.47C320.81 99.66 312.66 102.09 312.66 102.09C312.195 101.001 311.483 100.035 310.58 99.27C310.362 99.0801 310.108 98.9363 309.833 98.8473C309.558 98.7583 309.268 98.7259 308.98 98.752C308.692 98.7782 308.413 98.8624 308.158 98.9995C307.904 99.1367 307.68 99.3239 307.5 99.55C307.934 100.185 308.218 100.91 308.33 101.67C308.73 104.19 306.68 104.19 306.7 101.9C306.676 101.046 306.96 100.212 307.5 99.55C306.5 98.05 304.83 97.55 303.82 98.36C302 99.81 301 108.63 305.2 111.53Z" fill="#263238"/>
<path d="M324.53 123C324.53 123 327.67 117.9 329.96 119C332.25 120.1 330.1 127.34 327.55 128.47C327.232 128.636 326.884 128.737 326.527 128.766C326.169 128.794 325.81 128.75 325.47 128.636C325.13 128.522 324.816 128.341 324.548 128.102C324.28 127.864 324.063 127.574 323.91 127.25L324.53 123Z" fill="#EB9481"/>
<path d="M329.29 121.07C329.29 121.07 329.35 121.12 329.29 121.14C327.51 121.99 326.64 123.74 326.07 125.54C326.166 125.351 326.301 125.184 326.468 125.052C326.634 124.92 326.827 124.826 327.033 124.775C327.239 124.725 327.454 124.72 327.662 124.76C327.871 124.801 328.068 124.886 328.24 125.01C328.248 125.015 328.255 125.023 328.26 125.032C328.264 125.04 328.267 125.05 328.267 125.06C328.267 125.07 328.264 125.08 328.26 125.088C328.255 125.097 328.248 125.105 328.24 125.11C327.911 125.029 327.565 125.051 327.248 125.172C326.932 125.294 326.66 125.509 326.47 125.79C326.164 126.263 325.906 126.766 325.7 127.29C325.62 127.46 325.32 127.39 325.37 127.2C325.18 124.83 326.8 121.45 329.29 121.07Z" fill="#263238"/>
</svg>
