<svg width="500" height="500" viewBox="0 0 500 500" fill="none" xmlns="http://www.w3.org/2000/svg">
<path d="M110.6 324.51C110.6 322.59 110.49 320.69 110.47 318.81L110.75 319.09C106.21 319.14 101.66 319.25 97.12 319.26L83.49 319.32L84 318.81V330.33L83.54 329.87C85.78 329.87 88.02 329.87 90.28 329.93L97 330L110.75 330.29L110.6 324.51ZM97.24 330.61L90.38 330.73C88.09 330.73 85.79 330.73 83.49 330.79H83V330.33V318.81V318.29H83.52L97.15 318.36C101.69 318.36 106.24 318.47 110.78 318.53H111V318.81C111 320.76 110.91 322.71 110.87 324.63L110.72 330.33L97.24 330.61Z" fill="#EBEBEB"/>
<path d="M95.4 339C95.35 337.08 95.28 335.19 95.26 333.3L95.54 333.58C91 333.64 86.46 333.75 81.91 333.75L68.28 333.82L68.8 333.3L68.74 344.82L68.28 344.36C70.53 344.36 72.77 344.36 75.02 344.42L81.79 344.54L95.54 344.82L95.4 339ZM82 345.14L75.14 345.25C72.85 345.3 70.55 345.25 68.25 345.31H67.79V344.84V333.32V332.81H68.31L81.94 332.87C86.49 332.87 91.03 332.99 95.57 333.04H95.86V333.31C95.86 335.31 95.77 337.21 95.73 339.13L95.58 344.83L82 345.14Z" fill="#EBEBEB"/>
<path d="M125.81 339C125.81 337.08 125.69 335.19 125.67 333.3L125.96 333.58C121.41 333.64 116.87 333.75 112.33 333.75L98.6999 333.82L99.2099 333.3L99.1499 344.82L98.6999 344.36C100.94 344.36 103.18 344.36 105.43 344.42L112.21 344.54L125.96 344.82L125.81 339ZM112.44 345.11L105.59 345.22C103.3 345.27 100.99 345.22 98.6999 345.28H98.2399V344.81L98.1799 333.29V332.78H98.6999L112.33 332.84C116.87 332.84 121.41 332.96 125.96 333.01H126.24V333.28C126.24 335.28 126.15 337.18 126.1 339.1L125.96 344.8L112.44 345.11Z" fill="#EBEBEB"/>
<path d="M446.6 339C446.55 337.08 446.48 335.19 446.46 333.3L446.74 333.58C442.2 333.64 437.66 333.75 433.11 333.75L419.48 333.82L420 333.3L419.94 344.82L419.48 344.36C421.73 344.36 423.97 344.36 426.22 344.42L433 344.54L446.74 344.82L446.6 339ZM433.23 345.11L426.38 345.22C424.08 345.27 421.78 345.22 419.48 345.28H419V344.81V333.33V332.82H419.51L433.14 332.88C437.69 332.88 442.23 333 446.77 333.05H447V333.32C447 335.32 446.91 337.22 446.86 339.14L446.71 344.84L433.23 345.11Z" fill="#EBEBEB"/>
<path d="M446.6 54.9999C446.55 53.0799 446.48 51.1899 446.46 49.2999L446.74 49.5799C442.2 49.6299 437.66 49.7399 433.11 49.7499L419.48 49.8099L420 49.2999L419.94 60.8199L419.48 60.3599C421.73 60.3599 423.97 60.3599 426.22 60.4199L433 60.5299L446.74 60.8199L446.6 54.9999ZM433.23 61.1099L426.38 61.2199C424.08 61.2699 421.78 61.2199 419.48 61.2799H419V60.8199V49.3399V48.8199H419.51L433.14 48.8799C437.69 48.8799 442.23 48.9999 446.77 49.0499H447V49.3299C447 51.2799 446.91 53.2299 446.86 55.1499L446.71 60.8499L433.23 61.1099Z" fill="#EBEBEB"/>
<path d="M461.81 69.5599C461.76 67.6499 461.69 65.7499 461.67 63.8699L461.95 64.1499C457.41 64.1499 452.86 64.3099 448.32 64.3099L434.69 64.3799L435.2 63.8699L435.15 75.3799L434.69 74.9299C436.94 74.9299 439.18 74.9299 441.43 74.9299L448.2 75.0499L461.95 75.3299L461.81 69.5599ZM448.44 75.6699L441.58 75.7899C439.29 75.7899 436.99 75.7899 434.69 75.7899H434.23V75.3199L434.18 63.8099V63.2899H434.7L448.33 63.3599C452.87 63.3599 457.42 63.4699 461.96 63.5199H462.25V63.7999C462.25 65.7499 462.16 67.6899 462.12 69.6199L462 75.3799L448.44 75.6699Z" fill="#EBEBEB"/>
<path d="M95.4 55.05C95.35 53.13 95.28 51.24 95.26 49.35L95.54 49.63C91 49.69 86.46 49.8 81.91 49.8L68.28 49.87L68.8 49.35L68.74 60.87L68.28 60.41C70.53 60.41 72.77 60.41 75.02 60.47L81.79 60.58L95.54 60.87L95.4 55.05ZM82 61.16L75.14 61.27C72.85 61.27 70.55 61.27 68.25 61.33H67.79V60.87V49.35V48.84H68.31L81.94 48.9C86.49 48.9 91.03 49.02 95.57 49.07H95.86V49.35C95.86 51.35 95.77 53.25 95.73 55.17L95.58 60.87L82 61.16Z" fill="#EBEBEB"/>
<path d="M309.4 251.72C309.45 253.63 309.52 255.53 309.54 257.42L309.26 257.13C313.8 257.08 318.35 256.97 322.89 256.97L336.52 256.9L336 257.42L336.06 245.9L336.52 246.35C334.27 246.35 332.03 246.35 329.78 246.35L323.01 246.23L309.26 245.95L309.4 251.72ZM322.77 245.61L329.63 245.49C331.92 245.49 334.22 245.49 336.52 245.44H337V245.91V257.43V257.94H336.48L322.85 257.87C318.31 257.87 313.76 257.76 309.22 257.71H309V257.44C309 255.44 309.09 253.54 309.13 251.61L309.28 245.92L322.77 245.61Z" fill="#EBEBEB"/>
<path d="M324.61 237.19C324.66 239.11 324.73 241 324.75 242.89L324.47 242.61C329.01 242.56 333.55 242.45 338.1 242.44L351.73 242.38L351.21 242.89L351.27 231.37L351.73 231.83C349.48 231.83 347.24 231.83 344.99 231.77L338.21 231.66L324.47 231.37L324.61 237.19ZM338 231.08L344.85 230.97C347.14 230.92 349.45 230.97 351.75 230.91H352.2V231.37L352.26 242.89V243.41H351.75L338.12 243.35C333.57 243.35 329.03 243.23 324.49 243.18H324.2V242.9C324.2 240.95 324.29 239 324.34 237.08L324.49 231.38L338 231.08Z" fill="#EBEBEB"/>
<path d="M361.44 63.6599L288.36 149.78L399.49 170.01L361.44 63.6599Z" fill="#EBEBEB"/>
<path d="M358.91 77.6L301.7 145.01L388.69 160.84L358.91 77.6Z" fill="white"/>
<path d="M350.53 98.59L359.35 100.2L352.84 132.56L345.22 131.18L350.53 98.59Z" fill="#EBEBEB"/>
<path d="M352.075 136.657L344.46 135.271L343.073 142.885L350.688 144.272L352.075 136.657Z" fill="#EBEBEB"/>
<path d="M158.21 260.58L130.51 328.24L202.95 318.4L158.21 260.58Z" fill="#EBEBEB"/>
<path d="M159.44 269.67L137.76 322.63L194.46 314.93L159.44 269.67Z" fill="white"/>
<path d="M158.5 284.27L164.24 283.49L166.73 304.71L161.76 305.39L158.5 284.27Z" fill="#EBEBEB"/>
<path d="M167.069 307.379L162.105 308.053L162.779 313.017L167.743 312.343L167.069 307.379Z" fill="#EBEBEB"/>
<path d="M250 414.5C345.065 414.5 422.13 408.044 422.13 400.08C422.13 392.116 345.065 385.66 250 385.66C154.935 385.66 77.8701 392.116 77.8701 400.08C77.8701 408.044 154.935 414.5 250 414.5Z" fill="#EBEBEB"/>
<path d="M452.73 380.13L402.05 380.37L351.36 380.46L250 380.63L148.64 380.46L97.95 380.37L47.27 380.13L97.95 379.88L148.64 379.8L250 379.63L351.36 379.8L402.05 379.89L452.73 380.13Z" fill="#263238"/>
<path d="M277 234.79C309.877 234.79 336.53 206.517 336.53 171.64C336.53 136.763 309.877 108.49 277 108.49C244.122 108.49 217.47 136.763 217.47 171.64C217.47 206.517 244.122 234.79 277 234.79Z" fill="#7165E3"/>
<path opacity="0.1" d="M336.53 171.64C336.53 206.52 309.88 234.79 277 234.79C250.54 234.79 228.13 216.48 220.38 191.16C232.79 202.16 257.01 218.67 284.64 212.09C315.16 204.82 329.3 182.81 335.32 158.91C336.126 163.105 336.531 167.368 336.53 171.64Z" fill="black"/>
<path opacity="0.1" d="M309.65 126.69C308.735 125.783 307.73 124.972 306.65 124.27L309.34 123.91C309.55 123.91 309.48 123.57 309.34 123.56C308.104 123.463 306.861 123.486 305.63 123.63C303.909 122.644 302.052 121.916 300.12 121.47C301.907 120.9 303.727 120.439 305.57 120.09C305.76 120.09 305.72 119.74 305.52 119.75C303.311 119.916 301.14 120.415 299.08 121.23C297.737 120.98 296.375 120.849 295.01 120.84C294.9 120.84 294.91 121 295.01 121.01C296.117 121.112 297.217 121.289 298.3 121.54C297.088 122.053 295.912 122.647 294.78 123.32C293.853 123.255 292.923 123.275 292 123.38C291.9 123.38 291.9 123.54 292 123.53C292.764 123.496 293.53 123.523 294.29 123.61C293.054 124.375 291.871 125.224 290.75 126.15C290.67 126.21 290.75 126.32 290.85 126.26C292.104 125.28 293.443 124.413 294.85 123.67C296.513 123.906 298.144 124.332 299.71 124.94C298.39 125.36 297.08 125.83 295.8 126.33C295.71 126.33 295.75 126.5 295.8 126.46C297.303 125.928 298.844 125.51 300.41 125.21C301.82 125.76 303.22 126.38 304.65 126.97C304.86 127.06 305 126.71 304.8 126.61C303.738 126.011 302.643 125.474 301.52 125C302.85 124.77 304.18 124.59 305.52 124.42C306.845 125.184 308.114 126.039 309.32 126.98C309.56 127.14 309.84 126.88 309.65 126.69ZM300.65 124.69C298.98 124.038 297.232 123.608 295.45 123.41C296.687 122.796 297.963 122.265 299.27 121.82C301.057 122.299 302.787 122.969 304.43 123.82C303.155 124.018 301.892 124.291 300.65 124.64V124.69Z" fill="black"/>
<path opacity="0.1" d="M231.13 168.55C231.33 168.46 231.18 168.2 230.99 168.23C230.153 168.378 229.342 168.644 228.58 169.02C228.864 168.109 229.198 167.214 229.58 166.34C229.596 166.292 229.595 166.24 229.578 166.193C229.561 166.146 229.527 166.106 229.484 166.08C229.441 166.054 229.39 166.044 229.34 166.051C229.29 166.059 229.244 166.083 229.21 166.12C228.577 167.157 228.092 168.278 227.77 169.45C226.622 170.126 225.584 170.973 224.69 171.96C224.746 170.245 224.99 168.541 225.42 166.88C225.426 166.833 225.415 166.784 225.389 166.744C225.363 166.704 225.323 166.675 225.277 166.661C225.231 166.648 225.182 166.652 225.138 166.672C225.095 166.692 225.06 166.726 225.04 166.77C224.305 168.635 223.99 170.639 224.12 172.64C223.323 173.605 222.651 174.667 222.12 175.8C222.12 175.89 222.2 175.97 222.25 175.88C222.786 174.92 223.433 174.027 224.18 173.22C224.266 174.093 224.416 174.959 224.63 175.81C224.25 176.16 223.88 176.51 223.55 176.86C223.45 176.95 223.6 177.1 223.7 177.01C224.03 176.7 224.38 176.43 224.7 176.15C224.936 177.005 225.236 177.841 225.6 178.65C225.6 178.74 225.79 178.65 225.76 178.58C225.432 177.712 225.175 176.819 224.99 175.91C225.684 175.357 226.416 174.853 227.18 174.4L227.32 174.34C227.375 175.197 227.489 176.049 227.66 176.89C227.66 176.99 227.84 176.94 227.82 176.89C227.7 175.999 227.66 175.098 227.7 174.2C228.7 173.69 229.7 173.27 230.7 172.73C230.89 172.62 230.75 172.37 230.56 172.4C229.551 172.613 228.585 172.992 227.7 173.52C227.783 172.341 227.978 171.173 228.28 170.03C229.19 169.48 230.13 169 231.13 168.55ZM224.92 175.55C224.751 174.619 224.66 173.676 224.65 172.73C225.518 171.874 226.481 171.119 227.52 170.48C227.314 171.564 227.234 172.668 227.28 173.77C226.443 174.286 225.653 174.875 224.92 175.53V175.55Z" fill="black"/>
<path d="M253 143.41C242.56 150.52 237.39 159.78 238 170.11C238.61 180.44 230.89 188.67 230 199.93C229.11 211.19 235.74 219.17 235.74 224.31C235.74 229.45 230.66 238.52 230.66 238.52C230.66 238.52 241.74 252.99 272.22 252.52C302.7 252.05 317.06 241.71 317.06 241.71C317.06 241.71 312.65 232.1 312.2 229.22C311.75 226.34 318.44 215.8 318.63 206.77C318.82 197.74 310.71 185.56 310.69 181.08C310.67 176.6 311.63 151.13 292.27 141.76C286.112 138.715 279.287 137.27 272.424 137.559C265.56 137.847 258.88 139.859 253 143.41Z" fill="#263238"/>
<path d="M241.28 175.17C241.48 174.72 240.95 174.17 240.6 174.61C235.074 181.545 230.95 189.489 228.46 198C226.11 206.09 228.29 213.83 232.14 220.9C232.25 221.1 232.53 220.9 232.43 220.72C228.27 212.44 227.43 204.36 230.93 195.62C233.8 188.4 238.05 182.11 241.28 175.17Z" fill="#263238"/>
<path d="M320.09 206.6C318.71 198.17 313.51 189.83 309.68 182.5C309.629 182.427 309.554 182.375 309.468 182.351C309.383 182.328 309.292 182.335 309.211 182.372C309.13 182.409 309.065 182.473 309.026 182.553C308.988 182.633 308.978 182.724 309 182.81C311.37 189.87 315.38 196.24 317.55 203.36C319.877 211.143 319.18 219.518 315.6 226.81C315.49 227.04 315.79 227.23 315.92 227.01C319.703 220.923 321.182 213.683 320.09 206.6V206.6Z" fill="#263238"/>
<path d="M318.57 197C314.65 190.2 310.72 182.85 309.23 174.9C309.23 174.72 308.95 174.81 308.98 174.99C310.074 181.434 312.173 187.667 315.2 193.46C318.66 200.05 323.83 206.17 324.41 214.04C324.404 214.061 324.403 214.083 324.408 214.104C324.412 214.125 324.421 214.145 324.434 214.162C324.447 214.179 324.464 214.193 324.483 214.203C324.502 214.212 324.523 214.217 324.545 214.217C324.567 214.217 324.588 214.212 324.607 214.203C324.626 214.193 324.643 214.179 324.656 214.162C324.669 214.145 324.678 214.125 324.682 214.104C324.687 214.083 324.686 214.061 324.68 214.04C325.1 207.41 321.68 202.4 318.57 197Z" fill="#263238"/>
<path d="M238.76 247.36C205.18 286.44 165.07 366.54 174.61 381.57C185.23 398.3 233.7 342.64 231.96 340.18C230.48 338.1 245.74 290.33 256.81 255.4C267.88 220.47 247.07 237.7 238.76 247.36Z" fill="#EB9481"/>
<path d="M238.76 247.36C205.18 286.44 165.07 366.54 174.61 381.57C185.23 398.3 233.7 342.64 231.96 340.18C230.48 338.1 245.74 290.33 256.81 255.4C267.88 220.47 247.07 237.7 238.76 247.36Z" fill="#455A64"/>
<path d="M206.68 377.35L212.52 340C212.52 340 198.74 315.94 206.74 298.67C210.74 289.93 238.45 247.19 253.35 236.37C267.35 226.22 288.68 236.2 295.19 245.03C313.92 270.42 323.62 294.51 334.08 377.38L206.68 377.35Z" fill="#455A64"/>
<path d="M284.63 236.62C284.007 237.578 283.455 238.581 282.98 239.62C282.234 241.237 281.719 242.95 281.45 244.71C282.589 243.343 283.528 241.821 284.24 240.19C284.694 239.154 285.079 238.088 285.39 237L284.63 236.62ZM265.28 305.54C264.525 307.15 264.006 308.861 263.74 310.62C264.882 309.255 265.822 307.733 266.53 306.1C267.277 304.484 267.792 302.77 268.06 301.01C266.922 302.38 265.986 303.905 265.28 305.54ZM248.47 375.43C248.2 376.06 247.94 376.7 247.71 377.35H249.06C249.3 376.9 249.52 376.45 249.73 375.99C250.479 374.374 250.994 372.661 251.26 370.9C250.123 372.272 249.184 373.797 248.47 375.43V375.43ZM319.14 294.34C319.14 294.39 319.14 294.43 319.14 294.48V294.43C319.145 294.4 319.145 294.37 319.14 294.34V294.34ZM285.14 366.18C284.393 367.796 283.877 369.51 283.61 371.27C285.866 368.5 287.356 365.186 287.93 361.66C286.791 363.027 285.852 364.549 285.14 366.18V366.18ZM213.47 332.89C212.723 334.503 212.207 336.213 211.94 337.97C214.196 335.2 215.686 331.886 216.26 328.36C215.123 329.732 214.184 331.257 213.47 332.89V332.89ZM237 281.09C236.243 282.703 235.725 284.418 235.46 286.18C236.606 284.814 237.546 283.288 238.25 281.65C239.002 280.039 239.517 278.328 239.78 276.57C238.644 277.938 237.708 279.459 237 281.09ZM300.49 261.76C298.877 261.013 297.167 260.498 295.41 260.23C296.775 261.372 298.297 262.312 299.93 263.02C301.546 263.767 303.26 264.282 305.02 264.55C303.644 263.412 302.116 262.473 300.48 261.76H300.49ZM315.38 319.76C313.771 319.004 312.059 318.488 310.3 318.23C311.665 319.369 313.187 320.305 314.82 321.01C316.435 321.761 318.149 322.279 319.91 322.55C318.534 321.423 317.006 320.497 315.37 319.8L315.38 319.76ZM233.19 258.38L232.74 258.98C233.264 259.111 233.795 259.211 234.33 259.28C233.957 258.987 233.573 258.7 233.18 258.42L233.19 258.38ZM248.34 330.38C246.726 329.627 245.012 329.111 243.25 328.85C244.62 329.987 246.145 330.923 247.78 331.63C249.393 332.386 251.108 332.905 252.87 333.17C251.494 332.032 249.966 331.093 248.33 330.38H248.34ZM265.62 270.64C265.008 268.968 264.159 267.392 263.1 265.96C263.471 269.512 264.76 272.907 266.84 275.81C266.681 274.036 266.266 272.295 265.61 270.64H265.62ZM289.26 330.55C288.655 328.876 287.81 327.299 286.75 325.87C287.121 329.422 288.41 332.817 290.49 335.72C290.331 333.945 289.913 332.204 289.25 330.55H289.26ZM210.73 291.46C210.5 291.86 210.26 292.26 210.03 292.64C210.393 293.343 210.818 294.012 211.3 294.64C211.224 293.562 211.029 292.496 210.72 291.46H210.73ZM226.49 355.54C225.878 353.868 225.029 352.292 223.97 350.86C224.136 352.632 224.55 354.373 225.2 356.03C225.812 357.702 226.661 359.278 227.72 360.71C227.556 358.936 227.139 357.195 226.48 355.54H226.49ZM252.27 246C250.6 246.612 249.024 247.457 247.59 248.51C249.363 248.348 251.104 247.934 252.76 247.28C254.434 246.676 256.01 245.83 257.44 244.77C255.666 244.929 253.925 245.344 252.27 246ZM311.48 350.26C309.81 350.872 308.234 351.717 306.8 352.77C308.585 352.6 310.337 352.172 312 351.5C313.674 350.896 315.25 350.05 316.68 348.99C314.896 349.148 313.145 349.562 311.48 350.22V350.26ZM229.81 309C228.14 309.612 226.564 310.457 225.13 311.51C226.902 311.347 228.642 310.937 230.3 310.29C231.972 309.678 233.548 308.829 234.98 307.77C233.207 307.93 231.465 308.345 229.81 309ZM262.81 351.38C261.14 351.992 259.564 352.837 258.13 353.89C261.682 353.519 265.076 352.23 267.98 350.15C266.222 350.305 264.494 350.709 262.85 351.35L262.81 351.38ZM207.38 372.67L207.13 374.22H207.22C208.89 373.608 210.466 372.763 211.9 371.71C210.372 371.822 208.866 372.135 207.42 372.64L207.38 372.67ZM292.63 290.35C290.957 290.962 289.381 291.811 287.95 292.87C291.502 292.499 294.896 291.21 297.8 289.13C296.042 289.281 294.315 289.682 292.67 290.32L292.63 290.35Z" fill="#37474F"/>
<path d="M229 263.2C226.18 267.067 223.423 271 220.73 275C221.47 273.45 222.21 271.91 222.93 270.36C222.935 270.339 222.932 270.317 222.923 270.297C222.914 270.277 222.898 270.261 222.879 270.251C222.86 270.241 222.838 270.237 222.816 270.24C222.795 270.244 222.775 270.254 222.76 270.27C221.76 272.21 220.84 274.18 219.94 276.16C216.333 281.493 212.837 286.907 209.45 292.4C207.98 294.699 206.734 297.133 205.73 299.67C204.806 302.162 204.192 304.758 203.9 307.4C203.605 310.033 203.565 312.689 203.78 315.33C203.963 318.051 204.348 320.755 204.93 323.42C205.613 326.446 206.567 329.405 207.78 332.26C208.38 333.65 209.01 335.03 209.7 336.39C210.39 337.75 211.61 340.14 211.59 340.24C211.33 341.63 211.07 342.61 210.9 343.78L210.36 347.37C210 349.757 209.647 352.15 209.3 354.55C208.6 359.3 208 364.05 207.41 368.81C207.07 371.55 206.89 374.31 206.51 377.03C206.51 377.14 206.66 377.19 206.68 377.03C207.07 374.66 207.68 372.31 208.09 369.95C208.5 367.59 208.96 365.2 209.41 362.83C210.31 358.04 211.01 353.21 211.76 348.4C211.97 347.06 212.18 345.73 212.38 344.4C212.679 342.938 212.85 341.452 212.89 339.96C212.89 339.96 208.63 331.19 206.97 325.05C206.2 322.458 205.632 319.81 205.27 317.13C204.99 314.512 204.96 311.874 205.18 309.25C205.386 306.627 205.893 304.037 206.69 301.53C207.544 298.982 208.653 296.526 210 294.2C212.78 289.25 215.74 284.4 218.74 279.58C222.15 274.11 225.59 268.67 229.11 263.28C229.21 263.19 229.07 263.11 229 263.2Z" fill="#263238"/>
<path d="M255.39 335.3C249.43 335.581 243.5 336.309 237.65 337.48C234.75 338.09 231.9 338.84 229.04 339.65C227.62 340.06 226.2 340.41 224.76 340.76C223.267 341.173 221.729 341.398 220.18 341.43C220.151 341.43 220.123 341.442 220.102 341.462C220.082 341.483 220.07 341.511 220.07 341.54C220.07 341.569 220.082 341.597 220.102 341.618C220.123 341.638 220.151 341.65 220.18 341.65C221.636 341.78 223.1 341.81 224.56 341.74C225.972 341.631 227.375 341.428 228.76 341.13C231.7 340.53 234.62 339.79 237.57 339.13C243.5 337.86 249.43 336.59 255.45 335.75C255.72 335.75 255.67 335.28 255.39 335.3Z" fill="#263238"/>
<path d="M269.85 341.16C264.979 340.444 260.071 340.006 255.15 339.85C252.69 339.78 250.24 339.85 247.78 339.98C246.61 340.05 245.44 340.14 244.27 340.24C243.1 340.34 241.7 340.63 240.41 340.72C240.28 340.72 240.27 340.94 240.41 340.94C241.63 340.89 242.86 341.04 244.08 341.06L247.76 341.11C250.21 341.11 252.66 341.22 255.12 341.24C260.03 341.24 264.93 341.36 269.84 341.56C270.1 341.57 270.1 341.19 269.85 341.16Z" fill="#263238"/>
<path d="M175.4 383.23C185.57 393.16 207.77 391.23 264.12 391.55C271.92 391.6 287.05 336.66 278.73 336.18C268.24 335.58 227.42 335.51 224.44 335.89C199.25 339 168.5 376.5 175.4 383.23Z" fill="#EB9481"/>
<path d="M259.83 337.29C259.83 337.29 281.63 330.85 294.12 331.01C310.86 331.23 325.22 338.3 331.06 341.63C343.25 348.58 367.92 373.81 361.9 382.18C356.44 389.76 332.53 362.7 332.53 362.7C332.53 362.7 361.46 386.27 353.21 394.19C344.96 402.11 319 369.11 319 369.11C319 369.11 348.18 393.99 338.39 400.81C330.98 405.97 305.78 377.41 305.78 377.41C305.78 377.41 330.71 399 323.33 404.6C315.17 410.82 290.25 385.92 290.25 385.92C269.07 397.06 254.17 392.81 244.04 389.18C241.59 388.3 259.83 337.29 259.83 337.29Z" fill="#EB9481"/>
<path d="M323 353.91C326.5 356.55 330.06 359.21 333.31 362.16C336.56 365.11 339.72 368.16 342.68 371.4C349.95 379.34 353.25 385.45 353.01 385.1C347.2 376.7 335.73 365.97 332.47 363.02C329.21 360.07 326.13 357.02 322.89 354.02C322.84 354 323 353.84 323 353.91Z" fill="#263238"/>
<path d="M312.19 365.46C316.51 369.03 320.93 372.46 325.09 376.18C329.25 379.9 332.84 383.84 336.72 387.86C337.02 388.17 336.72 388.23 336.44 387.93C332.44 384.07 328.38 380.81 324.3 376.99C320.22 373.17 316.3 369.2 312.09 365.55C312 365.5 312.12 365.4 312.19 365.46Z" fill="#263238"/>
<path d="M301.09 373.69C307.97 378.81 313.9 385.2 319.57 391.6C319.85 391.92 319.5 391.95 319.19 391.6C313.19 385.53 308.47 380.72 300.91 373.88C300.79 373.83 300.94 373.58 301.09 373.69Z" fill="#263238"/>
<path d="M285.77 330.8L246.89 393.51C246.89 393.51 184.13 397.66 174.75 382.26C165.37 366.86 209.43 336.54 224.35 335.81C239.27 335.08 285.77 330.8 285.77 330.8Z" fill="#455A64"/>
<path d="M206.77 372.87C205.098 373.482 203.522 374.331 202.09 375.39C205.642 375.019 209.037 373.73 211.94 371.65C210.167 371.807 208.426 372.218 206.77 372.87V372.87ZM262.85 351.35C261.18 351.962 259.604 352.807 258.17 353.86C261.722 353.489 265.117 352.2 268.02 350.12C266.247 350.28 264.506 350.695 262.85 351.35V351.35ZM226.48 355.54C225.868 353.868 225.019 352.292 223.96 350.86C224.126 352.632 224.54 354.373 225.19 356.03C225.802 357.702 226.651 359.278 227.71 360.71C227.55 358.937 227.135 357.196 226.48 355.54V355.54ZM191.59 353.62C191.49 353.36 191.38 353.11 191.27 352.86C190.9 353.15 190.54 353.45 190.18 353.75L190.3 354.1C190.912 355.776 191.76 357.355 192.82 358.79C192.661 357.017 192.246 355.275 191.59 353.62ZM226.08 390.93C224.466 390.176 222.751 389.658 220.99 389.39C222.355 390.532 223.877 391.472 225.51 392.18C227.127 392.926 228.84 393.441 230.6 393.71C229.235 392.571 227.712 391.635 226.08 390.93V390.93ZM182.08 381.25C180.467 380.494 178.752 379.975 176.99 379.71C178.356 380.856 179.882 381.796 181.52 382.5C183.131 383.252 184.842 383.767 186.6 384.03C185.248 382.898 183.743 381.962 182.13 381.25H182.08ZM248.42 375.43C247.671 377.046 247.156 378.759 246.89 380.52C249.144 377.745 250.633 374.428 251.21 370.9C250.091 372.275 249.168 373.8 248.47 375.43H248.42Z" fill="#37474F"/>
<path d="M201.37 346.17C204.61 343.24 213.97 336.06 224.37 335.81C224.48 335.81 224.51 335.97 224.37 335.99C216.02 337.39 204.84 343.72 201.47 346.3C201.453 346.304 201.435 346.303 201.419 346.297C201.403 346.291 201.389 346.281 201.378 346.267C201.367 346.254 201.361 346.237 201.36 346.22C201.358 346.203 201.362 346.185 201.37 346.17Z" fill="#263238"/>
<path d="M236 385.57C251.31 364.19 264.15 339.39 266.69 335.23C266.81 335.03 266.48 334.86 266.37 335.07C264.09 339.28 246.37 366.02 235.65 385.39C235.52 385.61 235.85 385.77 236 385.57Z" fill="#263238"/>
<path d="M281.68 236.76C280.88 239.09 265.05 256.18 254.55 252.82C247.17 250.45 255.55 234.21 255.55 234.21L252.97 212.21L281.69 197.89C281.69 197.89 282 235.78 281.68 236.76Z" fill="#EB9481"/>
<path d="M281.75 212.05C279.033 217.165 275.292 221.666 270.758 225.27C266.224 228.875 260.996 231.506 255.4 233L253 212.23L281.73 197.91C281.73 197.91 281.72 204.3 281.75 212.05Z" fill="#263238"/>
<path d="M232.44 172.56C219.95 206.56 238.93 217.91 246.27 220.56C252.93 223 275.94 230.45 291.87 197.89C307.8 165.33 295.92 148.76 280.97 142.39C266.02 136.02 244.92 138.53 232.44 172.56Z" fill="#EB9481"/>
<path d="M243.19 167.83C244.009 167.658 244.837 167.531 245.67 167.45C246.524 167.197 247.438 167.232 248.27 167.55C248.511 167.7 248.695 167.926 248.794 168.192C248.894 168.457 248.903 168.749 248.82 169.02C248.573 169.534 248.194 169.973 247.721 170.291C247.248 170.609 246.699 170.795 246.13 170.83C244.988 171.083 243.792 170.898 242.78 170.31C242.56 170.163 242.386 169.955 242.281 169.711C242.175 169.468 242.142 169.2 242.186 168.938C242.229 168.676 242.347 168.433 242.525 168.236C242.703 168.04 242.934 167.899 243.19 167.83V167.83Z" fill="#263238"/>
<path d="M269.27 171.41C268.515 171.058 267.78 170.664 267.07 170.23C266.242 169.917 265.539 169.341 265.07 168.59C264.965 168.325 264.951 168.033 265.031 167.759C265.11 167.486 265.279 167.247 265.51 167.08C266.016 166.817 266.583 166.694 267.153 166.724C267.723 166.754 268.274 166.935 268.75 167.25C269.808 167.738 270.649 168.6 271.11 169.67C271.202 169.923 271.218 170.197 271.156 170.459C271.094 170.721 270.957 170.959 270.761 171.144C270.565 171.329 270.32 171.453 270.055 171.5C269.79 171.547 269.517 171.516 269.27 171.41V171.41Z" fill="#263238"/>
<path d="M261.72 178.74C261.72 178.66 261.87 178.91 261.83 179.01C261.01 181.34 260.46 184.14 262.33 185.6C262.39 185.65 262.33 185.76 262.27 185.73C259.79 184.53 260.56 180.82 261.72 178.74Z" fill="#263238"/>
<path d="M264.6 177C268.48 177.92 266.35 185.6 262.76 184.75C259.17 183.9 261.35 176.19 264.6 177Z" fill="#263238"/>
<path d="M266 177.78C266.55 178.4 267 179.35 267.78 179.65C268.56 179.95 269.62 179.39 270.44 178.79C270.53 178.73 270.58 178.79 270.55 178.91C270.17 180.39 269.18 181.75 267.55 181.53C266.06 181.33 265.39 179.74 265.43 178.16C265.43 177.87 265.78 177.53 266 177.78Z" fill="#263238"/>
<path d="M247.32 174.75C247.32 174.65 247.1 174.81 247.08 174.91C246.51 177.31 245.46 179.97 243.08 180.18C243.01 180.18 242.99 180.31 243.08 180.32C245.81 180.66 247.17 177.11 247.32 174.75Z" fill="#263238"/>
<path d="M245.86 171.68C242.1 170.36 239.74 177.98 243.22 179.2C246.7 180.42 249 172.79 245.86 171.68Z" fill="#263238"/>
<path d="M244.11 171.69C243.39 171.91 242.56 172.46 241.83 172.28C241.1 172.1 240.62 171.06 240.33 170.11C240.33 170.01 240.22 170.06 240.19 170.11C239.7 171.56 239.71 173.22 241.02 173.94C242.33 174.66 243.54 173.63 244.34 172.29C244.48 172.08 244.41 171.6 244.11 171.69Z" fill="#263238"/>
<path d="M254.36 197.56C253.65 197.99 252.9 198.63 252.01 198.51C251.117 198.289 250.282 197.88 249.56 197.31C249.545 197.302 249.527 197.298 249.51 197.3C249.493 197.301 249.476 197.308 249.463 197.318C249.449 197.329 249.439 197.343 249.433 197.359C249.427 197.376 249.426 197.393 249.43 197.41C249.664 197.961 250.044 198.438 250.528 198.79C251.013 199.142 251.583 199.357 252.18 199.41C252.7 199.394 253.204 199.224 253.628 198.921C254.052 198.619 254.376 198.197 254.56 197.71C254.63 197.59 254.46 197.49 254.36 197.56Z" fill="#263238"/>
<path d="M246.92 186.12C246.92 186.12 245.22 189.86 244.74 191.54C247.902 192.596 251.142 193.402 254.43 193.95C254.63 193.95 254.8 193.21 254.62 193.16C249.95 191.71 249.05 191.41 246.42 190.7C246.42 190.2 249.21 184.96 248.95 184.86C247.633 184.605 246.288 184.527 244.95 184.63C247.9 177.45 251.95 170.81 254.8 163.63C254.9 163.37 254.54 163.18 254.4 163.39C249.64 170.06 246.06 178.24 242.83 185.57C242.37 186.47 246.17 186.21 246.92 186.12Z" fill="#263238"/>
<path d="M291.65 194.22C283.11 191.86 286.93 164.81 287.43 161.49C287.01 163.56 284.71 174.49 283.77 174.77C282.852 174.529 281.98 174.137 281.19 173.61V173.61C281.497 172.294 281.705 170.957 281.81 169.61C281.88 168.99 281.27 170.87 280.38 173.14C279.92 172.89 279.38 172.6 278.89 172.32C279.655 169.558 280.045 166.706 280.05 163.84C280.05 162.75 278.66 167.32 276.71 171.13C271.15 168.13 263.08 163.95 255.12 161.77C253 161.18 251.12 160.77 249.48 160.45C250.23 157.23 251.42 153.89 251.01 154.57C249.906 156.363 248.978 158.258 248.24 160.23C247.34 160.07 246.5 159.93 245.75 159.83C246.61 155.23 250.5 148.5 249.51 149.44C246.54 152.342 244.145 155.779 242.45 159.57C241.052 159.607 239.658 159.418 238.32 159.01C238.51 157.52 241.25 148.66 252.41 140.24C266.1 129.91 290.7 133.3 299.07 151.8C299.07 151.8 307.48 160.68 306.55 171.53C305.62 182.38 296.58 195.58 291.65 194.22Z" fill="#263238"/>
<path d="M286 196.1C286 196.1 296.6 187.25 300.81 191.32C305.02 195.39 294.99 209.66 288.59 210.24C287.774 210.371 286.94 210.336 286.138 210.137C285.337 209.937 284.583 209.578 283.924 209.08C283.264 208.582 282.712 207.956 282.301 207.239C281.89 206.523 281.627 205.731 281.53 204.91L286 196.1Z" fill="#EB9481"/>
<path d="M297.83 195.34C297.92 195.34 297.9 195.49 297.83 195.5C293.31 196.05 290.13 199.25 287.57 202.76C289.19 201.58 291.06 201.2 292.69 203.19C292.78 203.3 292.63 203.44 292.53 203.38C291.875 202.958 291.105 202.749 290.327 202.781C289.548 202.813 288.798 203.085 288.18 203.56C287.156 204.368 286.218 205.28 285.38 206.28C285.09 206.6 284.48 206.22 284.74 205.84C284.754 205.809 284.775 205.782 284.8 205.76C286.08 200.53 292.1 194.35 297.83 195.34Z" fill="#263238"/>
<path d="M253 139.87C262.573 136.392 273.132 136.834 282.38 141.1C294.16 146.49 306.86 155.59 311.03 177.92C311.03 177.92 316.33 153.04 298.47 140.52C276 124.8 257.75 134.81 253 139.87Z" fill="#7165E3"/>
<path d="M225.79 217.45C225.79 217.45 230.59 208.45 237.17 212.79C243.75 217.13 237.39 225.08 237.39 225.08L225.79 217.45Z" fill="#FF9CBD"/>
<path d="M237.609 224.743L226.013 217.115L186.684 276.898L198.279 284.526L237.609 224.743Z" fill="#7165E3"/>
<path d="M238.805 225.061L225.263 216.152L223.702 218.525L237.245 227.434L238.805 225.061Z" fill="#37474F"/>
<path d="M237.065 227.688L223.522 218.778L221.962 221.151L235.504 230.06L237.065 227.688Z" fill="#37474F"/>
<path d="M198.29 284.53L189.07 289L186.07 290.49L186.22 287.1L186.71 276.85L188.86 276.13C188.86 276.13 189.02 278.34 189.03 278.38L191.19 277.66C191.19 277.66 191.35 279.86 191.36 279.9L193.48 279.17C193.48 279.17 193.67 281.39 193.68 281.43L195.81 280.7L196 283L198.13 282.27C198.13 282.27 198.28 284.49 198.29 284.53Z" fill="#EBEBEB"/>
<path d="M189.07 289.04L186.04 290.53L186.19 287.14L189.07 289.04Z" fill="#37474F"/>
<g opacity="0.1">
<path d="M191.73 274.25C194.24 270.16 196.81 266.11 199.4 262.07L207.23 250L215.23 238C217.92 234 220.62 230.06 223.38 226.14C220.88 230.23 218.3 234.28 215.72 238.32L207.88 250.39L199.88 262.39C197.19 266.36 194.5 270.33 191.73 274.25Z" fill="black"/>
<path d="M195.21 276.57C197.72 272.47 200.29 268.43 202.88 264.39L210.71 252.32L218.71 240.32C221.4 236.32 224.1 232.38 226.86 228.46C224.36 232.55 221.78 236.59 219.2 240.63L211.36 252.7L203.36 264.7C200.67 268.68 198 272.64 195.21 276.57Z" fill="black"/>
<path d="M198.69 278.88C201.2 274.79 203.78 270.74 206.36 266.7L214.2 254.64L222.2 242.64C224.88 238.64 227.58 234.7 230.34 230.78C227.84 234.88 225.26 238.92 222.68 242.96L214.84 255.03L206.84 267.03C204.15 271 201.46 275 198.69 278.88Z" fill="black"/>
</g>
<path d="M304.24 262.86C316.06 291.39 334.01 351.13 320.57 369.94C307.62 388.07 233.73 347.32 218.74 338.94C212.59 335.52 228.98 282.79 235.95 285.61C251.27 291.82 282.5 313.21 283.33 312.82C284.16 312.43 283.03 288.3 282.85 264.5C282.59 229.91 295.75 242.35 304.24 262.86Z" fill="#EB9481"/>
<path d="M192.24 252.45C187.14 256.73 191.65 261.93 191.65 261.93C188.758 261.854 185.929 262.788 183.65 264.57C179.77 267.92 183.32 275.47 183.32 275.47C180.299 276.018 177.512 277.46 175.32 279.61C171.93 283.18 174.42 291.31 174.42 291.31C171.913 293.349 170.22 296.219 169.65 299.4C168.48 307.96 178.55 316.48 184.99 321.85C194.56 329.85 214.58 336.73 218.82 338.97L254 298.29C254 298.29 232 266.29 223.89 260.43C215.63 254.48 197.26 248.24 192.24 252.45Z" fill="#EB9481"/>
<path d="M192.5 261.52C201.18 264.52 208.5 269.85 216.14 274.79C216.31 274.9 216.14 275.17 215.96 275.06C208.44 270.06 199.96 266.61 192.31 261.91C192.268 261.88 192.238 261.836 192.225 261.785C192.212 261.735 192.217 261.681 192.24 261.635C192.263 261.588 192.302 261.551 192.349 261.53C192.397 261.509 192.45 261.505 192.5 261.52V261.52Z" fill="#263238"/>
<path d="M183.87 275.05C185.775 275.915 187.56 277.025 189.18 278.35C190.98 279.65 192.753 280.983 194.5 282.35C198.02 285.07 201.463 287.87 204.83 290.75C204.98 290.88 204.83 291.14 204.66 291.02C201.15 288.32 197.66 285.67 193.99 283.12C192.177 281.847 190.36 280.587 188.54 279.34C186.741 278.272 185.065 277.011 183.54 275.58C183.488 275.529 183.455 275.462 183.447 275.39C183.438 275.318 183.455 275.245 183.493 275.183C183.531 275.121 183.59 275.075 183.658 275.05C183.727 275.026 183.801 275.026 183.87 275.05V275.05Z" fill="#263238"/>
<path d="M174.5 291.42C176.21 291.99 177.73 293.53 179.12 294.65C180.687 295.923 182.267 297.187 183.86 298.44C187.04 300.94 190.21 303.44 193.47 305.83C193.64 305.95 193.47 306.21 193.3 306.09C189.97 303.68 186.62 301.31 183.3 298.87C181.68 297.67 180.06 296.46 178.46 295.25C177.09 294.25 175.26 293.07 174.35 291.58C174.31 291.5 174.41 291.4 174.5 291.42Z" fill="#263238"/>
<path d="M254.33 293L226 347.55C226 347.55 289.58 377.84 312 374.84C334.42 371.84 324 329.07 322.64 319.43C321.64 312.54 309.92 270.88 300.76 253.94C291.6 237 283.51 236.71 282.25 259.78C280.99 282.85 282.87 310.88 281.94 310.46C281.01 310.04 254.33 293 254.33 293Z" fill="#455A64"/>
<path d="M292.67 290.32C290.998 290.932 289.422 291.781 287.99 292.84C291.542 292.469 294.937 291.18 297.84 289.1C296.067 289.257 294.326 289.668 292.67 290.32V290.32ZM262.85 351.32C261.18 351.932 259.604 352.777 258.17 353.83C261.722 353.459 265.117 352.17 268.02 350.09C266.245 350.26 264.504 350.684 262.85 351.35V351.32ZM311.48 350.19C309.81 350.802 308.234 351.647 306.8 352.7C308.582 352.552 310.333 352.148 312 351.5C313.674 350.896 315.25 350.05 316.68 348.99C314.896 349.148 313.145 349.562 311.48 350.22V350.19ZM289.25 330.52C288.646 328.846 287.8 327.269 286.74 325.84C287.111 329.392 288.4 332.787 290.48 335.69C290.321 333.926 289.907 332.195 289.25 330.55V330.52ZM248.33 330.35C246.716 329.597 245.002 329.081 243.24 328.82C244.61 329.957 246.136 330.893 247.77 331.6C249.383 332.356 251.098 332.875 252.86 333.14C251.486 332.014 249.961 331.085 248.33 330.38V330.35ZM315.33 319.77C313.721 319.014 312.009 318.498 310.25 318.24C311.615 319.379 313.137 320.315 314.77 321.02C316.386 321.771 318.099 322.289 319.86 322.56C318.501 321.433 316.989 320.504 315.37 319.8L315.33 319.77ZM300.44 261.77C298.827 261.023 297.117 260.508 295.36 260.24C296.725 261.382 298.247 262.322 299.88 263.03C301.496 263.777 303.21 264.292 304.97 264.56C303.611 263.423 302.099 262.48 300.48 261.76L300.44 261.77ZM285.14 366.18C284.536 367.515 284.073 368.909 283.76 370.34L284.24 370.48C285.089 369.316 285.813 368.066 286.4 366.75C287.146 365.133 287.661 363.42 287.93 361.66C286.791 363.027 285.852 364.549 285.14 366.18V366.18ZM267.64 301.52C266.698 302.755 265.905 304.098 265.28 305.52C264.525 307.13 264.006 308.841 263.74 310.6C264.882 309.235 265.822 307.713 266.53 306.08C267.167 304.678 267.643 303.209 267.95 301.7L267.64 301.52Z" fill="#37474F"/>
<path d="M282 309.7C284.737 312.679 287.182 315.914 289.3 319.36C291.374 322.653 293.277 326.051 295 329.54C295 329.62 294.84 329.66 294.79 329.54C292.79 326.2 290.38 322.94 288.17 319.65C285.96 316.36 283.39 313.18 281.4 309.84C281.27 309.66 281.83 309.51 282 309.7Z" fill="#263238"/>
<path d="M313.49 286.52C315.16 293.39 321.77 317.13 322.94 324.09C324.229 331.026 325.041 338.043 325.37 345.09C325.485 348.576 325.345 352.065 324.95 355.53C324.631 358.967 323.802 362.337 322.49 365.53C321.237 368.62 318.881 371.136 315.88 372.59C312.748 373.847 309.359 374.331 306 374C299.11 373.61 292.31 371.62 285.59 369.58C278.87 367.54 272.23 365.1 265.59 362.7C258.95 360.3 252.35 357.81 245.77 355.23C239.19 352.65 232.6 350.1 226.06 347.44L226.11 347.61L227.87 343.97L225.87 347.5L225.81 347.61L225.93 347.66C232.35 350.66 238.8 353.53 245.3 356.3C251.8 359.07 258.36 361.75 264.95 364.3C271.54 366.85 278.22 369.25 284.95 371.43C291.68 373.61 298.57 375.7 305.84 376.09C309.55 376.383 313.275 375.776 316.7 374.32C318.423 373.511 319.964 372.361 321.23 370.94C322.477 369.534 323.49 367.937 324.23 366.21C325.584 362.836 326.433 359.281 326.75 355.66C327.129 352.12 327.213 348.554 327 345C325.35 321.39 317.59 300.05 313.49 286.52Z" fill="#263238"/>
<path d="M281.8 273.33C281.68 276.24 281.66 279.14 281.58 282.05L281.5 290.76C281.42 296.57 281.5 302.39 281.37 308.16L281.32 309.23V309.74V309.98V310.06L281.38 309.94C281.474 309.799 281.616 309.696 281.78 309.65H281.89C281.956 309.635 282.024 309.635 282.09 309.65H282.18H282.13L281.94 309.55L281.48 309.31L280.55 308.78C279.31 308.05 278.07 307.29 276.84 306.53L269.4 302L261.95 297.49L254.37 293H254.3V293.07L253.76 294.27L254.43 293.14H254.32C256.69 294.84 259.06 296.52 261.46 298.14L268.68 303.02C271.1 304.64 273.54 306.2 275.99 307.78C277.23 308.55 278.46 309.32 279.72 310.07L280.67 310.63L281.18 310.9C281.272 310.956 281.369 311.003 281.47 311.04H281.54H281.6L281.75 311.09C281.86 311.105 281.971 311.105 282.08 311.09H282.26C282.437 311.018 282.59 310.896 282.7 310.74L282.78 310.6V310.51C282.784 310.467 282.784 310.423 282.78 310.38V310.19V309.89V309.31V308.2C282.87 302.36 282.78 296.56 282.53 290.75L282.16 282.03C282.17 279.13 282 276.23 281.8 273.33Z" fill="#263238"/>
<path d="M250.38 331.82C253.59 325.55 256.76 319.25 260.22 313.09C262.22 309.6 264.12 306.09 266.12 302.61C266.2 302.48 266.43 302.61 266.37 302.73C263.37 309.15 260.37 315.58 257.11 321.87C253.85 328.16 250.65 334.41 247.31 340.62C245.41 344.16 243.41 347.62 241.31 351.04C241.31 351.1 241.15 351.04 241.18 350.97C243.92 344.45 247.13 338.14 250.38 331.82Z" fill="#263238"/>
<path d="M279.52 280.18C279.975 283.586 280.776 286.936 281.91 290.18C281.701 288.476 281.39 286.787 280.98 285.12C280.587 283.447 280.099 281.798 279.52 280.18V280.18Z" fill="#263238"/>
<path d="M248.76 238C248.76 238 247.22 254.56 256.81 255.41C266.4 256.26 281.12 242.91 287.06 238C281.08 233.234 273.528 230.889 265.9 231.43C254.58 232.06 248.76 238 248.76 238Z" fill="#EB9481"/>
<path d="M296.67 403.97H184.29V409.01H296.67V403.97Z" fill="#A6A6A6"/>
<path d="M296.66 403.97H240.1V409.01H296.66V403.97Z" fill="#C7C7C7"/>
<path d="M231.01 409H121.49L106.01 334.62H215.54L231.01 409Z" fill="#C7C7C7"/>
<path d="M177 373.47C177.123 374.392 177.045 375.33 176.771 376.219C176.497 377.109 176.034 377.928 175.414 378.622C174.793 379.315 174.03 379.866 173.177 380.237C172.324 380.608 171.4 380.79 170.47 380.77C168.472 380.725 166.558 379.963 165.076 378.622C163.594 377.282 162.644 375.453 162.4 373.47C162.277 372.547 162.355 371.608 162.63 370.718C162.904 369.828 163.368 369.008 163.989 368.314C164.611 367.621 165.375 367.07 166.23 366.7C167.084 366.33 168.009 366.149 168.94 366.17C170.937 366.213 172.851 366.975 174.332 368.316C175.813 369.657 176.76 371.487 177 373.47Z" fill="white"/>
<path d="M80.9401 296C79.6212 299.853 79.4004 303.997 80.3023 307.969C81.2043 311.941 83.1934 315.583 86.0471 318.489C88.9009 321.394 92.5068 323.449 96.4615 324.422C100.416 325.395 104.564 325.249 108.44 324L117.73 330L116.73 319.08C119.165 316.799 121.047 313.993 122.235 310.876C123.423 307.758 123.884 304.411 123.584 301.088C123.284 297.765 122.231 294.555 120.504 291.7C118.778 288.846 116.423 286.422 113.619 284.614C110.815 282.806 107.636 281.661 104.324 281.266C101.011 280.871 97.6519 281.236 94.5015 282.333C91.3511 283.431 88.4923 285.232 86.1424 287.6C83.7925 289.969 82.0133 292.841 80.9401 296V296Z" fill="#7165E3"/>
<path d="M95.6685 295.249L93.5613 297.357L107.739 311.534L109.846 309.427L95.6685 295.249Z" fill="white"/>
<path d="M109.841 297.358L107.733 295.251L93.5559 309.429L95.6631 311.536L109.841 297.358Z" fill="white"/>
<path d="M173.26 111.63C173.366 116.963 174.952 122.162 177.842 126.646C180.732 131.129 184.812 134.721 189.626 137.02C194.439 139.319 199.797 140.234 205.101 139.664C210.405 139.094 215.445 137.06 219.66 133.79L233.83 137.1L227.69 124.1C229.851 119.884 230.927 115.196 230.82 110.46C230.805 106.639 230.03 102.859 228.539 99.3413C227.048 95.8231 224.872 92.6369 222.138 89.9683C219.403 87.2997 216.165 85.2021 212.611 83.7978C209.058 82.3936 205.26 81.7107 201.44 81.789C197.62 81.8673 193.854 82.7053 190.361 84.254C186.868 85.8027 183.718 88.0312 181.095 90.8097C178.472 93.5881 176.429 96.8608 175.083 100.437C173.738 104.013 173.118 107.822 173.26 111.64V111.63Z" fill="white"/>
<path d="M173.26 111.63C173.396 116.963 175.006 122.155 177.91 126.63C178.627 127.74 179.415 128.802 180.27 129.81C181.149 130.799 182.091 131.731 183.09 132.6C184.077 133.478 185.126 134.284 186.23 135.01C186.77 135.39 187.37 135.68 187.93 136.01L188.79 136.5C189.08 136.66 189.39 136.78 189.69 136.92C192.076 138.045 194.607 138.833 197.21 139.26C198.51 139.468 199.823 139.581 201.14 139.6C202.455 139.658 203.772 139.612 205.08 139.46C210.324 138.859 215.296 136.809 219.44 133.54L219.57 133.44H219.74L233.93 136.67L233.43 137.28L227.26 124.28L227.16 124.07L227.26 123.86C229.199 120.019 230.251 115.792 230.34 111.49C230.419 107.18 229.516 102.909 227.7 98.9999C225.861 95.1035 223.192 91.6564 219.88 88.8999C216.537 86.1568 212.61 84.217 208.4 83.2299C204.176 82.227 199.779 82.1928 195.54 83.1299C191.299 84.114 187.332 86.0342 183.93 88.7499C180.533 91.5049 177.807 94.9964 175.958 98.9604C174.11 102.924 173.187 107.257 173.26 111.63ZM173.26 111.63C173.163 107.245 174.065 102.895 175.898 98.9102C177.732 94.9254 180.447 91.4098 183.84 88.6299C187.223 85.8139 191.208 83.8143 195.488 82.786C199.768 81.7577 204.227 81.7282 208.52 82.6999C212.842 83.6412 216.89 85.5641 220.35 88.3199C223.81 91.0971 226.597 94.6219 228.5 98.6299C230.406 102.647 231.364 107.048 231.298 111.494C231.232 115.94 230.145 120.311 228.12 124.27V123.85L234.22 136.85L234.61 137.67L233.72 137.46L219.57 134.07L219.87 134C215.591 137.276 210.483 139.295 205.12 139.83C203.791 139.961 202.453 139.988 201.12 139.91C199.779 139.873 198.442 139.739 197.12 139.51C194.498 139.033 191.955 138.198 189.56 137.03C187.16 135.875 184.938 134.383 182.96 132.6C181.964 131.724 181.026 130.786 180.15 129.79C179.298 128.772 178.513 127.7 177.8 126.58C174.943 122.108 173.372 116.936 173.26 111.63V111.63Z" fill="#263238"/>
<path d="M197.06 116.1C197.039 114.896 197.257 113.7 197.7 112.58C198.254 111.406 199.183 110.449 200.34 109.86C200.74 109.62 201.24 109.34 201.82 109.04C202.425 108.72 203.004 108.352 203.55 107.94C204.1 107.519 204.58 107.012 204.97 106.44C205.359 105.846 205.561 105.15 205.55 104.44C205.559 103.929 205.449 103.422 205.23 102.96C205.019 102.551 204.734 102.185 204.39 101.88C204.029 101.585 203.615 101.361 203.17 101.22C202.708 101.073 202.225 100.999 201.74 101C201.192 100.993 200.648 101.095 200.14 101.3C199.675 101.495 199.238 101.751 198.84 102.06C198.475 102.36 198.14 102.695 197.84 103.06C197.559 103.411 197.298 103.778 197.06 104.16L193.58 101.76C193.914 100.955 194.38 100.211 194.96 99.5599C195.54 98.9211 196.215 98.3747 196.96 97.9399C197.703 97.4976 198.504 97.161 199.34 96.9399C200.201 96.7114 201.089 96.5971 201.98 96.5999C202.996 96.5978 204.007 96.746 204.98 97.0399C205.951 97.3258 206.855 97.8017 207.64 98.4399C208.453 99.109 209.108 99.9489 209.56 100.9C210.077 102.021 210.33 103.246 210.3 104.48C210.312 105.247 210.211 106.012 210 106.75C209.806 107.384 209.516 107.984 209.14 108.53C208.765 109.066 208.321 109.55 207.82 109.97C207.274 110.42 206.7 110.834 206.1 111.21C205.56 111.53 205.03 111.84 204.5 112.13C203.982 112.415 203.493 112.75 203.04 113.13C202.607 113.476 202.238 113.896 201.95 114.37C201.658 114.888 201.513 115.476 201.53 116.07L197.06 116.1ZM197.14 125.43V119.9H201.58V125.43H197.14Z" fill="#7165E3"/>
</svg>
