<svg width="31" height="27" viewBox="0 0 31 27" fill="none" xmlns="http://www.w3.org/2000/svg">
<path d="M0.0364774 3.11488C0.0370043 3.12868 0.138002 5.72224 1.73838 8.69883C2.59575 10.2935 4.07242 11.3946 5.09356 11.7316C6.11471 12.0685 7.13655 11.9347 7.47622 12.4055C8.20561 13.4164 8.41227 18.0234 8.46089 18.2783C8.50952 18.5332 8.86358 21.1185 9.17816 22.2257C9.33505 22.778 9.74886 23.6698 9.89475 23.9586C10.0406 24.2474 10.7378 25.2135 11.4034 25.7406C11.8757 26.1146 12.9287 26.6877 13.5005 26.989C13.586 27.034 13.6688 26.9314 13.6066 26.858C13.2472 26.4343 12.6503 25.7312 12.4683 25.521C12.202 25.2135 11.759 24.439 11.6252 23.9586C11.3751 23.3249 11.2087 22.6603 11.0866 22.2257C10.8436 21.3592 10.6855 19.8187 10.6855 18.2783C10.6855 16.7379 10.8801 15.9677 11.2204 14.7642C11.5608 13.5607 13.749 9.46903 14.8187 9.90232C15.8885 10.3355 17.639 10.7688 18.5629 10.7688C19.4868 10.7688 20.3621 10.7207 21.7236 10.3837C23.0851 10.0467 24.8356 9.22832 26.1486 8.21749C27.3433 7.29751 30.4309 3.94558 30.9767 3.35003C31.0178 3.30519 31.0027 3.23575 30.9461 3.21284C30.3179 2.95863 27.2262 1.73658 25.2247 1.47813C22.9879 1.18931 21.1401 1.18931 18.5143 2.15207C16.3073 2.96128 14.2034 6.42312 13.5884 7.50677C13.5425 7.5876 13.6385 7.67211 13.7157 7.61975C14.3338 7.20113 15.7854 6.26305 17.1528 5.71424C18.952 4.9922 21.3346 4.89593 21.8208 4.9922C22.3071 5.08847 19.4228 5.46219 16.9583 6.53258C14.9239 7.4162 13.6031 8.31369 12.4361 9.37275C11.269 10.4318 9.0809 15.4381 9.17816 14.9568C9.27542 14.4754 8.69188 11.7316 7.76798 9.9986C7.06484 8.67968 5.77024 6.60796 5.19173 5.69324C5.13823 5.60864 5.24116 5.52167 5.31667 5.58782C5.85891 6.06249 6.81408 6.94742 7.47622 7.83235C8.26611 8.88798 9.05596 10.801 9.32485 11.4823C9.356 11.5613 9.46932 11.5568 9.49026 11.4746C9.64867 10.8546 10.0129 9.23464 9.8589 7.97678C9.66437 6.38824 9.42122 5.47361 7.33035 3.40365C5.23944 1.33372 0.474108 -0.25484 0.182346 0.0339912C-0.108684 0.322093 0.0357466 3.10084 0.0364726 3.11477C0.036495 3.1152 0.0364611 3.11445 0.0364774 3.11488Z" fill="white"/>
</svg>
