<svg xmlns="http://www.w3.org/2000/svg" viewBox="0 0 500 500"><g id="freepik--background-complete--inject-53"><rect x="392.01" y="64.38" width="37.98" height="11.19" transform="translate(822.01 139.95) rotate(180)" style="fill:#ebebeb"></rect><path d="M413.2,50.27c6.33-.1,22.29-.36,28.41-.42l9.57,0h.46v.46l0,11.19V62h-.5l-19-.07c-4.73,0-14.26-.14-19-.21H413v-.22l.22-11.19Zm0,0,.23,11.19-.23-.23c4.74-.06,14.26-.16,19-.2l19-.07-.5.5.05-11.19.45.46-9.41,0c-6-.06-22.34-.31-28.57-.41Z" style="fill:#ebebeb"></path><path d="M370.82,50.27c6.33-.1,22.3-.36,28.41-.42l9.58,0h.45v.46l0,11.19V62h-.5l-19-.07c-4.73,0-14.27-.14-19-.21h-.23v-.22l.22-11.19Zm0,0,.23,11.19-.23-.23c4.74-.06,14.26-.16,19-.2l19-.07-.5.5,0-11.19.46.46-9.42,0c-6-.06-22.34-.31-28.57-.41Z" style="fill:#ebebeb"></path><path d="M48.82,50.27c6.32-.1,22.29-.36,28.4-.42l9.58,0h.46v.46l0,11.19V62h-.5l-19-.07c-4.73,0-14.26-.14-19-.21h-.23v-.22l.23-11.19Zm0,0L49,61.46l-.22-.23c4.74-.06,14.25-.16,19-.2l19-.07-.5.5,0-11.19.46.46-9.42,0c-6-.06-22.34-.31-28.56-.41Z" style="fill:#ebebeb"></path><rect x="70" y="378.93" width="37.98" height="11.19" transform="translate(177.99 769.04) rotate(180)" style="fill:#ebebeb"></rect><path d="M48.82,364.82c6.32-.11,22.29-.36,28.4-.42l9.58,0h.46v.46l0,11.19v.5h-.5l-19-.06c-4.73-.05-14.26-.14-19-.21h-.23V376l.23-11.19Zm0,0L49,376l-.22-.23c4.74-.07,14.25-.16,19-.2l19-.07-.5.5,0-11.19.46.45-9.42,0c-6-.06-22.34-.32-28.56-.41Z" style="fill:#ebebeb"></path><path d="M126,136.3c6.33-.1,22.29-.35,28.41-.41l9.57,0h.46v.46l0,11.19v.5H164l-19-.07c-4.73,0-14.26-.14-19-.2h-.23v-.22L126,136.3Zm0,0,.22,11.19-.22-.22c4.74-.07,14.25-.17,19-.21l19-.07-.5.5,0-11.19.46.46-9.41,0c-6-.07-22.34-.32-28.57-.42Z" style="fill:#ebebeb"></path><path d="M413.2,378.91c6.33-.1,22.29-.35,28.41-.41l9.57,0h.46v.46l0,11.19v.5h-.5l-19-.07c-4.73,0-14.26-.14-19-.2H413v-.23l.22-11.19Zm0,0,.23,11.19-.23-.22c4.74-.07,14.26-.17,19-.21l19-.07-.5.5.05-11.19.45.46-9.41,0c-6-.06-22.34-.32-28.57-.42Z" style="fill:#ebebeb"></path><rect x="266.74" y="235.19" width="37.98" height="11.19" style="fill:#ebebeb"></rect><path d="M283.53,260.49c-6.33.1-22.29.35-28.41.41l-9.57.05h-.46v-.46l0-11.19v-.5h.5l19,.07c4.73,0,14.26.14,19,.2h.23v.22l-.23,11.19Zm0,0-.22-11.19.22.22c-4.74.07-14.25.17-19,.21l-19,.07.5-.5,0,11.19-.46-.46,9.41,0c6,.06,22.34.32,28.57.42Z" style="fill:#ebebeb"></path><rect x="307.67" y="53.82" width="68.32" height="68.32" style="fill:#fff"></rect><path d="M304.11,50.27V125.7h75.43V50.27ZM376,122.14H307.67V53.82H376Z" style="fill:#dbdbdb"></path><rect x="332.64" y="70.48" width="23.62" height="53.25" transform="translate(441.55 -247.34) rotate(90)" style="fill:#ebebeb"></rect><rect x="328.18" y="74.34" width="27.28" height="27.28" transform="translate(429.81 -253.84) rotate(90)" style="fill:#c7c7c7"></rect><rect x="379.54" y="50.27" width="2.91" height="75.43" style="fill:#c7c7c7"></rect><rect x="307.67" y="150.83" width="68.32" height="68.32" style="fill:#fff"></rect><rect x="319.41" y="161.76" width="17.84" height="51.53" style="fill:#c7c7c7"></rect><path d="M304.11,147.28V222.7h75.43V147.28ZM376,219.15H307.67V150.83H376Z" style="fill:#dbdbdb"></path><rect x="328.18" y="171.35" width="27.28" height="27.28" style="fill:#ebebeb"></rect><rect x="379.54" y="147.28" width="2.91" height="75.43" style="fill:#c7c7c7"></rect><rect x="307.67" y="247.84" width="68.32" height="68.32" style="fill:#fff"></rect><rect x="315.24" y="257.15" width="37.49" height="22.41" style="fill:#ebebeb"></rect><path d="M304.11,244.29v75.42h75.43V244.29ZM376,316.16H307.67V247.84H376Z" style="fill:#dbdbdb"></path><rect x="328.18" y="268.36" width="27.28" height="27.28" style="fill:#c7c7c7"></rect><rect x="379.54" y="244.29" width="2.91" height="75.43" style="fill:#c7c7c7"></rect><path d="M59,50.27V305H224.56V50.27ZM218.45,298.85H65.13V56.38H218.45Z" style="fill:#ebebeb"></path><rect x="65.13" y="56.38" width="153.32" height="242.47" style="fill:#fff"></rect><rect x="65.12" y="174.56" width="153.33" height="6.11" transform="translate(283.57 355.22) rotate(180)" style="fill:#ebebeb"></rect><rect x="47.77" y="304.96" width="188.04" height="17.53" transform="translate(283.57 627.44) rotate(180)" style="fill:#dbdbdb"></rect><path d="M65.12,56.37H218.45V213.25H65.12ZM212.79,62h-142V207.59h142Z" style="fill:#dbdbdb"></path><rect x="166.46" y="56.37" width="3.05" height="151.22" style="fill:#dbdbdb"></rect><rect x="114.06" y="56.37" width="3.05" height="151.22" style="fill:#dbdbdb"></rect><path d="M451.74,425.72H426.92l-24.85,0c-2.35,0,0-81.75,0-90.12s17.71-35.08,17.71-39.81,0-46.89,0-46.89h14.21s0,42.16,0,46.89,17.74,31.47,17.75,39.8S454.09,425.72,451.74,425.72Z" style="fill:#dbdbdb"></path><rect x="401.02" y="371.61" width="51.74" height="37.5" style="fill:#ebebeb"></rect><rect x="420.1" y="235.65" width="13.83" height="7.25" style="fill:#c7c7c7"></rect><rect x="422.28" y="242.89" width="9.46" height="5.72" style="fill:#dbdbdb"></rect><rect x="418.6" y="243.9" width="16.58" height="5.82" style="fill:#c7c7c7"></rect></g><g id="freepik--Table--inject-53"><path d="M45.3,425.75c131.15-.61,278.26-.62,409.4,0-131.15.61-278.26.61-409.4,0Z" style="fill:#263238"></path></g><g id="freepik--Plant--inject-53"><path d="M453,323.7c-13.95,18.89-28.49,40.81-32,64.5,0,.36.53.47.61.12a141,141,0,0,1,6.17-19c9.17-2.52,18.17-4.6,23-13.7,4.91-9.35,4.28-21.55,3.35-31.74C454,323.36,453.24,323.33,453,323.7Z" style="fill:#7165E3"></path><path d="M427.85,369.17c6.27-14.06,14.31-28.18,24.53-39.74.07-.08.18,0,.12.12-6.7,8.23-11.78,17.2-16.75,26.32,4.62-4.69,9.68-8.89,14.05-13.86.09-.09.22.05.14.14-4.34,5.22-9.09,10.88-14.74,14.74q-2.28,4.2-4.61,8.41c.38-.21.78-.4,1.17-.59.07,0,.13.07.06.1-.43.22-.86.45-1.31.64-.73,1.33-1.46,2.66-2.21,4C428.13,369.73,427.72,369.47,427.85,369.17Z" style="fill:#263238"></path><path d="M432.51,364.27a83.51,83.51,0,0,0,10.71-7.15c.09-.07.22.05.13.13a56.66,56.66,0,0,1-10.69,7.28A.15.15,0,0,1,432.51,364.27Z" style="fill:#263238"></path><path d="M419.31,384.68c0,.28.52.28.51,0,.08-7.8,0-15.63.13-23.47,2-4,6.29-6.27,9.27-9.5a41.4,41.4,0,0,0,5.56-7.74,55.75,55.75,0,0,0,6.46-21.53c.82-8.34-2.34-35.88-5.86-34.92-1.83.5-7.73,14.14-9.3,18.64A131.16,131.16,0,0,0,420.53,329C417.68,347.35,417.92,366.2,419.31,384.68Z" style="fill:#7165E3"></path><path d="M419.26,351l0,0c.43-9.87,2.66-19.83,4.74-29.41,2.24-10.31,4.86-20,10.17-29.22a.15.15,0,0,1,.26.15,108.83,108.83,0,0,0-8.17,22.43c.36-.55.79-1.08,1.16-1.61.14-.2.48,0,.34.21a14.79,14.79,0,0,1-1.66,2.34s0,0-.07,0c-1.82,7.37-3.14,14.91-4.26,22.43.09-.09.17-.2.25-.29a.08.08,0,0,1,.12.09c-.14.25-.3.5-.45.75-.57,3.81-1.09,7.62-1.62,11.4,6.8-5.81,12.61-12.66,15.88-21.1,0,0,.08,0,.07,0-3.21,8.75-8.27,16.54-16.05,21.85-.15,1-.29,2-.43,3,0,.21-.37.16-.37-.05,0-.89.05-1.8.08-2.7A.21.21,0,0,1,419.26,351Z" style="fill:#263238"></path><path d="M422.46,336.72c5.2-7.75,10.05-15.28,13.85-23.85,0-.1.21,0,.17.07-3.2,8.52-7.69,17.14-13.76,24C422.6,337.06,422.36,336.88,422.46,336.72Z" style="fill:#263238"></path><path d="M429.36,311c2.16-3.8,4.43-7.51,6.45-11.39.06-.11.21,0,.16.09a59.6,59.6,0,0,1-6.27,11.5A.2.2,0,0,1,429.36,311Z" style="fill:#263238"></path><path d="M428.52,312.61a0,0,0,1,1,0,.07S428.48,312.61,428.52,312.61Z" style="fill:#263238"></path><path d="M414,362.12a79.29,79.29,0,0,1-1.82,15.37q.12.83.24,1.68A73.34,73.34,0,0,0,415.2,362a.53.53,0,0,0,0-.53v0a113.7,113.7,0,0,0-1.73-23.21c-2.41-14.34-7.69-28.1-17.69-38.84a.71.71,0,0,0-1.1.22c-4,10.26-2.63,22.51.81,32.74A59.93,59.93,0,0,0,403.45,348C406.88,352.77,411.25,356.85,414,362.12Z" style="fill:#7165E3"></path><path d="M397,304.24c9.48,15.38,16.07,33.61,16.88,51.78,0,.32-.53.4-.57.08-.23-1.64-.48-3.25-.74-4.87h0c-3.92-3.76-7.94-7.72-10.75-12.41a.09.09,0,0,1,.14-.1c3.41,3.89,6.59,7.89,10.44,11.36-.68-4-1.48-8-2.43-11.86-.26-.29-.5-.59-.75-.88s.11-.48.28-.28l.23.25a136.69,136.69,0,0,0-5-15.73c-2.41-2.88-5.11-5.37-6.86-8.83a.07.07,0,0,1,.12-.08c1.41,2,2.78,4,4.38,5.82.64.73,1.34,1.42,2,2.13a122.62,122.62,0,0,0-7.76-16.17A.21.21,0,0,1,397,304.24Z" style="fill:#263238"></path><path d="M398.91,323.21c3.06,4.12,6.55,8.05,9.4,12.31.08.13-.1.25-.2.16-3.66-3.43-6.75-8.12-9.41-12.35C398.62,323.2,398.82,323.09,398.91,323.21Z" style="fill:#263238"></path><path d="M408.74,336.48l.13.13a.1.1,0,0,1-.14.14l-.13-.13A.1.1,0,0,1,408.74,336.48Z" style="fill:#263238"></path><path d="M382.15,333.8c.76,7.92,4.92,17.37,10,23.46a24.8,24.8,0,0,0,8.11,6.33c3.51,1.74,7.18,3.74,10.82,5.17a70.42,70.42,0,0,1,3.83,13.61c.12-.4.23-.81.35-1.21C412.93,361.13,400,344,383.38,333A.8.8,0,0,0,382.15,333.8Z" style="fill:#7165E3"></path><path d="M387.88,339.72c-.12-.1,0-.31.16-.22a67.78,67.78,0,0,1,21.13,26c.12.28-.25.52-.41.24-.77-1.35-1.56-2.66-2.36-3.95h0c-3.78-.71-7.37-3.38-10.17-5.91-.08-.06,0-.17.11-.11a22.86,22.86,0,0,0,4.79,3.37c1.54.78,3.2,1.27,4.81,1.9-1.41-2.23-2.87-4.36-4.39-6.43a44,44,0,0,1-11.38-6.4.11.11,0,0,1,.11-.18,113.15,113.15,0,0,0,10.57,5.65,95.74,95.74,0,0,0-7.46-8.7c-1.29-.68-2.6-1.36-3.84-2.09-.1-.06,0-.23.08-.19a13.6,13.6,0,0,1,2.94,1.45C391.07,342.67,389.53,341.18,387.88,339.72Z" style="fill:#263238"></path><path d="M388.23,346.64a5.67,5.67,0,0,1,.64.45c.06.06,0,.14-.08.11a4.84,4.84,0,0,1-.67-.38C388,346.75,388.11,346.56,388.23,346.64Z" style="fill:#263238"></path><polygon points="441.14 425.75 395.7 425.75 399.37 384.37 400.17 375.25 436.66 375.25 437.47 384.37 441.14 425.75" style="fill:#455a64"></polygon><polygon points="437.47 384.37 399.37 384.37 400.17 375.25 436.66 375.25 437.47 384.37" style="fill:#263238"></polygon><rect x="398" y="368.87" width="40.84" height="9.03" style="fill:#455a64"></rect></g><g id="freepik--Character--inject-53"><path d="M182.21,107.47c-3.51,0-18.29-3.73-30.1,8.61-11.17,11.67-19.65,50.52-22.8,58.81s-14.55,8.11-18.5,17.71c-3.4,8.24,2.42,12.2,2.23,18.56-.14,4.93-6,11.58-2.5,19.36,3.17,7.07,10.46,6.62,14.48,9.23s5.38,12.89,13,16.61,15.55-2.6,19.75-2,7.5,14.17,21.39,14.84,19.38-10.43,25.36-12,19.69,4.27,27.13-2,9.79-15.55,13.18-18.65,9.43-1.74,14.13-9.33-2.13-13.68-2.26-20.82c-.1-5,4.82-8.87,2.75-16.72-2.84-10.78-15.65-10.24-19.05-21.37-2.66-8.73-5.71-45.58-26.2-57.25C200,103.07,182.21,107.47,182.21,107.47Z" style="fill:#263238"></path><path d="M130,172.89c-.9,1.81-2.67,3-4.27,4.13l-5,3.27c-3.29,2.15-6.63,4.36-9,7.33A11.93,11.93,0,0,0,109,197.87a18.32,18.32,0,0,0,2.24,5.15,21.1,21.1,0,0,1,2.71,5.66c.48,2.46-.57,4.63-1.4,6.38s-1.84,3.55-2.61,5.31c-1.59,3.48-2.38,7.32-1.06,10.82a8.06,8.06,0,0,0,3.27,4.18,14.77,14.77,0,0,0,5.33,1.91c1.91.39,3.89.59,5.86.88s4.08.65,5.56,2.05c-1.63-1.19-3.68-1.29-5.62-1.45s-4-.15-6-.38a15.79,15.79,0,0,1-5.9-1.78,9.65,9.65,0,0,1-4.16-4.79c-1.83-4-.8-8.6.79-12.25.79-1.89,1.73-3.66,2.54-5.42s1.5-3.49,1.15-5c-.77-3.28-3.94-6.55-4.75-10.81a13.32,13.32,0,0,1,3.39-11.83c2.79-3.11,6.32-5.17,9.76-7.15l5.23-2.83C127.07,175.49,128.88,174.56,130,172.89Z" style="fill:#263238"></path><path d="M231.54,134c3,6.52,4.4,13.56,6.51,20.3,1.06,3.38,2,6.79,3.3,10a23.67,23.67,0,0,0,2.27,4.53,3.22,3.22,0,0,0,.71.88,3.92,3.92,0,0,0,.87.75c.68.49,1.42.94,2.17,1.38a104.25,104.25,0,0,1,9.08,5.76c2.89,2.19,5.6,5.11,6.72,8.77a11.27,11.27,0,0,1,.38,5.65,14.77,14.77,0,0,1-2.3,5c-2.05,2.91-4,5.85-4.58,9.42,0-3.62,1.92-7,3.63-10a13.79,13.79,0,0,0,1.84-4.71,9.77,9.77,0,0,0-.62-4.83,17.74,17.74,0,0,0-6.31-7.69,104.29,104.29,0,0,0-9-5.47c-.76-.48-1.53-1-2.28-1.52a7.76,7.76,0,0,1-2.07-2.2,25.27,25.27,0,0,1-2.41-5,87.36,87.36,0,0,1-3.06-10.31L234,144.3A91.57,91.57,0,0,0,231.54,134Z" style="fill:#263238"></path><path d="M248.47,234.66c-1.77,1.82-2.31,4.43-3.2,6.78s-1.71,4.8-2.69,7.18a37,37,0,0,1-3.6,6.92,16.85,16.85,0,0,1-5.85,5.58c-5.21,2.44-10.85,1.33-15.67-.22-2.45-.79-4.82-1.7-7.22-2.43a15.82,15.82,0,0,0-7.4-.94c2.43-.92,5.16-.57,7.67-.14s5,1.26,7.42,1.83c4.81,1.16,10,1.92,14.18-.13a15.11,15.11,0,0,0,5.12-4.78,46.8,46.8,0,0,0,3.77-6.42c1.15-2.24,2.18-4.56,3.25-6.87.56-1.15,1.14-2.3,1.76-3.42A7.41,7.41,0,0,1,248.47,234.66Z" style="fill:#263238"></path><path d="M169.55,258C174,297.77,215.41,402.59,230.72,413c12.43,8.47,62,18.46,88.07,17.79,10.71-.28,16.66-73.87.56-74.48-27.76-1-44.88-4.4-52.36-8-5.83-2.81-33.4-46.07-73.93-97.73C178,231.39,167.07,235.53,169.55,258Z" style="fill: rgb(235, 148, 129);"></path><path d="M307.61,428.3c1.27.44,19.38,6.57,30.26,8.13,8.12,1.17,31.58,3.9,33.75-4.91,1.49-6-12.12-9.24-21.69-11.74-5-1.31-11.61-5.47-10.64-8.73,1.7-5.7,14.72-2.05,23.44,1.51,16.87,6.87,39.93,20.26,48.34,11,3.18-3.49-1.76-8.35-8.63-12.83,10.8,4.83,22.1,8.45,25.78,4.7,2.12-2.13,1.88-4.62.17-7.26,3.2.57,5.88,0,7.49-2.27,2.75-3.83.48-8.59-3.77-13.2a3.89,3.89,0,0,0,2.66-2.34c5.37-11.38-33-36.48-45.24-37.62-35.95-3.38-72.54,4.83-72.54,4.83C304.86,370.42,307.58,428.28,307.61,428.3Z" style="fill: rgb(235, 148, 129);"></path><path d="M354.27,389.09a59.77,59.77,0,0,1,24.46,5.68c9.64,4.58,16.44,10.57,24.81,16.4.22.15,0,.5-.23.34-4-2.76-20.32-13-24.49-15.23a56.66,56.66,0,0,0-24.56-7C354.17,389.24,354.18,389.09,354.27,389.09Z" style="fill:#263238"></path><path d="M358.68,373.42c9.49,1.22,19.22,2.43,28.31,5.56,9.95,3.43,18.31,10.13,26.5,16.55q7.36,5.79,14.49,11.89c.2.17,0,.52-.23.35q-12.5-10-25.58-19.2a75.34,75.34,0,0,0-26.8-12.06c-5.51-1.26-11.11-2.09-16.7-2.92C358.56,373.57,358.57,373.41,358.68,373.42Z" style="fill:#263238"></path><path d="M366.64,359.14c9.14.58,17.11,1.05,25.64,4.71,11.3,4.84,22.84,14,26.9,17.31,4.48,3.61,8.84,7.37,13.13,11.2.18.15-.09.46-.27.31a297.55,297.55,0,0,0-30.87-23,59.25,59.25,0,0,0-16.53-7.72c-5.87-1.61-12-2.12-18-2.71C366.59,359.2,366.6,359.14,366.64,359.14Z" style="fill:#263238"></path><path d="M190.43,350.26l47.89-55s-34.49-41.46-56.93-59c-12.57-9.82-20.36-.2-19.13,14.16C166.54,300.67,190.43,350.26,190.43,350.26Z" style="fill:#7165E3"></path><path d="M190.43,350.26l47.89-55s-34.49-41.46-56.93-59c-12.57-9.82-20.36-.2-19.13,14.16C166.54,300.67,190.43,350.26,190.43,350.26Z" style="fill:#37474f"></path><path d="M232.84,301.5l-42.4,48.77s-23.89-49.6-28.19-99.85c-.84-9.87,2.59-17.49,8.89-18.1Z" style="opacity:0.1"></path><path d="M228,289.62c-8.07,7.85-29.34,29.79-41.3,45.85-.07.1.27.42.35.33,12-11.86,34.09-37.19,41.45-45.71C228.62,289.93,228.14,289.47,228,289.62Z" style="fill:#263238"></path><path d="M45,426.21l179.8-.46L214,360.08s15.52-18.84,12.58-39.28c-3.22-22.39-43.59-79.15-47-82.34-13.66-12.83-32.88-17.77-47.58-6.65C86.54,266.17,45,426.21,45,426.21Z" style="fill:#455a64"></path><path d="M224.1,421.48H46.28c.27-1,.59-2.18.95-3.48H223.52Zm-2.88-17.4h-170c-.36,1.2-.69,2.35-1,3.47H221.8Zm-2.29-13.92H55.37l-1,3.47H219.5Zm-2.3-13.92H59.74l-1.1,3.47H217.2Zm-2.3-13.93h-150q-.6,1.76-1.17,3.48H214.9ZM69.13,348.39c-.42,1.16-.82,2.32-1.23,3.48H219.39c.6-1.07,1.21-2.24,1.82-3.48Zm5.06-13.92c-.44,1.16-.87,2.33-1.3,3.48H225.21c.32-1.13.6-2.3.84-3.48ZM226.54,320.8c0-.08,0-.16,0-.25h-147c-.46,1.16-.92,2.31-1.37,3.47H226.85C226.8,323,226.69,321.88,226.54,320.8ZM222,306.63H85.24c-.49,1.15-1,2.31-1.45,3.47H223.4C223,309,222.47,307.82,222,306.63Zm-6.89-13.92H91.4c-.54,1.15-1.06,2.31-1.59,3.47H216.9C216.3,295,215.69,293.88,215.06,292.71Zm-8-13.93H98.13l-1.75,3.48H209.11C208.42,281.1,207.73,279.94,207,278.78Zm-8.77-13.92H105.69c-.66,1.14-1.33,2.3-2,3.48h96.8Q199.39,266.57,198.26,264.86Zm-9.4-13.92H114.54c-.8,1.13-1.59,2.29-2.38,3.48h79.11C190.45,253.21,189.64,252.05,188.86,250.94Zm-9.31-12.48q-.78-.74-1.59-1.44H126q-1.65,1.64-3.27,3.47h58.5A22.27,22.27,0,0,0,179.55,238.46Zm-36.76-11.89h15.42A32.42,32.42,0,0,0,142.79,226.57Z" style="fill:#37474f"></path><path d="M182.89,354.92a163.9,163.9,0,0,0-23.84,3.91c-3.88,1-7.69,2.17-11.5,3.42-1.9.63-3.8,1.18-5.72,1.74a25.7,25.7,0,0,1-6.14,1.15.15.15,0,0,0,0,.29,43.31,43.31,0,0,0,5.92-.11,43.42,43.42,0,0,0,5.64-1.06c3.94-1,7.84-2.13,11.78-3.14,7.94-2,15.88-4.08,24-5.54A.34.34,0,0,0,182.89,354.92Z" style="fill:#263238"></path><path d="M202.73,362a176.6,176.6,0,0,0-19.91-1c-3.33,0-6.63.27-9.95.59-1.58.16-3.16.34-4.73.54-1.74.22-3.44.67-5.18.87-.18,0-.18.3,0,.29,1.64-.14,3.31,0,5,0l5-.13c3.32-.08,6.63-.13,9.95-.24,6.64-.22,13.25-.38,19.89-.38C203.1,362.57,203.07,362.06,202.73,362Z" style="fill:#263238"></path><path d="M312.88,337.12c3.81,2.66,1.93,4.47-1.37,2.49S290.8,327.38,290.15,327a1.4,1.4,0,1,0-1.38,2.42l21.45,12.86c2.62,1.56,3.85,5.56-1.61,2.29l-21.19-12.69a1.19,1.19,0,0,0-1.83.36,1.3,1.3,0,0,0,.62,1.84l21.19,12.7c5.46,3.27,1.53,4.18-1.09,2.61l-21.45-12.85a1.39,1.39,0,1,0-1.3,2.45c.66.39,17.9,10.91,21.21,12.89s2.76,4.59-1.37,2.49c0,0-27.4-14.51-31.11-18.64s-1-8.4-7.08-12.12c-3.79-2.29-68.78-38.52-75.24-45.33S186.45,268,186.45,268s1.36-4.4,10.25-2,69.46,52.11,73.14,52.63c7.09,1,6.62-1.43,11.92-.16S312.88,337.12,312.88,337.12Z" style="fill:#c7c7c7"></path><path d="M285.3,402s.73-39.91.92-50.26,1.87-21.48,14.71-22.1c6.28-.3,15.86,4.39,16.86,12.6,1.78,14.6-12.5,14.7-12.5,14.7l-.6,32.88Z" style="fill:#7165E3"></path><g style="opacity:0.2"><path d="M311.56,354.69a4.51,4.51,0,0,1-2.28-.61c-2.7-1.52-4.06-5.61-4.17-8.76-.14-3.82.93-8.87,3.63-10.9a4.79,4.79,0,0,1,4.59-.65.38.38,0,1,1-.23.72,4.09,4.09,0,0,0-3.91.52c-2.37,1.8-3.47,6.53-3.33,10.28.1,2.95,1.34,6.75,3.79,8.14a4.43,4.43,0,0,0,4.53-.25.38.38,0,0,1,.36.66A6.24,6.24,0,0,1,311.56,354.69Z"></path><path d="M303.63,353a3.2,3.2,0,0,1-.61,0c-1.71-.26-4.09-3.68-3.94-9.18.14-4.93,2.11-13.19,8.57-13.19h.21a.38.38,0,0,1,0,.75h-.18c-5.9,0-7.7,7.8-7.83,12.46-.14,5.18,2.07,8.23,3.3,8.42a1.87,1.87,0,0,0,1.69-.38c.65-.64.85-2.07.58-4.15a.37.37,0,0,1,.32-.42.38.38,0,0,1,.42.33c.31,2.38.05,3.94-.79,4.77A2.35,2.35,0,0,1,303.63,353Z"></path><path d="M303.89,357.67a9.89,9.89,0,0,1-7-2.57c-3.88-3.62-4.14-9.81-4.08-12.31.18-6.68,3.82-13.55,9.62-13.55h.1a.37.37,0,0,1,.37.38.35.35,0,0,1-.38.37h-.09c-5.27,0-8.7,6.63-8.87,12.82-.06,2.4.19,8.33,3.84,11.74a9.64,9.64,0,0,0,7.86,2.3.39.39,0,0,1,.41.34.37.37,0,0,1-.34.41A13.77,13.77,0,0,1,303.89,357.67Z"></path><path d="M309.42,351.79a5.94,5.94,0,0,1-2.76-.77.37.37,0,0,1-.16-.51.36.36,0,0,1,.5-.15c1.86,1,3.37.91,4.51-.15,2.13-2,2.3-6.73,1.38-8.83a5.21,5.21,0,0,0-3.31-3.23,3.45,3.45,0,0,0-3.08.87.38.38,0,0,1-.53,0,.37.37,0,0,1,0-.52,4.2,4.2,0,0,1,3.72-1,6,6,0,0,1,3.84,3.66c1,2.34.83,7.44-1.56,9.67A3.69,3.69,0,0,1,309.42,351.79Z"></path><path d="M296.58,395.48h0a.38.38,0,0,1-.37-.38l.73-39.91c0-.2.18-.32.38-.36a.38.38,0,0,1,.37.38l-.73,39.9A.37.37,0,0,1,296.58,395.48Z"></path><path d="M291,398.74h0a.38.38,0,0,1-.37-.38c.17-9.5.27-17.42.35-24.41.26-21.94.37-31,2.29-35.06a.38.38,0,0,1,.5-.18.37.37,0,0,1,.18.5c-1.85,3.9-2,13.56-2.22,34.75-.08,7-.18,14.91-.35,24.41A.37.37,0,0,1,291,398.74Z"></path><path d="M301.59,392.26h0a.38.38,0,0,1-.36-.38l.63-34.71a.38.38,0,0,1,.38-.36.37.37,0,0,1,.37.38l-.63,34.7A.39.39,0,0,1,301.59,392.26Z"></path></g><path d="M304.79,384.22l-.1,5.56L285.3,402l.18-10c4.67-2.33,12.72-2.94,12.72-2.94S301.23,385,304.79,384.22Z" style="opacity:0.1"></path><path d="M114,251.08C73.09,310.84,36.29,421.42,51.92,441c17.42,21.75,73.25-57.17,70.44-60.33-2.38-2.69,15-64.86,21.19-117.95C149.56,211.56,124.15,236.31,114,251.08Z" style="fill: rgb(235, 148, 129);"></path><path d="M63.65,322.94l72.93,1.23s9.52-53.09,8.5-81.54c-.58-15.94-9.86-15.09-20.06-4.91C89.31,273.36,63.65,322.94,63.65,322.94Z" style="fill:#37474f"></path><path d="M134.23,312.64c-11.21-1.12-41.69-3.27-61.68-2.09-.12,0-.15.47,0,.48,16.78,1.52,50.41,2.15,61.67,2.29C134.4,313.33,134.44,312.66,134.23,312.64Z" style="fill:#263238"></path><path d="M127.69,324c3-.2,5.93-.32,8.9-.4l-.55.46c.85-8.06,2-16.09,3.24-24.08s2.74-16,4.58-23.89c-.59,8.1-1.57,16.14-2.7,24.17s-2.46,16-4,24l-.1.49-.45,0Q132.13,324.46,127.69,324Z" style="fill:#263238"></path><path d="M141.65,292.15a22.27,22.27,0,0,1,1.69-4.87,32.77,32.77,0,0,1,2.56-4.5,9.38,9.38,0,0,1-.45,2.58,15.43,15.43,0,0,1-.92,2.42A16.88,16.88,0,0,1,141.65,292.15Z" style="fill:#263238"></path><path d="M57.62,444.3c10.82,4.68,40.75,1.45,97-43.72,8.55-6.86-13.36-82.55-23.65-76.94-13,7.06-43,31.35-46.28,34C57,380.09,45.18,438.93,57.62,444.3Z" style="fill: rgb(235, 148, 129);"></path><path d="M114.66,338.47s20.28-24.08,34.86-33.43c19.51-12.52,41.52-15.3,50.81-15.91,19.4-1.26,67.17,9.08,66.59,23.36-.52,12.93-48.82-.12-48.82-.12S269.53,317.55,266,333s-58.69-2.88-58.69-2.88,52.73,6.5,46.6,21.86c-4.62,11.61-55.56-2.18-55.56-2.18s45.29,5.9,41.05,18c-4.69,13.41-52.51,3.64-52.51,3.64-16,29-35.47,36.34-50,39.88C133.47,412.22,114.66,338.47,114.66,338.47Z" style="fill: rgb(235, 148, 129);"></path><path d="M200.42,309.45c6.07.38,12.21.74,18.22,1.66s12,2.07,17.88,3.55c14.46,3.63,23,8.17,22.39,7.95-13.12-5.28-34.57-8.93-40.59-9.86s-11.94-2.15-17.94-3.08C200.23,309.65,200.28,309.44,200.42,309.45Z" style="fill:#263238"></path><path d="M196.68,331.08c7.72.83,15.42,1.38,23.11,2.55s14.8,2.94,22.35,4.63c.58.13.32.4-.27.3-7.61-1.39-14.75-2.09-22.38-3.39s-15.2-2.89-22.84-3.91C196.53,331.25,196.57,331.07,196.68,331.08Z" style="fill:#263238"></path><path d="M190.13,349.07c11.87.67,23.6,3.53,35,6.6.57.16.19.47-.4.34-11.61-2.41-20.69-4.38-34.66-6.52C189.89,349.45,189.88,349.06,190.13,349.07Z" style="fill:#263238"></path><path d="M186.93,371.48c12.62,2.16,25.56,4.12,38.35,3.21a28.94,28.94,0,0,0,9.1-2.1c4.79-2.2,5.7-6.58,1.31-9.88-5.75-4.54-14.31-7.08-21.05-9.94,11.14,1.67,23.47,4.58,34.55,1.55,8.77-3.15,2.54-9.46-2.69-12.45a80.62,80.62,0,0,0-10.39-5l5,1a71.49,71.49,0,0,0,11.22,1.25c3.7,0,7.73-.08,10.91-2.21-3.06,2.37-7.18,2.66-10.91,2.83a62.66,62.66,0,0,1-11.43-.78l.31-1.06c5,2.22,10.68,4.62,13.51,9.65,3,7-6.41,9.5-11.55,9.73a88.22,88.22,0,0,1-19.81-1.05l.55-1.91c5.42,2.42,13.69,5.32,16.19,11.19,1.29,3.67-1.73,7.38-5,8.66-12.29,5-35.3.35-48.17-2.67Z" style="fill:#263238"></path><path d="M127.69,324c-13.4,10.78-30.95,23.69-43.41,35.24A116.54,116.54,0,0,0,65.85,383.9a100,100,0,0,0-5.46,11.15A86.13,86.13,0,0,1,87.6,353.68C100.44,343.06,114,333.4,127.69,324Z" style="fill:#263238"></path><path d="M146.4,235.11c.49,3.43,14.62,26.62,30,27.23,5,.2,7.29-27.15,7.29-27.15l.63-2,8.78-27.73-31.36-24.2L157.22,178s-1.91,7.74-4.18,17.41c-.11.45-.22.89-.32,1.38s-.29,1-.4,1.56c-.36,1.44-.72,2.92-1,4.39-.26,1.12-.51,2.21-.73,3.39s-.48,2.34-.74,3.53C147.55,221.42,146.21,233.66,146.4,235.11Z" style="fill: rgb(235, 148, 129);"></path><path d="M193.13,205.48l-8.79,27.73-.63,2s0,.17,0,.47a65.82,65.82,0,0,1-31.58-36.33c.07-.32.15-.63.23-.94.11-.51.25-1,.39-1.56s.22-.93.33-1.38c2.27-9.67,4.17-17.41,4.17-17.41l4.56,3.24Z" style="fill:#263238"></path><path d="M240.67,176.23c-5.45,51.52-36.7,54.09-47.74,52.91-10-1.07-44-6-43.84-57.8s25.65-65.56,48.68-64.33S246.12,124.72,240.67,176.23Z" style="fill: rgb(235, 148, 129);"></path><path d="M231.5,178a32.39,32.39,0,0,1-3.31-1.29c-1.27-.51-2.33-.78-3.13-2a1.84,1.84,0,0,1,.36-2.22c1.33-1.12,3-.88,4.58-.34a6.71,6.71,0,0,1,3.76,3A2,2,0,0,1,231.5,178Z" style="fill:#263238"></path><path d="M197.29,172a32.45,32.45,0,0,0,3.55-.17c1.36-.08,2.45,0,3.59-.87a1.85,1.85,0,0,0,.35-2.22c-.91-1.48-2.6-1.8-4.24-1.77a6.6,6.6,0,0,0-4.51,1.67A2,2,0,0,0,197.29,172Z" style="fill:#263238"></path><path d="M203.05,180.63c0-.14-.29.13-.3.27-.38,3.51-1.39,7.47-4.69,8.19-.1,0-.11.2,0,.2C202,189.28,203.26,184,203.05,180.63Z" style="fill:#263238"></path><path d="M200.46,176.55c-5.52-1.2-7.51,10-2.4,11.12S205.09,177.56,200.46,176.55Z" style="fill:#263238"></path><path d="M198.17,176.75c-1.09.46-2.24,1.41-3.43,1.32-1.38-.11-2.2-1.47-2.88-2.75-.07-.14-.19-.06-.22.09-.41,2.15,0,4.5,2.25,5.22,2,.67,3.87-1,4.78-3C198.85,177.22,198.6,176.57,198.17,176.75Z" style="fill:#263238"></path><path d="M222.76,184.36c.06-.12.24.22.21.36-.75,3.45-1,7.52,1.87,9.26.09.05,0,.22-.07.18C221.07,192.91,221.5,187.51,222.76,184.36Z" style="fill:#263238"></path><path d="M226.51,181.32c5.62.61,4,11.88-1.23,11.31S221.8,180.8,226.51,181.32Z" style="fill:#263238"></path><path d="M228.74,182.4c.79.73,1.51,1.94,2.56,2.16,1.21.26,2.29-.82,3.24-1.88.1-.1.18,0,.16.15-.26,2.16-1.29,4.3-3.4,4.42-1.93.1-3-1.95-3.24-4.17C228,182.67,228.42,182.11,228.74,182.4Z" style="fill:#263238"></path><path d="M193.47,208.31c.53,1.05,1,2.4,2.13,2.91a9.08,9.08,0,0,0,3.85.36.12.12,0,0,1,.09.22,4.7,4.7,0,0,1-4.82.4c-1.42-.78-1.72-2.34-1.62-3.84C193.11,208.15,193.39,208.16,193.47,208.31Z" style="fill:#263238"></path><path d="M211.31,199.65s-.69,5.28-1.34,7.67c-.07.23-.67.17-1.49,0,0,0-.07,0-.1,0a11.72,11.72,0,0,1-9.82-7.27.25.25,0,0,1,.44-.24c2.51,3.18,5.81,4.73,9.52,5.82.35-.62.88-9.07,1.27-9,1.33.25,3.65,1.84,5.07,2.72,1.76-10.94,1.76-22.07,3.67-32.94a.33.33,0,0,1,.66,0c.82,11.67-.93,24.3-2.45,35.65C216.56,203.47,212.15,200.32,211.31,199.65Z" style="fill:#263238"></path><path d="M207.11,205.41a12.1,12.1,0,0,1-5.43,2.87,5.42,5.42,0,0,1-3.3-.36c-2.25-1-1.94-3.21-1.18-5a13.21,13.21,0,0,1,1.55-2.66A15.75,15.75,0,0,0,207.11,205.41Z" style="fill:#263238"></path><path d="M201.68,208.28a5.42,5.42,0,0,1-3.3-.36c-2.25-1-1.94-3.21-1.18-5C199.69,203.63,201.9,205.78,201.68,208.28Z" style="fill:#ff97b8"></path><path d="M149.09,178c7.85,3.26,15.46-19,15.46-19s17.81.17,29.87-19.16c0,0-3.94,10.83-13.61,17.08,0,0,29.84,6.38,49.88-13.78,0,0-8.86,10.71-14.84,13.6,0,0,13.2.58,22.32-7.31,0,0,.49,15.59,3.11,20.71,0,0,14.34-52.31-34.17-62.25,0,0-29.43-8.35-47.53,11.38S149.09,178,149.09,178Z" style="fill:#263238"></path><path d="M157.47,177s-6.52-18.59-14.61-16.65-6.2,26.78,1.19,32.16,12.49-1.42,12.49-1.42Z" style="fill: rgb(235, 148, 129);"></path><path d="M143.58,167.43c-.13-.05-.21.13-.11.21,5.13,4,6.69,10.2,7.27,16.39-1.12-2.63-3.14-4.46-6.57-3.2-.18.07-.1.35.07.36a5.31,5.31,0,0,1,5.17,3.39,26,26,0,0,1,1.44,5.37c.13.6,1.14.58,1.11-.07,0,0,0-.1,0-.15C154.15,182.35,151.29,170.37,143.58,167.43Z" style="fill:#263238"></path><path d="M149.82,200.47a24.32,24.32,0,0,1-2.09,7c-1.51,3-3.2,3.35-4.35,3.16a3.14,3.14,0,0,1-2.23-1.52c-2.45-3.89.54-15.83,1.23-18.26a6.32,6.32,0,0,0,1.67,1.65c-1.07,4-2.82,12.94-1.22,15.54a1.23,1.23,0,0,0,.88.6c1,.16,2.19-1.44,3.09-4.19a30.61,30.61,0,0,0,1.46-9.55c0-2.33-.31-4-.8-4.27a1,1,0,0,1-.83-1.16,1,1,0,0,1,1.16-.83c1.86.31,2.45,3.15,2.46,6.27A31.23,31.23,0,0,1,149.82,200.47Z" style="fill:#7165E3"></path></g><g id="freepik--Pasta--inject-53"><ellipse cx="334.92" cy="441.32" rx="107.55" ry="16.61" style="fill:#dbdbdb"></ellipse><ellipse cx="334.92" cy="439.94" rx="67.22" ry="10.04" style="fill:#c7c7c7"></ellipse><path d="M369.54,391.5c8.39,2.58,8.63,10.12,7.51,13.76s-4.8,9.77-13.89,7c-7.14-2.2-8.32-8.91-7-13.21C357.93,393.3,364.09,389.83,369.54,391.5Z" style="fill:#7165E3"></path><path d="M369.54,391.5c8.39,2.58,8.63,10.12,7.51,13.76s-4.8,9.77-13.89,7c-7.14-2.2-8.32-8.91-7-13.21C357.93,393.3,364.09,389.83,369.54,391.5Z" style="opacity:0.30000000000000004"></path><path d="M376,407.79c-1.83,3.3-5.64,6.65-12.81,4.45s-8.33-8.91-7-13.22a11.28,11.28,0,0,1,9.92-7.91,10.54,10.54,0,0,0-7.41,7.05c-1.23,4-.14,10.18,6.47,12.22C370.66,412.07,374,410.22,376,407.79Z" style="opacity:0.1"></path><g style="opacity:0.2"><path d="M360.13,405.87c2.18,1.84,5.34,3.27,7.83,1.32l.33-.22.29.25c1.57,1.36,4.15,2,5.61.14a9.93,9.93,0,0,0,1.24-1.93,7.76,7.76,0,0,1-.84,2.22c-1.43,2.54-4.75,2-6.66.32l.62,0c-2.77,2.21-6.64.54-8.42-2.12Z"></path><path d="M366.61,402.82c-2.73,2.09-6.81.43-8-2.7a12.57,12.57,0,0,1-.4-1.28c.31.34.56.69.82,1a7.19,7.19,0,0,0,7.56,2.95Z"></path><path d="M372.7,398.23c-1.48,2.69-5.48,2-6.75-.57,2.16,1.25,4.37,1.93,6.75.57Z"></path></g><path d="M323.72,380c8.61,1.68,9.66,9.14,8.93,12.88s-3.73,10.23-13.06,8.42c-7.34-1.43-9.23-8-8.37-12.39C312.36,383.05,318.12,378.94,323.72,380Z" style="fill:#7165E3"></path><path d="M323.72,380c8.61,1.68,9.66,9.14,8.93,12.88s-3.73,10.23-13.06,8.42c-7.34-1.43-9.23-8-8.37-12.39C312.36,383.05,318.12,378.94,323.72,380Z" style="opacity:0.30000000000000004"></path><path d="M331.85,395.53c-1.46,3.48-4.9,7.21-12.26,5.79s-9.22-8-8.37-12.4a11.3,11.3,0,0,1,9-8.92,10.56,10.56,0,0,0-6.63,7.8c-.79,4.09,1,10.14,7.74,11.46C327,400.36,330.17,398.15,331.85,395.53Z" style="opacity:0.1"></path><g style="opacity:0.2"><path d="M315.89,395.31c2.36,1.6,5.66,2.69,7.92.48l.31-.25.32.21c1.71,1.19,4.35,1.6,5.59-.46a9.34,9.34,0,0,0,1-2.05,7.64,7.64,0,0,1-.59,2.3c-1.15,2.67-4.51,2.5-6.59,1l.62-.05c-2.52,2.49-6.54,1.25-8.6-1.21Z"></path><path d="M322,391.58c-2.54,2.38-6.69,1.17-8.22-1.83a9.5,9.5,0,0,1-.53-1.23c.33.31.62.63.92.94a7.16,7.16,0,0,0,7.83,2.12Z"></path><path d="M327.58,386.37c-1.19,2.83-5.24,2.62-6.77.15,2.27,1,4.54,1.46,6.77-.15Z"></path></g><path d="M260.06,435.34s1.11-10.82,9.69-14.12c0,0,2.2-17.71,24.87-25,0,0,6.36-8.84,17.16-10.66,18.69-3.15,39.92,13.25,39.92,13.25,13.06-2.69,31-2.27,41.82,6.12a18.39,18.39,0,0,1,7.17,13.46,15.29,15.29,0,0,1,7.57,7.4c2.9,6.06.77,15.48.77,15.48s-35.77,9.23-73.16,9.06C304.24,450.22,277.58,446.64,260.06,435.34Z" style="fill:#7165E3"></path><g style="opacity:0.2"><path d="M355.52,431.1c-2.56,0-5.19-.07-7.86-.24a.38.38,0,0,1-.35-.4.37.37,0,0,1,.4-.35c26,1.6,47.57-4.94,52.68-11.91a.38.38,0,0,1,.61.45C396.3,425.05,378.17,431.1,355.52,431.1Z"></path><path d="M290.27,444.6a67.85,67.85,0,0,1-15.18-1.69.38.38,0,0,1-.29-.45.38.38,0,0,1,.45-.28c23.59,5.38,45.87-3.19,66.68-12.43,5.16-2.29,10.4-5,15.47-7.61,13.35-6.87,24.87-12.8,29.49-8.59A3.08,3.08,0,0,1,388,417c-1.33,3.92-10.9,7.16-16.91,7.66a.36.36,0,0,1-.4-.34.37.37,0,0,1,.34-.41c6.45-.54,15.14-3.85,16.26-7.15a2.39,2.39,0,0,0-.91-2.63c-4.24-3.86-16.1,2.25-28.64,8.71-5.08,2.61-10.34,5.32-15.52,7.62C325.82,437.72,308.48,444.6,290.27,444.6Z"></path><path d="M285.51,438.56a120.22,120.22,0,0,1-21.81-2.23c-1.33-.23-2.57-.45-3.7-.62a.37.37,0,0,1-.31-.43.37.37,0,0,1,.42-.32c1.14.18,2.38.4,3.72.63,9.72,1.7,24.4,4.26,45.22-.57,12.29-2.85,25.18-9.72,37.65-16.37,20.57-11,38.33-20.42,47.44-8.71a7.26,7.26,0,0,1,1.09,7.23c-1.23,3.32-5.86,9.41-22.9,12.81a.38.38,0,0,1-.15-.74c12.19-2.43,20.34-6.92,22.35-12.33a6.54,6.54,0,0,0-1-6.51c-8.72-11.22-26.23-1.89-46.5,8.92-12.51,6.66-25.44,13.56-37.83,16.43A104.34,104.34,0,0,1,285.51,438.56Z"></path><path d="M357.89,425.46a21.68,21.68,0,0,1-4.77-.39.37.37,0,0,1-.27-.45.38.38,0,0,1,.46-.27c2.14.54,7.37.43,10.91,0a.37.37,0,1,1,.09.74A54,54,0,0,1,357.89,425.46Z"></path><path d="M337.19,443.65a254.3,254.3,0,0,1-27.91-1.39.37.37,0,0,1-.32-.42.35.35,0,0,1,.41-.32c.56.07,55.8,6.72,100.22-9.76a.38.38,0,1,1,.26.71C385.25,441.59,357.35,443.65,337.19,443.65Z"></path><path d="M345.34,436.63c-5.17,0-10.65-.18-16.43-.6a.38.38,0,0,1-.35-.4.37.37,0,0,1,.4-.35c50.86,3.7,78.25-10.75,78.52-10.9a.38.38,0,0,1,.51.15.38.38,0,0,1-.15.51C407.6,425.17,385.88,436.63,345.34,436.63Z"></path><path d="M331.9,426.78c-5.22,0-10.38-1.84-11.71-4.25a2.48,2.48,0,0,1,.14-2.7c2.55-3.79,10.13-1.73,16.22-.08a35.59,35.59,0,0,0,5.77,1.29.38.38,0,0,1,.36.4.37.37,0,0,1-.4.35,35.51,35.51,0,0,1-5.93-1.31c-5.55-1.51-13.15-3.57-15.39-.23a1.69,1.69,0,0,0-.11,1.92c1.25,2.25,6.58,4,11.73,3.85a.38.38,0,1,1,0,.75Z"></path><path d="M323.09,431.11l-.11,0c-6.9-2.18-10.92-6.1-10.73-10.49.14-3.57,3.12-6.63,7.4-7.6,6.79-1.53,17.6,1.17,24.75,2.95,2.15.54,4,1,5.25,1.22a.38.38,0,0,1,.31.44.38.38,0,0,1-.44.3c-1.27-.22-3.14-.69-5.3-1.23-7.08-1.77-17.79-4.45-24.41-2.94-3.94.89-6.68,3.66-6.82,6.89-.16,4,3.65,7.68,10.22,9.75a.37.37,0,0,1,.24.47A.38.38,0,0,1,323.09,431.11Z"></path><path d="M341.64,416a.38.38,0,0,1-.21-.69c18.56-12.3,32.71-17.65,42.08-15.88a.38.38,0,0,1-.14.74c-9.16-1.72-23.13,3.58-41.53,15.77A.36.36,0,0,1,341.64,416Z"></path><path d="M282.82,432.75a146.82,146.82,0,0,1-21.14-1.57l-.53-.07a.38.38,0,0,1,.11-.75l.53.08c24.79,3.61,43.47.28,54.78-3.14a.38.38,0,0,1,.47.25.36.36,0,0,1-.25.46A117.11,117.11,0,0,1,282.82,432.75Z"></path><path d="M282.09,427.77c-8.89,0-15.64-1.11-18-2.15a.37.37,0,1,1,.3-.68c5.08,2.21,27.69,4.05,48.44-2.43a.38.38,0,0,1,.47.25.38.38,0,0,1-.25.47A106,106,0,0,1,282.09,427.77Z"></path><path d="M283.84,422.61a88.58,88.58,0,0,1-14.15-1,.37.37,0,1,1,.13-.73c.22,0,22,3.88,43.62-3.7a.37.37,0,0,1,.48.23.36.36,0,0,1-.23.47A91.21,91.21,0,0,1,283.84,422.61Z"></path><path d="M306.9,419.89h-.08a19.31,19.31,0,0,1-13.08-10.6,14.19,14.19,0,0,1,.55-13.2.37.37,0,0,1,.51-.15.37.37,0,0,1,.15.51,13.47,13.47,0,0,0-.53,12.53A18.81,18.81,0,0,0,307,419.15a.38.38,0,0,1,.29.44A.38.38,0,0,1,306.9,419.89Z"></path><path d="M313.57,417.89l-.12,0c-.62-.21-15.29-5.19-15.29-14.36a11.31,11.31,0,0,1,4.08-8.7c4.17-3.65,10.75-5.17,18-4.19,12.19,1.63,24.26,10.17,24.38,10.26a.37.37,0,0,1,.09.52.38.38,0,0,1-.53.09c-.11-.09-12-8.52-24-10.13-7-.94-13.5.56-17.44,4a10.61,10.61,0,0,0-3.83,8.14c0,8.63,14.63,13.6,14.78,13.65a.38.38,0,0,1-.12.73Z"></path><path d="M334.92,414.53a.38.38,0,0,1-.3-.15.38.38,0,0,1,.07-.52c15.25-11.66,27.51-16.91,38.6-16.5a.38.38,0,0,1,.36.39.35.35,0,0,1-.39.36c-10.91-.42-23,4.8-38.11,16.34A.4.4,0,0,1,334.92,414.53Z"></path><path d="M327.71,413.46a.36.36,0,0,1-.27-.12.38.38,0,0,1,0-.53c3.56-3.43,16.44-13.62,24.22-14.34a.37.37,0,0,1,.41.34.38.38,0,0,1-.34.41c-7.58.7-20.25,10.75-23.77,14.13A.38.38,0,0,1,327.71,413.46Z"></path><path d="M317,414.74l-.12,0c-6.78-2.14-11.39-5.57-12.64-9.41a6.39,6.39,0,0,1,.84-5.84c1.32-1.79,4.44-3.89,11.6-3.79a.38.38,0,0,1,.37.38.38.38,0,0,1-.38.37h0c-6.86-.12-9.77,1.84-11,3.48a5.66,5.66,0,0,0-.72,5.17c1.17,3.61,5.6,6.86,12.15,8.92a.38.38,0,0,1-.11.74Z"></path><path d="M339.44,404.48a.33.33,0,0,1-.21-.07c-.09-.05-8.39-5.9-18-7.54a.38.38,0,0,1-.31-.44.38.38,0,0,1,.43-.31c9.83,1.68,18.27,7.62,18.35,7.68a.38.38,0,0,1,.09.53A.37.37,0,0,1,339.44,404.48Z"></path><path d="M325.81,413.31h-.08c-8.83-2-13.25-5.19-14.44-7.48a2.61,2.61,0,0,1-.22-2.22c.81-2,3.48-3.9,11.61-1.77a56.28,56.28,0,0,1,12.44,5.49.37.37,0,0,1-.39.64,55.84,55.84,0,0,0-12.24-5.41c-5.94-1.55-9.75-1.08-10.73,1.33a1.89,1.89,0,0,0,.19,1.59c1.07,2,5.36,5.13,13.95,7.1a.37.37,0,0,1-.09.74Z"></path><path d="M299.6,421.4a.34.34,0,0,1-.17,0c-13.18-6.71-11.12-17.21-11.1-17.32a.39.39,0,0,1,.45-.29.38.38,0,0,1,.29.45c-.09.4-1.95,10.06,10.7,16.5a.37.37,0,0,1,.16.5A.36.36,0,0,1,299.6,421.4Z"></path><path d="M293.58,422.17a.33.33,0,0,1-.21-.07c-12.4-8.56-9.48-20.11-8.43-21.88a.37.37,0,1,1,.64.38c-1,1.68-3.71,12.65,8.21,20.89a.37.37,0,0,1,.1.52A.38.38,0,0,1,293.58,422.17Z"></path><path d="M274.77,422.2h0a.37.37,0,0,1-.35-.4c.71-9.38,9.53-15.44,9.61-15.5a.37.37,0,0,1,.52.1.36.36,0,0,1-.1.52c-.08.06-8.6,5.92-9.28,14.94A.37.37,0,0,1,274.77,422.2Z"></path><path d="M280.19,422.45h0a.37.37,0,0,1-.34-.4,12.57,12.57,0,0,1,5.93-9.44.37.37,0,1,1,.36.65,12.07,12.07,0,0,0-5.54,8.86A.39.39,0,0,1,280.19,422.45Z"></path><path d="M285.93,422.2h0a.38.38,0,0,1-.37-.38c.13-3.93,2.8-4.83,2.91-4.87a.39.39,0,0,1,.48.25.38.38,0,0,1-.25.47c-.1,0-2.28.8-2.39,4.17A.37.37,0,0,1,285.93,422.2Z"></path></g><path d="M342,392.54c8.78,0,11.23,7.12,11.23,10.94s-1.72,10.75-11.23,10.75c-7.47,0-10.57-6.07-10.57-10.57C331.4,397.67,336.28,392.54,342,392.54Z" style="fill:#7165E3"></path><path d="M342,392.54c8.78,0,11.23,7.12,11.23,10.94s-1.72,10.75-11.23,10.75c-7.47,0-10.57-6.07-10.57-10.57C331.4,397.67,336.28,392.54,342,392.54Z" style="opacity:0.30000000000000004"></path><path d="M352.91,406.21c-.77,3.69-3.43,8-10.93,8s-10.57-6.06-10.57-10.57a11.3,11.3,0,0,1,7.15-10.48,10.56,10.56,0,0,0-5,8.92c0,4.17,2.86,9.78,9.77,9.78C349.1,411.87,351.77,409.1,352.91,406.21Z" style="opacity:0.1"></path><g style="opacity:0.2"><path d="M334.92,401c2.8,1.21,6.31,1.51,8.12-1.35l.35.15c1.9.85,4.57.74,5.4-1.51a9.78,9.78,0,0,0,.61-2.21,7.56,7.56,0,0,1-.14,2.37c-.62,2.84-4,3.31-6.28,2.26l.61-.16c-2,2.92-6.19,2.47-8.67.45Z"></path><path d="M343.67,408.52c-2,2.82-6.35,2.43-8.43-.23a11.25,11.25,0,0,1-.75-1.1c.39.23.73.49,1.08.74a7.17,7.17,0,0,0,8.1.59Z"></path><path d="M345.64,396.63c-1.67,2.58-5.62,1.65-6.7-1,2.06,1.4,4.22,2.23,6.7,1Z"></path></g><path d="M303.52,400.19c8.1,3.37,7.63,10.89,6.17,14.41s-5.72,9.26-14.5,5.61c-6.9-2.87-7.43-9.66-5.7-13.82C291.79,400.86,298.26,398,303.52,400.19Z" style="fill:#7165E3"></path><path d="M303.52,400.19c8.1,3.37,7.63,10.89,6.17,14.41s-5.72,9.26-14.5,5.61c-6.9-2.87-7.43-9.66-5.7-13.82C291.79,400.86,298.26,398,303.52,400.19Z" style="opacity:0.30000000000000004"></path><path d="M308.37,417c-2.13,3.11-6.25,6.08-13.17,3.2s-7.44-9.66-5.7-13.82a11.29,11.29,0,0,1,10.63-6.93,10.58,10.58,0,0,0-8.06,6.31c-1.6,3.85-1.11,10.13,5.28,12.78C302.68,420.77,306.2,419.24,308.37,417Z" style="opacity:0.1"></path><g style="opacity:0.2"><path d="M293.61,405c1.76,2.1,4.64,3.58,7,1.72l.36-.23c1.59,1.89,3.75,2.59,5.56.52a16.06,16.06,0,0,0,1.35-1.81,10,10,0,0,1-1,2.12c-1.61,2.57-4.55,2.26-6.42.13l.67.08c-2.84,2.1-6.24.4-7.6-2.53Z"></path><path d="M299.53,412.24c-2.93,1.82-6.83-.22-7.69-3.45a12.19,12.19,0,0,1-.27-1.31c.27.37.49.74.71,1.1a7.19,7.19,0,0,0,7.25,3.66Z"></path><path d="M306.26,416.52c-1.73,2.53-5.65,1.51-6.66-1.22,2,1.46,4.16,2.34,6.66,1.22Z"></path></g><path d="M379,401.7c8.74.81,10.52,8.13,10.17,11.93s-2.71,10.54-12.18,9.66c-7.44-.69-10-7-9.54-11.5C368,405.83,373.35,401.17,379,401.7Z" style="fill:#7165E3"></path><path d="M379,401.7c8.74.81,10.52,8.13,10.17,11.93s-2.71,10.54-12.18,9.66c-7.44-.69-10-7-9.54-11.5C368,405.83,373.35,401.17,379,401.7Z" style="opacity:0.30000000000000004"></path><path d="M388.65,416.32c-1.12,3.61-4.16,7.67-11.63,7s-10-7-9.55-11.5a11.32,11.32,0,0,1,8.1-9.78,10.55,10.55,0,0,0-5.82,8.42c-.39,4.15,1.95,10,8.83,10.64C384.32,421.6,387.24,419.1,388.65,416.32Z" style="opacity:0.1"></path><g style="opacity:0.2"><path d="M372.75,417.68c2.68,1.47,6.14,2.09,8.21-.59l.33.18c1.82,1,4.49,1.16,5.52-1a9.2,9.2,0,0,0,.82-2.14,7.5,7.5,0,0,1-.37,2.35c-.88,2.77-4.24,2.93-6.45,1.67l.62-.1c-2.27,2.72-6.4,1.88-8.68-.36Z"></path><path d="M378.47,413.37c-2.29,2.61-6.54,1.82-8.37-1-.23-.39-.46-.77-.65-1.17.37.27.69.56,1,.84a7.2,7.2,0,0,0,8,1.34Z"></path><path d="M383.49,407.64c-.9,2.93-4.95,3.11-6.72.81,2.37.79,4.67,1,6.72-.81Z"></path></g></g></svg>