<svg width="173" height="192" viewBox="0 0 173 192" fill="none" xmlns="http://www.w3.org/2000/svg">
<path d="M83.0001 191.15C128.827 191.15 165.978 189.113 165.978 186.6C165.978 184.087 128.827 182.05 83.0001 182.05C37.1728 182.05 0.0224609 184.087 0.0224609 186.6C0.0224609 189.113 37.1728 191.15 83.0001 191.15Z" fill="#EBEBEB"/>
<path d="M75.8912 183.187C74.7728 183.547 42.8576 183.139 41.6528 182.352C41.1728 182.064 40.9808 177.408 40.8848 171.792V171.614C40.8624 170.453 40.8496 169.264 40.8464 168.048C40.8464 167.88 40.8464 167.717 40.8464 167.568L42.392 151.013L63.7424 151.219L61.64 167.621V168.274L61.5104 171.667V172.018C61.5104 172.018 73.6112 177.6 74.84 178.608C76.0688 179.616 77.0144 182.827 75.8912 183.187Z" fill="#EB9481"/>
<path d="M75.8912 183.187C74.7728 183.547 42.8576 183.139 41.6528 182.352C41.1728 182.064 40.9808 177.408 40.8848 171.792V171.614C40.8624 170.453 40.8496 169.264 40.8464 168.048C40.8464 167.88 40.8464 167.717 40.8464 167.568L61.64 167.621V168.274L61.5104 171.667V172.018C61.5104 172.018 73.6112 177.6 74.84 178.608C76.0688 179.616 77.0144 182.827 75.8912 183.187Z" fill="#EBEBEB"/>
<path d="M75.896 183.182C75.32 183.37 66.6512 183.35 58.1744 183.182C56.4704 183.149 54.776 183.11 53.1584 183.067C47.1152 182.904 42.1184 182.654 41.6384 182.352C41.1584 182.05 40.9664 177.552 40.8752 172.013C40.8752 171.931 40.8752 171.854 40.8752 171.778C40.8752 171.701 40.8752 171.653 40.8752 171.595H40.8992L61.4672 171.629V171.984C61.4672 171.984 73.616 177.6 74.84 178.603C76.064 179.606 77.0144 182.827 75.896 183.182Z" fill="#7165E3"/>
<path d="M75.5456 181.944C70.1696 181.742 48.4592 181.44 43.1264 181.651C43.0832 181.651 43.0832 181.685 43.1264 181.685C48.4544 182.002 70.1648 182.126 75.5456 182.03C75.6608 182.03 75.6608 181.949 75.5456 181.944Z" fill="#263238"/>
<path d="M63.7663 171.72C61.6543 171.298 59.0623 171.59 57.4255 173.078C57.3631 173.136 57.4255 173.227 57.5119 173.203C59.5431 172.579 61.6348 172.172 63.7519 171.989C63.7876 171.991 63.8225 171.978 63.8491 171.955C63.8756 171.931 63.8916 171.897 63.8935 171.862C63.8955 171.826 63.8831 171.791 63.8593 171.764C63.8354 171.738 63.802 171.722 63.7663 171.72Z" fill="#263238"/>
<path d="M65.2832 172.661C63.1712 172.238 60.5792 172.531 58.9424 174.019C58.88 174.077 58.9424 174.168 59.0288 174.144C61.0599 173.519 63.1517 173.112 65.2688 172.93C65.3044 172.931 65.3394 172.919 65.3659 172.895C65.3925 172.871 65.4085 172.838 65.4104 172.802C65.4123 172.767 65.4 172.732 65.3761 172.705C65.3523 172.679 65.3188 172.663 65.2832 172.661V172.661Z" fill="#263238"/>
<path d="M66.8 173.602C64.688 173.179 62.096 173.472 60.4592 174.96C60.3968 175.018 60.4592 175.109 60.5456 175.085C62.5768 174.46 64.6685 174.053 66.7856 173.87C66.8213 173.872 66.8562 173.86 66.8828 173.836C66.9093 173.812 66.9253 173.779 66.9272 173.743C66.9291 173.708 66.9168 173.673 66.893 173.646C66.8691 173.619 66.8357 173.603 66.8 173.602V173.602Z" fill="#263238"/>
<path d="M58.1744 183.182C56.4704 183.149 54.776 183.11 53.1584 183.067C47.1152 182.904 42.1184 182.654 41.6384 182.352C41.1584 182.05 40.9664 177.552 40.8752 172.013C40.8752 171.931 40.8752 171.854 40.8752 171.778C40.8752 171.701 40.8752 171.653 40.8752 171.595H40.8992C43.7264 173.573 53.6576 180.182 58.1744 183.182Z" fill="#263238"/>
<path d="M62.7056 171.706H39.7184C39.7184 171.706 44.336 118.018 44.1584 117.082C43.928 115.882 42.5696 110.448 40.76 103.349C40.1936 101.126 39.584 98.7456 38.9456 96.2736C37.232 89.5968 35.3408 82.296 33.6944 75.9456C31.2224 66.432 29.2928 59.04 29.2928 59.04H48.7712C48.7712 59.04 51.0416 66.24 53.9072 75.6C58.5728 90.816 64.808 111.758 65.4272 116.851C66.4208 125.074 62.7056 171.706 62.7056 171.706Z" fill="#37474F"/>
<path d="M61.688 167.784C58.1744 167.712 59.1872 167.683 55.6736 167.65C53.9552 167.65 42.6656 167.534 41.0624 167.803C41.055 167.806 41.0487 167.811 41.0442 167.817C41.0398 167.824 41.0374 167.831 41.0374 167.839C41.0374 167.847 41.0398 167.855 41.0442 167.861C41.0487 167.868 41.055 167.872 41.0624 167.875C42.6656 168.139 53.9552 168.038 55.6736 168.024C59.1872 167.986 58.1792 167.957 61.688 167.885C61.6987 167.881 61.7081 167.875 61.7148 167.866C61.7215 167.857 61.7251 167.846 61.7251 167.834C61.7251 167.823 61.7215 167.812 61.7148 167.803C61.7081 167.794 61.6987 167.787 61.688 167.784V167.784Z" fill="#263238"/>
<path d="M48.4784 113.803C47.7248 110.482 46.5968 107.227 45.5984 103.963C43.6048 97.3392 41.6 90.7168 39.584 84.096C38.576 80.784 37.5632 77.4752 36.5456 74.1696C36.0336 72.4992 35.5168 70.8304 34.9952 69.1632C34.4864 67.5312 33.9008 65.9136 33.44 64.2672C33.2528 63.6 33.152 63.9696 33.392 64.8192C33.872 66.5328 34.352 68.2464 34.856 69.96C35.8448 73.3456 36.8416 76.7296 37.8464 80.112C39.8368 86.832 41.848 93.552 43.88 100.272C44.8944 103.648 45.9088 107.019 46.9232 110.386C47.4376 111.991 47.8528 113.626 48.1664 115.282C48.4389 117.012 48.5082 118.768 48.3728 120.514C48.152 124.032 47.7488 127.546 47.4128 131.05C47.0768 134.554 46.7648 138.082 46.4528 141.61C45.8128 148.608 45.1728 155.605 44.5328 162.6C44.4528 163.49 44.3776 164.378 44.3072 165.264C44.3072 165.562 44.7344 165.538 44.7872 165.264C45.5456 158.342 46.1216 151.402 46.7696 144.47C47.4176 137.539 48.0608 130.68 48.6896 123.787C48.8528 122.054 49.0352 120.322 49.0352 118.579C49.0296 116.971 48.8428 115.369 48.4784 113.803V113.803Z" fill="#263238"/>
<path d="M46.5584 59.04C45.2096 69.504 42.6368 89.1216 40.76 103.354C36.3632 86.112 29.2928 59.04 29.2928 59.04H46.5584Z" fill="#263238"/>
<path d="M51.128 183.499C50.0096 183.864 18.0944 183.576 16.8848 182.789C16.4048 182.501 16.1936 177.85 16.0784 172.229V172.051C16.0496 170.89 16.0304 169.694 16.0256 168.485C16.0256 168.317 16.0256 168.154 16.0256 168.005C15.9488 159.878 16.5344 151.45 16.5344 151.45L37.3952 151.579L36.8192 167.981L36.7952 168.634L36.68 172.027V172.378C36.68 172.378 48.8432 177.95 50.0816 178.954C51.32 179.957 52.2464 183.139 51.128 183.499Z" fill="#EB9481"/>
<path d="M51.128 183.499C50.0096 183.864 18.0944 183.576 16.8848 182.789C16.4048 182.501 16.1936 177.85 16.0784 172.229V172.051C16.0496 170.89 16.0304 169.694 16.0256 168.485C16.0256 168.317 16.0256 168.154 16.0256 168.005L36.8192 167.981L36.7952 168.634L36.68 172.027V172.378C36.68 172.378 48.8432 177.95 50.0816 178.954C51.32 179.957 52.2464 183.139 51.128 183.499Z" fill="#EBEBEB"/>
<path d="M51.128 183.499C50.0096 183.864 18.0944 183.576 16.8848 182.789C16.4048 182.501 16.1936 177.85 16.0784 172.229V172.051L36.6704 172.008V172.358C36.6704 172.358 48.8336 177.931 50.072 178.934C51.3104 179.938 52.2464 183.139 51.128 183.499Z" fill="#7165E3"/>
<path d="M50.7776 182.256C45.4016 182.078 23.6864 181.853 18.3584 182.083C18.3152 182.083 18.3104 182.117 18.3584 182.117C23.6816 182.414 45.3968 182.462 50.7776 182.347C50.8928 182.342 50.8928 182.261 50.7776 182.256Z" fill="#263238"/>
<path d="M38.96 172.08C36.848 171.662 34.256 171.965 32.624 173.458C32.5616 173.515 32.624 173.606 32.7104 173.587C34.7399 172.951 36.8319 172.534 38.9504 172.344C38.9814 172.339 39.0098 172.324 39.0307 172.301C39.0515 172.277 39.0636 172.247 39.0647 172.216C39.0659 172.185 39.056 172.154 39.0369 172.129C39.0178 172.104 38.9906 172.087 38.96 172.08V172.08Z" fill="#263238"/>
<path d="M40.4815 173.011C38.3695 172.598 35.7727 172.901 34.1455 174.394C34.0783 174.451 34.1455 174.542 34.2319 174.518C36.2622 173.886 38.3539 173.47 40.4719 173.28C40.5076 173.281 40.5423 173.268 40.5684 173.244C40.5945 173.22 40.6099 173.186 40.6111 173.15C40.6124 173.115 40.5995 173.08 40.5752 173.054C40.5509 173.028 40.5172 173.012 40.4815 173.011V173.011Z" fill="#263238"/>
<path d="M42.0032 173.947C39.8864 173.534 37.2944 173.837 35.6624 175.33C35.6 175.387 35.6624 175.474 35.7536 175.454C37.783 174.819 39.8751 174.403 41.9936 174.216C42.0292 174.217 42.0639 174.204 42.09 174.18C42.1161 174.156 42.1315 174.122 42.1328 174.086C42.134 174.051 42.1211 174.016 42.0968 173.99C42.0725 173.964 42.0388 173.948 42.0032 173.947Z" fill="#263238"/>
<path d="M48.1424 59.04C48.1424 59.04 47.696 68.3616 45.5648 75.744C45.392 76.3536 45.2048 76.9536 45.008 77.5296C43.0521 78.3164 41.1723 79.2804 39.392 80.4096C39.392 80.4096 39.1712 87.9072 38.9456 96.2496C38.7008 105.6 38.4416 116.03 38.4992 118.238C38.696 126.514 37.4768 171.998 37.4768 171.998L14.4944 172.094C14.4944 172.094 18.6368 121.282 18.608 118.248C18.5648 113.376 19.7168 91.848 20.6048 76.1376C21.152 66.4608 21.5984 59.0016 21.5984 59.0016L48.1424 59.04Z" fill="#37474F"/>
<path d="M36.6847 167.957C33.1759 167.899 34.1839 167.87 30.6751 167.851C28.9567 167.851 17.6623 167.794 16.0591 168.067C16.0255 168.067 16.0255 168.134 16.0591 168.139C17.6671 168.398 28.9567 168.25 30.6751 168.226C34.1839 168.173 33.1759 168.149 36.6847 168.062C36.6987 168.062 36.7122 168.057 36.7221 168.047C36.732 168.037 36.7375 168.024 36.7375 168.01C36.7375 167.996 36.732 167.982 36.7221 167.972C36.7122 167.962 36.6987 167.957 36.6847 167.957Z" fill="#263238"/>
<path d="M23.5279 62.4C23.1103 75.2208 22.6639 88.0464 22.0879 100.858C21.5119 113.669 20.7439 126.576 19.6879 139.402C19.0879 146.568 18.5263 156.653 17.7679 163.8C17.7679 163.848 17.8351 163.867 17.8447 163.8C19.5151 151.08 20.4415 135.355 21.2623 122.554C22.0831 109.752 22.6351 96.9408 23.0719 84.1248C23.3167 76.8768 23.5039 69.624 23.7199 62.3712C23.6911 62.2656 23.5327 62.2752 23.5279 62.4Z" fill="#263238"/>
<path d="M45.9632 76.9776C43.6769 77.9315 41.4781 79.0831 39.392 80.4192C39.3766 80.43 39.3658 80.446 39.3615 80.4643C39.3571 80.4825 39.3596 80.5017 39.3685 80.5183C39.3773 80.5348 39.3919 80.5475 39.4095 80.554C39.4271 80.5605 39.4465 80.5604 39.464 80.5536C41.6768 79.4736 43.9424 78.4368 46.0976 77.2416C46.1288 77.2217 46.1515 77.1909 46.1613 77.1552C46.171 77.1195 46.1671 77.0815 46.1503 77.0485C46.1335 77.0155 46.1051 76.99 46.0705 76.9769C46.0359 76.9638 45.9976 76.964 45.9632 76.9776V76.9776Z" fill="#263238"/>
<path d="M46.088 69.0672C45.9392 69.8832 45.7376 70.6944 45.5648 71.5056C45.392 72.3168 45.2768 73.0464 45.0848 73.7952C44.9204 74.5239 44.5506 75.1902 44.0192 75.7152C43.7168 75.9936 43.3904 76.2384 43.0592 76.4928C42.8912 76.6272 42.704 76.7616 42.5264 76.9008C42.5264 76.7904 42.5696 76.68 42.5888 76.5696L42.7472 75.6432C42.8624 74.952 42.9728 74.2656 43.0784 73.5744C43.2848 72.2208 43.472 70.848 43.7552 69.5088C43.7552 69.4512 43.6832 69.432 43.6736 69.5088C43.3328 70.8384 42.9632 72.1584 42.6656 73.4976C42.5216 74.1552 42.008 77.4 41.9888 77.6304C41.9696 77.8608 41.9456 78.1104 41.936 78.3456C41.9024 78.5876 41.9024 78.8331 41.936 79.0752C41.936 79.1328 42.0224 79.1232 42.0464 79.0752C42.1425 78.8488 42.2117 78.612 42.2528 78.3696C42.3104 78.1392 42.3632 77.8896 42.4016 77.6688C42.4016 77.5824 42.4304 77.496 42.4448 77.4096C42.7616 77.2128 43.0592 76.9584 43.3568 76.7424C43.6544 76.5264 44.0096 76.2624 44.3168 76.0224C44.8811 75.5483 45.2878 74.9138 45.4832 74.2032C45.6802 73.4385 45.8087 72.6578 45.8672 71.8704C45.968 70.944 46.0448 70.0176 46.1744 69.1008C46.1792 69.0336 46.0976 69.0144 46.088 69.0672Z" fill="#263238"/>
<path d="M40.1647 34.6704C41.4415 38.2272 45.9247 46.1904 52.8127 52.4688C55.4768 54.8928 75.2959 53.2992 77.2591 52.536C78.6319 51.9984 81.1951 42.0096 79.7503 41.1072C77.0431 39.4128 59.3263 43.32 58.5727 42.9216C57.4207 42.3072 49.7888 37.1952 44.8784 32.3616C41.2928 28.8 38.0527 28.7616 40.1647 34.6704Z" fill="#EB9481"/>
<path d="M45.2624 45.1728L56.5039 40.7088C56.5039 40.7088 46.424 32.0352 42.728 30.3216C38.576 28.4016 38.4991 30.936 39.9583 35.0304C41.4175 39.1248 45.2624 45.1728 45.2624 45.1728Z" fill="#7165E3"/>
<path opacity="0.1" d="M45.2624 45.1728L56.5039 40.7088C56.5039 40.7088 46.424 32.0352 42.728 30.3216C38.576 28.4016 38.4991 30.936 39.9583 35.0304C41.4175 39.1248 45.2624 45.1728 45.2624 45.1728Z" fill="black"/>
<path d="M54.128 39.36C53.7152 39.4512 50.192 40.8 49.4288 41.0976C48.6656 41.3952 45.5504 42.6288 44.792 43.0176C44.7843 43.0176 44.777 43.0206 44.7716 43.026C44.7662 43.0314 44.7632 43.0387 44.7632 43.0464C44.7632 43.054 44.7662 43.0613 44.7716 43.0668C44.777 43.0722 44.7843 43.0752 44.792 43.0752C45.608 42.84 48.7568 41.6352 49.5344 41.3184C50.312 41.0016 53.7776 39.6192 54.1376 39.3984C54.2 39.36 54.1568 39.36 54.128 39.36Z" fill="#263238"/>
<path d="M49.5968 43.4496L45.2768 45.1728C45.2768 45.1728 41.4368 39.1296 39.9968 35.0352C38.9312 32.04 38.6864 29.8704 40.2512 29.6784L49.5968 43.4496Z" fill="#263238"/>
<path d="M19.0304 69.1872C19.1024 69.2688 50.8976 69.4752 51.1904 69.1536C51.5984 68.6736 44.5376 34.224 41.288 29.9568C40.5968 29.0448 36.2096 27.8016 33.6656 29.8752C28.2608 34.2768 23.5856 49.3872 22.4816 53.9472C20.6768 61.44 18.7664 68.8896 19.0304 69.1872Z" fill="#7165E3"/>
<path opacity="0.1" d="M41.4656 30.24H33.2576C33.392 30.1152 33.5264 30 33.6608 29.8896C33.7424 29.823 33.8273 29.7605 33.9152 29.7024H40.9856C41.0972 29.7772 41.1974 29.8677 41.2832 29.9712C41.3495 30.0569 41.4104 30.1467 41.4656 30.24Z" fill="black"/>
<path opacity="0.1" d="M42.2336 31.7712H31.8416C31.9904 31.584 32.1392 31.4016 32.2928 31.2288H41.9984C42.0752 31.3968 42.152 31.5792 42.2336 31.7712Z" fill="black"/>
<path opacity="0.1" d="M42.8288 33.3168H30.728C30.8528 33.1296 30.9728 32.952 31.0976 32.7744H42.6176L42.8288 33.3168Z" fill="black"/>
<path opacity="0.1" d="M43.3519 34.8576H29.7823C29.8879 34.6752 29.9935 34.4928 30.1039 34.3152H43.1599C43.2367 34.4928 43.2943 34.6752 43.3519 34.8576Z" fill="black"/>
<path opacity="0.1" d="M43.8415 36.4032H28.9615C29.0575 36.2208 29.1488 36.0384 29.2496 35.8608H43.6975C43.7263 36.0384 43.7839 36.2208 43.8415 36.4032Z" fill="black"/>
<path opacity="0.1" d="M44.2976 37.9488H28.1648C28.2512 37.7664 28.3376 37.584 28.4288 37.4064H44.12L44.2976 37.9488Z" fill="black"/>
<path opacity="0.1" d="M44.7343 39.4896H27.4543L27.6991 38.9472H44.5999C44.6335 39.1248 44.6815 39.3072 44.7343 39.4896Z" fill="black"/>
<path opacity="0.1" d="M45.152 41.0352H26.7872L27.0176 40.4928H45.008L45.152 41.0352Z" fill="black"/>
<path opacity="0.1" d="M45.56 42.5808H26.1632C26.2304 42.3984 26.3024 42.2208 26.3792 42.0384H45.4208C45.464 42.24 45.512 42.3984 45.56 42.5808Z" fill="black"/>
<path opacity="0.1" d="M45.9536 44.1216H25.568C25.6352 43.9392 25.7024 43.7616 25.7744 43.5792H45.8192C45.8624 43.7616 45.9104 43.9392 45.9536 44.1216Z" fill="black"/>
<path opacity="0.1" d="M46.3424 45.6672H25.0063C25.0687 45.4848 25.1359 45.3072 25.2031 45.1248H46.208C46.2512 45.3072 46.2944 45.4848 46.3424 45.6672Z" fill="black"/>
<path opacity="0.1" d="M46.7168 47.208H24.4736C24.5312 47.0304 24.5936 46.848 24.6608 46.6704H46.5872L46.7168 47.208Z" fill="black"/>
<path opacity="0.1" d="M47.0864 48.7536H23.96L24.1328 48.2112H46.952L47.0864 48.7536Z" fill="black"/>
<path opacity="0.1" d="M47.4464 50.2992H23.48C23.5328 50.1216 23.5856 49.9392 23.6432 49.7568H47.3216C47.3648 49.92 47.408 50.1216 47.4464 50.2992Z" fill="black"/>
<path opacity="0.1" d="M47.8064 51.84H23.0336L23.1872 51.3024H47.6672C47.72 51.4848 47.7632 51.6624 47.8064 51.84Z" fill="black"/>
<path opacity="0.1" d="M48.152 53.3856H22.616C22.6592 53.2176 22.7072 53.0352 22.7552 52.8432H48.032C48.0704 53.0256 48.1136 53.2032 48.152 53.3856Z" fill="black"/>
<path opacity="0.1" d="M48.4976 54.9312H22.2416L22.3712 54.3888H48.3776C48.44 54.5712 48.44 54.7536 48.4976 54.9312Z" fill="black"/>
<path opacity="0.1" d="M48.8336 56.472H21.8672L21.9968 55.9344H48.7184L48.8336 56.472Z" fill="black"/>
<path opacity="0.1" d="M49.16 58.0176H21.4928L21.6224 57.4752H49.0448C49.088 57.6576 49.1264 57.8352 49.16 58.0176Z" fill="black"/>
<path opacity="0.1" d="M49.4864 59.5632H21.1184L21.248 59.0208H49.4C49.4 59.2032 49.4528 59.3856 49.4864 59.5632Z" fill="black"/>
<path opacity="0.1" d="M49.8032 61.104H20.744L20.8736 60.5616H49.6736C49.7312 60.744 49.7696 60.9264 49.8032 61.104Z" fill="black"/>
<path opacity="0.1" d="M50.1152 62.6496H20.3552C20.4032 62.472 20.4464 62.2896 20.4896 62.1072H49.9952C50.0432 62.2896 50.0816 62.472 50.1152 62.6496Z" fill="black"/>
<path opacity="0.1" d="M50.4176 64.1952H20C20.0432 64.0176 20.0816 63.84 20.1296 63.6528H50.312C50.36 63.84 50.384 64.0176 50.4176 64.1952Z" fill="black"/>
<path opacity="0.1" d="M50.7056 65.76H19.64C19.6784 65.5824 19.7216 65.4048 19.7648 65.2176H50.6048C50.6384 65.3808 50.672 65.5584 50.7056 65.76Z" fill="black"/>
<path opacity="0.1" d="M50.9744 67.2816H19.2944C19.328 67.1136 19.3664 66.9312 19.4144 66.7392H50.8784C50.9168 66.9312 50.9456 67.1088 50.9744 67.2816Z" fill="black"/>
<path opacity="0.1" d="M51.1952 68.8272H19.0352C19.0352 68.6832 19.0784 68.5008 19.1168 68.2848H51.128C51.1616 68.5056 51.1808 68.688 51.1952 68.8272Z" fill="black"/>
<path d="M39.8959 34.56C38.8015 34.7232 35.5759 32.7216 34.3711 30.5616C34.2895 30.4128 34.8512 24.4368 34.8224 23.2416C34.8224 22.9968 42.3391 24.9744 42.3391 24.9744C41.9302 26.4743 41.7061 28.0185 41.6719 29.5728C41.6764 29.7342 41.6957 29.8949 41.7295 30.0528C41.7295 30.0768 41.7295 30.1008 41.7295 30.1344C41.9023 31.0944 41.4991 34.3392 39.8959 34.56Z" fill="#EB9481"/>
<path d="M35.3071 23.2944C35.6095 25.104 36.8239 30.168 40.9711 30.216C41.2281 30.219 41.485 30.2013 41.7391 30.1632V30.0816C41.7092 29.9232 41.6915 29.7627 41.6863 29.6016C41.7205 28.0473 41.9446 26.5031 42.3535 25.0032C42.3535 25.0032 36.9727 23.5824 35.3071 23.2944Z" fill="#263238"/>
<path d="M35.552 13.1616C34.208 15.5904 33.992 23.3952 35.4896 25.4592C37.6544 28.4544 41.9984 29.616 44.744 26.832C47.4032 24.1296 47.504 13.9536 45.7616 11.9952C43.1936 9.12 37.5392 9.5664 35.552 13.1616Z" fill="#EB9481"/>
<path d="M41.9216 19.368C41.9216 19.368 41.8832 19.392 41.8832 19.416C41.8832 19.9392 41.792 20.544 41.312 20.7024V20.7312C41.8976 20.6688 42.008 19.8672 41.9216 19.368Z" fill="#263238"/>
<path d="M41.4704 18.8064C40.6304 18.7152 40.5104 20.4048 41.288 20.4912C42.0656 20.5776 42.2 18.8832 41.4704 18.8064Z" fill="#263238"/>
<path d="M44.816 19.5408C44.816 19.5408 44.8544 19.5648 44.8544 19.5888C44.7968 20.112 44.8256 20.7216 45.2864 20.928C45.2864 20.928 45.2864 20.9616 45.2864 20.9568C44.7056 20.832 44.6816 20.0256 44.816 19.5408Z" fill="#263238"/>
<path d="M45.3248 19.0272C46.1696 19.0272 46.1168 20.7168 45.3248 20.7216C44.5328 20.7264 44.6 19.0272 45.3248 19.0272Z" fill="#263238"/>
<path d="M40.76 18.24C40.9874 18.1926 41.2118 18.1317 41.432 18.0576C41.6766 18.0251 41.9041 17.9139 42.08 17.7408C42.1247 17.6752 42.1461 17.5966 42.1409 17.5174C42.1356 17.4382 42.1041 17.3631 42.0512 17.304C41.9311 17.2002 41.7852 17.1307 41.6289 17.1029C41.4727 17.075 41.3118 17.0897 41.1632 17.1456C40.8449 17.2133 40.5629 17.3962 40.3712 17.6592C40.3324 17.7219 40.3126 17.7944 40.3139 17.868C40.3152 17.9417 40.3378 18.0134 40.3787 18.0747C40.4197 18.1359 40.4775 18.184 40.5451 18.2133C40.6127 18.2427 40.6873 18.2519 40.76 18.24Z" fill="#263238"/>
<path d="M46.04 17.8464C45.8169 17.785 45.5973 17.7113 45.3824 17.6256C45.1386 17.578 44.9166 17.4535 44.7488 17.2704C44.7096 17.2015 44.6936 17.1219 44.7031 17.0433C44.7126 16.9646 44.7471 16.8911 44.8016 16.8336C44.9285 16.7382 45.0784 16.6781 45.2361 16.6596C45.3938 16.641 45.5536 16.6646 45.6992 16.728C46.0114 16.8149 46.2811 17.0129 46.4576 17.2848C46.4958 17.3491 46.5141 17.4233 46.5102 17.498C46.5064 17.5727 46.4805 17.6446 46.4358 17.7047C46.3912 17.7647 46.3298 17.8102 46.2594 17.8354C46.1889 17.8606 46.1126 17.8644 46.04 17.8464V17.8464Z" fill="#263238"/>
<path d="M43.16 23.2704C42.9189 23.5427 42.6113 23.7478 42.2672 23.8656C42.0786 23.9279 41.875 23.9279 41.6864 23.8656C41.2736 23.7264 41.2928 23.3424 41.3936 23.0208C41.4483 22.8528 41.5224 22.6917 41.6144 22.5408C42.039 22.942 42.5804 23.1975 43.16 23.2704V23.2704Z" fill="#263238"/>
<path d="M42.272 23.8656C42.0834 23.9278 41.8798 23.9278 41.6912 23.8656C41.2784 23.7264 41.2976 23.3424 41.3984 23.0208C41.6191 23.0392 41.8266 23.1334 41.9858 23.2874C42.1451 23.4413 42.2461 23.6456 42.272 23.8656Z" fill="#FF9CBD"/>
<path d="M34.6352 20.2752C36.0752 20.088 37.4576 15.5856 37.4576 15.5856C37.4576 15.5856 37.1504 17.5392 37.5248 17.544C37.8992 17.5488 39.8 15.144 40.2512 13.224C41.2264 14.1012 42.3124 14.8468 43.4816 15.4416C45.1424 16.224 47.0864 16.4016 47.1344 16.0992C47.264 15.216 46.808 12.7968 45.728 11.7792C44.9528 10.9886 43.9828 10.4165 42.9158 10.1207C41.8489 9.82484 40.7228 9.81577 39.6512 10.0944C36.6464 10.7616 35.6288 12.4944 34.9952 13.8288C34.3616 15.1632 34.1072 20.3424 34.6352 20.2752Z" fill="#263238"/>
<path d="M40.4912 22.1616C40.0597 22.0953 39.6557 21.9087 39.3254 21.6234C38.9951 21.338 38.7518 20.9653 38.6236 20.5481C38.4953 20.1308 38.4872 19.6859 38.6001 19.2642C38.7131 18.8426 38.9425 18.4613 39.2622 18.164C39.5819 17.8668 39.9788 17.6656 40.4076 17.5836C40.8363 17.5015 41.2795 17.5419 41.6863 17.7002C42.0931 17.8584 42.4472 18.128 42.7078 18.4782C42.9684 18.8284 43.1252 19.2449 43.16 19.68C43.1906 20.0322 43.1405 20.3867 43.0137 20.7167C42.8869 21.0467 42.6866 21.3434 42.428 21.5844C42.1694 21.8255 41.8593 22.0044 41.5212 22.1078C41.1831 22.2111 40.826 22.2361 40.4768 22.1808L40.4912 22.1616ZM41.1872 17.88C41.0277 17.8624 40.8667 17.8624 40.7072 17.88C40.197 17.9412 39.7294 18.1949 39.4 18.5893C39.0705 18.9836 38.9041 19.4889 38.9348 20.0019C38.9654 20.5148 39.1908 20.9967 39.5648 21.3491C39.9388 21.7014 40.4333 21.8977 40.9472 21.8977C41.4611 21.8977 41.9555 21.7014 42.3296 21.3491C42.7036 20.9967 42.929 20.5148 42.9596 20.0019C42.9902 19.4889 42.8238 18.9836 42.4944 18.5893C42.165 18.1949 41.6974 17.9412 41.1872 17.88V17.88Z" fill="#7165E3"/>
<path d="M45.8192 22.368C44.9408 22.224 44.288 21.1968 44.3408 19.968C44.3581 19.3876 44.5561 18.8272 44.9072 18.3648C45.0442 18.1563 45.2331 17.9871 45.4553 17.8736C45.6775 17.7601 45.9253 17.7063 46.1745 17.7175C46.4238 17.7286 46.6658 17.8043 46.877 17.9371C47.0882 18.0699 47.2612 18.2554 47.3792 18.4752C47.6873 18.9649 47.8334 19.5393 47.7968 20.1168C47.744 21.3984 46.9232 22.4064 45.968 22.3632C45.9186 22.3697 45.8688 22.3714 45.8192 22.368V22.368ZM46.2992 18.048H46.184C45.9849 18.047 45.7887 18.0946 45.6122 18.1866C45.4357 18.2786 45.2843 18.4123 45.1712 18.576C44.8641 18.9938 44.6962 19.4975 44.6912 20.016C44.6432 21.1248 45.2384 22.0512 46.0208 22.0848C46.8032 22.1184 47.4608 21.2496 47.528 20.1648C47.5577 19.658 47.4284 19.1546 47.1584 18.7248C47.0698 18.5555 46.9445 18.4082 46.7917 18.2936C46.6389 18.179 46.4624 18.1 46.2752 18.0624L46.2992 18.048Z" fill="#7165E3"/>
<path d="M43.088 19.9296L42.896 19.68C43.2608 19.4016 44.096 19.0416 44.6336 19.68L44.3984 19.8816C43.9136 19.3056 43.1216 19.9008 43.088 19.9296Z" fill="#7165E3"/>
<path d="M33.176 20.16L32.9072 20.0064C32.9792 19.8816 33.632 18.7776 34.3472 18.696C35.0624 18.6144 38.6672 19.0848 38.864 19.1136L38.8208 19.4208C37.3515 19.1984 35.8707 19.0589 34.3856 19.0032C33.9056 19.0704 33.3488 19.872 33.176 20.16Z" fill="#7165E3"/>
<path d="M35.864 19.6224C35.864 19.6224 34.6256 16.8576 33.4016 17.256C32.1776 17.6544 32.7872 21.432 33.992 22.1616C34.1403 22.2693 34.3091 22.3454 34.488 22.3853C34.667 22.4251 34.8521 22.4277 35.0321 22.3931C35.2121 22.3584 35.3831 22.2872 35.5344 22.1838C35.6858 22.0804 35.8143 21.9471 35.912 21.792L35.864 19.6224Z" fill="#EB9481"/>
<path d="M33.6031 18.3312V18.3648C34.4431 18.9072 34.76 19.848 34.9328 20.7648C34.8971 20.6632 34.8399 20.5706 34.765 20.4933C34.69 20.4161 34.5993 20.356 34.4989 20.3172C34.3985 20.2784 34.2909 20.2618 34.1835 20.2687C34.0761 20.2755 33.9714 20.3056 33.8768 20.3568C33.8718 20.3598 33.8677 20.364 33.8648 20.369C33.862 20.3741 33.8605 20.3798 33.8605 20.3856C33.8605 20.3914 33.862 20.3971 33.8648 20.4021C33.8677 20.4072 33.8718 20.4114 33.8768 20.4144C34.0463 20.3928 34.2184 20.4246 34.369 20.5055C34.5196 20.5864 34.6412 20.7123 34.7168 20.8656C34.8434 21.1229 34.9416 21.3933 35.0096 21.672C35.0384 21.7632 35.1919 21.744 35.1775 21.672C35.4175 20.4864 34.8271 18.6864 33.6031 18.3312Z" fill="#263238"/>
<path d="M43.3616 10.2048C42.4634 9.61369 41.4834 9.15763 40.4528 8.85119C39.296 8.52959 35.5376 8.27039 34.5392 8.88479C33.5408 9.49919 32.792 12.9648 32.6912 13.4736C32.5904 13.9824 32.3696 17.112 33.3776 18.024C34.3856 18.936 35.2688 13.704 37.2944 12.2064C39.32 10.7088 43.3616 10.2048 43.3616 10.2048Z" fill="#7165E3"/>
<path opacity="0.1" d="M43.3616 10.2048C43.3616 10.2048 39.32 10.7232 37.2944 12.2064C35.2688 13.6896 34.3904 18.9264 33.3776 18.024C32.9312 17.6208 32.7632 17.0976 32.6816 16.248C33.1616 14.7456 34.1216 12.4512 35.6336 10.968C37.0736 9.59517 39.2432 9.11998 41.4848 9.19198C42.1378 9.47616 42.7657 9.81496 43.3616 10.2048V10.2048Z" fill="black"/>
<path d="M33.2287 21.192C33.5359 19.8048 35.5087 16.2624 37.3183 14.328C39.1279 12.3936 43.7071 11.7888 44.3167 11.928C45.7951 12.2304 46.2367 12.7584 46.4911 12.6576C46.7455 12.5568 45.3727 11.2176 44.9935 10.9008C44.6143 10.584 43.5535 9.83039 42.9151 9.74879C42.2767 9.66719 38.2111 9.48 36.5071 10.9728C34.8031 12.4656 32.0479 16.944 32.2447 18.2208C32.2927 18.528 32.6527 18.7728 32.7247 19.2096C32.8111 19.7808 32.8303 20.4288 32.9407 20.832C33.0175 21.1488 33.1999 21.312 33.2287 21.192Z" fill="#7165E3"/>
<path d="M33.4208 19.7904C33.3968 19.68 33.344 19.584 33.3104 19.4784C33.2691 19.3604 33.2417 19.238 33.2288 19.1136C33.2345 18.8768 33.2136 18.6401 33.1664 18.408C33.1004 18.2272 33.0134 18.0548 32.9072 17.8944C32.7755 17.7191 32.7077 17.504 32.7152 17.2848C32.7152 17.256 32.672 17.2464 32.6672 17.2848C32.6718 17.6906 32.7791 18.0886 32.9792 18.4416C33.0347 18.691 33.0684 18.9447 33.08 19.2C33.1025 19.4379 33.2019 19.662 33.3632 19.8384C33.3704 19.841 33.3781 19.8418 33.3856 19.8405C33.3931 19.8392 33.4001 19.836 33.4059 19.8311C33.4118 19.8262 33.4162 19.8199 33.4189 19.8127C33.4215 19.8056 33.4222 19.7979 33.4208 19.7904V19.7904Z" fill="#263238"/>
<path d="M34.1263 18.3456C33.8797 18.0124 33.6929 17.6388 33.5743 17.2416C33.5119 17.0544 33.4687 16.8576 33.4111 16.6656C33.3535 16.4736 33.2431 16.2192 33.1855 15.9888H33.1423C33.1999 16.2288 33.2191 16.4688 33.2719 16.7184C33.3203 16.9251 33.3813 17.1287 33.4543 17.328C33.5231 17.5198 33.6099 17.7046 33.7135 17.88C33.811 18.0649 33.9449 18.2282 34.1071 18.36L34.1263 18.3456Z" fill="#263238"/>
<path d="M34.8368 17.0496C34.5785 16.7623 34.3634 16.4389 34.1984 16.0896C34.04 15.744 33.9056 15.3888 33.7712 15.0336C33.7712 15.0096 33.7184 15.0336 33.7232 15.0336C33.7873 15.4248 33.8985 15.8067 34.0544 16.1712C34.1342 16.3414 34.2324 16.5023 34.3472 16.6512C34.4809 16.8089 34.6323 16.9506 34.7984 17.0736C34.7984 17.0736 34.856 17.0736 34.8368 17.0496Z" fill="#263238"/>
<path d="M35.5807 15.84C35.4497 15.7165 35.3424 15.5701 35.2639 15.408C35.1679 15.2352 35.0719 15.0576 34.9855 14.8752C34.8991 14.6928 34.8079 14.5344 34.7263 14.3616C34.6294 14.1919 34.569 14.0039 34.5487 13.8096C34.5487 13.8096 34.5055 13.7808 34.5007 13.8096C34.4891 14.0035 34.5169 14.1978 34.5823 14.3808C34.644 14.5861 34.7243 14.7853 34.8223 14.976C34.9157 15.1636 35.0216 15.3448 35.1391 15.5184C35.2325 15.6829 35.3753 15.8138 35.5471 15.8928C35.5807 15.888 35.6143 15.84 35.5807 15.84Z" fill="#263238"/>
<path d="M36.224 14.2128C36.1136 14.0688 36.0032 13.92 35.9072 13.7664C35.8112 13.6128 35.7152 13.4544 35.624 13.2864C35.5328 13.1184 35.4368 12.9552 35.3504 12.8064C35.3504 12.7776 35.3024 12.8064 35.3072 12.8064C35.3552 12.9934 35.4178 13.1764 35.4944 13.3536C35.5735 13.5192 35.6633 13.6796 35.7632 13.8336C35.8613 14.0006 35.9703 14.161 36.0896 14.3136C36.2011 14.4667 36.3393 14.5985 36.4976 14.7024C36.5264 14.7024 36.5552 14.7024 36.5456 14.6592C36.4533 14.5002 36.3456 14.3507 36.224 14.2128V14.2128Z" fill="#263238"/>
<path d="M38.9936 12.7776C38.8871 12.5842 38.7701 12.3967 38.6432 12.216C38.5084 12.0327 38.3642 11.8565 38.2112 11.688C37.9228 11.3582 37.6011 11.059 37.2512 10.7952C37.2272 10.7952 37.1936 10.7952 37.2128 10.8288C37.7936 11.4912 38.4032 12.1344 38.9744 12.8016L38.9936 12.7776Z" fill="#263238"/>
<path d="M40.016 11.7024C39.9021 11.5118 39.7651 11.3361 39.608 11.1792C39.2733 10.8565 38.9029 10.5731 38.504 10.3344C38.48 10.3344 38.4512 10.3344 38.4752 10.3728C38.8016 10.6656 39.1376 10.9584 39.4352 11.2704C39.5893 11.4224 39.7351 11.5827 39.872 11.7504C40.0112 11.9184 40.1072 12.1152 40.232 12.2928H40.2656C40.2223 12.0814 40.1374 11.8807 40.016 11.7024V11.7024Z" fill="#263238"/>
<path d="M41.264 11.3232C41.159 11.1396 41.0351 10.9674 40.8944 10.8096C40.6245 10.5167 40.3083 10.2702 39.9584 10.08C39.9344 10.08 39.9104 10.08 39.9296 10.1184C40.2431 10.3727 40.5323 10.6555 40.7936 10.9632C40.928 11.1168 41.048 11.2752 41.1776 11.4432C41.3072 11.6112 41.3984 11.7888 41.5376 11.9232C41.4668 11.7145 41.3751 11.5135 41.264 11.3232V11.3232Z" fill="#263238"/>
<path d="M42.2 10.7472C42.0704 10.608 41.936 10.4736 41.7968 10.3392C41.6666 10.2019 41.516 10.0853 41.3504 9.99359C41.3264 9.99359 41.3072 9.99359 41.3264 10.032C41.5808 10.3056 41.8064 10.5792 42.0752 10.8528C42.2838 11.1241 42.4654 11.4151 42.6176 11.7216H42.6464C42.5983 11.3595 42.4428 11.0201 42.2 10.7472V10.7472Z" fill="#263238"/>
<path d="M43.2944 10.6752C43.06 10.383 42.7715 10.1385 42.4448 9.9552C42.4448 9.9552 42.3968 9.9792 42.4448 9.9936C42.7337 10.2113 42.9892 10.47 43.2032 10.7616C43.4194 11.0491 43.6029 11.3599 43.7504 11.688C43.7504 11.688 43.784 11.688 43.784 11.688C43.7033 11.3164 43.5355 10.9692 43.2944 10.6752V10.6752Z" fill="#263238"/>
<path d="M44.6 11.52C44.5755 11.4417 44.5466 11.3647 44.5137 11.2896C44.4405 11.1396 44.3537 10.9966 44.2544 10.8624C44.043 10.5973 43.8067 10.353 43.5488 10.1328C43.5488 10.1328 43.496 10.1328 43.52 10.1712C43.7673 10.3897 43.9865 10.638 44.1728 10.9104C44.2646 11.0417 44.3464 11.1797 44.4176 11.3232C44.4512 11.3952 44.4849 11.4672 44.5137 11.5392C44.5366 11.6134 44.5655 11.6856 44.6 11.7552H44.6432C44.642 11.6749 44.6274 11.5954 44.6 11.52V11.52Z" fill="#263238"/>
<path d="M45.4112 11.7024C45.3489 11.5819 45.28 11.4649 45.2048 11.352C45.1265 11.2398 45.0416 11.1324 44.9504 11.0304C44.8592 10.9248 44.7632 10.824 44.672 10.7136C44.672 10.7136 44.6144 10.7136 44.6384 10.7472C44.7326 10.8517 44.8177 10.9642 44.8928 11.0832L45.1136 11.4144L45.3296 11.7456C45.4064 11.8608 45.464 11.9856 45.5504 12.0912H45.584C45.5416 11.9554 45.4836 11.8249 45.4112 11.7024Z" fill="#263238"/>
<path d="M30.5744 33.4704C26.312 40.6704 18.8288 58.488 21.7136 62.2704C25.592 67.3248 38.0336 73.5984 42.0464 74.2128C43.7792 74.4816 48.0608 61.3824 46.3664 60.6096C44.3216 59.6832 32.96 54.6048 32.9264 53.9232C32.8928 53.2416 34.4768 44.9664 34.8464 37.8864C35.2256 29.6448 32.9168 29.5248 30.5744 33.4704Z" fill="#EB9481"/>
<path d="M43.5247 60.7104C43.5247 60.7104 48.8047 59.832 52.2463 59.4192C54.1663 59.1888 57.5263 59.088 59.0287 59.568C61.2703 60.2832 70.1839 64.7184 69.1519 66.9024C68.2207 68.88 61.0495 64.0992 61.0495 64.0992C61.0495 64.0992 68.7295 68.28 67.1551 70.4544C65.5807 72.6288 58.2127 66.1344 58.2127 66.1344C58.2127 66.1344 65.9887 70.6128 64.0303 72.6C62.5471 74.1024 55.5247 68.6112 55.5247 68.6112C55.5247 68.6112 62.1823 72.504 60.728 74.1168C59.1152 75.8976 52.3183 71.2368 52.3183 71.2368C47.9215 74.7072 44.4079 74.5632 41.9215 74.16C41.3215 74.0736 43.5247 60.7104 43.5247 60.7104Z" fill="#EB9481"/>
<path d="M58.4912 62.4816C59.408 62.9616 60.344 63.3984 61.2176 63.9216C62.0912 64.4448 62.9456 65.0304 63.7664 65.6496C64.8533 66.4364 65.847 67.3446 66.728 68.3568C65.0336 66.672 61.928 64.6944 61.0592 64.1568C60.1904 63.6192 59.3408 63.0384 58.472 62.496C58.448 62.5008 58.4672 62.4672 58.4912 62.4816Z" fill="#263238"/>
<path d="M56.4896 65.6016C57.6368 66.24 58.7984 66.8304 59.9168 67.5216C61.0352 68.2128 62.0288 68.9616 63.0896 69.7104C63.1712 69.768 63.0896 69.792 63.0272 69.7392C61.9376 69.024 60.872 68.4432 59.768 67.7424C58.664 67.0416 57.5936 66.3024 56.4704 65.6304C56.4512 65.616 56.4704 65.592 56.4896 65.6016Z" fill="#263238"/>
<path d="M54.2864 67.9728C56.0695 68.9067 57.752 70.0213 59.3072 71.2992C59.384 71.3616 59.3072 71.3856 59.2208 71.328C57.5744 70.1904 56.288 69.2832 54.2576 68.0352C54.224 68.016 54.248 67.9536 54.2864 67.9728Z" fill="#263238"/>
<path d="M34.256 46.5264H22.16C22.16 46.5264 28.3136 34.728 31.1024 31.7712C34.2368 28.44 35.2544 30.7728 35.4224 35.1312C35.5904 39.4896 34.256 46.5264 34.256 46.5264Z" fill="#7165E3"/>
<path opacity="0.1" d="M34.256 46.5264H22.16C22.16 46.5264 28.3136 34.728 31.1024 31.7712C34.2368 28.44 35.2544 30.7728 35.4224 35.1312C35.5904 39.4896 34.256 46.5264 34.256 46.5264Z" fill="black"/>
<path d="M33.9536 44.4768C33.5312 44.4144 29.7632 44.3904 28.9424 44.4048C28.1216 44.4192 24.7712 44.4336 23.9264 44.52C23.9187 44.52 23.9114 44.523 23.906 44.5284C23.9006 44.5338 23.8976 44.5411 23.8976 44.5488C23.8976 44.5564 23.9006 44.5637 23.906 44.5691C23.9114 44.5745 23.9187 44.5776 23.9264 44.5776C24.7712 44.6544 28.1504 44.6448 28.9856 44.6496C29.8208 44.6544 33.5504 44.5968 33.9632 44.5296C33.992 44.5248 33.9824 44.4816 33.9536 44.4768Z" fill="#263238"/>
<path d="M82.5968 41.28C83.0768 43.3248 84.7424 46.1184 84.584 47.664C84.5594 48.0474 84.4115 48.4125 84.1623 48.7049C83.9132 48.9973 83.5762 49.2012 83.2016 49.2864C83.2016 49.2864 84.536 50.376 84.1616 51.7584C83.9696 52.4688 82.6592 52.7856 82.6592 52.7856C82.6592 52.7856 83.6912 53.7072 83.2832 54.912C82.952 55.872 81.6944 56.0448 81.6944 56.0448C81.6944 56.0448 82.2704 57.3888 81.6224 58.2624C80.3072 60.0336 71.7968 58.1088 71.192 54.6768C70.9088 53.0784 72.9632 53.6592 72.9632 53.6592C72.9632 53.6592 70.2128 52.1088 70.5632 50.3424C70.9136 48.576 73.5344 49.4976 73.5344 49.4976C73.5344 49.4976 70.8848 47.9712 71.432 46.176C71.9792 44.3808 74.4704 45.696 74.4704 45.696C74.4704 45.696 72.8672 43.9872 73.6064 42.7104C74.8208 40.6032 78.4688 44.4144 80.4416 44.3952L81.2864 41.3952L82.5968 41.28Z" fill="#EB9481"/>
<path d="M83.5185 44.3136C83.2497 42.336 84.7425 41.8512 85.0209 39.9504C85.3329 37.8336 82.7505 37.8192 81.3153 41.2848L80.4417 44.3904L83.5185 44.3136Z" fill="#EB9481"/>
<path d="M81.4927 56.1168C81.4991 56.1168 81.5052 56.1193 81.5097 56.1238C81.5142 56.1283 81.5167 56.1344 81.5167 56.1408C81.5167 56.1471 81.5142 56.1533 81.5097 56.1578C81.5052 56.1623 81.4991 56.1648 81.4927 56.1648C78.4249 56.2226 75.4119 55.3471 72.8527 53.6544C72.7711 53.6016 72.8287 53.4432 72.9295 53.4912C75.6419 54.7761 78.5263 55.6605 81.4927 56.1168V56.1168Z" fill="#263238"/>
<path d="M82.6928 52.824C82.7264 52.824 82.7216 52.8864 82.6928 52.8864C79.6496 52.92 76.0016 51.8592 73.4288 49.5648C73.3376 49.488 73.3376 49.3296 73.4288 49.4112C75.2672 50.808 79.8992 52.44 82.6928 52.824Z" fill="#263238"/>
<path d="M74.36 45.4656C76.9136 47.5728 79.8896 48.6432 83.1008 49.3056C83.1392 49.3056 83.1248 49.3728 83.1008 49.3728C81.44 49.4784 79.4384 48.84 77.9216 48.2112C76.5044 47.6547 75.2569 46.7381 74.3024 45.552C74.2256 45.5088 74.2832 45.4224 74.36 45.4656Z" fill="#263238"/>
<path d="M70.4095 30.2784L92.0095 29.904C93.1085 29.8904 94.1982 30.1062 95.209 30.5376C96.2198 30.969 97.1295 31.6066 97.8799 32.4096C101.106 35.8368 104.029 41.4672 106.813 49.6224L85.2127 49.9968C82.4287 41.8368 79.5055 36.216 76.2799 32.7888C75.5298 31.9852 74.6202 31.3469 73.6094 30.9146C72.5987 30.4824 71.5088 30.2657 70.4095 30.2784V30.2784Z" fill="#EBEBEB"/>
<path d="M86.3215 46.56C88.8559 46.464 91.3951 46.4304 93.9295 46.368C96.4639 46.3056 98.9983 46.2864 101.533 46.2912C98.9983 46.3872 96.4639 46.4208 93.9295 46.488C91.3951 46.5552 88.8607 46.56 86.3215 46.56Z" fill="#A6A6A6"/>
<path d="M102.68 46.6944C102.565 46.3968 102.445 46.0896 102.334 45.7728V45.7152H102.392L103.434 45.6576H103.482V45.7008L103.774 46.6608V46.7232H103.712C103.338 46.7136 102.987 46.704 102.68 46.6944ZM102.68 46.6944C103.04 46.6656 103.381 46.6368 103.722 46.6224L103.674 46.68L103.362 45.72L103.419 45.7584C103.074 45.7584 102.728 45.7584 102.378 45.7872L102.421 45.7296C102.488 46.0464 102.565 46.3632 102.68 46.6944Z" fill="#A6A6A6"/>
<path d="M103.266 46.3152C103.144 46.2256 103.027 46.1295 102.915 46.0272H102.992C102.887 46.3565 102.74 46.6711 102.555 46.9632C102.634 46.6306 102.752 46.3084 102.906 46.0032L102.939 45.936L102.982 45.9888C103.083 46.08 103.16 46.1904 103.266 46.3152Z" fill="#7165E3"/>
<path d="M85.5344 44.424C88.0688 44.328 90.608 44.2992 93.1424 44.232C95.6768 44.1648 98.2112 44.16 100.76 44.16C98.2256 44.256 95.6912 44.2896 93.1568 44.352C90.6224 44.4144 88.0736 44.4336 85.5344 44.424Z" fill="#A6A6A6"/>
<path d="M101.869 44.5776C101.754 44.2848 101.634 43.9776 101.523 43.656V43.6032H101.581L102.622 43.5456H102.67V43.5936L102.963 44.5536V44.616H102.901C102.555 44.6016 102.2 44.592 101.869 44.5776ZM101.869 44.5776L102.91 44.5056L102.862 44.568L102.55 43.608L102.608 43.6512C102.262 43.6512 101.917 43.6512 101.566 43.68L101.61 43.6224C101.72 43.9344 101.778 44.2512 101.869 44.5776Z" fill="#A6A6A6"/>
<path d="M102.478 44.1984C102.355 44.1119 102.238 44.0173 102.128 43.9152H102.205C102.099 44.2442 101.952 44.5586 101.768 44.8512C101.846 44.5184 101.964 44.1961 102.118 43.8912L102.152 43.824L102.195 43.8768C102.296 43.9584 102.387 44.0784 102.478 44.1984Z" fill="#7165E3"/>
<path d="M84.7472 42.312C87.2816 42.216 89.8208 42.1872 92.3552 42.12C94.8896 42.0528 97.424 42.0384 99.9584 42.048C97.424 42.144 94.8896 42.1728 92.3552 42.24C89.8208 42.3072 87.2864 42.3216 84.7472 42.312Z" fill="#A6A6A6"/>
<path d="M101.082 42.4656C100.966 42.1728 100.846 41.8608 100.736 41.544V41.4912H100.76C101.11 41.4624 101.456 41.4528 101.802 41.4336H101.85V41.4768L102.142 42.4368V42.4992H102.08C101.763 42.4896 101.413 42.4752 101.082 42.4656ZM101.082 42.4656C101.442 42.4368 101.782 42.408 102.123 42.3936L102.075 42.456L101.763 41.496L101.821 41.5392C101.475 41.5392 101.13 41.5632 100.779 41.5632L100.822 41.5056C100.914 41.8224 100.99 42.1344 101.082 42.4656Z" fill="#A6A6A6"/>
<path d="M101.691 42.0864C101.569 41.9969 101.452 41.9007 101.341 41.7984H101.418C101.313 42.1356 101.166 42.4581 100.981 42.7584C101.059 42.4256 101.177 42.1033 101.331 41.7984L101.365 41.7312L101.408 41.784C101.509 41.8464 101.6 41.9664 101.691 42.0864Z" fill="#7165E3"/>
<path d="M83.7584 40.2C86.2928 40.104 88.8272 40.0704 91.3616 40.008C93.896 39.9456 96.4352 39.9264 98.9696 39.9312C96.4352 40.0272 93.9008 40.0608 91.3664 40.128C88.832 40.1952 86.2976 40.2048 83.7584 40.2Z" fill="#A6A6A6"/>
<path d="M100.093 40.3536C99.9776 40.056 99.8576 39.7488 99.7472 39.432V39.3744H99.8C100.146 39.3504 100.496 39.336 100.842 39.3168H100.885V39.36L101.178 40.32V40.3776H101.115C100.76 40.3728 100.424 40.3632 100.093 40.3536ZM100.093 40.3536C100.453 40.3248 100.794 40.296 101.13 40.2816L101.086 40.3392L100.77 39.3792L100.832 39.4176C100.486 39.4176 100.136 39.4464 99.7904 39.4464L99.8288 39.3888C99.92 39.7056 100.002 40.0224 100.093 40.3536Z" fill="#A6A6A6"/>
<path d="M100.702 39.9744C100.58 39.8849 100.463 39.7887 100.352 39.6864H100.429C100.32 40.0141 100.173 40.3282 99.9919 40.6224C100.071 40.2898 100.188 39.9676 100.342 39.6624L100.376 39.5952L100.419 39.648C100.52 39.7344 100.611 39.84 100.702 39.9744Z" fill="#7165E3"/>
<path d="M82.6544 38.0832C85.1888 37.9872 87.7232 37.9584 90.2576 37.8912C92.792 37.824 95.3264 37.8144 97.8656 37.8192C95.3312 37.9152 92.792 37.9488 90.2576 38.0112C87.7232 38.0736 85.1888 38.0928 82.6544 38.0832Z" fill="#A6A6A6"/>
<path d="M98.984 38.2368C98.8736 37.944 98.7488 37.6368 98.6384 37.3152V37.2624H98.7008C99.0464 37.2384 99.392 37.224 99.7376 37.2048H99.7856V37.2528L100.074 38.2128V38.2752H100.011C99.6704 38.2608 99.32 38.2512 98.984 38.2368ZM98.984 38.2368L100.026 38.1648L99.9824 38.2272L99.6656 37.2672L99.7232 37.3104C99.3776 37.3104 99.032 37.3344 98.6816 37.3392L98.7248 37.2816C98.84 37.5936 98.8976 37.92 98.984 38.2368Z" fill="#A6A6A6"/>
<path d="M99.5936 37.8624C99.4752 37.7728 99.36 37.6768 99.248 37.5744H99.3248C99.216 37.9031 99.0677 38.2174 98.8832 38.5104C98.9613 38.1776 99.079 37.8553 99.2336 37.5504L99.2672 37.4832L99.3152 37.536C99.4136 37.6399 99.5065 37.7488 99.5936 37.8624V37.8624Z" fill="#7165E3"/>
<path d="M81.2288 35.8608C83.7632 35.7648 86.2976 35.736 88.8368 35.6688C91.376 35.6016 93.9056 35.5872 96.44 35.5968C93.9056 35.6928 91.3712 35.7216 88.8368 35.7888C86.3024 35.856 83.768 35.8704 81.2288 35.8608Z" fill="#A6A6A6"/>
<path d="M97.5631 36C97.4479 35.7072 97.3279 35.3952 97.2175 35.0784V35.0256H97.2751C97.6207 34.9968 97.9711 34.9872 98.3167 34.968H98.3647V35.0112L98.6575 35.9712V36.0336H98.5951C98.2447 36.0384 97.8799 36.024 97.5631 36ZM97.5631 36C97.9231 35.9712 98.2639 35.9424 98.5999 35.928L98.5567 35.9904L98.2447 35.0304L98.3023 35.0688C97.9567 35.0688 97.6063 35.0976 97.2607 35.0976L97.3039 35.04C97.3999 35.3712 97.4719 35.6832 97.5631 36Z" fill="#A6A6A6"/>
<path d="M98.1728 35.6352C98.0508 35.5457 97.9339 35.4495 97.8224 35.3472H97.8992C97.7941 35.6765 97.6473 35.9911 97.4624 36.2832C97.5402 35.9503 97.6578 35.6279 97.8128 35.3232L97.8464 35.256L97.8896 35.3088C97.9897 35.4125 98.0842 35.5215 98.1728 35.6352V35.6352Z" fill="#7165E3"/>
<path d="M79.5488 33.6384C82.0832 33.5424 84.6176 33.5088 87.152 33.4416C89.6864 33.3744 92.2256 33.3648 94.76 33.3696C92.2256 33.4656 89.6912 33.4992 87.1568 33.5616C84.6224 33.624 82.0832 33.6432 79.5488 33.6384Z" fill="#A6A6A6"/>
<path d="M95.8832 33.7872C95.768 33.4944 95.648 33.1872 95.5376 32.8704V32.8128H95.5952C95.9408 32.8128 96.2912 32.7744 96.6368 32.7552H96.68V32.7984L96.9728 33.7584V33.8208H96.92C96.5648 33.8112 96.2144 33.8016 95.8832 33.7872ZM95.8832 33.7872C96.2432 33.7872 96.584 33.7344 96.92 33.72L96.8768 33.7776L96.56 32.8176L96.6224 32.8608L95.5808 32.8896L95.6192 32.832C95.7104 33.144 95.792 33.4608 95.8832 33.7872Z" fill="#A6A6A6"/>
<path d="M96.4879 33.4128C96.3695 33.32 96.2543 33.224 96.1423 33.1248H96.2192C96.1117 33.4608 95.9651 33.783 95.7823 34.0848C95.8612 33.7522 95.9788 33.43 96.1327 33.1248L96.1663 33.0576L96.2095 33.1104C96.3075 33.2063 96.4005 33.3072 96.4879 33.4128V33.4128Z" fill="#7165E3"/>
<path d="M76.9424 31.4112C79.4768 31.3152 82.0112 31.2864 84.5456 31.2192C87.08 31.152 89.6192 31.1376 92.1536 31.1472C89.6192 31.2432 87.0848 31.272 84.5504 31.3392C82.016 31.4064 79.4768 31.4208 76.9424 31.4112Z" fill="#A6A6A6"/>
<path d="M93.2768 31.5648C93.1616 31.272 93.0416 30.9648 92.9312 30.6432V30.5904H92.9887C93.3344 30.5664 93.6848 30.552 94.0304 30.5328H94.04V30.576L94.3327 31.536V31.5984H94.2704C93.9584 31.5888 93.608 31.5744 93.2768 31.5648ZM93.2768 31.5648C93.6368 31.536 93.9776 31.5072 94.3136 31.4928L94.2704 31.5552L93.9536 30.5952L94.016 30.6384L92.9744 30.6672L93.0127 30.6048C93.1039 30.9216 93.1856 31.2336 93.2768 31.5648Z" fill="#A6A6A6"/>
<path d="M93.8816 31.2C93.7632 31.1104 93.648 31.0144 93.536 30.912H93.6128C93.5041 31.2475 93.3576 31.5696 93.176 31.872C93.2542 31.5392 93.3718 31.2169 93.5264 30.912L93.56 30.8448L93.6032 30.8976C93.7013 30.9934 93.7942 31.0943 93.8816 31.2V31.2Z" fill="#7165E3"/>
<path d="M70.6304 30.2784L92.2304 29.904C89.3936 29.952 86.576 31.6752 84.7424 34.224C80.0576 40.7376 76.0496 60.9696 75.8576 73.3824C75.7904 77.6208 77.4944 84.9648 79.304 92.7408C81.704 102.984 84.3776 114.59 83.8736 122.462C83.4944 128.39 81.7328 135.504 79.8704 143.03C78.2528 149.544 76.5872 156.283 75.6416 162.878C74.5232 170.712 75.4784 179.981 77.6 181.939C78.1602 182.494 78.825 182.933 79.5558 183.229C80.2866 183.526 81.0689 183.675 81.8576 183.667L60.2576 184.046C59.4698 184.053 58.6884 183.904 57.9585 183.607C57.2286 183.311 56.5646 182.873 56.0048 182.318C53.8784 180.36 52.9232 171.091 54.0416 163.253C55.0016 156.662 56.6576 149.923 58.2704 143.41C60.1328 135.878 61.8944 128.77 62.2784 122.842C62.7584 114.97 60.0848 103.358 57.704 93.1152C55.8944 85.344 54.1904 77.9952 54.2576 73.7616C54.4496 61.3488 58.4576 41.1216 63.1424 34.5984C64.976 32.0496 67.7936 30.3312 70.6304 30.2784Z" fill="#DBDBDB"/>
<path d="M93.3104 158.069L114.91 157.694C110.269 157.776 104.83 163.853 99.0704 170.29C93.1952 176.846 87.1664 183.581 81.872 183.672L60.272 184.051C65.552 183.955 71.5952 177.226 77.4704 170.664C83.2256 164.232 88.6688 158.15 93.3104 158.069Z" fill="#C7C7C7"/>
<path d="M66.344 182.88C68.8784 182.784 71.4128 182.75 73.9472 182.683C76.4816 182.616 79.016 182.602 81.5504 182.611C79.016 182.707 76.4816 182.736 73.9472 182.803C71.4128 182.87 68.8784 182.88 66.344 182.88Z" fill="#A6A6A6"/>
<path d="M82.1936 183.043C82.3184 182.741 82.4384 182.414 82.5776 182.083V182.059H82.6064C82.9808 182.059 83.3552 182.059 83.7296 182.059H83.8256L83.7824 182.146L83.3312 183.106V183.134H83.2976L82.1936 183.043ZM82.1936 183.043H83.3072L83.264 183.072L83.6912 182.112L83.744 182.198C83.3696 182.198 82.9952 182.198 82.6208 182.198L82.664 182.174L82.1936 183.043Z" fill="#A6A6A6"/>
<path d="M83.192 182.626C83.1344 182.541 83.0831 182.453 83.0384 182.362H83.1152C82.8356 182.684 82.5271 182.979 82.1936 183.245C82.4471 182.898 82.7332 182.577 83.048 182.285L83.1056 182.232V182.304C83.1437 182.408 83.1726 182.516 83.192 182.626V182.626Z" fill="#7165E3"/>
<path d="M68.696 181.109C71.2304 181.013 73.7648 180.979 76.2992 180.912C78.8336 180.845 81.368 180.83 83.9072 180.84C81.3728 180.936 78.8384 180.965 76.304 181.032C73.7696 181.099 71.2304 181.114 68.696 181.109Z" fill="#A6A6A6"/>
<path d="M84.5504 181.258C84.6704 180.955 84.7904 180.629 84.9344 180.298V180.274H84.9632C85.3376 180.274 85.712 180.274 86.0864 180.274H86.1824L86.144 180.36L85.6928 181.32V181.349H85.664L84.5504 181.258ZM84.5504 181.258H85.6592L85.616 181.286L86.0432 180.326L86.096 180.413C85.7216 180.413 85.3472 180.413 84.9728 180.413L85.016 180.389L84.5504 181.258Z" fill="#A6A6A6"/>
<path d="M85.544 180.84C85.4882 180.755 85.4369 180.667 85.3904 180.576H85.472C85.1924 180.898 84.8839 181.194 84.5504 181.459C84.8022 181.113 85.0867 180.791 85.4 180.499L85.4576 180.446V180.518C85.4957 180.623 85.5246 180.731 85.544 180.84Z" fill="#7165E3"/>
<path d="M71.048 179.323C73.5824 179.227 76.1168 179.194 78.6512 179.126C81.1856 179.059 83.7248 179.045 86.2592 179.054C83.7248 179.15 81.1904 179.179 78.656 179.246C76.1216 179.314 73.5872 179.328 71.048 179.323Z" fill="#A6A6A6"/>
<path d="M86.9023 179.472C87.0271 179.17 87.1423 178.843 87.2863 178.512V178.488H87.3199C87.6943 178.488 88.0687 178.488 88.4431 178.488H88.5391L88.4959 178.574L88.0447 179.534V179.563H88.0159L86.9023 179.472ZM86.9023 179.472H88.0111L87.9679 179.501L88.3951 178.541L88.4527 178.627C88.0783 178.627 87.7039 178.627 87.3295 178.627L87.3679 178.603L86.9023 179.472Z" fill="#A6A6A6"/>
<path d="M73.1456 177.538C75.6752 177.442 78.2144 177.408 80.7488 177.341C83.2832 177.274 85.8176 177.259 88.352 177.269C85.8176 177.365 83.2832 177.394 80.7488 177.461C78.2144 177.528 75.68 177.542 73.1456 177.538Z" fill="#A6A6A6"/>
<path d="M88.9951 177.686C89.1199 177.384 89.2399 177.058 89.3791 176.726V176.702H89.4079C89.7823 176.702 90.1567 176.702 90.5311 176.702H90.6271L90.5839 176.789L90.1327 177.749V177.778H90.0991L88.9951 177.686ZM88.9951 177.686H90.1087L90.0655 177.715L90.4927 176.755L90.5455 176.842C90.1711 176.842 89.7967 176.842 89.4223 176.842L89.4607 176.818L88.9951 177.686Z" fill="#A6A6A6"/>
<path d="M75.056 175.752C77.5904 175.656 80.1296 175.622 82.664 175.555C85.1984 175.488 87.7328 175.474 90.2672 175.478C87.7328 175.579 85.1984 175.608 82.664 175.675C80.1296 175.742 77.5952 175.757 75.056 175.752Z" fill="#A6A6A6"/>
<path d="M90.9104 175.901C91.0352 175.598 91.1552 175.272 91.2944 174.941V174.917H91.328C91.7024 174.917 92.0768 174.917 92.4512 174.917H92.5472L92.504 175.003L92.0528 175.963V175.992H92.024L90.9104 175.901ZM90.9104 175.901H92.024L91.9808 175.93L92.408 174.97L92.4608 175.056C92.0864 175.056 91.712 175.056 91.3376 175.056L91.376 175.032L90.9104 175.901Z" fill="#A6A6A6"/>
<path d="M76.6208 173.966C79.1552 173.87 81.6896 173.837 84.224 173.77C86.7584 173.702 89.2976 173.688 91.832 173.693C89.2976 173.794 86.7632 173.822 84.2288 173.89C81.6944 173.957 79.16 173.971 76.6208 173.966Z" fill="#A6A6A6"/>
<path d="M92.4752 174.115C92.6 173.813 92.7152 173.486 92.8592 173.155V173.131H92.8928C93.2672 173.131 93.6416 173.131 94.016 173.131H94.112L94.0688 173.213L93.6176 174.173V174.202H93.5888L92.4752 174.115ZM92.4752 174.115H93.584L93.5408 174.144L93.968 173.184L94.0256 173.27C93.6512 173.27 93.2768 173.27 92.9024 173.27L92.9408 173.246L92.4752 174.115Z" fill="#A6A6A6"/>
<path d="M78.3824 172.181C80.9168 172.085 83.4512 172.051 85.9856 171.984C88.52 171.917 91.0592 171.902 93.5936 171.907C91.0592 172.008 88.5248 172.037 85.9904 172.104C83.456 172.171 80.9216 172.186 78.3824 172.181Z" fill="#A6A6A6"/>
<path d="M94.2368 172.32C94.3616 172.018 94.4768 171.691 94.6208 171.36H94.6544C95.0288 171.36 95.4032 171.36 95.7776 171.36H95.8736L95.8304 171.442L95.3792 172.402V172.43H95.3504L94.2368 172.32ZM94.2368 172.32H95.3456L95.3024 172.349L95.7296 171.389L95.7872 171.475C95.4128 171.475 95.0384 171.475 94.664 171.475L94.7024 171.451L94.2368 172.32Z" fill="#A6A6A6"/>
<path d="M80.0239 170.4C82.5583 170.304 85.0927 170.27 87.6271 170.203C90.1615 170.136 92.7007 170.122 95.2351 170.126C92.7007 170.227 90.1663 170.256 87.6319 170.323C85.0975 170.39 82.5583 170.4 80.0239 170.4Z" fill="#A6A6A6"/>
<path d="M95.8784 170.544C95.9984 170.242 96.1184 169.915 96.2624 169.584V169.56H96.2912C96.6656 169.56 97.0448 169.56 97.4192 169.56H97.5104L97.472 169.642L97.0208 170.602V170.63H96.992L95.8784 170.544ZM95.8784 170.544H96.9872L96.944 170.573L97.3712 169.613L97.4288 169.699C97.0496 169.699 96.6752 169.699 96.3008 169.699L96.344 169.675L95.8784 170.544Z" fill="#A6A6A6"/>
<path d="M81.5599 168.61C84.0895 168.514 86.6287 168.48 89.1631 168.413C91.6975 168.346 94.2319 168.331 96.7663 168.336C94.2319 168.437 91.6975 168.466 89.1631 168.533C86.6287 168.6 84.0895 168.614 81.5599 168.61Z" fill="#A6A6A6"/>
<path d="M97.4 168.758C97.5248 168.456 97.6448 168.13 97.784 167.798H97.8128C98.1872 167.798 98.5616 167.798 98.936 167.798H99.032L98.9888 167.88L98.5376 168.84V168.869H98.504L97.4 168.758ZM97.4 168.758H98.5136H98.4704L98.8976 167.798L98.9504 167.885C98.576 167.885 98.2016 167.885 97.8272 167.885L97.8656 167.861L97.4 168.758Z" fill="#A6A6A6"/>
<path d="M83.2448 166.824C85.7792 166.728 88.3136 166.694 90.848 166.627C93.3824 166.56 95.9168 166.546 98.456 166.55C95.9216 166.651 93.3824 166.68 90.848 166.747C88.3136 166.814 85.7792 166.829 83.2448 166.824Z" fill="#A6A6A6"/>
<path d="M99.0944 166.973C99.2192 166.67 99.3392 166.344 99.4784 166.013V165.984H99.5072C99.8816 165.984 100.256 165.984 100.63 165.984H100.726L100.688 166.066L100.237 167.026V167.054H100.203L99.0944 166.973ZM99.0944 166.973H100.208L100.165 166.997L100.592 166.037L100.645 166.123C100.27 166.123 99.896 166.123 99.5216 166.123L99.5648 166.099L99.0944 166.973Z" fill="#A6A6A6"/>
<path d="M84.6416 165.038C87.176 164.942 89.7104 164.909 92.2448 164.842C94.7792 164.774 97.3184 164.76 99.8528 164.765C97.3184 164.866 94.784 164.894 92.2496 164.962C89.7152 165.029 87.1808 165.043 84.6416 165.038Z" fill="#A6A6A6"/>
<path d="M100.496 165.182C100.621 164.885 100.736 164.558 100.88 164.222V164.194H100.914C101.288 164.194 101.662 164.194 102.037 164.194H102.133L102.09 164.275L101.638 165.235V165.264H101.61L100.496 165.182ZM100.496 165.182H101.605H101.562L101.989 164.222L102.046 164.309C101.672 164.309 101.298 164.309 100.923 164.309H100.962L100.496 165.182Z" fill="#A6A6A6"/>
<path d="M86.36 163.253C88.8944 163.157 91.4336 163.123 93.968 163.056C96.5024 162.989 99.0368 162.974 101.571 162.979C99.0368 163.08 96.5024 163.109 93.968 163.176C91.4336 163.243 88.9088 163.258 86.36 163.253Z" fill="#A6A6A6"/>
<path d="M102.224 163.397C102.349 163.099 102.469 162.773 102.608 162.437V162.408H102.637C103.011 162.408 103.386 162.408 103.76 162.408H103.856L103.813 162.49L103.362 163.45V163.478H103.333L102.224 163.397ZM102.224 163.397H103.338L103.294 163.421L103.722 162.461L103.774 162.547C103.4 162.547 103.026 162.547 102.651 162.547L102.69 162.523L102.224 163.397Z" fill="#A6A6A6"/>
<path d="M88.4528 161.467C90.9872 161.371 93.5216 161.338 96.056 161.27C98.5904 161.203 101.125 161.189 103.664 161.194C101.13 161.294 98.5904 161.323 96.056 161.39C93.5216 161.458 90.9872 161.472 88.4528 161.467Z" fill="#A6A6A6"/>
<path d="M104.302 161.611C104.427 161.314 104.547 160.987 104.686 160.651V160.622H104.715C105.09 160.622 105.464 160.622 105.838 160.622H105.934L105.896 160.704L105.445 161.664V161.693H105.411L104.302 161.611ZM104.302 161.611H105.416H105.373L105.8 160.651L105.853 160.738C105.478 160.738 105.104 160.738 104.73 160.738H104.773L104.302 161.611Z" fill="#A6A6A6"/>
<path d="M90.3967 159.682C92.9311 159.586 95.4655 159.552 97.9999 159.485C100.534 159.418 103.069 159.403 105.603 159.408C103.074 159.509 100.534 159.538 97.9999 159.605C95.4655 159.672 92.9311 159.686 90.3967 159.682Z" fill="#A6A6A6"/>
<path d="M106.246 159.84C106.371 159.542 106.491 159.216 106.63 158.88V158.851H106.659C107.034 158.851 107.408 158.851 107.782 158.851H107.878L107.84 158.938L107.389 159.898V159.926H107.355L106.246 159.84ZM106.246 159.84H107.36L107.317 159.864L107.744 158.904L107.797 158.99C107.422 158.99 107.048 158.99 106.674 158.99L106.717 158.966L106.246 159.84Z" fill="#A6A6A6"/>
<path d="M93.3008 158.078L114.901 157.704C121.05 157.594 124.885 164.563 128.595 171.298C131.85 177.206 134.926 182.794 139.232 182.717L117.632 183.096C113.312 183.168 110.25 177.586 106.995 171.677C103.285 164.938 99.4496 157.973 93.3008 158.078Z" fill="#EBEBEB"/>
<path d="M136.328 177.926L157.928 177.547C153.229 177.629 150.382 178.987 147.632 180.317C145.131 181.522 142.765 182.654 139.242 182.717L117.642 183.096C121.17 183.034 123.531 181.901 126.032 180.696C128.782 179.376 131.629 178.008 136.328 177.926Z" fill="#C7C7C7"/>
<path d="M125.24 182.117C127.453 182.021 129.67 181.987 131.883 181.92C134.096 181.853 136.314 181.838 138.531 181.848C136.318 181.944 134.101 181.973 131.888 182.04C129.675 182.107 127.453 182.122 125.24 182.117Z" fill="#A6A6A6"/>
<path d="M139.16 182.266C139.28 181.963 139.4 181.637 139.544 181.306V181.282H139.573C139.947 181.282 140.322 181.282 140.696 181.282H140.792L140.754 181.368L140.302 182.328V182.357H140.274L139.16 182.266ZM139.16 182.266H140.269L140.226 182.294L140.653 181.334L140.706 181.421C140.331 181.421 139.957 181.421 139.582 181.421L139.626 181.397L139.16 182.266Z" fill="#A6A6A6"/>
<path d="M128.754 180.667C131.048 180.571 133.342 180.542 135.637 180.475C137.931 180.408 140.226 180.394 142.525 180.398C140.23 180.494 137.931 180.528 135.637 180.595C133.342 180.662 131.048 180.677 128.754 180.667Z" fill="#A6A6A6"/>
<path d="M143.163 180.816C143.288 180.518 143.408 180.192 143.547 179.856V179.827H143.576C143.95 179.827 144.325 179.827 144.699 179.827H144.795L144.757 179.914L144.306 180.874V180.907H144.272L143.163 180.816ZM143.163 180.816H144.277L144.234 180.84L144.661 179.88L144.714 179.962H143.59L143.634 179.933L143.163 180.816Z" fill="#A6A6A6"/>
<path d="M132.656 179.323C134.95 179.227 137.245 179.194 139.539 179.126C141.834 179.059 144.128 179.045 146.427 179.054C144.133 179.15 141.838 179.179 139.544 179.246C137.25 179.314 134.95 179.328 132.656 179.323Z" fill="#A6A6A6"/>
<path d="M147.07 179.472C147.19 179.17 147.31 178.843 147.454 178.512V178.488H147.483C147.858 178.488 148.232 178.488 148.606 178.488H148.702L148.664 178.574L148.213 179.534V179.563H148.184L147.07 179.472ZM147.07 179.472H148.179L148.136 179.501L148.563 178.541L148.616 178.627C148.242 178.627 147.867 178.627 147.493 178.627L147.536 178.603L147.07 179.472Z" fill="#A6A6A6"/>
<path d="M136.323 177.926L157.923 177.547C160.198 177.509 171.771 182.678 172.261 182.899L150.661 183.274C150.171 183.053 138.603 177.888 136.323 177.926Z" fill="#EBEBEB"/>
<path d="M78.8096 12.8352C78.6017 14.8365 77.8416 16.7407 76.614 18.3349C75.3865 19.9292 73.7399 21.1508 71.8582 21.8634C69.9765 22.5759 67.9338 22.7513 65.9581 22.37C63.9825 21.9887 62.1518 21.0657 60.6704 19.704L55.2368 20.5008L57.9536 15.8064C57.3316 14.2781 57.066 12.6281 57.1772 10.9818C57.2884 9.33551 57.7733 7.7362 58.5951 6.30539C59.417 4.87457 60.5541 3.64989 61.9202 2.72439C63.2862 1.79888 64.8452 1.1969 66.4788 0.964184C68.1124 0.731464 69.7775 0.874125 71.3476 1.38133C72.9178 1.88853 74.3517 2.74693 75.5404 3.89132C76.7291 5.03571 77.6414 6.43597 78.2078 7.98573C78.7743 9.53549 78.9801 11.194 78.8096 12.8352V12.8352Z" fill="white"/>
<path d="M78.8096 12.8352C78.5965 14.8367 77.8377 16.7412 76.616 18.3408C76.3192 18.7375 75.9986 19.1158 75.656 19.4736C75.2947 19.818 74.9115 20.1387 74.5088 20.4336C73.7086 21.0338 72.828 21.5185 71.8928 21.8736C70.955 22.2387 69.9713 22.4729 68.9696 22.5696C68.4685 22.6151 67.9648 22.6247 67.4624 22.5984C66.9584 22.5858 66.4561 22.5344 65.96 22.4448C63.9576 22.0766 62.0976 21.1574 60.5888 19.7904L60.7136 19.8288L55.2896 20.664L54.896 20.7216L55.0928 20.376L57.7952 15.672V15.8592C57.1563 14.3032 56.8841 12.621 56.9998 10.943C57.1155 9.2649 57.616 7.63599 58.4624 6.18241C59.3084 4.73431 60.47 3.49559 61.8608 2.55841C63.592 1.40783 65.6144 0.772879 67.6926 0.727526C69.7707 0.682174 71.8189 1.22829 73.5986 2.30225C75.3783 3.37621 76.8162 4.93379 77.7448 6.79351C78.6733 8.65323 79.0542 10.7385 78.8432 12.8064L78.8096 12.8352ZM78.8096 12.8352C78.9831 11.2003 78.7789 9.54747 78.2126 8.004C77.6464 6.46054 76.7333 5.0677 75.5438 3.93287C74.3542 2.79803 72.9199 1.95151 71.3515 1.45855C69.7831 0.965596 68.1225 0.839372 66.4976 1.08961C64.8841 1.33438 63.3485 1.94698 62.0096 2.88001C60.6851 3.81287 59.5781 5.02133 58.7648 6.42241C57.9648 7.82881 57.494 9.3982 57.3876 11.0127C57.2811 12.6272 57.542 14.2448 58.1504 15.744L58.1888 15.84L58.136 15.9312L55.4048 20.616L55.208 20.3328L60.6464 19.5696H60.7232L60.776 19.6176C62.2263 20.976 64.0264 21.9035 65.9744 22.296C66.4602 22.3938 66.9529 22.4532 67.448 22.4736C67.9417 22.5096 68.4375 22.5096 68.9312 22.4736C69.916 22.3943 70.8851 22.1795 71.8112 21.8352C72.7489 21.495 73.6318 21.0196 74.432 20.424C74.8328 20.1267 75.2159 19.8061 75.5792 19.464C75.9217 19.1111 76.2423 18.7376 76.5392 18.3456C77.7912 16.7542 78.5771 14.8467 78.8096 12.8352V12.8352Z" fill="#263238"/>
<path d="M66.7376 17.8992L62.1008 13.2048L63.6608 11.6688L66.368 14.4096L71.9936 5.58722L73.8416 6.76322L66.7376 17.8992Z" fill="#7165E3"/>
</svg>
