<svg width="500" height="334" viewBox="0 0 500 334" fill="none" xmlns="http://www.w3.org/2000/svg">
<path d="M175.567 164.647H282.707V129.8H175.567V164.647Z" fill="#C7C7C7"/>
<path d="M282.707 129.807V164.653H449.713V161.253H446.113V133.207H449.713V129.807H282.707Z" fill="#A6A6A6"/>
<path d="M287.093 161.033L446.3 161.033V133.42L287.093 133.42V161.033Z" fill="white"/>
<path d="M287.087 161.033C326.773 160.92 406.627 160.78 446.3 160.733L446 161.033V133.42C421.847 134.373 351.787 133.3 326.927 133.613L287.12 133.52C287.233 132.927 287.12 161.16 287.12 161.033H287.087ZM287.087 161.033C287.087 160.94 286.993 133.413 286.993 133.327C286.993 133.24 326.867 133.24 326.893 133.227L446.3 133.087H446.633V133.42L446.6 161.033V161.333H446.3C406.62 161.293 326.76 161.153 287.087 161.033V161.033Z" fill="#DBDBDB"/>
<path d="M389.16 154.927C401.333 155.087 413.507 155.198 425.68 155.26L446.3 155.313V154.547L425.68 154.6C413.507 154.644 401.333 154.753 389.16 154.927Z" fill="#DBDBDB"/>
<path d="M287.086 148.4V149.107L313.666 149.18L352.193 149.08C364.366 149.022 376.54 148.913 388.713 148.753C376.54 148.593 364.366 148.484 352.193 148.427L313.666 148.327L287.086 148.4Z" fill="#DBDBDB"/>
<path d="M287.086 138.047V138.9L325.086 138.8C337.269 138.742 349.442 138.633 361.606 138.473C349.433 138.313 337.26 138.204 325.086 138.147L287.086 138.047Z" fill="#DBDBDB"/>
<path d="M287.086 155V155.707H297.293C309.466 155.653 321.642 155.544 333.82 155.38C321.638 155.229 309.462 155.12 297.293 155.053L287.086 155Z" fill="#DBDBDB"/>
<path d="M387.94 143.1C400.118 143.251 412.293 143.36 424.467 143.427L446.3 143.487V142.713L424.467 142.773C412.284 142.827 400.109 142.936 387.94 143.1Z" fill="#DBDBDB"/>
<path d="M435.707 145.933C427.329 145.889 418.945 145.856 410.554 145.833H384.027H358.18C349.794 145.833 341.409 145.867 333.027 145.933C341.414 145.978 349.798 146.011 358.18 146.033H384.027H410.554C418.94 146.011 427.325 145.978 435.707 145.933Z" fill="#DBDBDB"/>
<path d="M425.213 103.907H318.073V129.807H425.213V103.907Z" fill="#EBEBEB"/>
<path d="M318.067 129.807V103.907H151.06V106.433H154.66V127.28H151.06V129.807H318.067Z" fill="#DBDBDB"/>
<path d="M313.687 106.593H154.48V127.12H313.687V106.593Z" fill="white"/>
<path d="M313.686 106.593C274 106.713 194.146 106.853 154.48 106.9L154.786 106.593V127.12C152.68 126.2 234.533 127.18 234.06 126.887C253.886 126.887 293.846 126.98 313.666 127.047C313.553 127.487 313.666 106.507 313.666 106.593H313.686ZM313.686 106.593L313.76 127.12V127.193H313.686C293.826 127.26 253.933 127.347 234.08 127.353L154.48 127.453H154.146V127.12V106.593V106.287H154.453C194.133 106.333 273.993 106.473 313.66 106.593H313.686Z" fill="#DBDBDB"/>
<path d="M211.62 111.133C199.446 111.013 187.271 110.931 175.093 110.887L154.473 110.847V111.413L175.093 111.38C187.253 111.349 199.429 111.267 211.62 111.133Z" fill="#DBDBDB"/>
<path d="M313.687 116V115.473L287.113 115.42L248.587 115.493C236.413 115.538 224.238 115.618 212.06 115.733C224.233 115.853 236.409 115.936 248.587 115.98L287.113 116.053L313.687 116Z" fill="#DBDBDB"/>
<path d="M313.687 123.68V123.013L275.687 123.087C263.509 123.131 251.333 123.213 239.16 123.333C251.333 123.444 263.509 123.524 275.687 123.573L313.687 123.68Z" fill="#DBDBDB"/>
<path d="M313.687 111.08V110.553H303.48C291.307 110.593 279.133 110.676 266.96 110.8C279.133 110.916 291.307 110.996 303.48 111.04L313.687 111.08Z" fill="#DBDBDB"/>
<path d="M212.84 119.927C200.662 119.816 188.484 119.733 176.306 119.68L154.473 119.64V120.213L176.306 120.167C188.489 120.127 200.666 120.047 212.84 119.927Z" fill="#DBDBDB"/>
<path d="M165.066 117.82C173.453 117.856 181.838 117.88 190.22 117.893H216.753H242.593C250.98 117.893 259.364 117.869 267.746 117.82C259.364 117.78 250.98 117.756 242.593 117.747H216.753H190.22C181.833 117.76 173.449 117.784 165.066 117.82Z" fill="#DBDBDB"/>
<path d="M217.933 51.78H69.2666V164.653H217.933V51.78Z" fill="#EBEBEB"/>
<path d="M274.433 51.78H217.933V164.653H274.433V51.78Z" fill="#DBDBDB"/>
<path d="M69.2666 107.78H217.933L101.833 110.707L69.2666 107.78Z" fill="#DBDBDB"/>
<path d="M217.933 150.913H69.2666L185.373 153.84L217.933 150.913Z" fill="#DBDBDB"/>
<path d="M69.2666 75.9867H163.44L79.7266 78.3733L69.2666 75.9867Z" fill="#DBDBDB"/>
<path d="M217.933 134.167H123.767L207.473 136.553L217.933 134.167Z" fill="#DBDBDB"/>
<path d="M230.413 58.8H136.247L219.96 61.1933L230.413 58.8Z" fill="#DBDBDB"/>
<path d="M133.733 65.9533H239.947L222.24 67.3867L133.733 65.9533Z" fill="#DBDBDB"/>
<path d="M83.72 119.973H189.933L172.227 121.407L83.72 119.973Z" fill="#DBDBDB"/>
<path d="M149.033 86.8133H217.933L230.247 90.64L149.033 86.8133Z" fill="#EBEBEB"/>
<path d="M165.64 124.953H234.54L246.847 128.78L165.64 124.953Z" fill="#EBEBEB"/>
<path d="M150.487 141.76H219.387L231.7 145.587L150.487 141.76Z" fill="#EBEBEB"/>
<path d="M50.2866 86.8133H119.187L131.493 90.64L50.2866 86.8133Z" fill="#DBDBDB"/>
<path d="M138.693 64.76H69.7999L57.4866 68.58L138.693 64.76Z" fill="#EBEBEB"/>
<path d="M142.42 132.253H73.5199L61.2065 136.08L142.42 132.253Z" fill="#EBEBEB"/>
<path d="M138.693 137.94H69.7999L57.4866 141.76L138.693 137.94Z" fill="#DBDBDB"/>
<path d="M217.933 124.953H273.26L285.573 128.78L217.933 124.953Z" fill="#DBDBDB"/>
<path d="M237.247 107.78H280.153L274.433 104.653L237.247 107.78Z" fill="#DBDBDB"/>
<path d="M36.9734 164.667C173.453 164.26 326.547 164.253 463.027 164.667C326.547 165.08 173.453 165.073 36.9734 164.667V164.667Z" fill="#263238"/>
<path d="M311.633 259.047L377.84 242.773L461.96 254.493L392.893 271.973L311.633 259.047Z" fill="#DBDBDB"/>
<path d="M311.633 259.047L377.82 242.7C377.82 242.7 462 254.34 462 254.333L462.847 254.447L462 254.667L392.893 272.067C392.893 272.067 311.66 259.04 311.633 259.047V259.047ZM311.633 259.047C311.633 259.047 393.02 271.893 392.873 271.887L461.92 254.333V254.66C461.92 254.66 377.733 242.84 377.86 242.847L311.633 259.047V259.047Z" fill="#DBDBDB"/>
<path d="M390.26 267.44C394.334 266.187 398.534 265.02 402.747 263.867C406.96 262.713 411.24 261.607 415.534 260.533C419.827 259.46 424.2 258.373 428.587 257.353L435.2 255.827C437.454 255.347 439.66 254.84 441.94 254.387C439.94 255.02 437.82 255.6 435.76 256.213L429.46 257.953C425.26 259.12 420.967 260.22 416.674 261.287C412.38 262.353 408.007 263.447 403.62 264.467C399.234 265.487 394.807 266.507 390.26 267.44Z" fill="#C7C7C7"/>
<path d="M401.2 260.82C405.867 259.22 410.907 257.847 416.014 256.54C421.12 255.233 426.387 254 432 253.04C427.334 254.647 422.3 256.013 417.187 257.32C412.074 258.627 406.78 259.833 401.2 260.82Z" fill="#C7C7C7"/>
<path d="M370.313 264.793C374.387 263.54 378.587 262.373 382.8 261.22C387.014 260.067 391.293 258.96 395.587 257.887C399.88 256.813 404.254 255.727 408.634 254.707L415.253 253.187C417.5 252.707 419.713 252.2 421.993 251.74C419.993 252.373 417.873 252.96 415.813 253.567L409.514 255.313C405.307 256.473 401.02 257.573 396.727 258.647C392.434 259.72 388.06 260.807 383.674 261.827C379.287 262.847 374.86 263.86 370.313 264.793Z" fill="#C7C7C7"/>
<path d="M367.767 261.587C374.693 259.413 381.967 257.48 389.327 255.587C396.687 253.693 404.193 251.933 411.993 250.38C405.067 252.553 397.793 254.487 390.44 256.38C383.087 258.273 375.593 260.033 367.767 261.587Z" fill="#C7C7C7"/>
<path d="M376.42 255.553C380.24 254.167 384.42 253.013 388.667 251.92C392.913 250.827 397.333 249.84 402.047 249.067C398.227 250.46 394.047 251.607 389.807 252.7C385.567 253.793 381.14 254.78 376.42 255.553Z" fill="#C7C7C7"/>
<path d="M38.04 190.707L129.907 173.32L218.553 199.22L127.147 217.233L38.04 190.707Z" fill="#EBEBEB"/>
<path d="M38.04 190.707L129.913 173.233C129.913 173.233 218.58 199.067 218.58 199.06L219.247 199.253L218.58 199.387L127.147 217.333C127.113 217.333 38.0667 190.727 38.04 190.727V190.707ZM38.04 190.707L127.173 217.147C126.953 217.193 218.58 199.04 218.507 199.06V199.38L129.887 173.38C130.06 173.34 38.0134 190.713 38.04 190.713V190.707Z" fill="#DBDBDB"/>
<path d="M125.86 211.953C131.86 210.567 137.907 209.287 143.98 208C150.053 206.713 156.173 205.487 162.3 204.273C168.427 203.06 174.587 201.873 180.787 200.747L190.087 199.053C193.213 198.52 196.313 197.96 199.467 197.453C196.48 198.153 193.467 198.787 190.44 199.453L181.333 201.407C175.267 202.7 169.14 203.92 163.02 205.133C156.9 206.347 150.733 207.533 144.533 208.66C138.333 209.787 132.14 210.927 125.86 211.953Z" fill="#DBDBDB"/>
<path d="M149.407 202.733C155.953 201.047 162.74 199.62 169.547 198.26C176.353 196.9 183.287 195.66 190.407 194.653C183.86 196.34 177.073 197.767 170.267 199.127C163.46 200.487 156.527 201.727 149.407 202.733Z" fill="#DBDBDB"/>
<path d="M116.8 204.573C122.033 203.333 127.34 202.193 132.66 201.06C137.98 199.927 143.327 198.853 148.713 197.78C154.1 196.707 159.493 195.68 164.94 194.7L173.107 193.233C175.86 192.773 178.58 192.287 181.353 191.853C178.747 192.48 176.093 193.053 173.46 193.653L165.493 195.367C160.16 196.507 154.827 197.573 149.44 198.647C144.053 199.72 138.667 200.74 133.22 201.727C127.773 202.713 122.333 203.693 116.8 204.573Z" fill="#DBDBDB"/>
<path d="M112.527 200.833C117.36 199.673 122.267 198.607 127.193 197.553C132.12 196.5 137.08 195.5 142.053 194.513C147.027 193.527 152.053 192.567 157.08 191.667L164.647 190.333C167.2 189.913 169.727 189.467 172.3 189.073C169.893 189.667 167.433 190.193 165.007 190.76L157.633 192.353C152.72 193.413 147.747 194.407 142.773 195.393C137.8 196.38 132.773 197.333 127.747 198.24C122.72 199.147 117.66 200 112.527 200.833Z" fill="#DBDBDB"/>
<path d="M89.6401 200.76C95.6401 199.373 101.687 198.093 107.76 196.8C113.833 195.507 119.953 194.293 126.08 193.073C132.207 191.853 138.367 190.68 144.56 189.547L153.893 187.853C157.02 187.327 160.12 186.76 163.273 186.253C160.287 186.96 157.273 187.587 154.247 188.253L145.147 190.187C139.08 191.473 132.953 192.693 126.833 193.913C120.713 195.133 114.547 196.307 108.347 197.44C102.147 198.573 95.9201 199.727 89.6401 200.76Z" fill="#DBDBDB"/>
<path d="M88.8801 196.327C94.1735 195.073 99.5468 193.92 104.927 192.773C110.307 191.627 115.74 190.54 121.173 189.44C126.607 188.34 132.073 187.313 137.58 186.32L145.847 184.833C148.627 184.367 151.387 183.873 154.187 183.44C151.52 184.073 148.853 184.647 146.187 185.26L138.127 186.987C132.753 188.14 127.32 189.22 121.887 190.32C116.453 191.42 110.98 192.447 105.473 193.44C99.9668 194.433 94.4735 195.433 88.8801 196.327Z" fill="#DBDBDB"/>
<path d="M71.5266 195.16C77.5266 193.773 83.5733 192.493 89.6533 191.207C95.7333 189.92 101.847 188.667 108 187.48C114.153 186.293 120.287 185.08 126.487 183.953L135.787 182.26C138.913 181.727 142.02 181.167 145.167 180.66C142.18 181.36 139.167 181.993 136.147 182.66L127.047 184.6C120.98 185.887 114.853 187.107 108.727 188.32C102.6 189.533 96.4399 190.72 90.2399 191.847C84.0399 192.973 77.8133 194.133 71.5266 195.16Z" fill="#DBDBDB"/>
<path d="M92.5735 186.433C99.5402 184.66 106.727 183.153 113.967 181.713C121.207 180.273 128.54 178.947 136.08 177.86C129.113 179.633 121.933 181.133 114.687 182.58C107.44 184.027 100.113 185.333 92.5735 186.433Z" fill="#DBDBDB"/>
<path d="M172.653 279.467L289.4 257.373L402.04 290.287L285.887 313.173L172.653 279.467Z" fill="#EBEBEB"/>
<path d="M172.667 279.467L289.4 257.287C289.4 257.287 402.067 290.133 402.067 290.127L402.733 290.32L402.067 290.453L285.887 313.26C285.853 313.267 172.667 279.467 172.667 279.467ZM172.667 279.467L285.927 313.093C285.72 313.093 402.073 290.113 402.02 290.127V290.447L289.373 257.453C289.547 257.4 172.627 279.5 172.653 279.453L172.667 279.467Z" fill="#DBDBDB"/>
<path d="M284.247 306.467C291.853 304.707 299.58 303.06 307.28 301.44C314.98 299.82 322.773 298.253 330.553 296.707C338.333 295.16 346.167 293.66 354.047 292.22L365.867 290.073C369.867 289.407 373.78 288.68 377.787 288.04C373.993 288.933 370.14 289.753 366.32 290.613L354.753 293.067C347.047 294.707 339.26 296.253 331.48 297.8C323.7 299.347 315.867 300.847 307.987 302.28C300.107 303.713 292.233 305.16 284.247 306.467Z" fill="#DBDBDB"/>
<path d="M314.173 294.747C322.493 292.607 331.093 290.793 339.76 289.067C348.427 287.34 357.227 285.733 366.28 284.48C357.96 286.627 349.353 288.44 340.687 290.167C332.02 291.893 323.22 293.467 314.173 294.747Z" fill="#DBDBDB"/>
<path d="M272.74 297.087C279.407 295.513 286.134 294.06 292.894 292.627C299.654 291.193 306.474 289.82 313.294 288.46C320.114 287.1 326.987 285.793 333.907 284.54L344.294 282.673C347.787 282.093 351.247 281.473 354.774 280.927C351.44 281.727 348.107 282.453 344.774 283.213L334.654 285.387C327.9 286.833 321.074 288.193 314.254 289.553C307.434 290.913 300.554 292.22 293.634 293.467C286.714 294.713 279.767 296 272.74 297.087Z" fill="#DBDBDB"/>
<path d="M267.333 292.333C273.473 290.86 279.713 289.507 286 288.173C292.287 286.84 298.56 285.56 304.88 284.3C311.2 283.04 317.547 281.833 323.973 280.687L333.6 278.967C336.84 278.44 340.047 277.867 343.32 277.367C340.26 278.12 337.14 278.793 334.047 279.507L324.68 281.507C318.44 282.84 312.12 284.113 305.8 285.373C299.48 286.633 293.133 287.84 286.707 288.987C280.28 290.133 273.827 291.333 267.333 292.333Z" fill="#DBDBDB"/>
<path d="M238.22 292.24C245.827 290.48 253.554 288.833 261.254 287.213C268.954 285.593 276.747 284.027 284.527 282.48C292.307 280.933 300.14 279.433 308 278L319.82 275.853C323.82 275.187 327.734 274.46 331.74 273.853C327.947 274.747 324.094 275.567 320.274 276.427L308.707 278.88C301 280.52 293.214 282.067 285.434 283.613C277.654 285.16 269.82 286.66 261.94 288.093C254.06 289.527 246.207 290.933 238.22 292.24Z" fill="#DBDBDB"/>
<path d="M237.26 286.607C243.987 285.02 250.814 283.547 257.654 282.1C264.494 280.653 271.387 279.26 278.32 277.88C285.254 276.5 292.174 275.18 299.174 273.92L309.647 272C313.187 271.413 316.687 270.787 320.254 270.227C316.92 271.033 313.487 271.767 310.1 272.54L299.86 274.74C293.027 276.2 286.12 277.58 279.194 278.953C272.267 280.327 265.34 281.62 258.34 282.913C251.34 284.207 244.367 285.473 237.26 286.607Z" fill="#DBDBDB"/>
<path d="M215.207 285.127C222.813 283.367 230.54 281.72 238.24 280.1C245.94 278.48 253.733 276.913 261.513 275.367C269.293 273.82 277.127 272.32 285.007 270.88L296.827 268.733C300.827 268.067 304.74 267.34 308.74 266.7C304.953 267.593 301.1 268.413 297.28 269.273L285.713 271.727C278.007 273.367 270.22 274.913 262.44 276.46C254.66 278.007 246.827 279.507 238.947 280.94C231.067 282.373 223.193 283.82 215.207 285.127Z" fill="#DBDBDB"/>
<path d="M241.953 274.033C250.806 271.787 259.953 269.873 269.133 268.033C278.313 266.193 287.66 264.513 297.24 263.133C288.386 265.387 279.24 267.3 270.053 269.133C260.866 270.967 251.533 272.667 241.953 274.033Z" fill="#DBDBDB"/>
<path d="M457.933 223.473L241.787 283.193V240.147L457.933 180.427C469.387 201.547 457.933 223.473 457.933 223.473Z" fill="#37474F"/>
<path d="M30.8667 253.333L241.787 283.193V272.28L50.1534 248.84L30.8667 250V253.333Z" fill="#455A64"/>
<path d="M241.793 240.347C249.673 259.313 241.793 283.193 241.793 283.193L41.04 251.487V214.28L241.793 240.347Z" fill="#455A64"/>
<path d="M236.827 239.707C244.5 258.6 237.46 278.947 237.46 278.947L41.04 251.333V214.267L236.827 239.707Z" fill="white"/>
<path d="M236.827 239.707C237.087 240.44 237.84 242.507 238.1 243.233C239.66 248.423 240.45 253.814 240.447 259.233C240.476 265.918 239.503 272.57 237.56 278.967C237.653 279.26 41.0601 251.56 40.9935 251.633L40.7068 251.593V251.333V214.267V213.927L41.0401 213.973L138.973 226.793L236.787 239.693L236.827 239.707ZM236.827 239.707C188.667 233.233 87.8868 221.287 41.3335 214.28L41.3668 251.347L41.0801 251.013C41.0801 251.087 237.907 278.74 237.347 278.913C238.342 275.739 239.087 272.491 239.573 269.2C241.06 259.353 240.487 249.02 236.82 239.707H236.827Z" fill="#DBDBDB"/>
<path d="M136.08 230.333C168.853 234.333 205.56 239.267 238.22 244.113C205.447 240.113 168.74 235.173 136.08 230.333V230.333Z" fill="#DBDBDB"/>
<path d="M41.04 227.84C69.1334 231.173 100.3 235.4 128.293 239.607C100.18 236.273 69.0267 232.06 41.04 227.84Z" fill="#DBDBDB"/>
<path d="M45.72 231.5C93.46 237.5 146.947 244.713 194.56 251.573C146.827 245.573 93.34 238.36 45.72 231.5V231.5Z" fill="#DBDBDB"/>
<path d="M71.5266 244.093C121.047 250.22 176.533 257.58 225.933 264.567C176.42 258.447 120.933 251.08 71.5266 244.093V244.093Z" fill="#DBDBDB"/>
<path d="M104.813 251.933C148 257.333 196.433 263.853 239.52 270.107C196.313 264.72 147.907 258.187 104.813 251.933V251.933Z" fill="#DBDBDB"/>
<path d="M66 251.86C121.333 258.913 183.333 267.273 238.527 275.133C183.193 268.087 121.193 259.72 66 251.86V251.86Z" fill="#DBDBDB"/>
<path d="M241.793 240.347L457.933 180.427L239.52 170.533L30.8667 209.227V212.96L241.793 240.347Z" fill="#455A64"/>
<path d="M247.333 233.76C274.147 225.633 301.687 218.293 329.2 211.953C302.393 220.087 274.853 227.413 247.333 233.76Z" fill="#37474F"/>
<path d="M195.48 229.947C202.947 230.333 210.66 231.2 218.073 232.1C225.487 233 233.14 234.1 240.407 235.6C232.94 235.22 225.227 234.347 217.82 233.447C210.413 232.547 202.753 231.413 195.48 229.947Z" fill="#37474F"/>
<path d="M36.6667 209.953C87.4334 215.407 138.607 221.84 189.033 229.127C138.227 223.687 87.0601 217.24 36.6667 209.953Z" fill="#37474F"/>
<path d="M388.667 204.707C409.76 198.08 431.109 192.042 452.713 186.593C431.629 193.22 410.28 199.258 388.667 204.707Z" fill="#455A64"/>
<path d="M276.593 171.873C273.793 172.42 262.233 173.04 262 170.54C261.64 166.78 289.287 140.113 299.207 135.1C308.64 130.327 339.033 119.913 346.54 119.687L346.607 143.633C342.36 144.713 308.527 141.413 301.42 145.187C298.333 146.827 294.247 153.627 285.927 164.427C283 168.233 278.247 171.547 276.593 171.873Z" fill="#7165E3"/>
<g opacity="0.3">
<path d="M276.593 171.873C273.793 172.42 262.233 173.04 262 170.54C261.64 166.78 289.287 140.113 299.207 135.1C308.64 130.327 339.033 119.913 346.54 119.687L346.607 143.633C342.36 144.713 308.527 141.413 301.42 145.187C298.333 146.827 294.247 153.627 285.927 164.427C283 168.233 278.247 171.547 276.593 171.873Z" fill="black"/>
</g>
<path d="M270.853 171.873C268.047 172.42 257.3 173.04 257.06 170.54C256.707 166.78 284.353 140.113 294.267 135.1C303.7 130.327 339.033 119.913 346.54 119.687L346.607 143.633C342.36 144.713 303.593 141.413 296.487 145.187C293.4 146.827 288.487 153.627 280.18 164.427C277.26 168.233 272.507 171.547 270.853 171.873Z" fill="#7165E3"/>
<g opacity="0.2">
<path d="M270.853 171.873C268.047 172.42 257.3 173.04 257.06 170.54C256.707 166.78 284.353 140.113 294.267 135.1C303.7 130.327 339.033 119.913 346.54 119.687L346.607 143.633C342.36 144.713 303.593 141.413 296.487 145.187C293.4 146.827 288.487 153.627 280.18 164.427C277.26 168.233 272.507 171.547 270.853 171.873Z" fill="black"/>
</g>
<path d="M379.86 203.647C382.273 204.66 391.767 205.173 393.393 203.127C395.847 200.027 365.913 157.847 348.327 150.193C331.88 143.093 99.8467 98.0267 95.06 97.28L94.8867 116C127.213 121.053 332.333 153.733 345.02 159.26C353.293 162.853 363.833 181.813 371.407 194.913C374.467 200.233 377.06 202.473 379.86 203.647Z" fill="#7165E3"/>
<g opacity="0.2">
<path d="M379.86 203.647C382.273 204.66 391.767 205.173 393.393 203.127C395.847 200.027 365.913 157.847 348.327 150.193C331.88 143.093 99.8467 98.0267 95.06 97.28L94.8867 116C127.213 121.053 332.333 153.733 345.02 159.26C353.293 162.853 363.833 181.813 371.407 194.913C374.467 200.233 377.06 202.473 379.86 203.647Z" fill="black"/>
</g>
<path d="M375.853 203.647C378.267 204.66 387.76 205.173 389.387 203.127C391.84 200.027 362.127 156.827 344.547 149.173C328.093 142.073 99.8465 98 95.0599 97.28L90.8799 116C123.207 121.053 328.327 153.733 341.013 159.26C349.287 162.853 359.827 181.813 367.4 194.913C370.46 200.233 373.053 202.473 375.853 203.647Z" fill="#7165E3"/>
<g opacity="0.1">
<path d="M375.853 203.647C378.267 204.66 387.76 205.173 389.387 203.127C391.84 200.027 362.127 156.827 344.547 149.173C328.093 142.073 99.8465 98 95.0599 97.28L90.8799 116C123.207 121.053 328.327 153.733 341.013 159.26C349.287 162.853 359.827 181.813 367.4 194.913C370.46 200.233 373.053 202.473 375.853 203.647Z" fill="black"/>
</g>
<g opacity="0.1">
<path d="M140 105.92L122.44 121.02C107.833 118.687 96.6266 116.92 90.8933 116.02L95.0667 97.28C96.3667 97.48 114.28 100.913 140 105.92Z" fill="black"/>
<path d="M184.907 131.127L174 129.333L163.867 110.587L179.927 113.76L184.907 131.127Z" fill="black"/>
<path d="M246.334 127.107L234 139.26L223.047 137.42L231.807 124.147C236.674 125.129 241.516 126.116 246.334 127.107Z" fill="black"/>
<path d="M343.04 148.62L338.793 158.547C336.753 157.973 333.68 157.253 329.727 156.42L326.667 144.32C334.36 146.133 340.04 147.607 343.04 148.62Z" fill="black"/>
</g>
<path d="M139.16 213.453C114.987 212.287 96.5932 184.907 98.1532 152.427C98.8932 136.927 104.02 122.513 112.58 111.84C121.427 100.813 132.847 95.0267 144.847 95.6333C156.847 96.24 167.66 103.04 175.4 114.873C182.9 126.3 186.62 141.147 185.867 156.66C184.387 187.393 165.547 211.86 143.033 213.413C141.744 213.5 140.451 213.513 139.16 213.453V213.453ZM118.733 116.787C111.207 126.153 106.667 138.953 106 152.813C104.667 180.947 119.687 204.62 139.527 205.573C159.367 206.527 176.613 184.413 177.98 156.24C178.647 142.38 175.373 129.213 168.793 119.153C162.453 109.493 153.807 103.927 144.447 103.48C143.45 103.42 142.45 103.42 141.453 103.48C133.16 104.113 125.187 108.733 118.733 116.773V116.787ZM98.1865 156.553C96.9665 132.793 99.6265 129.073 98.5465 122.067C98.0332 118.733 93.3398 115.533 93.3398 115.533L97.4398 98.4733C97.4398 98.4733 110.22 99.72 113.167 99.7667C118.407 99.84 129.72 96.0133 139.573 95.7667C139.573 95.7667 118.153 105.393 111.267 117.667C104.38 129.94 98.1865 156.54 98.1865 156.54V156.553Z" fill="#7165E3"/>
<path opacity="0.1" d="M139.16 213.453C114.987 212.287 96.5932 184.907 98.1532 152.427C98.8932 136.927 104.02 122.513 112.58 111.84C121.427 100.813 132.847 95.0267 144.847 95.6333C156.847 96.24 167.66 103.04 175.4 114.873C182.9 126.3 186.62 141.147 185.867 156.66C184.387 187.393 165.547 211.86 143.033 213.413C141.744 213.5 140.451 213.513 139.16 213.453V213.453ZM118.733 116.787C111.207 126.153 106.667 138.953 106 152.813C104.667 180.947 119.687 204.62 139.527 205.573C159.367 206.527 176.613 184.413 177.98 156.24C178.647 142.38 175.373 129.213 168.793 119.153C162.453 109.493 153.807 103.927 144.447 103.48C143.45 103.42 142.45 103.42 141.453 103.48C133.16 104.113 125.187 108.733 118.733 116.773V116.787ZM98.1865 156.553C96.9665 132.793 99.6265 129.073 98.5465 122.067C98.0332 118.733 93.3398 115.533 93.3398 115.533L97.4398 98.4733C97.4398 98.4733 110.22 99.72 113.167 99.7667C118.407 99.84 129.72 96.0133 139.573 95.7667C139.573 95.7667 118.153 105.393 111.267 117.667C104.38 129.94 98.1865 156.54 98.1865 156.54V156.553Z" fill="black"/>
<path d="M135.873 213.453C111.693 212.287 93.3 184.907 94.86 152.427C95.6 136.927 100.727 122.513 109.287 111.84C118.133 100.813 129.553 95.0267 141.553 95.6333C153.553 96.24 164.367 103.04 172.107 114.873C179.607 126.3 183.327 141.147 182.573 156.66C181.093 187.393 162.253 211.86 139.74 213.413C138.453 213.5 137.162 213.513 135.873 213.453V213.453ZM115.44 116.787C107.913 126.167 103.4 138.967 102.733 152.827C101.4 180.96 116.413 204.633 136.253 205.587C156.093 206.54 173.34 184.427 174.707 156.253C175.373 142.393 172.1 129.227 165.52 119.167C159.187 109.507 150.533 103.94 141.173 103.493C140.176 103.433 139.177 103.433 138.18 103.493C129.873 104.113 121.893 108.733 115.44 116.773V116.787ZM94.8933 156.553C93.6733 132.793 96.3333 129.073 95.2533 122.067C94.74 118.733 90.0466 115.533 90.0466 115.533L94.3333 96.52C94.3333 96.52 107.327 98.82 110.267 98.86C115.507 98.94 126.427 96.0133 136.267 95.7933C136.267 95.7933 114.847 105.42 107.96 117.693C101.073 129.967 94.8933 156.54 94.8933 156.54V156.553Z" fill="#7165E3"/>
<path d="M107.147 105.22C106.993 106.4 104.8 107.08 102.247 106.74C99.6932 106.4 97.7599 105.167 97.9199 103.993C98.0799 102.82 100.267 102.133 102.82 102.473C105.373 102.813 107.333 104.04 107.147 105.22Z" fill="#A6A6A6"/>
<path d="M99.04 104.033C99.2467 103.467 101.467 102.827 103.893 103.48Z" fill="white"/>
<path d="M93.3334 115.687C97.9467 118.273 99.9201 122.087 99.4001 127.367C98.8867 136.527 97.8534 145.6 97.8401 154.76C97.7771 159.331 98.0714 163.901 98.7201 168.427C95.7667 157.267 96.6467 145.5 97.6867 134.133L98.3534 127.307C99.0734 122.2 97.4601 118.707 93.3201 115.687H93.3334Z" fill="white"/>
<path d="M117.427 99.96C123.827 98.1333 130.473 96.6267 137.167 96.9267C130.5 97.52 124.027 99.0133 117.427 99.96Z" fill="white"/>
<path opacity="0.1" d="M117.42 117.26C110.147 126.593 105.787 139.313 105.133 153.1C103.833 181.1 118.367 204.62 137.54 205.573C156.713 206.527 173.387 184.527 174.707 156.54C175.373 142.76 172.193 129.66 165.833 119.66C159.707 110.047 151.347 104.513 142.293 104.067C141.33 104.007 140.364 104.007 139.4 104.067C131.367 104.667 123.66 109.253 117.42 117.26Z" fill="#EBEBEB"/>
<g opacity="0.2">
<path d="M154.213 107.827L105.08 158.38C105.033 156.633 105.08 154.88 105.14 153.093C105.373 147.877 106.173 142.702 107.527 137.66L140.193 104.067C140.86 104.067 141.6 104.067 142.307 104.067C146.527 104.307 150.62 105.6 154.213 107.827V107.827Z" fill="white"/>
<path d="M171.333 131.333L114.113 190.207C113.061 188.575 112.108 186.88 111.26 185.133L169.067 125.653C169.929 127.502 170.686 129.399 171.333 131.333Z" fill="white"/>
<path d="M173.56 166.507C172.861 170.304 171.84 174.036 170.507 177.66L143.873 205.06C141.794 205.509 139.665 205.681 137.54 205.573C136.94 205.54 136.34 205.493 135.747 205.413L173.56 166.507Z" fill="white"/>
<path d="M173.667 140.393L119.1 196.533C118.84 196.28 118.593 196.013 118.353 195.74L173.413 139.073C173.513 139.513 173.587 139.96 173.667 140.393Z" fill="white"/>
</g>
<path d="M214.48 158.113L219.813 152.32C211.24 144.387 191.06 133.307 175.94 148.007L181.433 153.66C194.98 140.467 213.687 157.393 214.48 158.113Z" fill="#7165E3"/>
<path d="M265.507 220.667C250.116 217.841 236.476 209.022 227.582 196.148C218.689 183.273 215.269 167.394 218.073 152V152C220.174 140.521 225.631 129.922 233.755 121.544C241.879 113.166 252.305 107.386 263.714 104.933C275.123 102.48 287.004 103.466 297.853 107.765C308.702 112.064 318.033 119.483 324.666 129.085C331.298 138.686 334.935 150.039 335.116 161.708C335.296 173.376 332.013 184.836 325.681 194.639C319.349 204.442 310.252 212.146 299.541 216.779C288.83 221.412 276.986 222.765 265.507 220.667V220.667ZM225.833 153.44C223.934 163.902 225.35 174.697 229.883 184.315C234.417 193.934 241.841 201.896 251.119 207.091C260.397 212.285 271.066 214.452 281.636 213.289C292.205 212.126 302.148 207.691 310.074 200.603C318.001 193.515 323.516 184.128 325.849 173.754C328.182 163.38 327.217 152.536 323.088 142.737C318.959 132.938 311.873 124.673 302.819 119.097C293.765 113.521 283.195 110.911 272.587 111.633C261.259 112.425 250.517 116.963 242.052 124.532C233.587 132.101 227.882 142.271 225.833 153.44V153.44Z" fill="#7165E3"/>
<path d="M328.667 137.413C324.607 123.933 300.96 109.113 300.96 109.113C310.533 111.467 321.093 116.253 326.227 117.32C329.107 117.913 346.573 119.7 346.573 119.7L346.64 143.647C346.64 143.647 341.84 143.913 340.64 147.053C338.067 153.66 339.367 155.26 333.02 178.18C332.96 178.18 332.667 150.887 328.667 137.413Z" fill="#7165E3"/>
<g opacity="0.1">
<path d="M265.507 220.667C250.116 217.841 236.476 209.022 227.582 196.148C218.689 183.273 215.269 167.394 218.073 152V152C220.174 140.521 225.631 129.922 233.755 121.544C241.879 113.166 252.305 107.386 263.714 104.933C275.123 102.48 287.004 103.466 297.853 107.765C308.702 112.064 318.033 119.483 324.666 129.085C331.298 138.686 334.935 150.039 335.116 161.708C335.296 173.376 332.013 184.836 325.681 194.639C319.349 204.442 310.252 212.146 299.541 216.779C288.83 221.412 276.986 222.765 265.507 220.667V220.667ZM225.833 153.44C223.934 163.902 225.35 174.697 229.883 184.315C234.417 193.934 241.841 201.896 251.119 207.091C260.397 212.285 271.066 214.452 281.636 213.289C292.205 212.126 302.148 207.691 310.074 200.603C318.001 193.515 323.516 184.128 325.849 173.754C328.182 163.38 327.217 152.536 323.088 142.737C318.959 132.938 311.873 124.673 302.819 119.097C293.765 113.521 283.195 110.911 272.587 111.633C261.259 112.425 250.517 116.963 242.052 124.532C233.587 132.101 227.882 142.271 225.833 153.44V153.44Z" fill="black"/>
<path d="M328.667 137.413C324.607 123.933 300.96 109.113 300.96 109.113C310.533 111.467 321.093 116.253 326.227 117.32C329.107 117.913 346.573 119.7 346.573 119.7L346.64 143.647C346.64 143.647 341.84 143.913 340.64 147.053C338.067 153.66 339.367 155.26 333.02 178.18C332.96 178.18 332.667 150.887 328.667 137.413Z" fill="black"/>
</g>
<path d="M260.26 219.807C244.882 216.98 231.252 208.171 222.36 195.309C213.468 182.448 210.04 166.585 212.827 151.2V151.2C214.914 139.708 220.363 129.093 228.485 120.699C236.607 112.305 247.036 106.509 258.453 104.044C269.87 101.58 281.762 102.557 292.623 106.854C303.485 111.15 312.827 118.571 319.469 128.179C326.111 137.787 329.754 149.149 329.936 160.827C330.118 172.506 326.832 183.976 320.493 193.787C314.154 203.597 305.048 211.306 294.326 215.939C283.604 220.572 271.749 221.92 260.26 219.813V219.807ZM220.587 152.613C218.679 163.084 220.091 173.889 224.624 183.519C229.156 193.148 236.584 201.121 245.869 206.323C255.154 211.525 265.833 213.697 276.412 212.534C286.991 211.372 296.943 206.933 304.877 199.839C312.811 192.745 318.33 183.349 320.664 172.965C322.997 162.581 322.029 151.727 317.893 141.921C313.757 132.114 306.662 123.844 297.597 118.267C288.532 112.69 277.951 110.084 267.333 110.813C256.008 111.606 245.268 116.144 236.805 123.711C228.342 131.279 222.636 141.447 220.587 152.613V152.613Z" fill="#7165E3"/>
<path d="M323.387 136.587C319.327 123.107 295.68 108.287 295.68 108.287C305.254 110.64 315.814 115.427 320.947 116.493C323.827 117.087 341.294 118.873 341.294 118.873L341.36 140.8C341.36 140.8 336.56 142.253 335.36 145.387C332.78 151.993 334.08 154.433 327.734 177.387C327.714 177.333 327.447 150.06 323.387 136.587Z" fill="#7165E3"/>
<path d="M333.813 128.72C333.653 129.9 331.46 130.58 328.913 130.24C326.367 129.9 324.42 128.673 324.58 127.493C324.74 126.313 326.933 125.633 329.48 125.973C332.027 126.313 334 127.547 333.813 128.72Z" fill="#A6A6A6"/>
<path d="M325.7 127.54C325.907 126.973 328.127 126.327 330.554 126.987Z" fill="white"/>
<path d="M243.887 112.58C248.942 108.73 255.133 106.669 261.487 106.72C255.487 108.48 249.713 110.387 243.887 112.58Z" fill="white"/>
<path d="M218.92 142C221.907 130.073 231.88 118.567 242.86 113.2C232.58 120.533 223.96 130.373 218.92 142Z" fill="white"/>
<path opacity="0.1" d="M223.02 152.613C218.087 180.327 236.073 206.993 263.127 212.053C290.18 217.113 316.193 198.673 321.127 170.967C326.06 143.26 308.067 116.58 281.013 111.527C276.945 110.761 272.796 110.521 268.667 110.813C246.447 112.38 227.193 129.18 223.02 152.613Z" fill="#EBEBEB"/>
<g opacity="0.2">
<path d="M321.894 164.147L274.367 212.813C270.602 212.987 266.83 212.723 263.127 212.027C261.524 211.729 259.937 211.349 258.374 210.887L320 147.76C321.506 153.085 322.145 158.618 321.894 164.147V164.147Z" fill="white"/>
<path d="M278.467 111.12L222.62 168.347C221.959 163.112 222.094 157.808 223.02 152.613C223.247 151.32 223.533 150.033 223.853 148.773L259.333 112.393C262.385 111.563 265.511 111.034 268.667 110.813C271.935 110.578 275.219 110.681 278.467 111.12V111.12Z" fill="white"/>
<path d="M313.793 133.86L244.8 204.527C243.224 203.478 241.713 202.336 240.273 201.107L310.467 129.22C311.665 130.701 312.776 132.25 313.793 133.86V133.86Z" fill="white"/>
<path d="M292.207 115.033L226.46 182.367C225.634 180.452 224.926 178.488 224.34 176.487L286.467 112.833C288.424 113.447 290.341 114.182 292.207 115.033V115.033Z" fill="white"/>
<path d="M321.253 170.26C321.22 170.493 321.173 170.733 321.133 170.967C321.067 171.38 320.987 171.793 320.9 172.193L282.233 211.82C281.613 211.953 280.98 212.073 280.34 212.18L321.253 170.26Z" fill="white"/>
<path d="M306.54 124.887L236.06 197.1C235.806 196.833 235.56 196.56 235.32 196.287L305.753 124.12L306.54 124.887Z" fill="white"/>
</g>
</svg>
