<svg width="375" height="213" viewBox="0 0 375 213" fill="none" xmlns="http://www.w3.org/2000/svg">
<path d="M146.237 -73.8359C148.585 -75.8282 152.209 -74.5318 152.761 -71.5024L181.299 85.2698C181.851 88.2992 178.916 90.7896 176.017 89.7525L25.9788 36.0817C23.0795 35.0445 22.3901 31.2578 24.738 29.2655L146.237 -73.8359Z" fill="#857CE9"/>
<path d="M253.085 167.707C251.605 169.347 251.728 171.888 253.459 173.26C265.332 182.667 280.263 187.472 295.481 186.689C312.035 185.838 327.573 178.446 338.677 166.138C349.781 153.831 355.54 137.616 354.689 121.062C353.907 105.844 347.596 91.4844 337.021 80.6393C335.478 79.0577 332.938 79.1961 331.459 80.8364L292.272 124.272L253.085 167.707Z" fill="#857CE9"/>
<circle cx="145" cy="165" r="32" fill="#857CE9"/>
</svg>
