<svg width="375" height="260" viewBox="0 0 375 260" fill="none" xmlns="http://www.w3.org/2000/svg">
<rect width="375" height="170.298" fill="#8B80F8"/>
<path fill-rule="evenodd" clip-rule="evenodd" d="M0 180.315L13 186.326C25 192.336 50 203.355 75 209.366C100 214.375 125 214.375 150 212.371C175 210.368 200 207.362 225 218.382C250 229.401 275 256.448 300 259.453C325 263.46 350 244.427 363 235.411L375 226.396V169.296H363C350 169.296 325 169.296 300 169.296C275 169.296 250 169.296 225 169.296C200 169.296 175 169.296 150 169.296C125 169.296 100 169.296 75 169.296C50 169.296 25 169.296 13 169.296H0V180.315Z" fill="#8B80F8"/>
<path d="M150.237 -104.836C152.585 -106.828 156.209 -105.532 156.761 -102.502L185.299 54.2698C185.851 57.2992 182.916 59.7896 180.017 58.7525L29.9788 5.08165C27.0795 4.04453 26.3901 0.257768 28.738 -1.73453L150.237 -104.836Z" fill="#857CE9"/>
<path d="M254.085 139.707C252.605 141.347 252.728 143.888 254.459 145.26C266.332 154.667 281.263 159.472 296.481 158.689C313.035 157.838 328.573 150.446 339.677 138.138C350.781 125.831 356.54 109.616 355.689 93.0622C354.907 77.8439 348.596 63.4844 338.021 52.6393C336.478 51.0577 333.938 51.1961 332.459 52.8364L293.272 96.2717L254.085 139.707Z" fill="#857CE9"/>
<circle cx="141" cy="149" r="32" fill="#857CE9"/>
</svg>
