<svg width="375" height="300" viewBox="0 0 375 300" fill="none" xmlns="http://www.w3.org/2000/svg">
<rect width="375" height="210.318" fill="#8B80F8"/>
<path fill-rule="evenodd" clip-rule="evenodd" d="M0 220.334L13 226.343C25 232.352 50 243.368 75 249.378C100 254.385 125 254.385 150 252.382C175 250.379 200 247.375 225 258.391C250 269.408 275 296.449 300 299.453C325 303.459 350 284.431 363 275.417L375 266.403V209.317H363C350 209.317 325 209.317 300 209.317C275 209.317 250 209.317 225 209.317C200 209.317 175 209.317 150 209.317C125 209.317 100 209.317 75 209.317C50 209.317 25 209.317 13 209.317H0V220.334Z" fill="#8B80F8"/>
<path d="M150.237 -55.8359C152.585 -57.8282 156.209 -56.5318 156.761 -53.5024L185.299 103.27C185.851 106.299 182.916 108.79 180.017 107.752L29.9788 54.0817C27.0795 53.0445 26.3901 49.2578 28.738 47.2655L150.237 -55.8359Z" fill="#857CE9"/>
<path d="M254.085 188.707C252.605 190.347 252.728 192.888 254.459 194.26C266.332 203.667 281.263 208.472 296.481 207.689C313.035 206.838 328.573 199.446 339.677 187.138C350.781 174.831 356.54 158.616 355.689 142.062C354.907 126.844 348.596 112.484 338.021 101.639C336.478 100.058 333.938 100.196 332.459 101.836L293.272 145.272L254.085 188.707Z" fill="#857CE9"/>
<circle cx="141" cy="198" r="32" fill="#857CE9"/>
</svg>
