<svg width="150" height="150" viewBox="0 0 150 150" fill="none" xmlns="http://www.w3.org/2000/svg">
<g clip-path="url(#clip0_40_122)">
<path d="M52.584 114V100.59H53.844L61.71 111.876H61.224V100.59H62.664V114H61.404L53.538 102.642H54.024V114H52.584ZM69.51 114.216C68.838 114.216 68.226 114.06 67.674 113.748C67.122 113.424 66.684 112.98 66.36 112.416C66.048 111.84 65.892 111.18 65.892 110.436V104.352H67.242V110.274C67.242 110.79 67.344 111.246 67.548 111.642C67.764 112.026 68.058 112.326 68.43 112.542C68.814 112.758 69.252 112.866 69.744 112.866C70.236 112.866 70.674 112.758 71.058 112.542C71.442 112.314 71.742 111.996 71.958 111.588C72.174 111.168 72.282 110.67 72.282 110.094V104.352H73.632V114H72.282V112.128L72.588 112.2C72.36 112.824 71.97 113.316 71.418 113.676C70.866 114.036 70.23 114.216 69.51 114.216ZM80.5481 114.108C79.6841 114.108 79.0181 113.856 78.5501 113.352C78.0821 112.848 77.8481 112.128 77.8481 111.192V105.702H76.0661V104.352H76.5161C76.9241 104.352 77.2481 104.22 77.4881 103.956C77.7281 103.68 77.8481 103.338 77.8481 102.93V102.12H79.1981V104.352H81.3221V105.702H79.1981V111.192C79.1981 111.516 79.2461 111.804 79.3421 112.056C79.4381 112.296 79.6001 112.488 79.8281 112.632C80.0681 112.776 80.3861 112.848 80.7821 112.848C80.8781 112.848 80.9921 112.842 81.1241 112.83C81.2561 112.818 81.3701 112.806 81.4661 112.794V114C81.3221 114.036 81.1601 114.06 80.9801 114.072C80.8001 114.096 80.6561 114.108 80.5481 114.108ZM84.2869 114V104.352H85.6369V105.936L85.4569 105.702C85.6849 105.246 86.0269 104.886 86.4829 104.622C86.9509 104.358 87.5149 104.226 88.1749 104.226H88.7869V105.576H87.9409C87.2449 105.576 86.6869 105.792 86.2669 106.224C85.8469 106.656 85.6369 107.268 85.6369 108.06V114H84.2869ZM90.819 114V104.352H92.169V114H90.819ZM90.819 102.57V100.59H92.169V102.57H90.819ZM99.072 114.108C98.208 114.108 97.542 113.856 97.074 113.352C96.606 112.848 96.372 112.128 96.372 111.192V105.702H94.59V104.352H95.04C95.448 104.352 95.772 104.22 96.012 103.956C96.252 103.68 96.372 103.338 96.372 102.93V102.12H97.722V104.352H99.846V105.702H97.722V111.192C97.722 111.516 97.77 111.804 97.866 112.056C97.962 112.296 98.124 112.488 98.352 112.632C98.592 112.776 98.91 112.848 99.306 112.848C99.402 112.848 99.516 112.842 99.648 112.83C99.78 112.818 99.894 112.806 99.99 112.794V114C99.846 114.036 99.684 114.06 99.504 114.072C99.324 114.096 99.18 114.108 99.072 114.108ZM102.811 114V104.352H104.161V114H102.811ZM102.811 102.57V100.59H104.161V102.57H102.811ZM111.892 114.216C110.98 114.216 110.152 114 109.408 113.568C108.664 113.124 108.07 112.524 107.626 111.768C107.194 111 106.978 110.13 106.978 109.158C106.978 108.198 107.194 107.34 107.626 106.584C108.058 105.828 108.64 105.234 109.372 104.802C110.116 104.358 110.956 104.136 111.892 104.136C112.828 104.136 113.662 104.352 114.394 104.784C115.138 105.216 115.72 105.81 116.14 106.566C116.572 107.322 116.788 108.186 116.788 109.158C116.788 110.142 116.566 111.018 116.122 111.786C115.678 112.542 115.084 113.136 114.34 113.568C113.608 114 112.792 114.216 111.892 114.216ZM111.892 112.866C112.54 112.866 113.122 112.704 113.638 112.38C114.166 112.056 114.58 111.612 114.88 111.048C115.192 110.484 115.348 109.854 115.348 109.158C115.348 108.462 115.192 107.838 114.88 107.286C114.58 106.734 114.166 106.296 113.638 105.972C113.122 105.648 112.54 105.486 111.892 105.486C111.244 105.486 110.656 105.648 110.128 105.972C109.612 106.296 109.198 106.734 108.886 107.286C108.574 107.838 108.418 108.462 108.418 109.158C108.418 109.854 108.574 110.484 108.886 111.048C109.198 111.612 109.612 112.056 110.128 112.38C110.656 112.704 111.244 112.866 111.892 112.866ZM119.619 114V104.352H120.969V106.224L120.663 106.152C120.903 105.528 121.293 105.036 121.833 104.676C122.385 104.316 123.021 104.136 123.741 104.136C124.425 104.136 125.037 104.292 125.577 104.604C126.129 104.916 126.561 105.348 126.873 105.9C127.197 106.44 127.359 107.052 127.359 107.736V114H126.009V108.258C126.009 107.67 125.901 107.172 125.685 106.764C125.481 106.356 125.187 106.044 124.803 105.828C124.431 105.6 123.999 105.486 123.507 105.486C123.015 105.486 122.577 105.6 122.193 105.828C121.809 106.044 121.509 106.362 121.293 106.782C121.077 107.19 120.969 107.682 120.969 108.258V114H119.619Z" fill="white"/>
<path d="M62.484 95.682C60.468 95.682 58.704 95.226 57.192 94.314C55.68 93.402 54.504 92.166 53.664 90.606C52.824 89.046 52.404 87.318 52.404 85.422C52.404 83.454 52.824 81.714 53.664 80.202C54.528 78.666 55.692 77.454 57.156 76.566C58.644 75.678 60.3 75.234 62.124 75.234C63.66 75.234 65.004 75.486 66.156 75.99C67.332 76.494 68.328 77.19 69.144 78.078C69.96 78.966 70.584 79.986 71.016 81.138C71.448 82.266 71.664 83.49 71.664 84.81C71.664 85.146 71.64 85.494 71.592 85.854C71.568 86.214 71.508 86.526 71.412 86.79H56.292V83.19H68.748L66.516 84.882C66.732 83.778 66.672 82.794 66.336 81.93C66.024 81.066 65.496 80.382 64.752 79.878C64.032 79.374 63.156 79.122 62.124 79.122C61.14 79.122 60.264 79.374 59.496 79.878C58.728 80.358 58.14 81.078 57.732 82.038C57.348 82.974 57.204 84.114 57.3 85.458C57.204 86.658 57.36 87.726 57.768 88.662C58.2 89.574 58.824 90.282 59.64 90.786C60.48 91.29 61.44 91.542 62.52 91.542C63.6 91.542 64.512 91.314 65.256 90.858C66.024 90.402 66.624 89.79 67.056 89.022L70.872 90.894C70.488 91.83 69.888 92.658 69.072 93.378C68.256 94.098 67.284 94.662 66.156 95.07C65.052 95.478 63.828 95.682 62.484 95.682ZM82.1509 95.682C80.0629 95.682 78.2389 95.19 76.6789 94.206C75.1429 93.198 74.0869 91.842 73.5109 90.138L77.0389 88.446C77.5429 89.55 78.2389 90.414 79.1269 91.038C80.0389 91.662 81.0469 91.974 82.1509 91.974C83.0149 91.974 83.6989 91.782 84.2029 91.398C84.7069 91.014 84.9589 90.51 84.9589 89.886C84.9589 89.502 84.8509 89.19 84.6349 88.95C84.4429 88.686 84.1669 88.47 83.8069 88.302C83.4709 88.11 83.0989 87.954 82.6909 87.834L79.4869 86.934C77.8309 86.454 76.5709 85.722 75.7069 84.738C74.8669 83.754 74.4469 82.59 74.4469 81.246C74.4469 80.046 74.7469 79.002 75.3469 78.114C75.9709 77.202 76.8229 76.494 77.9029 75.99C79.0069 75.486 80.2669 75.234 81.6829 75.234C83.5309 75.234 85.1629 75.678 86.5789 76.566C87.9949 77.454 89.0029 78.702 89.6029 80.31L86.0029 82.002C85.6669 81.114 85.1029 80.406 84.3109 79.878C83.5189 79.35 82.6309 79.086 81.6469 79.086C80.8549 79.086 80.2309 79.266 79.7749 79.626C79.3189 79.986 79.0909 80.454 79.0909 81.03C79.0909 81.39 79.1869 81.702 79.3789 81.966C79.5709 82.23 79.8349 82.446 80.1709 82.614C80.5309 82.782 80.9389 82.938 81.3949 83.082L84.5269 84.018C86.1349 84.498 87.3709 85.218 88.2349 86.178C89.1229 87.138 89.5669 88.314 89.5669 89.706C89.5669 90.882 89.2549 91.926 88.6309 92.838C88.0069 93.726 87.1429 94.422 86.0389 94.926C84.9349 95.43 83.6389 95.682 82.1509 95.682ZM100.103 95.682C98.0152 95.682 96.1912 95.19 94.6312 94.206C93.0952 93.198 92.0392 91.842 91.4632 90.138L94.9912 88.446C95.4952 89.55 96.1912 90.414 97.0792 91.038C97.9912 91.662 98.9992 91.974 100.103 91.974C100.967 91.974 101.651 91.782 102.155 91.398C102.659 91.014 102.911 90.51 102.911 89.886C102.911 89.502 102.803 89.19 102.587 88.95C102.395 88.686 102.119 88.47 101.759 88.302C101.423 88.11 101.051 87.954 100.643 87.834L97.4392 86.934C95.7832 86.454 94.5232 85.722 93.6592 84.738C92.8192 83.754 92.3992 82.59 92.3992 81.246C92.3992 80.046 92.6992 79.002 93.2992 78.114C93.9232 77.202 94.7752 76.494 95.8552 75.99C96.9592 75.486 98.2192 75.234 99.6352 75.234C101.483 75.234 103.115 75.678 104.531 76.566C105.947 77.454 106.955 78.702 107.555 80.31L103.955 82.002C103.619 81.114 103.055 80.406 102.263 79.878C101.471 79.35 100.583 79.086 99.5992 79.086C98.8072 79.086 98.1832 79.266 97.7272 79.626C97.2712 79.986 97.0432 80.454 97.0432 81.03C97.0432 81.39 97.1392 81.702 97.3312 81.966C97.5232 82.23 97.7872 82.446 98.1232 82.614C98.4832 82.782 98.8912 82.938 99.3472 83.082L102.479 84.018C104.087 84.498 105.323 85.218 106.187 86.178C107.075 87.138 107.519 88.314 107.519 89.706C107.519 90.882 107.207 91.926 106.583 92.838C105.959 93.726 105.095 94.422 103.991 94.926C102.887 95.43 101.591 95.682 100.103 95.682Z" fill="white"/>
<path d="M0.154144 29.421C0.15637 29.4799 0.583159 40.5506 7.34591 53.2564C10.9689 60.0634 17.2089 64.7633 21.524 66.2018C25.8391 67.6399 30.1571 67.0688 31.5925 69.0784C34.6747 73.3935 35.5479 93.0589 35.7534 94.1468C35.9589 95.2346 37.4551 106.27 38.7844 110.996C39.4474 113.354 41.196 117.16 41.8125 118.394C42.429 119.626 45.375 123.75 48.1875 126C50.1833 127.596 54.633 130.042 57.0495 131.329C57.4106 131.521 57.7605 131.083 57.4976 130.77C55.9789 128.961 53.4566 125.96 52.6875 125.062C51.5625 123.75 49.6901 120.444 49.125 118.394C48.0682 115.689 47.3647 112.851 46.8491 110.996C45.822 107.298 45.1541 100.722 45.1541 94.1468C45.1541 87.5715 45.9761 84.2839 47.4143 79.1468C48.8528 74.0096 58.0995 56.544 62.6197 58.3935C67.1404 60.2426 74.5376 62.0921 78.4417 62.0921C82.3459 62.0921 86.0445 61.8866 91.7981 60.4481C97.5514 59.0096 104.949 55.5165 110.497 51.2018C115.545 47.2748 128.593 32.9669 130.899 30.4248C131.073 30.2334 131.009 29.937 130.77 29.8392C128.115 28.754 115.05 23.5377 106.593 22.4345C97.1404 21.2016 89.3321 21.2016 78.2363 25.3112C68.91 28.7654 60.0195 43.5424 57.4207 48.168C57.2269 48.513 57.6326 48.8738 57.9589 48.6503C60.5708 46.8634 66.7046 42.8591 72.483 40.5165C80.0857 37.4345 90.1541 37.0235 92.2087 37.4345C94.2637 37.8454 82.0755 39.4406 71.661 44.0096C63.0645 47.7814 57.483 51.6124 52.5514 56.133C47.6197 60.6536 38.3734 82.0234 38.7844 79.9688C39.1954 77.9138 36.7295 66.2018 32.8254 58.8045C29.8541 53.1746 24.3834 44.3314 21.9388 40.4269C21.7128 40.0658 22.1477 39.6945 22.4668 39.9769C24.7581 42.003 28.7944 45.7804 31.5925 49.5578C34.9303 54.0638 38.268 62.2298 39.4043 65.1379C39.5359 65.475 40.0148 65.4559 40.1032 65.1049C40.7726 62.4585 42.3116 55.5435 41.661 50.1743C40.839 43.3935 39.8115 39.4894 30.976 30.6536C22.1404 21.818 2.00345 15.0372 0.770543 16.2701C-0.45927 17.4999 0.151055 29.3611 0.154123 29.4206C0.154218 29.4224 0.154075 29.4192 0.154144 29.421Z" fill="white"/>
<path d="M3.77232 64.4824C2.13326 64.2405 0.602022 65.3726 0.425731 67.02C-0.750025 78.0075 0.515619 89.1326 4.14748 99.5951C8.10763 111.003 14.7641 121.287 23.5508 129.571C32.3375 137.855 42.9945 143.895 54.6161 147.177C66.2378 150.459 78.48 150.886 90.3023 148.422C102.124 145.959 113.177 140.676 122.52 133.025C131.862 125.374 139.22 115.579 143.966 104.475C148.712 93.3705 150.706 81.2842 149.779 69.2437C148.929 58.2015 145.645 47.4971 140.178 37.8941C139.358 36.4542 137.502 36.0279 136.096 36.9046C134.69 37.7813 134.267 39.6285 135.082 41.0715C140.041 49.8525 143.021 59.6254 143.796 69.7043C144.649 80.7814 142.814 91.9009 138.448 102.117C134.082 112.333 127.313 121.344 118.718 128.383C110.123 135.422 99.9544 140.282 89.0779 142.549C78.2018 144.815 66.9386 144.422 56.247 141.403C45.555 138.383 35.7505 132.826 27.6667 125.205C19.5829 117.584 13.459 108.123 9.81568 97.6275C6.50068 88.0777 5.32843 77.928 6.36658 67.8971C6.53713 66.249 5.41141 64.7246 3.77232 64.4824Z" fill="white"/>
</g>
<defs>
<clipPath id="clip0_40_122">
<rect width="150" height="150" fill="white"/>
</clipPath>
</defs>
</svg>
